<svg xmlns="http://www.w3.org/2000/svg" viewBox="0 0 120 120"><title>icon-user</title><g id="Layer_1" data-name="Layer 1"><rect width="120" height="120" style="fill:none"/></g><g id="Layer_2" data-name="Layer 2"><path d="M71.86,98H69.49V71.86a9.49,9.49,0,1,0-19,0V98H48.14V71.86a11.86,11.86,0,0,1,23.72,0Z" transform="translate(0 0)" style="fill:#1e96dd"/><path d="M60,79a7.12,7.12,0,0,1-7.12-7.12h2.37a4.75,4.75,0,1,0,9.49,0h2.37A7.12,7.12,0,0,1,60,79" transform="translate(0 0)" style="fill:#1e96dd"/><rect x="55.25" y="86.1" width="9.49" height="2.37" style="fill:#1e96dd"/><rect x="55.25" y="90.84" width="9.49" height="2.37" style="fill:#1e96dd"/><rect x="35.09" y="38.65" width="21.35" height="2.37" style="fill:#1e96dd"/><rect x="58.81" y="38.65" width="2.37" height="2.37" style="fill:#1e96dd"/><rect x="63.56" y="36.28" width="2.37" height="21.35" style="fill:#1e96dd"/><rect x="46.95" y="26.79" width="2.37" height="13.05" style="fill:#1e96dd"/><path d="M61.18,36.28H58.81V32.72A1.19,1.19,0,0,1,60,31.53H75.42V33.9H61.18Z" transform="translate(0 0)" style="fill:#1e96dd"/><rect x="58.81" y="48.14" width="2.37" height="9.49" style="fill:#1e96dd"/><path d="M79,45.77H68.3V43.39h9.49V26.79h2.37V44.58A1.19,1.19,0,0,1,79,45.77" transform="translate(0 0)" style="fill:#1e96dd"/><path d="M56.44,57.63H54.07V44.58a1.18,1.18,0,0,1,1.18-1.19h5.93v2.38H56.44Z" transform="translate(0 0)" style="fill:#1e96dd"/><rect x="77.79" y="22.04" width="2.37" height="2.37" style="fill:#1e96dd"/><rect x="46.95" y="22.04" width="2.37" height="2.37" style="fill:#1e96dd"/><rect x="82.54" y="31.53" width="2.37" height="2.37" style="fill:#1e96dd"/><rect x="87.28" y="31.53" width="2.37" height="2.37" style="fill:#1e96dd"/><rect x="92.03" y="31.53" width="2.37" height="2.37" style="fill:#1e96dd"/><rect x="89.65" y="50.51" width="2.37" height="2.37" style="fill:#1e96dd"/><rect x="30.34" y="38.65" width="2.37" height="2.37" style="fill:#1e96dd"/><rect x="25.6" y="38.65" width="2.37" height="2.37" style="fill:#1e96dd"/><rect x="27.97" y="26.79" width="2.37" height="2.37" style="fill:#1e96dd"/><rect x="37.46" y="22.04" width="2.37" height="2.37" style="fill:#1e96dd"/><path d="M51.69,57.63H49.32V50.51H38.65a1.19,1.19,0,0,1-1.19-1.19V43.39h2.37v4.75H50.51a1.18,1.18,0,0,1,1.18,1.18Z" transform="translate(0 0)" style="fill:#1e96dd"/><path d="M39.83,36.28H37.46V29.16H32.71V26.79h5.94A1.18,1.18,0,0,1,39.83,28Z" transform="translate(0 0)" style="fill:#1e96dd"/><path d="M70.67,57.63H68.3V51.7a1.19,1.19,0,0,1,1.19-1.19H87.28v2.37H70.67Z" transform="translate(0 0)" style="fill:#1e96dd"/><rect x="49.32" y="43.39" width="2.37" height="2.37" style="fill:#1e96dd"/><rect x="44.58" y="43.39" width="2.37" height="2.37" style="fill:#1e96dd"/><path d="M65.93,29.16H63.56V24.41H51.69V22h13a1.19,1.19,0,0,1,1.19,1.19Z" transform="translate(0 0)" style="fill:#1e96dd"/><path d="M84.91,48.14H82.54V44.58a1.18,1.18,0,0,1,1.18-1.19H92v2.38H84.91Z" transform="translate(0 0)" style="fill:#1e96dd"/><rect x="74.23" y="67.12" width="2.37" height="2.37" style="fill:#1e96dd"/><rect x="74.23" y="71.86" width="2.37" height="2.37" style="fill:#1e96dd"/><rect x="74.23" y="76.61" width="2.37" height="2.37" style="fill:#1e96dd"/><rect x="43.39" y="67.12" width="2.37" height="2.37" style="fill:#1e96dd"/><rect x="43.39" y="71.86" width="2.37" height="2.37" style="fill:#1e96dd"/><rect x="43.39" y="76.61" width="2.37" height="2.37" style="fill:#1e96dd"/><rect x="37.46" y="52.88" width="9.49" height="2.37" style="fill:#1e96dd"/><rect x="32.71" y="52.88" width="2.37" height="2.37" style="fill:#1e96dd"/><path d="M45.76,93.21H38.65a6,6,0,0,1-5.94-5.93V57.63h2.38V87.28a3.56,3.56,0,0,0,3.56,3.56h7.11Z" transform="translate(0 0)" style="fill:#1e96dd"/><path d="M81.35,93.21H74.23V90.84h7.12a3.56,3.56,0,0,0,3.56-3.56V57.63h2.37V87.28a5.94,5.94,0,0,1-5.93,5.93" transform="translate(0 0)" style="fill:#1e96dd"/><rect x="52.88" y="69.49" width="2.37" height="2.37" style="fill:#1e96dd"/><rect x="64.74" y="69.49" width="2.37" height="2.37" style="fill:#1e96dd"/></g></svg>