<svg xmlns="http://www.w3.org/2000/svg" viewBox="0 0 120 120"><title>icon-registration</title><g id="Layer_1" data-name="Layer 1"><rect width="120" height="120" style="fill:none"/></g><g id="Layer_2" data-name="Layer 2"><path d="M24.61,26.58H45.84V92.65H24.61ZM22.25,95h26V24.22H22.25Z" transform="translate(0 0)" style="fill:#1e96dd"/><rect x="50.56" y="24.22" width="18.88" height="2.36" style="fill:#1e96dd"/><rect x="50.56" y="92.65" width="18.88" height="2.36" style="fill:#1e96dd"/><path d="M74.16,26.58H95.39V92.65H74.16ZM71.8,95h26V24.22H71.8Z" transform="translate(0 0)" style="fill:#1e96dd"/><path d="M60,76.13a4.72,4.72,0,1,0,4.72,4.72A4.73,4.73,0,0,0,60,76.13m0,11.8a7.08,7.08,0,1,1,7.08-7.08A7.09,7.09,0,0,1,60,87.93" transform="translate(0 0)" style="fill:#1e96dd"/><path d="M84.78,76.13a4.72,4.72,0,1,0,4.72,4.72,4.72,4.72,0,0,0-4.72-4.72m0,11.8a7.08,7.08,0,1,1,7.07-7.08,7.09,7.09,0,0,1-7.07,7.08" transform="translate(0 0)" style="fill:#1e96dd"/><path d="M35.22,76.13a4.72,4.72,0,1,0,4.72,4.72,4.73,4.73,0,0,0-4.72-4.72m0,11.8a7.08,7.08,0,1,1,7.08-7.08,7.08,7.08,0,0,1-7.08,7.08" transform="translate(0 0)" style="fill:#1e96dd"/><rect x="23.43" y="66.69" width="20.06" height="2.36" style="fill:#1e96dd"/><rect x="50.56" y="66.69" width="18.88" height="2.36" style="fill:#1e96dd"/><rect x="76.52" y="66.69" width="20.06" height="2.36" style="fill:#1e96dd"/><path d="M29.32,62h11.8V31.3H29.32Zm14.16,2.36H27V28.94H43.48Z" transform="translate(0 0)" style="fill:#1e96dd"/><rect x="34.04" y="36.02" width="2.36" height="2.36" style="fill:#1e96dd"/><rect x="34.04" y="54.89" width="2.36" height="2.36" style="fill:#1e96dd"/><rect x="31.68" y="40.74" width="7.08" height="2.36" style="fill:#1e96dd"/><rect x="31.68" y="45.46" width="7.08" height="2.36" style="fill:#1e96dd"/><rect x="31.68" y="50.18" width="7.08" height="2.36" style="fill:#1e96dd"/><path d="M54.1,62H65.9V31.3H54.1Zm14.16,2.36H51.74V28.94H68.26Z" transform="translate(0 0)" style="fill:#1e96dd"/><rect x="58.82" y="36.02" width="2.36" height="2.36" style="fill:#1e96dd"/><rect x="58.82" y="54.89" width="2.36" height="2.36" style="fill:#1e96dd"/><rect x="56.46" y="40.74" width="7.08" height="2.36" style="fill:#1e96dd"/><rect x="56.46" y="45.46" width="7.08" height="2.36" style="fill:#1e96dd"/><rect x="56.46" y="50.18" width="7.08" height="2.36" style="fill:#1e96dd"/><path d="M78.88,62h11.8V31.3H78.88ZM93,64.33H76.52V28.94H93Z" transform="translate(0 0)" style="fill:#1e96dd"/><rect x="83.6" y="36.02" width="2.36" height="2.36" style="fill:#1e96dd"/><rect x="83.6" y="54.89" width="2.36" height="2.36" style="fill:#1e96dd"/><rect x="81.24" y="40.74" width="7.08" height="2.36" style="fill:#1e96dd"/><rect x="81.24" y="45.46" width="7.08" height="2.36" style="fill:#1e96dd"/><rect x="81.24" y="50.18" width="7.08" height="2.36" style="fill:#1e96dd"/></g></svg>