<svg xmlns="http://www.w3.org/2000/svg" viewBox="0 0 120 120"><title>icon-shipment</title><g id="Layer_1" data-name="Layer 1"><rect width="120" height="120" style="fill:none"/></g><g id="Layer_2" data-name="Layer 2"><polygon points="22.36 29.51 22.36 77.44 29.37 77.44 29.37 75.1 24.7 75.1 24.7 31.85 69.12 31.85 69.12 75.1 48.08 75.1 48.08 77.44 71.46 77.44 71.46 29.51 22.36 29.51" style="fill:#1e96dd"/><rect x="31.71" y="61.07" width="35.07" height="2.34" style="fill:#1e96dd"/><rect x="48.08" y="65.75" width="18.7" height="2.34" style="fill:#1e96dd"/><path d="M52.75,55.23a1.16,1.16,0,0,1-.51-.12,1.18,1.18,0,0,1-.66-1V50.55h-28V48.21H52.75a1.17,1.17,0,0,1,1.17,1.17v2.29l7.45-5.79-7.45-5.8v2.29a1.17,1.17,0,0,1-1.17,1.17H23.53V41.2H51.58V37.69a1.19,1.19,0,0,1,.66-1,1.17,1.17,0,0,1,1.23.13L64,45a1.18,1.18,0,0,1,0,1.85L53.47,55a1.19,1.19,0,0,1-.72.25" transform="translate(0 0)" style="fill:#1e96dd"/><path d="M24.7,63.41H27v4.68H24.7Zm-2.34,7h7V61.07h-7Z" transform="translate(0 0)" style="fill:#1e96dd"/><path d="M92.5,68.09h2.34v2.34H92.5Zm-2.34,4.67h7v-7h-7Z" transform="translate(0 0)" style="fill:#1e96dd"/><path d="M38.72,76.27a5.85,5.85,0,1,0,5.85,5.85,5.85,5.85,0,0,0-5.85-5.85m0,14a8.19,8.19,0,1,1,8.19-8.18,8.19,8.19,0,0,1-8.19,8.18" transform="translate(0 0)" style="fill:#1e96dd"/><path d="M38.72,84.45a2.34,2.34,0,1,1,2.34-2.33,2.33,2.33,0,0,1-2.34,2.33" transform="translate(0 0)" style="fill:#1e96dd"/><path d="M83.15,76.27A5.85,5.85,0,1,0,89,82.12a5.85,5.85,0,0,0-5.84-5.85m0,14a8.19,8.19,0,1,1,8.18-8.18,8.19,8.19,0,0,1-8.18,8.18" transform="translate(0 0)" style="fill:#1e96dd"/><path d="M83.15,84.45a2.34,2.34,0,1,1,2.34-2.33,2.34,2.34,0,0,1-2.34,2.33" transform="translate(0 0)" style="fill:#1e96dd"/><polygon points="69.12 44.71 69.12 77.44 73.79 77.44 73.79 75.1 71.46 75.1 71.46 47.05 84.85 47.05 94.84 62.59 94.84 75.1 92.5 75.1 92.5 77.44 97.18 77.44 97.18 61.9 86.12 44.71 69.12 44.71" style="fill:#1e96dd"/><rect x="74.96" y="61.07" width="21.04" height="2.34" style="fill:#1e96dd"/><polygon points="76.13 72.76 73.79 72.76 73.79 49.38 87.82 49.38 87.82 51.72 76.13 51.72 76.13 72.76" style="fill:#1e96dd"/><rect x="78.47" y="65.75" width="2.34" height="2.34" style="fill:#1e96dd"/><rect x="22.36" y="87.96" width="74.82" height="2.34" style="fill:#1e96dd"/><rect x="44.57" y="52.89" width="2.34" height="2.34" style="fill:#1e96dd"/><rect x="39.89" y="52.89" width="2.34" height="2.34" style="fill:#1e96dd"/><rect x="35.22" y="52.89" width="2.34" height="2.34" style="fill:#1e96dd"/></g></svg>