<svg xmlns="http://www.w3.org/2000/svg" viewBox="0 0 120 120"><title>icon-distributor</title><g id="Layer_1" data-name="Layer 1"><rect width="120" height="120" style="fill:none"/></g><g id="Layer_2" data-name="Layer 2"><path d="M59.9,52.85c-11,0-16.68,2.5-16.68,3.57S48.89,60,59.9,60s16.69-2.51,16.69-3.58-5.68-3.57-16.69-3.57m0,9.53c-9.18,0-19.07-1.86-19.07-6s9.89-6,19.07-6S79,52.33,79,56.42s-9.88,6-19.07,6" transform="translate(0 0)" style="fill:#1e96dd"/><path d="M82.55,71.92H81.36V69.54h1.19A13.13,13.13,0,0,0,95.66,56.42c0-6.79-4.61-11.91-10.73-11.91H83.74v-1.2c0-4.61-2.51-9.53-9.54-9.53H72.31L72,33.16a17.53,17.53,0,0,0-15.64-8.92A17.9,17.9,0,0,0,38.45,42.12v1.19H37.26a13.12,13.12,0,1,0,0,26.23h1.19v2.38H37.26A15.5,15.5,0,0,1,36.1,41,20.28,20.28,0,0,1,56.33,21.86,19.91,19.91,0,0,1,73.7,31.39h.5c6.86,0,11.41,4.2,11.88,10.78,6.9.6,12,6.52,12,14.25a15.51,15.51,0,0,1-15.49,15.5" transform="translate(0 0)" style="fill:#1e96dd"/><path d="M45.6,43.31H43.22c0-7.62,6.12-14.3,13.11-14.3v2.38c-5.07,0-10.73,5.1-10.73,11.92" transform="translate(0 0)" style="fill:#1e96dd"/><path d="M59.9,74.3c-9.18,0-19.07-1.86-19.07-6V61.19h2.39v7.15c0,1.07,5.67,3.58,16.68,3.58s16.69-2.51,16.69-3.58V61.19H79v7.15c0,4.1-9.88,6-19.07,6" transform="translate(0 0)" style="fill:#1e96dd"/><path d="M59.9,86.22c-9.18,0-19.07-1.86-19.07-6V73.11h2.39v7.15c0,1.07,5.67,3.58,16.68,3.58s16.69-2.51,16.69-3.58V73.11H79v7.15c0,4.1-9.88,6-19.07,6" transform="translate(0 0)" style="fill:#1e96dd"/><path d="M59.9,98.14c-9.18,0-19.07-1.86-19.07-6V85h2.39v7.15c0,1.07,5.67,3.58,16.68,3.58s16.69-2.51,16.69-3.58V85H79v7.15c0,4.1-9.88,6-19.07,6" transform="translate(0 0)" style="fill:#1e96dd"/><rect x="58.71" y="65.96" width="2.38" height="2.38" style="fill:#1e96dd"/><rect x="53.94" y="65.96" width="2.38" height="2.38" style="fill:#1e96dd"/><rect x="63.48" y="65.96" width="2.38" height="2.38" style="fill:#1e96dd"/><rect x="58.71" y="77.88" width="2.38" height="2.38" style="fill:#1e96dd"/><rect x="53.94" y="77.88" width="2.38" height="2.38" style="fill:#1e96dd"/><rect x="63.48" y="77.88" width="2.38" height="2.38" style="fill:#1e96dd"/><rect x="58.71" y="89.8" width="2.38" height="2.38" style="fill:#1e96dd"/><rect x="53.94" y="89.8" width="2.38" height="2.38" style="fill:#1e96dd"/><rect x="63.48" y="89.8" width="2.38" height="2.38" style="fill:#1e96dd"/></g></svg>