<svg xmlns="http://www.w3.org/2000/svg" viewBox="0 0 366 366"><title>icon-expected-salary</title><path d="M348.6,118.1,301.9,40.2a5.5,5.5,0,0,0-4.5-2.5H69.1a5.5,5.5,0,0,0-4.5,2.5L17.9,118.1a5.3,5.3,0,0,0,.4,5.9L179.2,326.3a5.1,5.1,0,0,0,8.1,0L348.2,124A5.3,5.3,0,0,0,348.6,118.1Zm-115.1,7.8L183.3,304,133,125.9Zm-97.1-10.4,46.9-63.8,46.8,63.8Zm57.1-67.4h93.7L240.3,112ZM126.2,112,79.3,48.1H173Zm45.1,187.7L33.1,125.9h89.1Zm73-173.8h89.1L195.3,299.7Zm6.3-10.4L297,52.3l38,63.2ZM69.5,52.3l46.4,63.2H31.6Z" transform="translate(-0.3)" style="fill:#7f50c7"/><rect width="366" height="366" style="fill:none"/></svg>