<svg xmlns="http://www.w3.org/2000/svg" viewBox="0 0 120 120"><title>icon-consultance</title><g id="Layer_1" data-name="Layer 1"><rect width="120" height="120" style="fill:none"/></g><g id="Layer_2" data-name="Layer 2"><path d="M42.48,67.13a2.38,2.38,0,1,0,0,4.75H75.75a2.38,2.38,0,1,0,0-4.75Zm33.27,7.13H42.48a4.76,4.76,0,1,1,0-9.51H75.75a4.76,4.76,0,1,1,0,9.51" transform="translate(0 0)" style="fill:#1e96dd"/><path d="M76.94,65.94H74.57V31.48a7.13,7.13,0,0,0-7.13-7.13H50.8a7.13,7.13,0,0,0-7.13,7.13V65.94H41.29V31.48A9.52,9.52,0,0,1,50.8,22H67.44a9.51,9.51,0,0,1,9.5,9.51Z" transform="translate(0 0)" style="fill:#1e96dd"/><polygon points="72.19 79.02 46.04 79.02 46.04 73.07 48.42 73.07 48.42 76.64 69.81 76.64 69.81 73.07 72.19 73.07 72.19 79.02" style="fill:#1e96dd"/><rect x="57.93" y="83.77" width="2.38" height="13.07" style="fill:#1e96dd"/><rect x="50.8" y="36.23" width="2.38" height="2.38" style="fill:#1e96dd"/><rect x="50.8" y="43.36" width="2.38" height="2.38" style="fill:#1e96dd"/><rect x="50.8" y="50.49" width="2.38" height="2.38" style="fill:#1e96dd"/><rect x="50.8" y="57.62" width="2.38" height="2.38" style="fill:#1e96dd"/><rect x="57.93" y="36.23" width="2.38" height="2.38" style="fill:#1e96dd"/><rect x="57.93" y="43.36" width="2.38" height="2.38" style="fill:#1e96dd"/><rect x="57.93" y="50.49" width="2.38" height="2.38" style="fill:#1e96dd"/><rect x="57.93" y="57.62" width="2.38" height="2.38" style="fill:#1e96dd"/><rect x="65.06" y="36.23" width="2.38" height="2.38" style="fill:#1e96dd"/><rect x="65.06" y="43.36" width="2.38" height="2.38" style="fill:#1e96dd"/><rect x="65.06" y="50.49" width="2.38" height="2.38" style="fill:#1e96dd"/><rect x="65.06" y="57.62" width="2.38" height="2.38" style="fill:#1e96dd"/><path d="M78.13,96.84H75.76c0-4.38-3.85-5.94-7.14-5.94h-19c-3.29,0-7.13,1.56-7.13,5.94H40.1c0-5,3.82-8.32,9.51-8.32h19c5.69,0,9.51,3.35,9.51,8.32" transform="translate(0 0)" style="fill:#1e96dd"/><path d="M80.51,70.7H79.32V68.32h1.19a2.39,2.39,0,0,0,2.38-2.38V58.81h2.37v7.13a4.76,4.76,0,0,1-4.75,4.76" transform="translate(0 0)" style="fill:#1e96dd"/><path d="M38.91,70.7H37.72A4.76,4.76,0,0,1,33,65.94V58.81h2.38v7.13a2.38,2.38,0,0,0,2.37,2.38h1.19Z" transform="translate(0 0)" style="fill:#1e96dd"/><path d="M59.12,85A7.13,7.13,0,0,1,52,77.83h2.37a4.76,4.76,0,0,0,9.51,0h2.38A7.14,7.14,0,0,1,59.12,85" transform="translate(0 0)" style="fill:#1e96dd"/><rect x="29.4" y="95.65" width="59.42" height="2.38" style="fill:#1e96dd"/><path d="M85.26,60H79.32V57.62h5.94a1.19,1.19,0,1,0,0-2.37H79.32V52.87h5.94a3.57,3.57,0,1,1,0,7.13" transform="translate(0 0)" style="fill:#1e96dd"/><path d="M38.91,60H33a3.57,3.57,0,1,1,0-7.13h5.94v2.38H33a1.19,1.19,0,1,0,0,2.37h5.94Z" transform="translate(0 0)" style="fill:#1e96dd"/></g></svg>