<svg xmlns="http://www.w3.org/2000/svg" viewBox="-10 -16 140 140"><defs><style>.a{fill:none;}.b{fill:#fff;}</style></defs><title>icon-translation</title><rect class="a" width="120" height="120"/><path class="b" d="M84.19,48.53a26.77,26.77,0,0,0-48.38,0l-2.42-1.15a29.45,29.45,0,0,1,53.22,0Z"/><path class="b" d="M60,89.45A29.62,29.62,0,0,1,33.39,72.63l2.42-1.15a26.78,26.78,0,0,0,48.38,0l2.42,1.15A29.6,29.6,0,0,1,60,89.45"/><path class="b" d="M82.18,91.86l-1.53-2.2A36.29,36.29,0,0,0,63.87,23.85l.29-2.66a39,39,0,0,1,18,70.67"/><path class="b" d="M55.84,98.81a39,39,0,0,1-18-70.67l1.53,2.2A36.29,36.29,0,0,0,56.13,96.15Z"/><path class="b" d="M60,19.84a2.68,2.68,0,1,0,2.68,2.68A2.68,2.68,0,0,0,60,19.84m0,8a5.36,5.36,0,1,1,5.35-5.36A5.36,5.36,0,0,1,60,27.88"/><path class="b" d="M60,94.8a2.68,2.68,0,1,0,2.68,2.68A2.68,2.68,0,0,0,60,94.8m0,8a5.36,5.36,0,1,1,5.35-5.35A5.36,5.36,0,0,1,60,102.83"/><rect class="b" x="35.91" y="58.66" width="48.19" height="2.68"/><path class="b" d="M60,46.61c-8.16,0-15.75-2-20.83-5.39L40.67,39c4.65,3.14,11.69,4.94,19.33,4.94S74.69,42.14,79.33,39l1.5,2.22C75.75,44.65,68.16,46.61,60,46.61"/><path class="b" d="M79.33,81C74.68,77.86,67.64,76.06,60,76.06S45.32,77.86,40.67,81l-1.5-2.22c5.08-3.43,12.67-5.4,20.83-5.4s15.75,2,20.83,5.4Z"/><path class="b" d="M31.89,57.32A2.68,2.68,0,1,0,34.57,60a2.68,2.68,0,0,0-2.68-2.68m0,8A5.35,5.35,0,1,1,37.25,60a5.36,5.36,0,0,1-5.36,5.35"/><path class="b" d="M88.11,57.32A2.68,2.68,0,1,0,90.79,60a2.68,2.68,0,0,0-2.68-2.68m0,8A5.35,5.35,0,1,1,93.46,60a5.36,5.36,0,0,1-5.35,5.35"/><path class="b" d="M60,33.23c-3.79,0-8,11.45-8,26.77s4.24,26.77,8,26.77S68,75.32,68,60s-4.24-26.77-8-26.77m0,56.22c-7,0-10.71-15.17-10.71-29.45S53.05,30.55,60,30.55,70.71,45.72,70.71,60,67,89.45,60,89.45"/></svg>