<svg xmlns="http://www.w3.org/2000/svg" viewBox="0 0 120 120"><title>icon-streaming</title><g id="Layer_1" data-name="Layer 1"><rect width="120" height="120" style="fill:none"/></g><g id="Layer_2" data-name="Layer 2"><path d="M43.2,24.26A4.77,4.77,0,0,0,38.44,29V91a4.77,4.77,0,0,0,4.76,4.77h31A4.78,4.78,0,0,0,78.94,91V29a4.78,4.78,0,0,0-4.77-4.77Zm31,73.86h-31A7.16,7.16,0,0,1,36.05,91V29a7.16,7.16,0,0,1,7.15-7.15h31A7.16,7.16,0,0,1,81.32,29V91a7.16,7.16,0,0,1-7.15,7.15" transform="translate(0 0)" style="fill:#1e96dd"/><path d="M43.2,86.21h31v-50h-31Zm33.35,2.38H40.82V33.79H76.55Z" transform="translate(0 0)" style="fill:#1e96dd"/><rect x="56.3" y="90.97" width="4.76" height="2.38" style="fill:#1e96dd"/><rect x="50.35" y="27.84" width="2.38" height="2.38" style="fill:#1e96dd"/><rect x="55.11" y="27.84" width="11.91" height="2.38" style="fill:#1e96dd"/><rect x="47.97" y="79.06" width="2.38" height="2.38" style="fill:#1e96dd"/><rect x="52.73" y="79.06" width="2.38" height="2.38" style="fill:#1e96dd"/><rect x="57.49" y="79.06" width="2.38" height="2.38" style="fill:#1e96dd"/><rect x="62.26" y="79.06" width="2.38" height="2.38" style="fill:#1e96dd"/><rect x="67.02" y="79.06" width="2.38" height="2.38" style="fill:#1e96dd"/><rect x="47.97" y="40.94" width="2.38" height="2.38" style="fill:#1e96dd"/><rect x="52.73" y="40.94" width="2.38" height="2.38" style="fill:#1e96dd"/><rect x="57.49" y="40.94" width="2.38" height="2.38" style="fill:#1e96dd"/><rect x="62.26" y="40.94" width="2.38" height="2.38" style="fill:#1e96dd"/><rect x="67.02" y="40.94" width="2.38" height="2.38" style="fill:#1e96dd"/><rect x="47.97" y="46.9" width="2.38" height="2.38" style="fill:#1e96dd"/><rect x="52.73" y="46.9" width="2.38" height="2.38" style="fill:#1e96dd"/><rect x="57.49" y="46.9" width="2.38" height="2.38" style="fill:#1e96dd"/><rect x="62.26" y="46.9" width="2.38" height="2.38" style="fill:#1e96dd"/><rect x="67.02" y="46.9" width="2.38" height="2.38" style="fill:#1e96dd"/><rect x="47.97" y="52.85" width="2.38" height="2.38" style="fill:#1e96dd"/><rect x="52.73" y="52.85" width="2.38" height="2.38" style="fill:#1e96dd"/><rect x="57.49" y="52.85" width="2.38" height="2.38" style="fill:#1e96dd"/><rect x="62.26" y="52.85" width="2.38" height="2.38" style="fill:#1e96dd"/><rect x="67.02" y="52.85" width="2.38" height="2.38" style="fill:#1e96dd"/><rect x="47.97" y="58.81" width="2.38" height="2.38" style="fill:#1e96dd"/><rect x="52.73" y="58.81" width="2.38" height="2.38" style="fill:#1e96dd"/><rect x="57.49" y="58.81" width="2.38" height="2.38" style="fill:#1e96dd"/><rect x="62.26" y="58.81" width="2.38" height="2.38" style="fill:#1e96dd"/><rect x="67.02" y="58.81" width="2.38" height="2.38" style="fill:#1e96dd"/><rect x="47.97" y="64.77" width="2.38" height="2.38" style="fill:#1e96dd"/><rect x="52.73" y="64.77" width="2.38" height="2.38" style="fill:#1e96dd"/><rect x="57.49" y="64.77" width="2.38" height="2.38" style="fill:#1e96dd"/></g></svg>