<svg xmlns="http://www.w3.org/2000/svg" viewBox="0 0 120 120"><title>icon-production</title><g id="Layer_1" data-name="Layer 1"><rect width="120" height="120" style="fill:none"/></g><g id="Layer_2" data-name="Layer 2"><path d="M61.65,91l2,4.63a36.31,36.31,0,0,0,5-.88l.32-5,.76-.25c.56-.19,1.11-.39,1.66-.6l.74-.3,3.48,3.65A36.94,36.94,0,0,0,80,89.67L78.6,84.83l.64-.5c.45-.37.9-.74,1.34-1.13l.6-.54,4.52,2.25A36.69,36.69,0,0,0,89,81L86,77l.42-.68c.31-.5.61-1,.89-1.53l.38-.7,5,.56a37.3,37.3,0,0,0,1.74-4.77l-4.2-2.79.16-.79c.12-.57.21-1.15.3-1.73l.11-.8,4.9-1.19c.06-.87.09-1.71.09-2.54s0-1.67-.09-2.54l-4.9-1.19-.11-.8c-.09-.58-.18-1.16-.3-1.73L90.22,53l4.2-2.79a37.3,37.3,0,0,0-1.74-4.77l-5,.56-.38-.7c-.28-.52-.58-1-.89-1.53L86,43,89,39a36.69,36.69,0,0,0-3.26-3.89l-4.52,2.25-.6-.54c-.44-.39-.89-.76-1.34-1.13l-.64-.5L80,30.33a36.94,36.94,0,0,0-4.4-2.54l-3.48,3.65-.74-.3c-.55-.21-1.1-.41-1.66-.6L69,30.29l-.32-5a36.31,36.31,0,0,0-5-.88l-2,4.63-1,0H59.33l-1,0-2-4.63a36.45,36.45,0,0,0-5,.88l-.31,5-.77.25q-.84.29-1.65.6l-.75.3L44.3,27.79a36.81,36.81,0,0,0-4.39,2.54l1.42,4.84-.63.5c-.46.37-.91.74-1.35,1.13l-.6.54-4.52-2.25A37.93,37.93,0,0,0,31,39L34,43l-.43.68c-.3.5-.6,1-.88,1.53l-.38.7-5-.56a34.5,34.5,0,0,0-1.74,4.77L29.72,53l-.16.79c-.12.57-.22,1.15-.3,1.73l-.12.8-4.9,1.19c-.06.87-.09,1.71-.09,2.54s0,1.67.09,2.54l4.9,1.19.12.8c.08.58.18,1.16.3,1.73l.16.79-4.2,2.79a34.5,34.5,0,0,0,1.74,4.77l5-.56.38.7c.28.52.58,1,.88,1.53L34,77,31,81a37.93,37.93,0,0,0,3.26,3.89l4.52-2.25.6.54c.44.39.89.76,1.35,1.13l.63.5-1.42,4.84a36.81,36.81,0,0,0,4.39,2.54l3.48-3.65.75.3q.81.31,1.65.6l.77.25.31,5a36.45,36.45,0,0,0,5,.88l2-4.63,1,0c.42,0,.85,0,1.28,0Zm.52,7.15L60.1,93.43h-.27l-2.06,4.71-.85-.07a38.47,38.47,0,0,1-7.11-1.24L49,96.6l-.33-5.14-.26-.09L44.85,95.1l-.77-.36a38.44,38.44,0,0,1-6.25-3.61l-.7-.5,1.46-4.94-.21-.17-4.62,2.29-.6-.6a38.58,38.58,0,0,1-4.65-5.53L28,81l3-4.14c0-.08-.09-.16-.14-.24l-5.12.57-.36-.77A37.71,37.71,0,0,1,23,69.62l-.22-.82,4.3-2.86a2.56,2.56,0,0,1-.05-.27l-5-1.21-.07-.85c-.12-1.24-.18-2.45-.18-3.61s.06-2.37.18-3.61l.07-.85,5-1.21a2.56,2.56,0,0,1,.05-.27l-4.3-2.86.22-.82a37.71,37.71,0,0,1,2.47-6.78l.36-.77,5.12.57c0-.08.1-.16.14-.24L28,39l.48-.7a38.58,38.58,0,0,1,4.65-5.53l.6-.6,4.62,2.29.21-.17-1.46-4.94.7-.5a38.44,38.44,0,0,1,6.25-3.61l.77-.36,3.55,3.73.26-.09L49,23.4l.82-.23a38.47,38.47,0,0,1,7.11-1.24l.85-.07,2.06,4.71h.27l2.07-4.71.84.07a38.57,38.57,0,0,1,7.12,1.24l.82.23.32,5.14.26.09,3.55-3.73.78.36a38.44,38.44,0,0,1,6.25,3.61l.69.5-1.45,4.94.2.17,4.62-2.29.61.6a37.87,37.87,0,0,1,4.64,5.53l.48.7-3.05,4.14.14.24,5.12-.57.37.77A37.71,37.71,0,0,1,97,50.38l.21.82-4.29,2.86a2.56,2.56,0,0,0,0,.27l5,1.21.08.85c.11,1.24.17,2.45.17,3.61s-.06,2.37-.17,3.61l-.08.85-5,1.21a2.56,2.56,0,0,0,0,.27l4.29,2.86-.21.82a37.71,37.71,0,0,1-2.47,6.78l-.37.77L89,76.6l-.14.24L91.9,81l-.48.7a37.87,37.87,0,0,1-4.64,5.53l-.61.6-4.62-2.29-.2.17,1.45,4.94-.69.5a38.44,38.44,0,0,1-6.25,3.61l-.78.36-3.55-3.73-.26.09L71,96.6l-.82.23A38.57,38.57,0,0,1,63,98.07Z" transform="translate(0 0)" style="fill:#1e96dd"/><path d="M36.09,60H33.7A26.3,26.3,0,0,1,60,33.73v2.39A23.9,23.9,0,0,0,36.09,60" transform="translate(0 0)" style="fill:#1e96dd"/><path d="M60,86.27V83.88A23.91,23.91,0,0,0,83.85,60h2.38A26.3,26.3,0,0,1,60,86.27" transform="translate(0 0)" style="fill:#1e96dd"/><path d="M61.6,73l.43.57,1.82,2.65a16.51,16.51,0,0,0,2.52-.83l-.1-3.89.58-.36A13.62,13.62,0,0,0,68.46,70l.53-.44,3.66,1.3a15.85,15.85,0,0,0,1.57-2.14l-2.37-3.09.26-.63a12.85,12.85,0,0,0,.61-1.9l.16-.67,3.74-1.1c0-.48.06-.91.06-1.33s0-.85-.06-1.33l-3.74-1.1-.16-.67a12.85,12.85,0,0,0-.61-1.9l-.26-.63,2.37-3.09a15.85,15.85,0,0,0-1.57-2.14L69,50.44,68.46,50a13.62,13.62,0,0,0-1.61-1.17l-.58-.36.1-3.89a16.51,16.51,0,0,0-2.52-.83L61.65,47l-.69,0a12.6,12.6,0,0,0-1.94,0l-.69.06-.43-.57-1.82-2.65a16.88,16.88,0,0,0-2.52.83l.11,3.89-.59.36A13.62,13.62,0,0,0,51.47,50l-.52.44-3.67-1.3a16.76,16.76,0,0,0-1.57,2.14l2.38,3.09-.27.63a13.67,13.67,0,0,0-.6,1.9l-.16.67-3.74,1.1a12.67,12.67,0,0,0,0,2.66l3.74,1.1.16.67a13.67,13.67,0,0,0,.6,1.9l.27.63-2.38,3.09a16.76,16.76,0,0,0,1.57,2.14L51,69.56l.52.44a13.62,13.62,0,0,0,1.61,1.17l.59.36-.11,3.89a16.88,16.88,0,0,0,2.52.83L58.29,73l.68,0a12.74,12.74,0,0,0,2,0Zm1.17,5.87-2.32-3.39h-1L57.16,78.9l-.77-.14a19.62,19.62,0,0,1-4.56-1.49l-.7-.34.11-4.11c-.27-.18-.53-.37-.77-.56l-3.88,1.38-.53-.57a19.1,19.1,0,0,1-2.83-3.87l-.38-.68,2.52-3.27c-.11-.29-.21-.6-.3-.91l-3.94-1.17L41,62.4a17,17,0,0,1,0-4.8l.1-.77,3.94-1.17c.09-.31.19-.62.3-.91l-2.52-3.27.38-.68a19.1,19.1,0,0,1,2.83-3.87l.53-.57,3.88,1.38c.24-.19.5-.38.77-.56l-.11-4.11.7-.34a19.62,19.62,0,0,1,4.56-1.49l.77-.14,2.33,3.39a7.69,7.69,0,0,1,1,0l2.32-3.39.77.14a19.47,19.47,0,0,1,4.56,1.49l.71.34-.12,4.11c.27.18.53.37.78.56l3.87-1.38.53.57a19,19,0,0,1,2.84,3.87l.37.68-2.51,3.27c.1.29.2.6.29.92l4,1.16.09.77a17,17,0,0,1,0,4.8l-.09.77-4,1.16c-.09.32-.19.63-.29.92l2.51,3.27-.37.68a19,19,0,0,1-2.84,3.87l-.53.57-3.87-1.38c-.25.19-.51.38-.78.56l.12,4.11-.71.34a19.47,19.47,0,0,1-4.56,1.49Z" transform="translate(0 0)" style="fill:#1e96dd"/><path d="M60,54a6,6,0,1,0,6,6,6,6,0,0,0-6-6m0,14.33A8.36,8.36,0,1,1,68.32,60,8.37,8.37,0,0,1,60,68.36" transform="translate(0 0)" style="fill:#1e96dd"/></g></svg>