<?xml version="1.0" encoding="utf-8"?>
<!-- Generator: Adobe Illustrator 23.0.4, SVG Export Plug-In . SVG Version: 6.00 Build 0)  -->
<svg version="1.1" id="Layer_1" xmlns="http://www.w3.org/2000/svg" xmlns:xlink="http://www.w3.org/1999/xlink" x="0px" y="0px"
	 viewBox="0 0 120 120" style="enable-background:new 0 0 120 120;" xml:space="preserve">
<style type="text/css">
	.st0{fill:none;}
	.st1{fill:#FFFFFF;}
</style>
<title>icon-articles</title>
<g>
	<rect class="st0" width="120" height="120"/>
</g>
<g>
	<polygon class="st1" points="79.1,26.6 79.1,29 87.4,29 87.4,95.8 37.3,95.8 37.3,92.2 35,92.2 35,98.1 89.8,98.1 89.8,26.6 	"/>
	<rect x="37.3" y="40.9" class="st1" width="40.5" height="2.4"/>
	<rect x="37.3" y="45.7" class="st1" width="40.5" height="2.4"/>
	<rect x="37.3" y="50.5" class="st1" width="40.5" height="2.4"/>
	<rect x="37.3" y="55.2" class="st1" width="16.7" height="2.4"/>
	<rect x="37.3" y="68.3" class="st1" width="2.4" height="17.9"/>
	<rect x="42.1" y="74.3" class="st1" width="2.4" height="11.9"/>
	<rect x="46.9" y="63.6" class="st1" width="2.4" height="22.7"/>
	<rect x="51.7" y="70.7" class="st1" width="2.4" height="15.5"/>
	<rect x="56.4" y="66" class="st1" width="2.4" height="20.3"/>
	<rect x="61.2" y="73.1" class="st1" width="2.4" height="13.1"/>
	<rect x="66" y="70.7" class="st1" width="2.4" height="15.5"/>
	<rect x="70.7" y="62.4" class="st1" width="2.4" height="23.8"/>
	<rect x="75.5" y="66" class="st1" width="2.4" height="20.3"/>
	<polygon class="st1" points="82.7,33.8 73.1,33.8 73.1,24.2 75.5,24.2 75.5,31.4 82.7,31.4 	"/>
	<path class="st1" d="M32.6,24.2h41.2l8.8,8.8V91H32.6V24.2z M30.2,21.9v71.5H85V32.1L74.8,21.9H30.2z"/>
	<path class="st1" d="M39.7,36.2H66v-4.8H39.7V36.2z M68.3,38.5h-31V29h31V38.5z"/>
</g>
</svg>
