<svg xmlns="http://www.w3.org/2000/svg" viewBox="0 0 120 120"><title>icon-audiofiles</title><g id="Layer_1" data-name="Layer 1"><rect width="120" height="120" style="fill:none"/></g><g id="Layer_2" data-name="Layer 2"><path d="M88.47,98.28H31.21V90.52H85.78V36.59H73.91V24.73H34.22V88.47h-3V21.72H76L88.79,34.46V93.54H34.22v1.73H88.47ZM76.93,33.58h6.72l-6.72-6.72Zm-11,52.84H63.56v-3h2.37Zm-4.74,0H58.81v-3h2.38Zm-4.75,0H54.07v-3h2.37ZM49.32,74.56a5.07,5.07,0,1,1,2.06-9.7V49.37L71,43.77v21a5.07,5.07,0,1,1-5.07-5.07,5,5,0,0,1,2,.43v-7.6L54.39,56.39v13.1A5.08,5.08,0,0,1,49.32,74.56Zm0-7.12a2.05,2.05,0,1,0,2.06,2A2.05,2.05,0,0,0,49.32,67.44Zm16.61-4.75a2.06,2.06,0,1,0,2,2.06A2.05,2.05,0,0,0,65.93,62.69Zm-11.54-11v1.61L68,49.37V47.76Z" transform="translate(0 0)" style="fill:#1e96dd"/></g></svg>