<svg xmlns="http://www.w3.org/2000/svg" viewBox="0 0 120 120"><title>icon-audiobook-cover</title><g id="Layer_1" data-name="Layer 1"><rect width="120" height="120" style="fill:none"/></g><g id="Layer_2" data-name="Layer 2"><path d="M31.45,95.6h57.1V24.24H31.45ZM89.74,98H30.26a1.19,1.19,0,0,1-1.19-1.19V23.05a1.19,1.19,0,0,1,1.19-1.19H89.74a1.19,1.19,0,0,1,1.19,1.19V96.79A1.19,1.19,0,0,1,89.74,98" transform="translate(0 0)" style="fill:#1e96dd"/><rect x="38.59" y="23.05" width="2.38" height="73.75" style="fill:#1e96dd"/><polygon points="83.79 42.57 76.65 35.44 69.52 42.57 69.52 23.05 71.89 23.05 71.89 36.83 76.65 32.07 81.41 36.83 81.41 23.05 83.79 23.05 83.79 42.57" style="fill:#1e96dd"/><path d="M48.11,70.63h33.3V49.22H48.11ZM83.79,73H45.73V46.84H83.79Z" transform="translate(0 0)" style="fill:#1e96dd"/><rect x="52.86" y="58.73" width="23.79" height="2.38" style="fill:#1e96dd"/><rect x="52.86" y="63.49" width="23.79" height="2.38" style="fill:#1e96dd"/><rect x="33.83" y="26.62" width="2.38" height="66.61" style="fill:#1e96dd"/><rect x="63.57" y="53.97" width="2.38" height="2.38" style="fill:#1e96dd"/><rect x="58.81" y="53.97" width="2.38" height="2.38" style="fill:#1e96dd"/><rect x="68.33" y="53.97" width="2.38" height="2.38" style="fill:#1e96dd"/></g></svg>