<svg xmlns="http://www.w3.org/2000/svg" viewBox="0 0 120 120"><title>icon-translation</title><g id="Layer_1" data-name="Layer 1"><rect width="120" height="120" style="fill:none"/></g><g id="Layer_2" data-name="Layer 2"><polygon points="21.86 74.63 21.86 78.7 27.32 84.17 56.42 84.17 56.42 81.78 28.31 81.78 24.24 77.71 24.24 77.01 51.16 77.01 53.55 79.4 56.42 79.4 56.42 77.01 54.53 77.01 52.15 74.63 21.86 74.63" style="fill:#1e96dd"/><path d="M31.39,72.25H29V34.1a4.77,4.77,0,0,1,4.77-4.76H56.42v2.38H33.78a2.39,2.39,0,0,0-2.39,2.38Z" transform="translate(0 0)" style="fill:#1e96dd"/><polygon points="67.85 79.4 65.47 81.78 63.58 81.78 63.58 84.17 66.45 84.17 68.84 81.78 95.76 81.78 95.76 82.48 91.69 86.55 63.58 86.55 63.58 88.93 92.68 88.93 98.14 83.47 98.14 79.4 67.85 79.4" style="fill:#1e96dd"/><path d="M91,77H88.61V38.87a2.39,2.39,0,0,0-2.39-2.38H63.58V34.1H86.22A4.78,4.78,0,0,1,91,38.87Z" transform="translate(0 0)" style="fill:#1e96dd"/><rect x="58.81" y="67.48" width="2.38" height="23.84" style="fill:#1e96dd"/><rect x="58.81" y="50.79" width="2.38" height="9.54" style="fill:#1e96dd"/><rect x="58.81" y="26.95" width="2.38" height="16.69" style="fill:#1e96dd"/><path d="M60,65.09a9.54,9.54,0,0,1-9.54-9.53h2.39A7.16,7.16,0,0,0,60,62.71Z" transform="translate(0 0)" style="fill:#1e96dd"/><path d="M69.54,55.56H67.15A7.15,7.15,0,0,0,60,48.41V46a9.55,9.55,0,0,1,9.54,9.54" transform="translate(0 0)" style="fill:#1e96dd"/><rect x="60" y="62.71" width="9.54" height="2.38" style="fill:#1e96dd"/><rect x="50.46" y="46.02" width="9.54" height="2.38" style="fill:#1e96dd"/><polygon points="65.61 69.51 63.92 67.83 67.85 63.9 63.92 59.98 65.61 58.29 71.22 63.9 65.61 69.51" style="fill:#1e96dd"/><polygon points="54.39 52.83 48.78 47.21 54.39 41.6 56.07 43.29 52.15 47.21 56.07 51.14 54.39 52.83" style="fill:#1e96dd"/><polygon points="56.42 72.25 33.78 72.25 33.78 34.1 56.42 34.1 56.42 36.49 36.16 36.49 36.16 69.86 56.42 69.86 56.42 72.25" style="fill:#1e96dd"/><polygon points="86.22 77.01 63.58 77.01 63.58 74.63 83.84 74.63 83.84 41.26 63.58 41.26 63.58 38.87 86.22 38.87 86.22 77.01" style="fill:#1e96dd"/></g></svg>