<?xml version="1.0" encoding="utf-8"?>
<!-- Generator: Adobe Illustrator 23.0.4, SVG Export Plug-In . SVG Version: 6.00 Build 0)  -->
<svg version="1.1" id="Layer_1" xmlns="http://www.w3.org/2000/svg" xmlns:xlink="http://www.w3.org/1999/xlink" x="0px" y="0px"
	 viewBox="0 0 120 120" style="enable-background:new 0 0 120 120;" xml:space="preserve">
<style type="text/css">
	.st0{fill:none;}
	.st1{fill:#FFFFFF;}
</style>
<title>icon-publishing</title>
<g>
	<rect class="st0" width="120" height="120"/>
</g>
<g>
	<path class="st1" d="M31.6,95.5h56.8v-71H31.6V95.5z M89.6,97.9H30.4c-0.7,0-1.2-0.5-1.2-1.2l0,0V23.3c0-0.7,0.5-1.2,1.2-1.2l0,0
		h59.2c0.7,0,1.2,0.5,1.2,1.2l0,0v73.4C90.8,97.4,90.3,97.9,89.6,97.9L89.6,97.9"/>
	<rect x="38.7" y="23.3" class="st1" width="2.4" height="73.4"/>
	<polygon class="st1" points="83.7,42.7 76.6,35.6 69.5,42.7 69.5,23.3 71.8,23.3 71.8,37 76.6,32.3 81.3,37 81.3,23.3 83.7,23.3 	
		"/>
	<path class="st1" d="M48.2,70.7h33.1V49.3H48.2V70.7z M83.7,73H45.8V47h37.9V73z"/>
	<rect x="52.9" y="58.8" class="st1" width="23.7" height="2.4"/>
	<rect x="52.9" y="63.5" class="st1" width="23.7" height="2.4"/>
	<rect x="34" y="26.9" class="st1" width="2.4" height="66.3"/>
	<rect x="63.5" y="54.1" class="st1" width="2.4" height="2.4"/>
	<rect x="58.8" y="54.1" class="st1" width="2.4" height="2.4"/>
	<rect x="68.3" y="54.1" class="st1" width="2.4" height="2.4"/>
</g>
</svg>
