<svg xmlns="http://www.w3.org/2000/svg" viewBox="0 0 120 120"><title>icon-articles</title><g id="Layer_1" data-name="Layer 1"><rect width="120" height="120" style="fill:none"/></g><g id="Layer_2" data-name="Layer 2"><polygon points="79.07 26.63 79.07 29.01 87.41 29.01 87.41 95.76 37.35 95.76 37.35 92.18 34.97 92.18 34.97 98.14 89.8 98.14 89.8 26.63 79.07 26.63" style="fill:#1e96dd"/><rect x="37.35" y="40.93" width="40.53" height="2.38" style="fill:#1e96dd"/><rect x="37.35" y="45.7" width="40.53" height="2.38" style="fill:#1e96dd"/><rect x="37.35" y="50.46" width="40.53" height="2.38" style="fill:#1e96dd"/><rect x="37.35" y="55.23" width="16.69" height="2.38" style="fill:#1e96dd"/><rect x="37.35" y="68.34" width="2.38" height="17.88" style="fill:#1e96dd"/><rect x="42.12" y="74.3" width="2.38" height="11.92" style="fill:#1e96dd"/><rect x="46.89" y="63.58" width="2.38" height="22.65" style="fill:#1e96dd"/><rect x="51.66" y="70.73" width="2.38" height="15.49" style="fill:#1e96dd"/><rect x="56.42" y="65.96" width="2.38" height="20.26" style="fill:#1e96dd"/><rect x="61.19" y="73.11" width="2.38" height="13.11" style="fill:#1e96dd"/><rect x="65.96" y="70.73" width="2.38" height="15.49" style="fill:#1e96dd"/><rect x="70.73" y="62.38" width="2.38" height="23.84" style="fill:#1e96dd"/><rect x="75.49" y="65.96" width="2.38" height="20.26" style="fill:#1e96dd"/><polygon points="82.65 33.78 73.11 33.78 73.11 24.24 75.5 24.24 75.5 31.39 82.65 31.39 82.65 33.78" style="fill:#1e96dd"/><path d="M32.59,24.24H73.81l8.84,8.84V91H32.59ZM30.2,21.86V93.37H85V32.09L74.8,21.86Z" transform="translate(0 0)" style="fill:#1e96dd"/><path d="M39.74,36.16H66V31.39H39.74Zm28.6,2.39h-31V29h31Z" transform="translate(0 0)" style="fill:#1e96dd"/></g></svg>