<svg xmlns="http://www.w3.org/2000/svg" viewBox="0 0 366 366"><title>icon-experience</title><rect width="366" height="366" style="fill:none"/><path d="M43.7,52.9h83.4V312.3H43.7ZM34.4,321.6H136.3V43.7H34.4Z" style="fill:#23b877"/><rect x="145.6" y="43.7" width="74.1" height="9.26" style="fill:#23b877"/><rect x="145.6" y="312.3" width="74.1" height="9.26" style="fill:#23b877"/><path d="M238.2,52.9h83.4V312.3H238.2ZM229,321.6H330.9V43.7H229Z" style="fill:#23b877"/><path d="M182.6,247.5A18.5,18.5,0,1,0,201.2,266a18.5,18.5,0,0,0-18.6-18.5m0,46.3A27.8,27.8,0,1,1,210.4,266a27.9,27.9,0,0,1-27.8,27.8" style="fill:#23b877"/><path d="M279.9,247.5A18.5,18.5,0,1,0,298.4,266a18.5,18.5,0,0,0-18.5-18.5m0,46.3A27.8,27.8,0,1,1,307.7,266a27.9,27.9,0,0,1-27.8,27.8" style="fill:#23b877"/><path d="M85.4,247.5A18.5,18.5,0,1,0,103.9,266a18.6,18.6,0,0,0-18.5-18.5m0,46.3A27.8,27.8,0,1,1,113.2,266a27.8,27.8,0,0,1-27.8,27.8" style="fill:#23b877"/><rect x="39.1" y="210.4" width="78.7" height="9.26" style="fill:#23b877"/><rect x="145.6" y="210.4" width="74.1" height="9.26" style="fill:#23b877"/><rect x="247.5" y="210.4" width="78.7" height="9.26" style="fill:#23b877"/><path d="M62.2,191.9h46.3V71.5H62.2Zm55.6,9.3H52.9V62.2h64.9Z" style="fill:#23b877"/><rect x="80.7" y="90" width="9.3" height="9.26" style="fill:#23b877"/><rect x="80.7" y="164.1" width="9.3" height="9.26" style="fill:#23b877"/><rect x="71.5" y="108.5" width="27.8" height="9.26" style="fill:#23b877"/><rect x="71.5" y="127.1" width="27.8" height="9.26" style="fill:#23b877"/><rect x="71.5" y="145.6" width="27.8" height="9.26" style="fill:#23b877"/><path d="M159.5,191.9h46.3V71.5H159.5Zm55.6,9.3H150.2V62.2h64.9Z" style="fill:#23b877"/><rect x="178" y="90" width="9.3" height="9.26" style="fill:#23b877"/><rect x="178" y="164.1" width="9.3" height="9.26" style="fill:#23b877"/><rect x="168.7" y="108.5" width="27.8" height="9.26" style="fill:#23b877"/><rect x="168.7" y="127.1" width="27.8" height="9.26" style="fill:#23b877"/><rect x="168.7" y="145.6" width="27.8" height="9.26" style="fill:#23b877"/><path d="M256.7,191.9h46.4V71.5H256.7Zm55.6,9.3H247.5V62.2h64.8Z" style="fill:#23b877"/><rect x="275.3" y="90" width="9.3" height="9.26" style="fill:#23b877"/><rect x="275.3" y="164.1" width="9.3" height="9.26" style="fill:#23b877"/><rect x="266" y="108.5" width="27.8" height="9.26" style="fill:#23b877"/><rect x="266" y="127.1" width="27.8" height="9.26" style="fill:#23b877"/><rect x="266" y="145.6" width="27.8" height="9.26" style="fill:#23b877"/></svg>