<?xml version="1.0" encoding="utf-8"?>
<!-- Generator: Adobe Illustrator 23.0.4, SVG Export Plug-In . SVG Version: 6.00 Build 0)  -->
<svg version="1.1" id="Layer_1" xmlns="http://www.w3.org/2000/svg" xmlns:xlink="http://www.w3.org/1999/xlink" x="0px" y="0px"
	 viewBox="0 0 120 120" style="enable-background:new 0 0 120 120;" xml:space="preserve">
<style type="text/css">
	.st0{fill:none;}
	.st1{fill:#FFFFFF;}
</style>
<title>icon-podcast</title>
<g>
	<rect class="st0" width="120" height="120"/>
</g>
<g>
	<polygon class="st1" points="42.4,29.5 42.4,46 44.8,46 44.8,31.9 95.1,31.9 95.1,75.9 81.6,62.3 75.2,62.3 75.2,64.7 80.6,64.7 
		94.7,78.7 97.5,78.7 97.5,29.5 	"/>
	<path class="st1" d="M98,79.2h-3.6L80.4,65.2h-5.7v-3.3h7l12.9,12.9V32.4H45.3v14.1h-3.3V29H98V79.2z M94.9,78.2H97V30H43v15.4h1.3
		V31.4h51.3v45.7L81.4,62.8h-5.6v1.3h5.1L94.9,78.2z"/>
	<rect x="54.1" y="55.3" class="st1" width="2.3" height="2.3"/>
	<path class="st1" d="M57,58.2h-3.4v-3.3H57V58.2z M54.7,57.2H56v-1.3h-1.4L54.7,57.2z"/>
	<rect x="58.8" y="55.3" class="st1" width="2.3" height="2.3"/>
	<path class="st1" d="M61.7,58.2h-3.3v-3.3h3.3L61.7,58.2z M59.3,57.2h1.3v-1.3h-1.3L59.3,57.2z"/>
	<rect x="63.5" y="55.3" class="st1" width="2.3" height="2.3"/>
	<path class="st1" d="M66.4,58.2H63v-3.3h3.3L66.4,58.2z M64,57.2h1.3v-1.3H64L64,57.2z"/>
	<rect x="49.5" y="36.6" class="st1" width="2.3" height="2.3"/>
	<path class="st1" d="M52.3,39.4H49v-3.3h3.3V39.4z M50,38.4h1.3v-1.3H50L50,38.4z"/>
	<rect x="54.1" y="36.6" class="st1" width="2.3" height="2.3"/>
	<path class="st1" d="M57,39.4h-3.4v-3.3H57V39.4z M54.7,38.4H56v-1.3h-1.4L54.7,38.4z"/>
	<rect x="58.8" y="36.6" class="st1" width="2.3" height="2.3"/>
	<path class="st1" d="M61.7,39.4h-3.3v-3.3h3.3L61.7,39.4z M59.3,38.4h1.3v-1.3h-1.3L59.3,38.4z"/>
	<rect x="29.5" y="55.3" class="st1" width="19.9" height="2.3"/>
	<path class="st1" d="M50,58.2H29v-3.3h21V58.2z M30.1,57.2H49v-1.3H30L30.1,57.2z"/>
	<rect x="29.5" y="60" class="st1" width="36.3" height="2.3"/>
	<path class="st1" d="M66.4,62.8H29v-3.3h37.3V62.8z M30,61.8h35.3v-1.3H30V61.8z"/>
	<rect x="75.2" y="48.3" class="st1" width="15.2" height="2.3"/>
	<path class="st1" d="M91,51.1H74.7v-3.3H91V51.1z M75.8,50.1H90v-1.3H75.7L75.8,50.1z"/>
	<rect x="75.2" y="53" class="st1" width="15.2" height="2.3"/>
	<path class="st1" d="M91,55.8H74.7v-3.3H91V55.8z M75.8,54.8H90v-1.3H75.7L75.8,54.8z"/>
	<path class="st1" d="M24.9,50.6h45.7v30.5H38.4L24.9,94.7V50.6z M22.5,48.3v49.2h2.8l14-14.1h33.5V48.3H22.5z"/>
	<path class="st1" d="M25.6,98H22V47.8h51.4v36.1H39.6L25.6,98z M23,97h2.1l14.1-14.1h33.2V48.8H23V97z M24.3,95.9V50.1H71v31.5
		H38.6L24.3,95.9z M25.3,51.1v42.3l12.9-12.9H70V51.1L25.3,51.1z"/>
	<rect x="49.5" y="41.3" class="st1" width="41" height="2.3"/>
	<path class="st1" d="M91,44.1H49v-3.3h42V44.1z M50,43.1h40v-1.3H50V43.1z"/>
	<rect x="65.9" y="36.6" class="st1" width="24.6" height="2.3"/>
	<path class="st1" d="M91,39.4H65.4v-3.3H91V39.4z M66.4,38.4H90v-1.3H66.4L66.4,38.4z"/>
	<rect x="29.5" y="71.7" class="st1" width="24.6" height="2.3"/>
	<path class="st1" d="M54.6,74.6H29v-3.3h25.6V74.6z M30,73.6h23.6v-1.3H30V73.6z"/>
	<rect x="29.5" y="67" class="st1" width="36.3" height="2.3"/>
	<path class="st1" d="M66.4,69.9H29v-3.3h37.3V69.9z M30,68.9h35.3v-1.3H30V68.9z"/>
</g>
</svg>
