<svg xmlns="http://www.w3.org/2000/svg" viewBox="0 0 120 120"><title>icon-digitization</title><g id="Layer_1" data-name="Layer 1"><rect width="120" height="120" style="fill:none"/></g><g id="Layer_2" data-name="Layer 2"><path d="M95.85,89.09H31.41V86.56l4-9.24H84.63l4,9.24v.32h7.26a.09.09,0,0,0,.09-.09V79.53H93.37V84.4H91.16v-39L84.64,38.9H35.36l-6.52,6.52v39H26.63V79.53H24.06v7.26a.09.09,0,0,0,.09.09h4.78v2.21H24.15a2.3,2.3,0,0,1-2.3-2.3V34.21a2.3,2.3,0,0,1,2.3-2.3h71.7a2.3,2.3,0,0,1,2.3,2.3V86.79A2.3,2.3,0,0,1,95.85,89.09Zm-27-2.21H86.33l-3.16-7.35H36.83l-3.15,7.35h17.5l2.39-2.39H66.43Zm-14.52,0H65.71l-.19-.18h-11Zm39.07-9.56h2.57V34.21a.09.09,0,0,0-.09-.09H24.15a.09.09,0,0,0-.09.09V77.32h2.57V44.51l7.82-7.82h51.1l7.82,7.82Zm-11.86,7H79.12V82.1h2.39Zm-40.63,0H38.49V82.1h2.39ZM72,65.19H48.05a5.89,5.89,0,0,1,0-11.77H72a5.89,5.89,0,0,1,0,11.77Zm0-9.56a3.68,3.68,0,1,0,3.68,3.68A3.68,3.68,0,0,0,72,55.63ZM52.64,63H67.36a5.88,5.88,0,0,1,0-7.35H52.64a5.88,5.88,0,0,1,0,7.35Zm-4.59-7.35a3.68,3.68,0,1,0,3.68,3.68A3.68,3.68,0,0,0,48.05,55.63ZM66,50.85h-2.4V48.64H66Zm-4.78,0H58.8V48.64h2.4Zm-4.79,0H54V48.64h2.38Zm37.05-12H91.07V36.69h2.39Zm-64.53,0H26.54V36.69h2.39Z" transform="translate(0 0)" style="fill:#1e96dd"/></g></svg>