<svg xmlns="http://www.w3.org/2000/svg" viewBox="0 0 120 120"><defs><style>.a{fill:none;}.b{fill:#fff;}</style></defs><title>icon-cover-production</title><rect class="a" width="120" height="120"/><path class="b" d="M39.24,50.9,44.4,97.33v.14a1.3,1.3,0,0,0,1.3,1.29H74.12a1.29,1.29,0,0,0,1.29-1.29.61.61,0,0,1,0-.14L80.58,50.9a1.3,1.3,0,0,0-1.29-1.24H40.53a1.3,1.3,0,0,0-1.29,1.24m34.88,50.44H45.7a3.87,3.87,0,0,1-3.88-3.79L36.66,51.1a.71.71,0,0,1,0-.14,3.88,3.88,0,0,1,3.88-3.88H79.29A3.88,3.88,0,0,1,83.16,51v.14L78,97.55a3.87,3.87,0,0,1-3.87,3.79"/><rect class="b" x="43.11" y="93.59" width="33.59" height="2.58"/><rect class="b" x="37.94" y="52.25" width="43.93" height="2.58"/><path class="b" d="M72.92,31.91l-2.5-.67,2.45-9a1.28,1.28,0,0,1,.67-.82l5.17-2.59a1.31,1.31,0,0,1,1.31.09,1.29,1.29,0,0,1,.55,1.2L79.42,31.7l-2.57-.25.92-9.3-2.55,1.28Z"/><path class="b" d="M79.28,44.62l-2.57-.25,1.15-11.5H71.41L70.24,44.62l-2.57-.25L69,31.45a1.29,1.29,0,0,1,1.28-1.17h9.05a1.28,1.28,0,0,1,.95.43,1.26,1.26,0,0,1,.33,1Z"/><path class="b" d="M63.78,44.5H61.2V21.24H56V44.5H53.45V20a1.29,1.29,0,0,1,1.29-1.29h7.75A1.29,1.29,0,0,1,63.78,20Z"/><rect class="b" x="54.74" y="23.82" width="3.88" height="2.58"/><rect class="b" x="54.74" y="28.99" width="3.88" height="2.58"/><rect class="b" x="54.74" y="34.16" width="3.88" height="2.58"/><rect class="b" x="54.74" y="39.33" width="3.88" height="2.58"/><path class="b" d="M47,44.64,44.46,21.83l-.59-.59H41.06l-.47.48L43.1,44.35l-2.56.29L38,21.38a1.27,1.27,0,0,1,.37-1.05L39.61,19a1.28,1.28,0,0,1,.92-.38H44.4a1.26,1.26,0,0,1,.92.38l1.29,1.29a1.25,1.25,0,0,1,.37.77l2.58,23.25Z"/><rect class="b" x="75.41" y="35.45" width="2.58" height="2.58"/><rect class="b" x="40.53" y="26.41" width="5.17" height="2.58"/><rect class="b" x="58.62" y="57.42" width="2.58" height="2.58"/><rect class="b" x="53.45" y="57.42" width="2.58" height="2.58"/><rect class="b" x="63.78" y="57.42" width="2.58" height="2.58"/><rect class="b" x="28.9" y="98.76" width="62.02" height="2.58"/></svg>