<svg xmlns="http://www.w3.org/2000/svg" viewBox="0 0 120 120"><title>icon-publishing</title><g id="Layer_1" data-name="Layer 1"><rect width="120" height="120" style="fill:none"/></g><g id="Layer_2" data-name="Layer 2"><path d="M31.59,95.52H88.41v-71H31.59Zm58,2.36H30.4a1.18,1.18,0,0,1-1.18-1.18V23.3a1.18,1.18,0,0,1,1.18-1.18H89.6a1.18,1.18,0,0,1,1.18,1.18V96.7a1.18,1.18,0,0,1-1.18,1.18" transform="translate(0 0)" style="fill:#0196dd"/><rect x="38.69" y="23.3" width="2.37" height="73.4" style="fill:#0196dd"/><polygon points="83.68 42.73 76.57 35.63 69.47 42.73 69.47 23.3 71.84 23.3 71.84 37.02 76.57 32.28 81.31 37.02 81.31 23.3 83.68 23.3 83.68 42.73" style="fill:#0196dd"/><path d="M48.16,70.65H81.31V49.35H48.16ZM83.68,73H45.79V47H83.68Z" transform="translate(0 0)" style="fill:#0196dd"/><rect x="52.9" y="58.82" width="23.68" height="2.37" style="fill:#0196dd"/><rect x="52.9" y="63.55" width="23.68" height="2.37" style="fill:#0196dd"/><rect x="33.96" y="26.85" width="2.37" height="66.29" style="fill:#0196dd"/><rect x="63.55" y="54.08" width="2.37" height="2.37" style="fill:#0196dd"/><rect x="58.82" y="54.08" width="2.37" height="2.37" style="fill:#0196dd"/><rect x="68.29" y="54.08" width="2.37" height="2.37" style="fill:#0196dd"/></g></svg>