<svg xmlns="http://www.w3.org/2000/svg" viewBox="0 0 120 120"><title>icon-audio</title><g id="Layer_1" data-name="Layer 1"><rect width="120" height="120" style="fill:none"/></g><g id="Layer_2" data-name="Layer 2"><path d="M80.24,71.91a3.56,3.56,0,0,0-.41,7.1,30.94,30.94,0,0,1-39.66,0,3.56,3.56,0,1,0-3.94-4,30.93,30.93,0,0,1,0-39.65,3.56,3.56,0,1,0,3.94-3.95,31,31,0,0,1,39.66,0,3.57,3.57,0,1,0,3.94,3.95,30.93,30.93,0,0,1,0,39.65,3.55,3.55,0,0,0-3.53-3.15m0,4.76a1.19,1.19,0,1,1,1.19-1.19,1.19,1.19,0,0,1-1.19,1.19M38.57,75.48a1.19,1.19,0,1,1,1.19,1.19,1.19,1.19,0,0,1-1.19-1.19M39.76,33.8a1.19,1.19,0,0,1,0,2.38,1.19,1.19,0,0,1,0-2.38M81.43,35a1.19,1.19,0,1,1-2.38,0,1.19,1.19,0,0,1,2.38,0M60,21.89a33.34,33.34,0,0,0-9.18,65.4l2.42,6h2v4.77h2.38V91H54.85l-1.19-3a33.25,33.25,0,0,0,12.68,0l-1.19,3H60v2.38h2.38v4.77h2.38V93.34h2l2.42-6A33.34,33.34,0,0,0,60,21.89" transform="translate(0 0)" style="fill:#1e96dd"/><rect x="54.05" y="54.05" width="2.38" height="2.38" style="fill:#1e96dd"/><rect x="58.81" y="54.05" width="2.38" height="2.38" style="fill:#1e96dd"/><rect x="54.05" y="49.28" width="2.38" height="2.38" style="fill:#1e96dd"/><rect x="58.81" y="49.28" width="2.38" height="2.38" style="fill:#1e96dd"/><rect x="58.81" y="44.52" width="2.38" height="2.38" style="fill:#1e96dd"/><rect x="58.81" y="63.57" width="2.38" height="2.38" style="fill:#1e96dd"/><rect x="58.81" y="58.81" width="2.38" height="2.38" style="fill:#1e96dd"/><rect x="54.05" y="58.81" width="2.38" height="2.38" style="fill:#1e96dd"/><rect x="63.57" y="54.05" width="2.38" height="2.38" style="fill:#1e96dd"/><rect x="63.57" y="49.28" width="2.38" height="2.38" style="fill:#1e96dd"/><rect x="68.34" y="54.05" width="2.38" height="2.38" style="fill:#1e96dd"/><rect x="49.28" y="54.05" width="2.38" height="2.38" style="fill:#1e96dd"/><rect x="63.57" y="58.81" width="2.38" height="2.38" style="fill:#1e96dd"/><path d="M83.61,39.13l-2,1.35a26,26,0,0,1,4.5,13.57H81.37A21.39,21.39,0,0,0,61.19,33.86V29.08A26.05,26.05,0,0,1,74.8,33.62l1.35-2a28.59,28.59,0,0,0-32.26,0l1.34,2a26.16,26.16,0,0,1,13.58-4.51v7.1H60A19.05,19.05,0,0,1,63.36,74l.42,2.35a21.42,21.42,0,0,0,17.6-19.91h4.77A26,26,0,0,1,81.64,70l2,1.35a28.59,28.59,0,0,0,0-32.22" transform="translate(0 0)" style="fill:#1e96dd"/><path d="M74.77,76.88a26.13,26.13,0,0,1-13.58,4.51v-7.1H60a19.05,19.05,0,0,1-3.36-37.81l-.42-2.34a21.41,21.41,0,0,0-17.6,19.91H33.85a25.91,25.91,0,0,1,4.54-13.62l-2-1.35a28.6,28.6,0,0,0,0,32.31l2-1.34a26,26,0,0,1-4.54-13.62h4.78A21.4,21.4,0,0,0,58.81,76.61v4.78a26.09,26.09,0,0,1-13.57-4.51l-1.35,2a28.57,28.57,0,0,0,32.22,0Z" transform="translate(0 0)" style="fill:#1e96dd"/><path d="M49.9,45.13a14.28,14.28,0,1,1-4.19,10.11A14.21,14.21,0,0,1,49.9,45.13M60,71.91A16.67,16.67,0,1,0,43.33,55.24,16.67,16.67,0,0,0,60,71.91" transform="translate(0 0)" style="fill:#1e96dd"/></g></svg>