<?xml version="1.0" encoding="utf-8"?>
<!-- Generator: Adobe Illustrator 23.0.4, SVG Export Plug-In . SVG Version: 6.00 Build 0)  -->
<svg version="1.1" id="Layer_1" xmlns="http://www.w3.org/2000/svg" xmlns:xlink="http://www.w3.org/1999/xlink" x="0px" y="0px"
	 viewBox="0 0 120 120" style="enable-background:new 0 0 120 120;" xml:space="preserve">
<style type="text/css">
	.st0{fill:none;}
	.st1{fill:#FFFFFF;}
</style>
<title>icon-digitization</title>
<g>
	<rect class="st0" width="120" height="120"/>
</g>
<g>
	<path class="st1" d="M95.8,89.1H31.4v-2.5l4-9.2h49.2l4,9.2v0.3h7.3c0,0,0.1,0,0.1-0.1v-7.3h-2.6v4.9h-2.2v-39l-6.5-6.5H35.4
		l-6.5,6.5v39h-2.2v-4.9h-2.6v7.3c0,0,0,0.1,0.1,0.1h4.8v2.2h-4.8c-1.3,0-2.3-1-2.3-2.3l0,0V34.2c0-1.3,1-2.3,2.3-2.3h71.7
		c1.3,0,2.3,1,2.3,2.3c0,0,0,0,0,0v52.6C98.2,88.1,97.1,89.1,95.8,89.1z M68.8,86.9h17.5l-3.2-7.3H36.8l-3.2,7.3h17.5l2.4-2.4h12.9
		L68.8,86.9z M54.3,86.9h11.4l-0.2-0.2h-11L54.3,86.9z M93.4,77.3H96V34.2c0,0,0-0.1-0.1-0.1H24.1c0,0-0.1,0-0.1,0.1l0,0v43.1h2.6
		V44.5l7.8-7.8h51.1l7.8,7.8L93.4,77.3z M81.5,84.3h-2.4v-2.2h2.4L81.5,84.3z M40.9,84.3h-2.4v-2.2h2.4L40.9,84.3z M72,65.2H48
		c-3.3-0.1-5.8-2.9-5.6-6.1c0.1-3.1,2.6-5.5,5.6-5.6h24c3.3,0.1,5.8,2.9,5.6,6.1C77.5,62.6,75.1,65.1,72,65.2z M72,55.6
		c-2,0-3.7,1.6-3.7,3.7c0,2,1.6,3.7,3.7,3.7s3.7-1.6,3.7-3.7S74,55.6,72,55.6L72,55.6z M52.6,63h14.7c-1.7-2.1-1.7-5.2,0-7.3H52.6
		C54.4,57.8,54.4,60.9,52.6,63z M48,55.7c-2,0-3.7,1.6-3.7,3.7c0,2,1.6,3.7,3.7,3.7c2,0,3.7-1.6,3.7-3.7
		C51.7,57.3,50.1,55.6,48,55.7C48.1,55.6,48.1,55.6,48,55.7L48,55.7z M66,50.8h-2.4v-2.2H66V50.8z M61.2,50.8h-2.4v-2.2h2.4
		L61.2,50.8z M56.4,50.8H54v-2.2h2.4L56.4,50.8z M93.5,38.8h-2.4v-2.2h2.4L93.5,38.8z M28.9,38.8h-2.4v-2.2h2.4L28.9,38.8z"/>
</g>
</svg>
