<svg xmlns="http://www.w3.org/2000/svg" viewBox="0 0 50 50"><title>icon-instagram</title><rect width="50" height="50" style="fill:none"/><path d="M34,13.5H15.9a2.3,2.3,0,0,0-1.8,2.1h0V34.3a.8.8,0,0,0,.1.4,2.3,2.3,0,0,0,2,1.9h18a2.8,2.8,0,0,0,1.8-2v-19A2.6,2.6,0,0,0,34,13.5Zm-4.3,2.8a.9.9,0,0,1,.9-.9h2.1a.9.9,0,0,1,.9.9v2.2a.9.9,0,0,1-.8.9H30.7a.9.9,0,0,1-.9-.6.4.4,0,0,1-.1-.3Zm-4.7,4a4.7,4.7,0,0,1-.1,9.4,4.7,4.7,0,0,1,.1-9.4Zm8.7,2.6V33.1a.9.9,0,0,1-.9.9H17.3a.9.9,0,0,1-.9-.9c0-3.4,0-6.8.1-10.2h2.1a7.3,7.3,0,0,0,.5,5.6,8.1,8.1,0,0,0,2.7,2.8,6.7,6.7,0,0,0,7.2-.3,7,7,0,0,0,2-2.2,7.5,7.5,0,0,0,.9-2.9,7.7,7.7,0,0,0-.3-3h2.1Z" transform="translate(0)" style="fill:#fff"/></svg>