<svg xmlns="http://www.w3.org/2000/svg" viewBox="0 0 366 366"><title>icon-experience</title><rect width="366" height="366" style="fill:none"/><path d="M298.4,8.4H87.6A38.9,38.9,0,0,0,48.7,47.3V324.7a5.6,5.6,0,0,0,5.6,5.6h66.6V319.2H59.8V47.3A27.9,27.9,0,0,1,87.6,19.5H271.3a38.9,38.9,0,0,0-11.7,27.8V319.2H198.5v11.1h66.6a5.6,5.6,0,0,0,5.6-5.6V47.3A27.8,27.8,0,1,1,298.4,75H281.8V269.2h11.1V86.1h5.5a38.9,38.9,0,1,0,0-77.7Z" style="fill:#1e96dd"/><rect x="154.2" y="75" width="11.1" height="11.1" style="fill:#1e96dd"/><rect x="176.4" y="75" width="11.1" height="11.1" style="fill:#1e96dd"/><rect x="132" y="75" width="11.1" height="11.1" style="fill:#1e96dd"/><rect x="93.1" y="108.3" width="127.6" height="11.1" style="fill:#1e96dd"/><rect x="93.1" y="130.5" width="127.6" height="11.1" style="fill:#1e96dd"/><rect x="93.1" y="152.7" width="127.6" height="11.1" style="fill:#1e96dd"/><rect x="93.1" y="174.9" width="127.6" height="11.1" style="fill:#1e96dd"/><rect x="93.1" y="197.1" width="127.6" height="11.1" style="fill:#1e96dd"/><path d="M198.5,269.2A38.8,38.8,0,1,0,132.6,297H132v61a5.4,5.4,0,0,0,9.4,3.9l18.3-18.2L178,361.9a5.4,5.4,0,0,0,3.9,1.7,7.8,7.8,0,0,0,2.1-.4,5.7,5.7,0,0,0,3.5-5.2V297h-.6A38.8,38.8,0,0,0,198.5,269.2Zm-66.5,0A27.8,27.8,0,1,1,159.7,297,27.7,27.7,0,0,1,132,269.2Zm44.4,75.4-12.8-12.7a5.4,5.4,0,0,0-7.8,0l-12.7,12.7V304.3a38.2,38.2,0,0,0,16.6,3.8,39,39,0,0,0,16.7-3.8Z" style="fill:#1e96dd"/><rect x="93.1" y="263.7" width="11.1" height="11.1" style="fill:#1e96dd"/><rect x="209.6" y="263.7" width="11.1" height="11.1" style="fill:#1e96dd"/></svg>