<svg xmlns="http://www.w3.org/2000/svg" viewBox="0 0 366.1 366"><title>icon-voice-sample</title><rect width="366" height="366" style="fill:none"/><path d="M334.8,202.9c-6.9-4.3-12.8-10-18.6-16.2l-5.8-6.4c-2.3-10.6-4.7-21.2-7.1-31.6-3.3-14-6.7-27.6-10.4-40.1-2.7-9.4-5.6-18.2-8.8-26.2A139.1,139.1,0,0,0,276.6,66c-4.1-7.5-8.5-13.7-13.8-18.2a31.4,31.4,0,0,0-8.6-5.5,25.4,25.4,0,0,0-9.9-2,28.3,28.3,0,0,0-7.1,1,30.4,30.4,0,0,0-12,7A55.2,55.2,0,0,0,216,59.2c-5.2,8-9.7,17.9-13.8,29.2-7.2,19.9-13.2,44.1-18.9,69.3l-5.1,22.6-5.3,5.9a134.2,134.2,0,0,1-10.1,9.9,61.1,61.1,0,0,1-17.2,11.1,58.6,58.6,0,0,1-23,4.3,63.5,63.5,0,0,1-18.5-2.6,57.9,57.9,0,0,1-12.8-6c-6.9-4.3-12.8-10-18.6-16.2l-5.8-6.4c-2.3-10.6-4.7-21.2-7.1-31.6-3.3-14-6.7-27.6-10.4-40.1-2.7-9.4-5.6-18.2-8.8-26.2A139.1,139.1,0,0,0,33.1,66c-4-7.5-8.5-13.7-13.7-18.2a32,32,0,0,0-8.7-5.5,25.4,25.4,0,0,0-9.9-2V51.7a13.4,13.4,0,0,1,4,.6,20.2,20.2,0,0,1,7.5,4.5,41.1,41.1,0,0,1,7.2,8.7c4.5,6.8,8.7,16,12.7,26.8l.6,1.8A59,59,0,0,0,21.9,82.3a38.6,38.6,0,0,0-9.8-5.7,33.2,33.2,0,0,0-11.3-2V86h0a20.1,20.1,0,0,1,8.4,1.8,27.6,27.6,0,0,1,7.4,5c4.6,4.2,9,10.3,13.1,18a170.8,170.8,0,0,1,7.7,16.5,69.2,69.2,0,0,0-9.2-8.8,46,46,0,0,0-12.6-7.1A42.2,42.2,0,0,0,.8,108.8v11.4a32.8,32.8,0,0,1,9.1,1.3,36.3,36.3,0,0,1,14.6,8.9,76.6,76.6,0,0,1,11.3,13.8c2.5,3.9,4.9,8.1,7.3,12.6a71.4,71.4,0,0,0-14.8-8.5A68.8,68.8,0,0,0,.8,143.1v11.4a64,64,0,0,1,18.5,2.6,57.9,57.9,0,0,1,12.8,6c6.8,4.3,12.8,10,18.6,16.2l5.7,6.4c2.4,10.6,4.8,21.2,7.2,31.6,3.3,14,6.7,27.6,10.3,40.1,2.8,9.4,5.7,18.2,8.9,26.2A139.1,139.1,0,0,0,90.3,300c4,7.4,8.5,13.7,13.7,18.2a33,33,0,0,0,8.6,5.5,26.2,26.2,0,0,0,10,2,28.3,28.3,0,0,0,7.1-1,31.8,31.8,0,0,0,12-7,58.5,58.5,0,0,0,9.1-10.9c5.2-8,9.7-17.9,13.8-29.2,7.2-19.9,13.2-44.1,19-69.3l5.1-22.6c1.8-2,3.5-4,5.3-5.9,3.3-3.5,6.6-6.9,10-9.9a61.6,61.6,0,0,1,17.3-11.1,58.3,58.3,0,0,1,23-4.3,64,64,0,0,1,18.5,2.6,57.9,57.9,0,0,1,12.8,6c6.8,4.3,12.8,10,18.6,16.2l5.7,6.4c2.4,10.6,4.8,21.2,7.2,31.6,3.3,14,6.7,27.6,10.3,40.1,2.8,9.4,5.7,18.2,8.9,26.2a139.1,139.1,0,0,0,7.5,16.4c4,7.5,8.5,13.7,13.7,18.2a33,33,0,0,0,8.6,5.5,26.2,26.2,0,0,0,10,2V314.3a13.4,13.4,0,0,1-4-.6,18.8,18.8,0,0,1-7.5-4.5,41.3,41.3,0,0,1-7.3-8.7c-4.4-6.8-8.7-16-12.6-26.8l-.6-1.8A59,59,0,0,0,345,283.7a38.6,38.6,0,0,0,9.8,5.7,32.4,32.4,0,0,0,11.3,2V280a19.8,19.8,0,0,1-8.4-1.8,27.6,27.6,0,0,1-7.4-5c-4.6-4.2-9-10.3-13.2-18-2.6-4.9-5.1-10.5-7.6-16.5a63.6,63.6,0,0,0,9.2,8.8,46,46,0,0,0,12.6,7.1,41.8,41.8,0,0,0,14.8,2.6V245.8a32.8,32.8,0,0,1-9.1-1.3,37.3,37.3,0,0,1-14.7-8.9,76.3,76.3,0,0,1-11.2-13.8c-2.5-3.9-5-8.1-7.3-12.6a67.7,67.7,0,0,0,42.3,13.7V211.5a63.5,63.5,0,0,1-18.5-2.6A57.9,57.9,0,0,1,334.8,202.9ZM157.2,243.2a153.1,153.1,0,0,1-7.8,15.7c-4.1,6.9-8.4,12.3-12.9,15.9a27.1,27.1,0,0,1-6.7,3.9,19.5,19.5,0,0,1-7.2,1.3,19.8,19.8,0,0,1-8.4-1.8,27.6,27.6,0,0,1-7.4-5c-4.6-4.2-9-10.3-13.1-18A170.8,170.8,0,0,1,86,238.7a63.6,63.6,0,0,0,9.2,8.8,46,46,0,0,0,12.6,7.1,43.2,43.2,0,0,0,27.1.8A48.2,48.2,0,0,0,154.1,244c1.7-1.7,3.4-3.4,5-5.3C158.5,240.2,157.9,241.7,157.2,243.2Zm52.4-120.4a153.1,153.1,0,0,1,7.8-15.7c4.1-6.9,8.5-12.3,12.9-15.9a29.6,29.6,0,0,1,6.8-3.9,19.5,19.5,0,0,1,7.2-1.3,20.1,20.1,0,0,1,8.4,1.8,27.6,27.6,0,0,1,7.4,5c4.6,4.2,9,10.3,13.1,18a170.8,170.8,0,0,1,7.7,16.5,69.2,69.2,0,0,0-9.2-8.8,46,46,0,0,0-12.6-7.1,43.5,43.5,0,0,0-27.2-.8A47.8,47.8,0,0,0,212.8,122a62.6,62.6,0,0,0-5,5.3Zm12.5-51.4c3.6-6.7,7.4-11.8,11.1-15a20.5,20.5,0,0,1,5.6-3.5,13.4,13.4,0,0,1,9.5-.6,20.2,20.2,0,0,1,7.5,4.5,41.1,41.1,0,0,1,7.2,8.7c4.5,6.8,8.7,16,12.7,26.8l.6,1.8a59,59,0,0,0-10.9-11.8,37.5,37.5,0,0,0-9.9-5.7,32.2,32.2,0,0,0-24.3.8,41.3,41.3,0,0,0-10.4,7,65.6,65.6,0,0,0-8.4,9.6l2.7-7.4C217.4,81,219.7,75.9,222.1,71.4ZM95.1,217.7a68.5,68.5,0,0,0,27.5,5.2,71,71,0,0,0,21.9-3.2,62.3,62.3,0,0,0,15.4-7.2c1.7-1,3.4-2.2,4.9-3.3-1.7,3.2-3.4,6.3-5.2,9.2-5.1,8.5-10.6,15.4-16.7,20.1a32.3,32.3,0,0,1-9.5,5.4,31.4,31.4,0,0,1-10.8,1.9,32.8,32.8,0,0,1-9.1-1.3,37.3,37.3,0,0,1-14.7-8.9,76.3,76.3,0,0,1-11.2-13.8c-2.5-3.9-5-8.1-7.3-12.6A68.9,68.9,0,0,0,95.1,217.7Zm49.7,76.9c-3.6,6.7-7.4,11.8-11.2,15a18.7,18.7,0,0,1-5.5,3.5,13.4,13.4,0,0,1-9.5.6,18.8,18.8,0,0,1-7.5-4.5,41.3,41.3,0,0,1-7.3-8.7c-4.4-6.8-8.7-16-12.6-26.8l-.6-1.8a59,59,0,0,0,10.9,11.8,38.6,38.6,0,0,0,9.8,5.7,32.4,32.4,0,0,0,11.3,2,31.6,31.6,0,0,0,13-2.8,40.1,40.1,0,0,0,10.5-7,65.6,65.6,0,0,0,8.4-9.6c-.9,2.5-1.8,5-2.8,7.4A145.7,145.7,0,0,1,144.8,294.6Zm127-146.3a68.8,68.8,0,0,0-27.5-5.2,71,71,0,0,0-21.9,3.2,64.8,64.8,0,0,0-15.5,7.2c-1.7,1-3.3,2.2-4.9,3.3,1.7-3.2,3.5-6.3,5.2-9.2,5.2-8.5,10.7-15.4,16.7-20.1a35,35,0,0,1,9.5-5.4,32,32,0,0,1,10.9-1.9,32.8,32.8,0,0,1,9.1,1.3,36.3,36.3,0,0,1,14.6,8.9,76.6,76.6,0,0,1,11.3,13.8c2.5,3.9,4.9,8.1,7.3,12.6A71.4,71.4,0,0,0,271.8,148.3Z" style="fill:#1e96dd"/><rect x="0.8" y="177.3" width="11.4" height="11.41" style="fill:#1e96dd"/><rect x="23.7" y="177.3" width="11.4" height="11.41" style="fill:#1e96dd"/><rect x="331.8" y="177.3" width="11.4" height="11.41" style="fill:#1e96dd"/><rect x="354.6" y="177.3" width="11.4" height="11.41" style="fill:#1e96dd"/><rect x="92.1" y="177.3" width="11.4" height="11.41" style="fill:#1e96dd"/><rect x="115" y="177.3" width="11.4" height="11.41" style="fill:#1e96dd"/><rect x="137.8" y="177.3" width="11.4" height="11.41" style="fill:#1e96dd"/><rect x="217.7" y="177.3" width="11.4" height="11.41" style="fill:#1e96dd"/><rect x="240.5" y="177.3" width="11.4" height="11.41" style="fill:#1e96dd"/><rect x="263.3" y="177.3" width="11.4" height="11.41" style="fill:#1e96dd"/></svg>