<svg xmlns="http://www.w3.org/2000/svg" viewBox="0 0 120 120"><title>icon-cover-production</title><g id="Layer_1" data-name="Layer 1"><rect width="120" height="120" style="fill:none"/></g><g id="Layer_2" data-name="Layer 2"><polygon points="85.47 93.37 56.87 93.37 56.87 90.99 83.09 90.99 83.09 64.77 85.47 64.77 85.47 93.37" style="fill:#1e96dd"/><polygon points="84.28 33.78 73.55 33.78 73.55 23.05 75.94 23.05 75.94 31.39 84.28 31.39 84.28 33.78" style="fill:#1e96dd"/><polygon points="30.64 21.86 30.64 93.37 38.99 93.37 38.99 90.99 33.03 90.99 33.03 24.24 74.25 24.24 83.09 33.08 83.09 45.7 85.47 45.7 85.47 32.09 75.24 21.86 30.64 21.86" style="fill:#1e96dd"/><path d="M45,88.61a1.22,1.22,0,0,1-.85-.35,1.21,1.21,0,0,1,0-1.69L82.24,48.43a1.19,1.19,0,0,1,1.69,0,1.21,1.21,0,0,1,0,1.69L45.79,88.26a1.2,1.2,0,0,1-.84.35" transform="translate(0 0)" style="fill:#1e96dd"/><path d="M84.28,61.19a1.14,1.14,0,0,1-.84-.35L73.9,51.31a1.19,1.19,0,0,1,0-1.69,1.21,1.21,0,0,1,1.69,0l9.53,9.54a1.18,1.18,0,0,1,0,1.68,1.16,1.16,0,0,1-.84.35" transform="translate(0 0)" style="fill:#1e96dd"/><path d="M89.05,56.42a1.18,1.18,0,0,1-.85-.35l-6-6a1.21,1.21,0,0,1,0-1.69,1.19,1.19,0,0,1,1.69,0l6,6a1.2,1.2,0,0,1,0,1.68,1.16,1.16,0,0,1-.84.35" transform="translate(0 0)" style="fill:#1e96dd"/><path d="M50.91,94.56a1.19,1.19,0,0,1-.85-2L88.2,54.39a1.19,1.19,0,0,1,1.69,0,1.21,1.21,0,0,1,0,1.69L51.75,94.22a1.19,1.19,0,0,1-.84.34" transform="translate(0 0)" style="fill:#1e96dd"/><path d="M50.91,94.56a1.21,1.21,0,0,1-.85-.34l-6-6a1.2,1.2,0,1,1,1.69-1.69l6,6a1.21,1.21,0,0,1,0,1.69,1.19,1.19,0,0,1-.84.34" transform="translate(0 0)" style="fill:#1e96dd"/><path d="M62.82,63.58a1.2,1.2,0,0,1-.84-2L73.9,49.62a1.2,1.2,0,0,1,1.69,1.69L63.67,63.23a1.22,1.22,0,0,1-.85.35" transform="translate(0 0)" style="fill:#1e96dd"/><path d="M41.37,98.14a1,1,0,0,1-.42-.08,1.19,1.19,0,0,1-.7-1.53L43.83,87a1.19,1.19,0,0,1,2.23.84l-3.57,9.54a1.19,1.19,0,0,1-1.12.77" transform="translate(0 0)" style="fill:#1e96dd"/><path d="M41.37,98.14A1.19,1.19,0,0,1,41,95.83l9.54-3.57a1.19,1.19,0,1,1,.83,2.23l-9.53,3.57a1,1,0,0,1-.42.08" transform="translate(0 0)" style="fill:#1e96dd"/><path d="M59.25,86.22a1.18,1.18,0,0,1-.84-.35l-6-6a1.19,1.19,0,1,1,1.68-1.68l6,6a1.18,1.18,0,0,1,0,1.68,1.2,1.2,0,0,1-.84.35" transform="translate(0 0)" style="fill:#1e96dd"/><path d="M65.21,80.26a1.14,1.14,0,0,1-.84-.35l-6-6a1.19,1.19,0,0,1,1.68-1.68l6,6a1.18,1.18,0,0,1,0,1.68,1.16,1.16,0,0,1-.84.35" transform="translate(0 0)" style="fill:#1e96dd"/></g></svg>