<svg xmlns="http://www.w3.org/2000/svg" viewBox="0 0 120 120"><title>icon-female-narrator</title><g id="Layer_1" data-name="Layer 1"><rect width="120" height="120" style="fill:none"/></g><g id="Layer_2" data-name="Layer 2"><rect x="39.74" y="88.6" width="2.38" height="9.54" style="fill:#1e96dd"/><rect x="77.88" y="88.6" width="2.38" height="9.54" style="fill:#1e96dd"/><path d="M54,36.16a3.58,3.58,0,0,0-3.57,3.58v2.38c0,9.57,1.59,15.5,9.53,15.5,7.62,0,9.39-5.46,9.53-14.34-6.52-.37-10.41-3.69-12.45-7.12ZM60,60C48.08,60,48.08,47.92,48.08,42.12V39.74a6,6,0,0,1,6-6H56a10.64,10.64,0,0,1-.72-3.58h2.39c0,2.87,3.1,10.73,13.11,10.73a1.19,1.19,0,0,1,1.19,1.19c0,5.8,0,17.88-11.92,17.88" transform="translate(0 0)" style="fill:#1e96dd"/><path d="M67.15,61.19V58.81c2.56,0,7.24-1.35,9.31-2-.63-2.71-2.16-9.8-2.16-14.7V35A10.74,10.74,0,0,0,63.58,24.24H56.42A10.74,10.74,0,0,0,45.7,35v7.15c0,4.9-1.53,12-2.16,14.7,2.08.64,6.75,2,9.31,2v2.38c-3.73,0-10.8-2.34-11.1-2.44A1.2,1.2,0,0,1,41,57.33c0-.1,2.34-9.47,2.34-15.21V35A13.13,13.13,0,0,1,56.42,21.86h7.16A13.12,13.12,0,0,1,76.69,35v7.15c0,5.75,2.32,15.11,2.34,15.21a1.18,1.18,0,0,1-.77,1.42c-.3.1-7.38,2.44-11.11,2.44" transform="translate(0 0)" style="fill:#1e96dd"/><path d="M60,95.76a1.19,1.19,0,0,1-1.15-.9L51.69,67.45a1.53,1.53,0,0,1,0-.3V56.42H54V67l6,22.84L66,67V56.42h2.38V67.15a1.53,1.53,0,0,1,0,.3L61.15,94.86a1.19,1.19,0,0,1-1.15.9" transform="translate(0 0)" style="fill:#1e96dd"/><path d="M60,70.73c-4.68,0-8.34-2.62-8.34-6H54c0,1.94,2.73,3.57,6,3.57s6-1.63,6-3.57h2.38c0,3.34-3.66,6-8.34,6" transform="translate(0 0)" style="fill:#1e96dd"/><path d="M59,95.21,48.62,79.07h-6.5a1.2,1.2,0,0,1-1-1.87L51.87,61.7l2,1.36L44.4,76.69h4.87a1.2,1.2,0,0,1,1,.54L61,93.92Z" transform="translate(0 0)" style="fill:#1e96dd"/><path d="M61,95.21l-2-1.29L69.72,77.23a1.2,1.2,0,0,1,1-.54H75.6L66.17,63.06l2-1.36L78.86,77.2a1.2,1.2,0,0,1-1,1.87h-6.5Z" transform="translate(0 0)" style="fill:#1e96dd"/><path d="M92.18,98.14H89.8V85c0-6.25-2.78-9.6-9.92-12L79.73,73,70.2,68.22l1.06-2.13,9.46,4.72c8,2.7,11.46,7,11.46,14.22Z" transform="translate(0 0)" style="fill:#1e96dd"/><path d="M30.2,98.14H27.82V85c0-7.26,3.43-11.52,11.46-14.22l9.46-4.72,1.07,2.13-9.69,4.83C33,75.43,30.2,78.78,30.2,85Z" transform="translate(0 0)" style="fill:#1e96dd"/></g></svg>