<svg xmlns="http://www.w3.org/2000/svg" viewBox="0 0 120 120"><title>icon-audiobooks</title><g id="Layer_1" data-name="Layer 1"><rect width="120" height="120" style="fill:none"/></g><g id="Layer_2" data-name="Layer 2"><path d="M28.81,85.9H57V36.53H28.81Zm30.57,2.35H26.46V34.18H59.38Z" transform="translate(0 0)" style="fill:#1e96dd"/><rect x="40.57" y="90.6" width="4.7" height="2.35" style="fill:#1e96dd"/><rect x="34.69" y="28.3" width="2.35" height="2.35" style="fill:#1e96dd"/><rect x="39.39" y="28.3" width="11.75" height="2.35" style="fill:#1e96dd"/><path d="M25.29,24.77A1.18,1.18,0,0,0,24.11,26V94.12a1.18,1.18,0,0,0,1.18,1.18H60.55a1.18,1.18,0,0,0,1.18-1.18V26a1.18,1.18,0,0,0-1.18-1.18ZM60.55,97.65H25.29a3.53,3.53,0,0,1-3.53-3.53V26a3.53,3.53,0,0,1,3.53-3.53H60.55A3.54,3.54,0,0,1,64.08,26V94.12a3.54,3.54,0,0,1-3.53,3.53" transform="translate(0 0)" style="fill:#1e96dd"/><path d="M77,37.7h2.35V33h2.35V28.3H79.36A2.35,2.35,0,0,0,77,30.65Zm4.7,2.35h-7v-9.4a4.7,4.7,0,0,1,4.7-4.7h4.7v9.4H81.71Z" transform="translate(0 0)" style="fill:#1e96dd"/><rect x="77.01" y="38.88" width="2.35" height="10.58" style="fill:#1e96dd"/><path d="M93.46,37.7h2.35V30.65a2.35,2.35,0,0,0-2.35-2.35H91.11V33h2.35Zm4.7,2.35h-7v-4.7H88.76V26h4.7a4.7,4.7,0,0,1,4.7,4.7Z" transform="translate(0 0)" style="fill:#1e96dd"/><rect x="93.46" y="38.88" width="2.35" height="10.58" style="fill:#1e96dd"/><path d="M86.41,58.86a9.41,9.41,0,0,1-9.4-9.4h2.35a7,7,0,0,0,14.1,0h2.35a9.41,9.41,0,0,1-9.4,9.4" transform="translate(0 0)" style="fill:#1e96dd"/><path d="M78.18,97.65a9.41,9.41,0,0,1-9.4-9.4v-47a4.71,4.71,0,0,0-4.7-4.7H62.9V34.18h1.18a7.05,7.05,0,0,1,7,7v47a7.05,7.05,0,1,0,14.1,0V57.69h2.36V88.25a9.42,9.42,0,0,1-9.41,9.4" transform="translate(0 0)" style="fill:#1e96dd"/><path d="M42.92,50.63A9.41,9.41,0,1,0,52.32,60a9.41,9.41,0,0,0-9.4-9.41m0,21.16A11.76,11.76,0,1,1,54.67,60,11.77,11.77,0,0,1,42.92,71.79" transform="translate(0 0)" style="fill:#1e96dd"/><path d="M40.57,57.82v4.43L45,60Zm0,6.92H39.39a1.17,1.17,0,0,1-1.17-1.18V56.51a1.17,1.17,0,0,1,1.17-1.18h1.18a1.18,1.18,0,0,1,.52.13L48.15,59a1.17,1.17,0,0,1,.65,1,1.2,1.2,0,0,1-.65,1.05l-7.06,3.52a1.06,1.06,0,0,1-.52.13" transform="translate(0 0)" style="fill:#1e96dd"/></g></svg>