<svg xmlns="http://www.w3.org/2000/svg" viewBox="0 0 137.6 76.6"><title>icon-jpg-pdf</title><path d="M78.5,90H21.2V82.2H75.8V28.3H63.9V16.4H24.2V80.2h-3V13.4H66L78.8,26.2v59H24.2V87H78.5ZM66.9,25.3h6.8l-6.8-6.7Z" transform="translate(-21.2 -13.4)" style="fill:#1e96dd"/><path d="M33.3,32.4V60.2H67.5V32.4ZM65.4,58.1h-30V34.5h30ZM56.8,39.9A3.3,3.3,0,1,0,60,36.7,3.2,3.2,0,0,0,56.8,39.9Zm6.5,16H37.6L44,38.8l8.6,10.7,4.2-3.2Z" transform="translate(-21.2 -13.4)" style="fill:#1e96dd"/><path d="M39.7,79.7H38.6V78.3h.9c.9,0,1.3-.5,1.3-1.6v-9h1.5v9a3.1,3.1,0,0,1-.7,2.2A2.4,2.4,0,0,1,39.7,79.7Z" transform="translate(-21.2 -13.4)" style="fill:#1e96dd"/><path d="M50.9,70.6a2.9,2.9,0,0,1-1,2.3,4.1,4.1,0,0,1-2.7.8h-1v3.4H44.7V67.8h2.7a4,4,0,0,1,2.6.8A2.3,2.3,0,0,1,50.9,70.6Zm-4.7,1.8H47a3.2,3.2,0,0,0,1.7-.4,1.5,1.5,0,0,0,.6-1.3,1.7,1.7,0,0,0-.5-1.2,2.1,2.1,0,0,0-1.5-.4H46.2Z" transform="translate(-21.2 -13.4)" style="fill:#1e96dd"/><path d="M56.5,72.1h3.4v4.6a4.7,4.7,0,0,1-1.6.4H56.6A4.2,4.2,0,0,1,53.4,76a4.9,4.9,0,0,1,3.7-8.3,6,6,0,0,1,2.7.6l-.5,1.2A5.9,5.9,0,0,0,57,69a3.2,3.2,0,0,0-2.3.9,3.7,3.7,0,0,0-.9,2.6,4,4,0,0,0,.8,2.6,2.9,2.9,0,0,0,2.3.9l1.5-.2V73.4H56.5Z" transform="translate(-21.2 -13.4)" style="fill:#1e96dd"/><path d="M158.5,90H101.2V82.2h54.6V28.3H143.9V16.4H104.2V80.2h-3V13.4H146l12.8,12.8v59H104.2V87h54.3ZM146.9,25.3h6.8l-6.8-6.7Z" transform="translate(-21.2 -13.4)" style="fill:#1e96dd"/><path d="M145.2,48.7c-.6-.7-2-1-4.2-1l-5,.3a8.7,8.7,0,0,1-2.3-1.6,15.6,15.6,0,0,1-4.2-6.5c.1-.2.1-.4.2-.6s1-5.7.7-7.7c0-.2-.1-.3-.1-.5v-.2a1.8,1.8,0,0,0-1.7-1.3H128a2.1,2.1,0,0,0-1.9,1.2c-.6,2.2.1,5.6,1.2,9.9l-.3.7c-.8,2-1.8,4-2.7,5.8l-.2.2c-.9,1.9-1.8,3.5-2.5,4.8l-.8.4-1.8,1c-2.8,1.6-4.6,3.5-4.9,5a1.3,1.3,0,0,0,.5,1.3l.8.4a1.7,1.7,0,0,0,1,.3c2,0,4.3-2.5,7.4-7.9A74.3,74.3,0,0,1,135.1,50c2.8,1.5,6.1,2.6,8.3,2.6h.9a1.4,1.4,0,0,0,1-.7,3.7,3.7,0,0,0,.4-2.3c0-.3-.3-.6-.5-.8ZM116,59.1a14.3,14.3,0,0,1,3.9-4.6,2.3,2.3,0,0,1,.7-.7C118.4,57.2,117,58.6,116,59.1Zm12.4-28.5c.6,0,1,1.6,1,3.1a6.2,6.2,0,0,1-.8,3.3,20.1,20.1,0,0,1-.5-4.2S128.1,30.6,128.4,30.6Zm-3.7,20.3c.4-.8.9-1.6,1.3-2.5a41.2,41.2,0,0,0,2.4-5.2,17.2,17.2,0,0,0,4,4.9l.6.5A48.7,48.7,0,0,0,124.7,50.9Zm19.9-.2-1.1.2a10.3,10.3,0,0,1-4.5-1.4h2.1a10.9,10.9,0,0,1,2.6.3c1.1.3,1.1.9.9,1Z" transform="translate(-21.2 -13.4)" style="fill:#1e96dd"/><path d="M124.9,71.7a2.5,2.5,0,0,1-.9,2.2,3.7,3.7,0,0,1-2.7.7h-.9V78h-1.5V69h2.6a4.1,4.1,0,0,1,2.6.7A2.6,2.6,0,0,1,124.9,71.7Zm-4.5,1.7h.8a2.5,2.5,0,0,0,1.7-.4,1.6,1.6,0,0,0,0-2.4,2.8,2.8,0,0,0-1.5-.4h-1Z" transform="translate(-21.2 -13.4)" style="fill:#1e96dd"/><path d="M134,73.4a4.2,4.2,0,0,1-1.2,3.4,4.8,4.8,0,0,1-3.6,1.2h-2.5V69h2.8a5,5,0,0,1,3.3,1.2A4.3,4.3,0,0,1,134,73.4Zm-1.5.1q0-3.3-3-3.3h-1.3v6.6h1Q132.5,76.8,132.5,73.5Z" transform="translate(-21.2 -13.4)" style="fill:#1e96dd"/><path d="M137.4,78H136V69h5.1v1.2h-3.7v2.9h3.4v1.2h-3.4Z" transform="translate(-21.2 -13.4)" style="fill:#1e96dd"/></svg>