<svg xmlns="http://www.w3.org/2000/svg" viewBox="0 0 120 120"><title>icon-podcast</title><g id="Layer_1" data-name="Layer 1"><rect width="120" height="120" style="fill:none"/></g><g id="Layer_2" data-name="Layer 2"><polygon points="42.43 29.55 42.43 45.95 44.77 45.95 44.77 31.89 95.14 31.89 95.14 75.91 81.57 62.34 75.23 62.34 75.23 64.69 80.6 64.69 94.65 78.74 97.48 78.74 97.48 29.55 42.43 29.55" style="fill:#1e96dd"/><path d="M98,79.24H94.45L80.39,65.18H74.73V61.84h7L94.64,74.71V32.39H45.27V46.45H41.93V29.05H98Zm-3.12-1H97V30.05h-54v15.4h1.34V31.39H95.64V77.12L81.36,62.84H75.73v1.34H80.8Z" transform="translate(0 0)" style="fill:#1e96dd"/><rect x="54.14" y="55.32" width="2.34" height="2.34" style="fill:#1e96dd"/><path d="M57,58.16H53.64V54.81H57Zm-2.35-1H56V55.81H54.64Z" transform="translate(0 0)" style="fill:#1e96dd"/><rect x="58.83" y="55.32" width="2.34" height="2.34" style="fill:#1e96dd"/><path d="M61.67,58.16H58.33V54.81h3.34Zm-2.34-1h1.34V55.81H59.33Z" transform="translate(0 0)" style="fill:#1e96dd"/><rect x="63.51" y="55.32" width="2.34" height="2.34" style="fill:#1e96dd"/><path d="M66.36,58.16H63V54.81h3.35Zm-2.35-1h1.35V55.81H64Z" transform="translate(0 0)" style="fill:#1e96dd"/><rect x="49.46" y="36.58" width="2.34" height="2.34" style="fill:#1e96dd"/><path d="M52.3,39.42H49V36.08H52.3Zm-2.34-1H51.3V37.08H50Z" transform="translate(0 0)" style="fill:#1e96dd"/><rect x="54.14" y="36.58" width="2.34" height="2.34" style="fill:#1e96dd"/><path d="M57,39.42H53.64V36.08H57Zm-2.35-1H56V37.08H54.64Z" transform="translate(0 0)" style="fill:#1e96dd"/><rect x="58.83" y="36.58" width="2.34" height="2.34" style="fill:#1e96dd"/><path d="M61.67,39.42H58.33V36.08h3.34Zm-2.34-1h1.34V37.08H59.33Z" transform="translate(0 0)" style="fill:#1e96dd"/><rect x="29.55" y="55.32" width="19.91" height="2.34" style="fill:#1e96dd"/><path d="M50,58.16H29.05V54.81H50Zm-19.91-1H49V55.81H30.05Z" transform="translate(0 0)" style="fill:#1e96dd"/><rect x="29.55" y="60" width="36.31" height="2.34" style="fill:#1e96dd"/><path d="M66.36,62.84H29.05V59.5H66.36Zm-36.31-1H65.36V60.5H30.05Z" transform="translate(0 0)" style="fill:#1e96dd"/><rect x="75.23" y="48.29" width="15.23" height="2.34" style="fill:#1e96dd"/><path d="M91,51.13H74.73V47.79H91Zm-15.22-1H90V48.79H75.73Z" transform="translate(0 0)" style="fill:#1e96dd"/><rect x="75.23" y="52.97" width="15.23" height="2.34" style="fill:#1e96dd"/><path d="M91,55.81H74.73V52.47H91Zm-15.22-1H90V53.47H75.73Z" transform="translate(0 0)" style="fill:#1e96dd"/><path d="M24.86,50.63H70.54V81.08H38.43L24.86,94.65Zm-2.34-2.34V97.48h2.83l14-14.06H72.88V48.29Z" transform="translate(0 0)" style="fill:#1e96dd"/><path d="M25.56,98H22V47.79H73.38V83.92H39.61ZM23,97h2.12L39.2,82.92H72.38V48.79H23Zm1.34-1.12V50.13H71V81.58H38.64Zm1-44.73V93.45L38.23,80.58H70V51.13Z" transform="translate(0 0)" style="fill:#1e96dd"/><rect x="49.46" y="41.26" width="40.99" height="2.34" style="fill:#1e96dd"/><path d="M91,44.1H49V40.76H91Zm-41-1H90V41.76H50Z" transform="translate(0 0)" style="fill:#1e96dd"/><rect x="65.86" y="36.58" width="24.6" height="2.34" style="fill:#1e96dd"/><path d="M91,39.42H65.36V36.08H91Zm-24.59-1H90V37.08H66.36Z" transform="translate(0 0)" style="fill:#1e96dd"/><rect x="29.55" y="71.71" width="24.6" height="2.34" style="fill:#1e96dd"/><path d="M54.64,74.55H29.05V71.21H54.64Zm-24.59-1H53.64V72.21H30.05Z" transform="translate(0 0)" style="fill:#1e96dd"/><rect x="29.55" y="67.03" width="36.31" height="2.34" style="fill:#1e96dd"/><path d="M66.36,69.87H29.05V66.53H66.36Zm-36.31-1H65.36V67.53H30.05Z" transform="translate(0 0)" style="fill:#1e96dd"/></g></svg>