<svg xmlns="http://www.w3.org/2000/svg" viewBox="0 0 120 120"><title>icon-royalty</title><g id="Layer_1" data-name="Layer 1"><rect width="120" height="120" style="fill:none"/></g><g id="Layer_2" data-name="Layer 2"><path d="M33.87,71.5H26.78a4.73,4.73,0,0,1-4.72-4.73v-33A4.73,4.73,0,0,1,26.78,29H83.45a4.73,4.73,0,0,1,4.73,4.73v9.44H85.82V33.72a2.37,2.37,0,0,0-2.37-2.36H26.78a2.36,2.36,0,0,0-2.36,2.36V66.77a2.36,2.36,0,0,0,2.36,2.36h7.09Z" transform="translate(0 0)" style="fill:#1e96dd"/><rect x="23.24" y="33.72" width="63.75" height="2.36" style="fill:#1e96dd"/><rect x="23.24" y="45.52" width="10.63" height="2.36" style="fill:#1e96dd"/><rect x="26.78" y="54.97" width="7.08" height="2.36" style="fill:#1e96dd"/><rect x="69.29" y="38.44" width="11.81" height="2.36" style="fill:#1e96dd"/><rect x="62.2" y="38.44" width="4.72" height="2.36" style="fill:#1e96dd"/><path d="M38.59,54.33V85.66A2.36,2.36,0,0,0,41,88H95.26V55H41a4.64,4.64,0,0,1-2.36-.64m59,36.06H41a4.73,4.73,0,0,1-4.72-4.73V50.25A4.73,4.73,0,0,1,41,45.52H88.18v4.73H85.82V47.88H41a2.37,2.37,0,0,0,0,4.73H97.62Z" transform="translate(0 0)" style="fill:#1e96dd"/><path d="M88.18,85.66H41V83.3h45a5.92,5.92,0,0,1,4.61-4.6V64.29a5.92,5.92,0,0,1-4.61-4.6H41V57.33H88.18v1.18a3.55,3.55,0,0,0,3.54,3.54H92.9V80.94H91.72a3.55,3.55,0,0,0-3.54,3.54Z" transform="translate(0 0)" style="fill:#1e96dd"/><path d="M41,85.66V83.3a11.81,11.81,0,1,0,0-23.61V57.33a14.17,14.17,0,1,1,0,28.33" transform="translate(0 0)" style="fill:#1e96dd"/><polygon points="68.11 77.4 65.75 77.4 65.75 67.95 64.56 67.95 64.56 65.59 68.11 65.59 68.11 77.4" style="fill:#1e96dd"/><path d="M72.83,68V75h2.36V68Zm2.36,9.45H72.83A2.36,2.36,0,0,1,70.47,75V68a2.36,2.36,0,0,1,2.36-2.36h2.36A2.36,2.36,0,0,1,77.55,68V75a2.36,2.36,0,0,1-2.36,2.36" transform="translate(0 0)" style="fill:#1e96dd"/><rect x="79.91" y="70.32" width="2.36" height="2.36" style="fill:#1e96dd"/><rect x="59.84" y="70.32" width="2.36" height="2.36" style="fill:#1e96dd"/></g></svg>