<svg xmlns="http://www.w3.org/2000/svg" viewBox="0 0 120 120"><title>icon-pdf</title><rect width="120" height="120" style="fill:none"/><path d="M88.5,98.3H31.2V90.5H85.8V36.6H73.9V24.7H34.2V88.5h-3V21.7H76L88.8,34.5v59H34.2v1.8H88.5ZM76.9,33.6h6.8l-6.8-6.7Z" style="fill:#1e96dd"/><path d="M75.2,57c-.6-.7-2-1-4.2-1l-5,.3a8.7,8.7,0,0,1-2.3-1.6,15.6,15.6,0,0,1-4.2-6.5c.1-.2.1-.4.2-.6s1-5.7.7-7.7c0-.2-.1-.3-.1-.5v-.2a1.8,1.8,0,0,0-1.7-1.3H58a1.9,1.9,0,0,0-1.9,1.2c-.6,2.2.1,5.6,1.2,9.9l-.3.7c-.8,2-1.8,4-2.7,5.8l-.2.2c-.9,1.9-1.8,3.5-2.5,4.8l-.8.4-1.8,1c-2.8,1.6-4.6,3.5-4.9,5a1.2,1.2,0,0,0,.5,1.3l.8.4a1.9,1.9,0,0,0,1,.3c2,0,4.3-2.5,7.4-7.9a66.2,66.2,0,0,1,11.3-2.7c2.8,1.5,6.1,2.6,8.3,2.6h.9a1.8,1.8,0,0,0,1-.7,3.5,3.5,0,0,0,.4-2.3c0-.3-.3-.6-.5-.8ZM46,67.4a13.9,13.9,0,0,1,3.9-4.6,2.3,2.3,0,0,1,.7-.7c-2.2,3.4-3.6,4.8-4.6,5.3ZM58.4,38.9c.6,0,1,1.6,1,3.1a6.2,6.2,0,0,1-.8,3.3,20.1,20.1,0,0,1-.5-4.2s0-2.2.3-2.2ZM54.7,59.2c.4-.8.9-1.6,1.3-2.5a35.8,35.8,0,0,0,2.4-5.2,17.5,17.5,0,0,0,4,4.9l.6.5a49.1,49.1,0,0,0-8.3,2.3ZM74.6,59l-1.1.2A11.7,11.7,0,0,1,69,57.8h2.1a8,8,0,0,1,2.6.3c1.1.3,1.1.9.9,1Z" style="fill:#1e96dd"/><path d="M54.9,80a2.7,2.7,0,0,1-.9,2.2,4.1,4.1,0,0,1-2.7.7h-.9v3.4H48.9v-9h2.6a3.8,3.8,0,0,1,2.6.7A2.5,2.5,0,0,1,54.9,80Zm-4.5,1.7h.8a2.9,2.9,0,0,0,1.7-.4,1.7,1.7,0,0,0,0-2.4,2.7,2.7,0,0,0-1.5-.4h-1Z" style="fill:#1e96dd"/><path d="M64,81.7a4.5,4.5,0,0,1-1.2,3.4,4.9,4.9,0,0,1-3.6,1.2H56.7v-9h2.8a4.5,4.5,0,0,1,3.3,1.2A4.1,4.1,0,0,1,64,81.7Zm-1.5.1q0-3.3-3-3.3H58.2v6.6h1Q62.5,85.1,62.5,81.8Z" style="fill:#1e96dd"/><path d="M67.4,86.3H66v-9h5.1v1.2H67.4v2.9h3.4v1.2H67.4Z" style="fill:#1e96dd"/></svg>