<svg xmlns="http://www.w3.org/2000/svg" viewBox="0 0 120 120"><title>icon-male-narrator</title><g id="Layer_1" data-name="Layer 1"><rect width="120" height="120" style="fill:none"/></g><g id="Layer_2" data-name="Layer 2"><rect x="39.77" y="88.56" width="2.38" height="9.52" style="fill:#1e96dd"/><rect x="77.85" y="88.56" width="2.38" height="9.52" style="fill:#1e96dd"/><rect x="51.67" y="56.43" width="2.38" height="5.95" style="fill:#1e96dd"/><rect x="65.95" y="56.43" width="2.38" height="5.95" style="fill:#1e96dd"/><path d="M68.33,31.65A3.58,3.58,0,0,1,70.71,35v2.38a1.19,1.19,0,0,0,1.19,1.19V27.87a3.58,3.58,0,0,0-3.57-3.57H55.24a2.39,2.39,0,0,0-2.38,2.39,1.18,1.18,0,0,1-1.19,1.18H50.48a2.39,2.39,0,0,0-2.38,2.38v8.33a1.19,1.19,0,0,0,1.19-1.19V35a3.57,3.57,0,0,1,3.57-3.57H62.1l4.51-2.25a1.19,1.19,0,0,1,1.72,1.06ZM73.09,41H71.9a3.57,3.57,0,0,1-3.57-3.57V35a1.19,1.19,0,0,0-1.19-1.19A1.19,1.19,0,0,1,66,32.63v-.45l-3,1.52a1.18,1.18,0,0,1-.53.12H52.86A1.19,1.19,0,0,0,51.67,35v2.38A3.57,3.57,0,0,1,48.1,41H46.91a1.19,1.19,0,0,1-1.19-1.19V30.25a4.77,4.77,0,0,1,4.76-4.76h.15a4.76,4.76,0,0,1,4.61-3.56H68.33a6,6,0,0,1,6,5.94v11.9A1.19,1.19,0,0,1,73.09,41" transform="translate(0 0)" style="fill:#1e96dd"/><path d="M60,60c-9.27,0-12.89-9-13.08-15l-.85-.85a1.19,1.19,0,0,1-.35-.84V39.77H48.1v3.08l.84.84a1.16,1.16,0,0,1,.35.84c0,5.06,2.91,13.09,10.71,13.09s10.71-8,10.71-13.09a1.16,1.16,0,0,1,.35-.84l.84-.84V39.77h2.38v3.57a1.19,1.19,0,0,1-.35.84l-.85.85C72.89,51,69.27,60,60,60" transform="translate(0 0)" style="fill:#1e96dd"/><path d="M46.91,65.91,55,70.42l3.78-3.77v-1l-8.14-2Zm8.33,7.18a1.19,1.19,0,0,1-.58-.15L44,67a1.18,1.18,0,0,1,0-2.06l5.95-3.57a1.18,1.18,0,0,1,.9-.13l9.52,2.37a1.2,1.2,0,0,1,.9,1.16v2.38a1.21,1.21,0,0,1-.35.84l-4.76,4.76a1.18,1.18,0,0,1-.84.35" transform="translate(0 0)" style="fill:#1e96dd"/><path d="M61.19,66.65,65,70.42l8.12-4.51-3.76-2.26-8.14,2Zm3.57,6.44a1.18,1.18,0,0,1-.84-.35L59.16,68a1.21,1.21,0,0,1-.35-.84V64.76a1.2,1.2,0,0,1,.9-1.16l9.52-2.37a1.14,1.14,0,0,1,.9.13l6,3.57A1.18,1.18,0,0,1,76,67l-10.7,6a1.19,1.19,0,0,1-.58.15" transform="translate(0 0)" style="fill:#1e96dd"/><rect x="58.81" y="79.04" width="2.38" height="2.38" style="fill:#1e96dd"/><rect x="58.81" y="74.28" width="2.38" height="2.38" style="fill:#1e96dd"/><rect x="58.81" y="83.8" width="2.38" height="2.38" style="fill:#1e96dd"/><rect x="58.81" y="88.56" width="2.38" height="2.38" style="fill:#1e96dd"/><path d="M94.5,98.07H92.13V83.8c0-5.52-3.68-9.09-12.28-12l-.24-.11-5.94-3.57,1.22-2,5.84,3.5C87.17,71.78,94.5,75.36,94.5,83.8Z" transform="translate(0 0)" style="fill:#1e96dd"/><path d="M27.87,98.07H25.5V83.8c0-8.44,7.33-12,13.77-14.18l5.84-3.5,1.22,2-5.95,3.57-.23.11c-8.6,2.87-12.28,6.44-12.28,12Z" transform="translate(0 0)" style="fill:#1e96dd"/></g></svg>