<svg xmlns="http://www.w3.org/2000/svg" viewBox="0 0 575.7 481.4"><title>slide-illustration-04</title><path d="M493.7,145.1l59.3-1.9a22.9,22.9,0,0,0,22.7-23L558,87.6c-9.9-13.5-21.5-20.1-34.2-20h-.2c1-4.4,14.1-68.1-36.9-67.6C433.9.6,59,22.8,59,22.8c-11.9.4-40,2.8-46.2,24.4S8.2,77.6,8.2,77.6c.4,12.5,10.5,22.3,22.4,21.9l10-.3.2,21.3-19.4.2c-12,.2-21.6,10.5-21.4,23l15,66.6c.1,10.3,26.3,10.2,42.3,9.8l.2,15.7A25.2,25.2,0,0,0,60,246.1c-12.7.6-38.4,3.8-44.2,24.3s-4.6,30.4-4.6,30.4c.4,12.4,10.4,22.3,22.3,21.9l10-.3.3,19H38.4c-12,.1-26.4,55.8-9.8,80.6,12.6,18.7,22.4,21.2,31.7,21.2l.2,15.7c.1,12.5,10,22.5,21.9,22.4l459.1-6.1c11.9-.1,21.5-10.5,21.3-22.9l-.5-38.5c-.1-5.2-11.1-12.2-24.9-18.5a9.5,9.5,0,0,0,1.9-5l-6-23.7h.2c12.7-.1,28-11.7,27.9-24.1,0,0-21.9-51.8-34.6-51.7h-.2c.5-2.3,4.4-21.3.4-38.5l11.5-.2c11.9-.1,21.5-10.4,21.4-22.9l-.6-38.5c-.1-12.5-64-35.3-76.1-35.3a17,17,0,0,1-.1-2.2Z" style="fill:#fff"/><path d="M334.6,135.4l33.1-1.1s-35.6,43.6-55.4,46.9S334.6,135.4,334.6,135.4Z" style="fill:none;stroke:#1a2a3d;stroke-linecap:round;stroke-linejoin:round;stroke-width:2.73113551550781px"/><path d="M351.6,105.7c-10-6.5-21.5-13-29.5-13.6s-3.5,6.5,3.9,13.9C333.8,105.7,342.6,105.8,351.6,105.7Z" style="fill:none;stroke:#1a2a3d;stroke-linecap:round;stroke-linejoin:round;stroke-width:2.73113551550781px"/><path d="M360.9,151.3c34.6,0,63.6-1.6,70.2-2.7,10.5-1.7,34-12.9,33.8-17s-27-16.3-52.3-19.4-100.7-1.8-113.9,1.3-34.2,6.5-34.2,6.5l-23.1-17.8,1.4,42.4s13.2-3.1,25.1-2.2S283.8,153,314.2,153" style="fill:none;stroke:#1a2a3d;stroke-linecap:round;stroke-linejoin:round;stroke-width:2.73113551550781px"/><path d="M430.9,120.4c0,7.4-2.5,9.1,14.3,9.1" style="fill:none;stroke:#1a2a3d;stroke-linecap:round;stroke-linejoin:round;stroke-width:2.73113551550781px"/><path d="M411.5,123c-1-2.5-6.7-3.6-8.4-1.4s-4.1,5.8-1.4,6.5,6.5,1.2,8.2,0S412.6,125.6,411.5,123Z" style="fill:none;stroke:#1a2a3d;stroke-linecap:round;stroke-linejoin:round;stroke-width:2.73113551550781px"/><path d="M392.5,123c-1.1-2.5-6.7-3.6-8.4-1.4s-4.1,5.8-1.5,6.5,6.5,1.2,8.2,0S393.6,125.6,392.5,123Z" style="fill:none;stroke:#1a2a3d;stroke-linecap:round;stroke-linejoin:round;stroke-width:2.73113551550781px"/><path d="M373.5,123c-1.1-2.5-6.8-3.6-8.5-1.4s-4,5.8-1.4,6.5,6.5,1.2,8.2,0S374.5,125.6,373.5,123Z" style="fill:none;stroke:#1a2a3d;stroke-linecap:round;stroke-linejoin:round;stroke-width:2.73113551550781px"/><path d="M354.4,123c-1-2.5-6.7-3.6-8.4-1.4s-4.1,5.8-1.4,6.5,6.4,1.2,8.1,0S355.5,125.5,354.4,123Z" style="fill:none;stroke:#1a2a3d;stroke-linecap:round;stroke-linejoin:round;stroke-width:2.73113551550781px"/><path d="M335.4,123c-1.1-2.5-6.8-3.6-8.4-1.4s-4.1,5.8-1.5,6.5,6.5,1.2,8.2,0S336.4,125.5,335.4,123Z" style="fill:none;stroke:#1a2a3d;stroke-linecap:round;stroke-linejoin:round;stroke-width:2.73113551550781px"/><path d="M316.3,123c-1-2.5-6.7-3.6-8.4-1.4s-4.1,5.8-1.4,6.5,6.5,1.2,8.1,0S317.4,125.5,316.3,123Z" style="fill:none;stroke:#1a2a3d;stroke-linecap:round;stroke-linejoin:round;stroke-width:2.73113551550781px"/><path d="M238.5,331.9s12.9-17.1,8.8-29c-5.1-14.6-15.6-31-37-31-43.1-.7-33.9,64.2-33.9,64.2" style="fill:none;stroke:#f26a21;stroke-linecap:round;stroke-miterlimit:10;stroke-width:5.08696475962913px"/><ellipse cx="210.3" cy="224.5" rx="31.8" ry="36.7" style="fill:none;stroke:#f26a21;stroke-linecap:round;stroke-miterlimit:10;stroke-width:5.08696475962913px"/><line x1="150.2" y1="244.1" x2="150.5" y2="256.2" style="fill:none;stroke:#4f82be;stroke-linecap:round;stroke-miterlimit:10;stroke-width:3.43422460820264px"/><line x1="138.3" y1="256.9" x2="150.5" y2="256.2" style="fill:none;stroke:#4f82be;stroke-linecap:round;stroke-miterlimit:10;stroke-width:3.43422460820264px"/><path d="M167.1,131.4c0,6.1-14.1,7.6-31.3,5.9s-29.7-4.9-29.7-11,12.4-9.3,29.7-9.3S167.1,125.3,167.1,131.4Z" style="fill:#fff;stroke:#4f82be;stroke-linecap:round;stroke-miterlimit:10;stroke-width:5.08696475962913px"/><path d="M167.1,122.1c0,6.1-14.1,7.6-31.3,5.9s-29.7-4.9-29.7-11,12.4-9.3,29.7-9.3S167.1,116,167.1,122.1Z" style="fill:#fff;stroke:#4f82be;stroke-linecap:round;stroke-miterlimit:10;stroke-width:5.08696475962913px"/><path d="M167.1,111.9c0,6.1-14.1,7.6-31.3,5.9s-29.7-4.9-29.7-11,12.4-9.3,29.7-9.3S167.1,105.8,167.1,111.9Z" style="fill:#fff;stroke:#4f82be;stroke-linecap:round;stroke-miterlimit:10;stroke-width:5.08696475962913px"/><path d="M167.1,101.7c0,6.1-14.1,7.6-31.3,6s-29.7-5-29.7-11,12.4-9.4,29.7-9.4S167.1,95.7,167.1,101.7Z" style="fill:#fff;stroke:#4f82be;stroke-linecap:round;stroke-miterlimit:10;stroke-width:5.08696475962913px"/><path d="M167.1,92.4c0,6.1-14.1,7.6-31.3,5.9s-29.7-4.9-29.7-11S118.5,78,135.8,78,167.1,86.3,167.1,92.4Z" style="fill:#fff;stroke:#4f82be;stroke-linecap:round;stroke-miterlimit:10;stroke-width:5.08696475962913px"/><path d="M167.1,82.2c0,6.1-14.1,7.6-31.3,6s-29.7-5-29.7-11,12.4-9.4,29.7-9.4S167.1,76.2,167.1,82.2Z" style="fill:#fff;stroke:#4f82be;stroke-linecap:round;stroke-miterlimit:10;stroke-width:5.08696475962913px"/><path d="M212.1,146.7c0,6.1-14.1,7.6-31.4,5.9s-29.7-4.9-29.7-11,12.4-9.3,29.7-9.3S212.1,140.6,212.1,146.7Z" style="fill:#fff;stroke:#4f82be;stroke-linecap:round;stroke-miterlimit:10;stroke-width:5.08696475962913px"/><path d="M212.1,137.3c0,6.1-14.1,7.6-31.4,6s-29.7-5-29.7-11,12.4-9.4,29.7-9.4S212.1,131.3,212.1,137.3Z" style="fill:#fff;stroke:#4f82be;stroke-linecap:round;stroke-miterlimit:10;stroke-width:5.08696475962913px"/><path d="M212.1,127.1c0,6.1-14.1,7.6-31.3,6s-29.7-4.9-29.7-11,12.3-9.3,29.6-9.3S212.1,121,212.1,127.1Z" style="fill:#fff;stroke:#4f82be;stroke-linecap:round;stroke-miterlimit:10;stroke-width:5.08696475962913px"/><path d="M212.1,116.9c0,6.1-14.1,7.6-31.4,6S151.1,118.1,151,112s12.4-9.4,29.7-9.4S212.1,110.9,212.1,116.9Z" style="fill:#fff;stroke:#4f82be;stroke-linecap:round;stroke-miterlimit:10;stroke-width:5.08696475962913px"/><path d="M163.8,156.8c0,6.1-14.2,7.6-31.4,6s-29.7-5-29.7-11,12.4-9.4,29.7-9.4S163.8,150.8,163.8,156.8Z" style="fill:#fff;stroke:#4f82be;stroke-linecap:round;stroke-miterlimit:10;stroke-width:5.08696475962913px"/><path d="M163.8,147.5c0,6.1-14.2,7.6-31.4,6s-29.7-5-29.7-11.1,12.4-9.3,29.7-9.3S163.8,141.4,163.8,147.5Z" style="fill:#fff;stroke:#4f82be;stroke-linecap:round;stroke-miterlimit:10;stroke-width:5.08696475962913px"/><path d="M192.8,410.1c0,12.3,9.9,21.1,9.9,21.1s48.7-53,48.7-59.4-7.8-19.4-14.2-17.3S192.8,397.8,192.8,410.1Z" style="fill:none;stroke:#1a2a3d;stroke-linecap:round;stroke-linejoin:round;stroke-width:5.08696475962913px"/><polyline points="220.5 345.9 227.8 338 239.4 340.4 231.5 347.7" style="fill:none;stroke:#1a2a3d;stroke-linecap:round;stroke-linejoin:round;stroke-width:5.08696475962913px"/><path d="M215.4,432.6c0,2.9-.9,5.1-3.3,5.1s-3.7-.1-3.7-3,1.2-4.9,3.7-4.9S215.4,429.6,215.4,432.6Z" style="fill:none;stroke:#1a2a3d;stroke-linecap:round;stroke-linejoin:round;stroke-width:5.08696475962913px"/><path d="M162.9,431.5c-.6,1.2-3.5,1.4-4.9-.7" style="fill:none;stroke:#1a2a3d;stroke-linecap:round;stroke-linejoin:round;stroke-width:5.08696475962913px"/><ellipse cx="367.1" cy="248.5" rx="31.8" ry="36.7" style="fill:none;stroke:#f26a21;stroke-linecap:round;stroke-miterlimit:10;stroke-width:5.08696475962913px"/><path d="M386.2,300.8c-7.8-4.9-11.3-5.6-20.5-5.6S349.4,298,341,305.8" style="fill:none;stroke:#f26a21;stroke-linecap:round;stroke-miterlimit:10;stroke-width:5.08696475962913px"/><path d="M415.8,351s.7-12.7-9.1-29" style="fill:none;stroke:#f26a21;stroke-linecap:round;stroke-miterlimit:10;stroke-width:5.08696475962913px"/><path d="M322.6,328.4a72.7,72.7,0,0,0-9.2,21.2" style="fill:none;stroke:#f26a21;stroke-linecap:round;stroke-miterlimit:10;stroke-width:5.08696475962913px"/><path d="M320,315.1l11.5,14.6s-7.6,35.3,0,48.8,14.1,11.7,21.8,11.7,31.7,2.4,35.2-5.8,0-54.7,0-54.7l18.2-19-10.9-9.6-16.1,15.1s-5.3-13-18.2-13-20,12.4-20,12.4l-10.9-9.3Z" style="fill:none;stroke:#1a2a3d;stroke-linecap:round;stroke-linejoin:round;stroke-width:5.08696475962913px"/><path d="M341,327c3.5-2.9,13.4-5,18.3-5s15.6,3.5,17,5" style="fill:none;stroke:#1a2a3d;stroke-linecap:round;stroke-linejoin:round;stroke-width:5.08696475962913px"/><path d="M350.8,357.3c2.2,1.4,4.3,15.6.8,16.3s-11.9.2-14.3-2.5c-.5-.5-.7-13.1-.6-13.8" style="fill:none;stroke:#1a2a3d;stroke-linecap:round;stroke-linejoin:round;stroke-width:5.08696475962913px"/><path d="M377,355.2c2.1,1.4,4.9,17.7,1.4,18.4s-12.8,1.2-15.1-1.3c-.4-.4.2-12.9.3-13.6" style="fill:none;stroke:#1a2a3d;stroke-linecap:round;stroke-linejoin:round;stroke-width:5.08696475962913px"/><path d="M237,354.4s-38-8.9-43.7-6.2l-.7.2c-6.4,2.1-44.3,43.3-44.3,55.6,0,8.6,4.8,15.5,7.8,18.8h-.3c.1.3.5.6,1.1,1l1.3,1.3.5-.5c9.8,3.6,41,6.7,41,6.7" style="fill:none;stroke:#1a2a3d;stroke-linecap:round;stroke-linejoin:round;stroke-width:5.08696475962913px"/><path d="M192.6,358.7s6.4-1.4,11.3,0,6.4,4.3,6.4,4.3" style="fill:none;stroke:#1a2a3d;stroke-linecap:round;stroke-miterlimit:10;stroke-width:5.08696475962913px"/><path d="M184.1,407.5s-12-.7-16.9-2.1a54.1,54.1,0,0,0-12-1.4" style="fill:none;stroke:#1a2a3d;stroke-linecap:round;stroke-miterlimit:10;stroke-width:5.08696475962913px"/><ellipse cx="285.9" cy="228.1" rx="31.8" ry="36.7" style="fill:none;stroke:#f26a21;stroke-linecap:round;stroke-miterlimit:10;stroke-width:5.08696475962913px"/><path d="M317.6,296.6c-8.4-12.7-18-21.2-31.7-21.2-17.7,0-24.1,6.3-29.7,17.6" style="fill:none;stroke:#f26a21;stroke-linecap:round;stroke-miterlimit:10;stroke-width:5.08696475962913px"/><path d="M125.6,171.3s2.5,72,22.9,83" style="fill:none;stroke:#4f82be;stroke-linecap:round;stroke-miterlimit:10;stroke-width:3.43422460820264px"/></svg>