<svg xmlns="http://www.w3.org/2000/svg" viewBox="0 0 575.7 481.4"><title>slide-illustration-01</title><path d="M493.7,145.1l59.3-1.9a22.9,22.9,0,0,0,22.7-23L558,87.6c-9.9-13.5-21.5-20.1-34.2-20h-.2c1-4.4,14.1-68.1-36.9-67.6C433.9.6,59,22.8,59,22.8c-11.9.4-40,2.8-46.2,24.4S8.2,77.6,8.2,77.6c.4,12.5,10.5,22.3,22.4,21.9l10-.3.2,21.3-19.4.2c-12,.2-21.6,10.5-21.4,23l15,66.6c.1,10.3,26.3,10.2,42.3,9.8l.2,15.7A25.2,25.2,0,0,0,60,246.1c-12.7.6-38.4,3.8-44.2,24.3s-4.6,30.4-4.6,30.4c.4,12.4,10.4,22.3,22.3,21.9l10-.3.3,19H38.4c-12,.1-26.4,55.8-9.8,80.6,12.6,18.7,22.4,21.2,31.7,21.2l.2,15.7c.1,12.5,10,22.5,21.9,22.4l459.1-6.1c11.9-.1,21.5-10.5,21.3-22.9l-.5-38.5c-.1-5.2-11.1-12.2-24.9-18.5a9.5,9.5,0,0,0,1.9-5l-6-23.7h.2c12.7-.1,28-11.7,27.9-24.1,0,0-21.9-51.8-34.6-51.7h-.2c.5-2.3,4.4-21.3.4-38.5l11.5-.2c11.9-.1,21.5-10.4,21.4-22.9l-.6-38.5c-.1-12.5-64-35.3-76.1-35.3a17,17,0,0,1-.1-2.2Z" style="fill:#fff"/><path d="M255.7,426.3s-17.5-63.4-63.4-63.4-63.5,63.4-63.5,63.4" style="fill:none;stroke:#f26a21;stroke-linecap:round;stroke-miterlimit:10;stroke-width:5.00999991135373px"/><ellipse cx="192.3" cy="306.9" rx="37.6" ry="43.4" style="fill:none;stroke:#f26a21;stroke-linecap:round;stroke-miterlimit:10;stroke-width:5.00999991135373px"/><ellipse cx="293.3" cy="316.1" rx="37.6" ry="43.4" style="fill:none;stroke:#f26a21;stroke-linecap:round;stroke-miterlimit:10;stroke-width:5.00999991135373px"/><path d="M457.8,426.3s-17.5-63.4-63.5-63.4-63.4,63.4-63.4,63.4" style="fill:none;stroke:#f26a21;stroke-linecap:round;stroke-miterlimit:10;stroke-width:5.00999991135373px"/><ellipse cx="394.3" cy="306.9" rx="37.6" ry="43.4" style="fill:none;stroke:#f26a21;stroke-linecap:round;stroke-miterlimit:10;stroke-width:5.00999991135373px"/><circle cx="223.6" cy="241.4" r="10.4" style="fill:none;stroke:#1a2a3d;stroke-linecap:round;stroke-miterlimit:10;stroke-width:5.00999991135373px"/><circle cx="293.7" cy="248.9" r="10.4" style="fill:none;stroke:#1a2a3d;stroke-linecap:round;stroke-miterlimit:10;stroke-width:5.00999991135373px"/><circle cx="377.2" cy="244.7" r="10.4" style="fill:none;stroke:#1a2a3d;stroke-linecap:round;stroke-miterlimit:10;stroke-width:5.00999991135373px"/><circle cx="244.5" cy="216.3" r="10.4" style="fill:none;stroke:#1a2a3d;stroke-linecap:round;stroke-miterlimit:10;stroke-width:5.00999991135373px"/><circle cx="292.9" cy="216.3" r="10.4" style="fill:none;stroke:#1a2a3d;stroke-linecap:round;stroke-miterlimit:10;stroke-width:5.00999991135373px"/><circle cx="357.2" cy="219.7" r="10.4" style="fill:none;stroke:#1a2a3d;stroke-linecap:round;stroke-miterlimit:10;stroke-width:5.00999991135373px"/><path d="M426.4,129.5c0-27.3-28-49.3-62.5-49.3a54.3,54.3,0,0,0-5.7.2,20.5,20.5,0,0,0-30.8-3.6A44.9,44.9,0,0,0,253,80.7a41.7,41.7,0,0,0-7.1-.5,49.3,49.3,0,1,0,19.6,94.6,41.2,41.2,0,0,0,65.1,5.6,31.8,31.8,0,0,0,53.1-4.1C408.5,169.7,426.4,151.3,426.4,129.5Z" style="fill:none;stroke:#1a2a3d;stroke-linecap:round;stroke-miterlimit:10;stroke-width:5.00999991135373px"/><path d="M331.9,390.3c-9.6-10.3-22.3-18.2-38.6-18.2s-28,7.3-37.5,17.1" style="fill:none;stroke:#f26a21;stroke-linecap:round;stroke-miterlimit:10;stroke-width:5.00999991135373px"/><path d="M300.9,132.8l20.8-.7s-22.4,27.5-34.9,29.6S300.9,132.8,300.9,132.8Z" style="fill:none;stroke:#1a2a3d;stroke-linecap:round;stroke-linejoin:round;stroke-width:5.00999991135373px"/><path d="M311.6,110.4c-6.3-4.1-13.5-8-18.6-8.3s-2.2,4.1,2.4,8.8Z" style="fill:none;stroke:#1a2a3d;stroke-linecap:round;stroke-linejoin:round;stroke-width:3.85147990526268px"/><path d="M324.8,143c19.8-.5,32.8-1.2,36.9-1.8,6.7-1.1,21.5-8.2,21.4-10.8s-17.1-10.3-33-12.2-63.6-1.2-71.9.8-21.5,4.1-21.5,4.1l-14.6-11.2.9,26.7a58.7,58.7,0,0,1,15.8-1.4c7.6.6,12.4,6.7,22.8,6.7" style="fill:none;stroke:#1a2a3d;stroke-linecap:round;stroke-linejoin:round;stroke-width:5.00999991135373px"/></svg>