<svg xmlns="http://www.w3.org/2000/svg" viewBox="0 0 575.7 481.4"><title>slide-illustration-02</title><path d="M493.7,145.1l59.3-1.9a22.9,22.9,0,0,0,22.7-23L558,87.6c-9.9-13.5-21.5-20.1-34.2-20h-.2c1-4.4,14.1-68.1-36.9-67.6C433.9.6,59,22.8,59,22.8c-11.9.4-40,2.8-46.2,24.4S8.2,77.6,8.2,77.6c.4,12.5,10.5,22.3,22.4,21.9l10-.3.2,21.3-19.4.2c-12,.2-21.6,10.5-21.4,23l15,66.6c.1,10.3,26.3,10.2,42.3,9.8l.2,15.7A25.2,25.2,0,0,0,60,246.1c-12.7.6-38.4,3.8-44.2,24.3s-4.6,30.4-4.6,30.4c.4,12.4,10.4,22.3,22.3,21.9l10-.3.3,19H38.4c-12,.1-26.4,55.8-9.8,80.6,12.6,18.7,22.4,21.2,31.7,21.2l.2,15.7c.1,12.5,10,22.5,21.9,22.4l459.1-6.1c11.9-.1,21.5-10.5,21.3-22.9l-.5-38.5c-.1-5.2-11.1-12.2-24.9-18.5a9.5,9.5,0,0,0,1.9-5l-6-23.7h.2c12.7-.1,28-11.7,27.9-24.1,0,0-21.9-51.8-34.6-51.7h-.2c.5-2.3,4.4-21.3.4-38.5l11.5-.2c11.9-.1,21.5-10.4,21.4-22.9l-.6-38.5c-.1-12.5-64-35.3-76.1-35.3a17,17,0,0,1-.1-2.2Z" style="fill:#fff"/><path d="M450.2,412.9s8.4-65.4-37.7-65.4-63.8,63.7-63.8,63.7" style="fill:none;stroke:#f26a21;stroke-linecap:round;stroke-miterlimit:10;stroke-width:5.03201074495926px"/><ellipse cx="412.5" cy="291.3" rx="37.7" ry="43.6" style="fill:none;stroke:#f26a21;stroke-linecap:round;stroke-miterlimit:10;stroke-width:5.03201074495926px"/><ellipse cx="165.9" cy="137" rx="37.7" ry="43.6" style="fill:none;stroke:#4f82be;stroke-linecap:round;stroke-miterlimit:10;stroke-width:5.03201074495926px"/><path d="M348.7,376s-40.2,0-57-43.6" style="fill:none;stroke:#f26a21;stroke-linecap:round;stroke-miterlimit:10;stroke-width:5.03201074495926px"/><path d="M372.2,350s-35.2,0-52-43.6" style="fill:none;stroke:#f26a21;stroke-linecap:round;stroke-miterlimit:10;stroke-width:5.03201074495926px"/><path d="M194.4,282.9s-32.7-11.7-40.3-51.2" style="fill:none;stroke:#4f82be;stroke-linecap:round;stroke-miterlimit:10;stroke-width:5.03201074495926px"/><path d="M257.3,269.5s-39.4-1.7-39.4-31c0-10.9.8-12.6-.9-16.8s-5-28.5-51.1-28.5S126.5,267,126.5,267" style="fill:none;stroke:#4f82be;stroke-linecap:round;stroke-miterlimit:10;stroke-width:5.03201074495926px"/><path d="M264.4,238.2l25.8,16.2s-30.9,48.6-53.5,45.9-38.1-1.5-43.6-12.9,2.9-14.8,6.2-14.1,29.8,5,39.7,2.7C246.5,274.2,264.4,238.2,264.4,238.2Z" style="fill:#fff;stroke:#1a2a3d;stroke-linecap:round;stroke-miterlimit:10;stroke-width:5.03201074495926px"/></svg>