<svg xmlns="http://www.w3.org/2000/svg" viewBox="0 0 120 120"><title>icon-hrferdinand</title><g id="Layer_1" data-name="Layer 1"><rect width="120" height="120" style="fill:none"/></g><g id="Layer_2" data-name="Layer 2"><path d="M26.26,80.81H24.58v2.83H21.67V80.81H20V88h1.67V85h2.91v3h1.68ZM29.45,84V82.11h1.79c.34,0,.45,0,.51.08s.19.29.19.86-.09.78-.19.89-.17.09-.51.09Zm2.44,2.17A13.4,13.4,0,0,0,32,88h1.69c0-.39-.09-1-.12-1.89,0-1-.39-1.25-1.12-1.41v0c.83-.14,1.2-.52,1.2-1.81,0-1-.17-1.42-.47-1.71a1.57,1.57,0,0,0-1.2-.33H27.78V88h1.67V85.27H31c.43,0,.57,0,.7.14s.19.24.2.79m3,1.78H36.5V86.34H34.89Zm10.53-5.86V80.81H40.29V88H42v-2.8h2.59V83.91H42V82.12Zm6.43,4.54H48.14V84.93H51V83.67H48.14V82.13h3.71V80.81H46.47V88h5.38ZM54.76,84V82.11h1.78c.35,0,.45,0,.51.08s.2.29.2.86-.1.78-.2.89-.16.09-.51.09ZM57.2,86.2A15.62,15.62,0,0,0,57.33,88H59c0-.39-.08-1-.11-1.89,0-1-.39-1.25-1.13-1.41v0c.83-.14,1.2-.52,1.2-1.81,0-1-.17-1.42-.46-1.71a1.61,1.61,0,0,0-1.21-.33H53.09V88h1.67V85.27h1.53c.43,0,.58,0,.7.14s.19.24.21.79m3.22-5.39V88h3.4a2.6,2.6,0,0,0,2-.55c.48-.46.72-1.26.72-3s-.24-2.58-.72-3a2.6,2.6,0,0,0-2-.55Zm4.36,3.59c0,1.48-.09,1.89-.29,2.08s-.37.2-.83.2H62.09V82.11h1.57c.47,0,.65,0,.83.2s.29.59.29,2.09m4.74-3.59H67.84V88h1.68Zm7.84,0h-1.6v4.52h-.1L73.4,81.24a.69.69,0,0,0-.74-.43H71.1V88h1.6V83.13h.1l2.47,4.42A.71.71,0,0,0,76,88h1.35ZM83.46,88h1.78L83,81.25c-.13-.38-.21-.47-.58-.47H81.05c-.38,0-.45.08-.58.47L78.24,88h1.68l.53-1.78h2.47Zm-1.84-5.7h.13l.8,2.67H80.82Zm10.77-1.47h-1.6v4.52h-.1l-2.25-4.09a.69.69,0,0,0-.74-.43H86.13V88h1.6V83.13h.1l2.47,4.42A.71.71,0,0,0,91,88h1.35Zm1.52,0V88h3.4a2.58,2.58,0,0,0,2-.55c.48-.46.72-1.26.72-3s-.24-2.58-.72-3a2.58,2.58,0,0,0-2-.55Zm4.37,3.59c0,1.48-.09,1.89-.3,2.08s-.37.2-.83.2H95.58V82.11h1.57c.47,0,.66,0,.83.2s.3.59.3,2.09" transform="translate(0 0)" style="fill:#555"/><path d="M49.4,43.85s.22-2.09,2.08-1.79c1.6.26,1.57,2,2,1.93s1.87-3.17,4.42-9.05S64.48,31,64.48,31a2.68,2.68,0,0,1,1.18,3.33c-.7,2.16-1.28,4.44-1,5.28s1.15.83,2.26-.46c0,0-.17,1.9-1.37,1.9,0,0-2.5.2-2.41-3.11.07-2.92,0-3.5-.43-3.7a1.79,1.79,0,0,0-1.88.35,7.86,7.86,0,0,0-1.37,1.78c-.45.76-2.65,6.83-5.52,8.66s-4.6.34-4.49-1.21" transform="translate(0 0)" style="fill:#555"/><path d="M54.82,46s-.29-.49.69-1.06c2.69-1.58,2.59-1.7,3.26-2.65a18.24,18.24,0,0,0,1.57-2.92c.09-.28.23-.43.5-.27s-.1,1.24-.26,1.57a20.43,20.43,0,0,0-1.08,2.63c-.07.3,0,.39.27.44s.54-.22.84-.59.94-1,1.27-.83.14.94-.37,1.89-.38,1.22-.28,1.25.42-.24.82-.7.67-.73.67-.73.47-.66,1-.25,0,1.09-.27,1.38A13.86,13.86,0,0,1,61,47.73a1.35,1.35,0,0,1-1.36,0s-.71-.48-.3-2.09a1.56,1.56,0,0,1-1.23-1.13s.07-.33-1.13.73-1.92,1.41-2.18.84" transform="translate(0 0)" style="fill:#555"/><path d="M66.6,34.14a5.69,5.69,0,0,1,.58-2.68c.8-1.54,1.3-1.65,2-1.72.32,0,.93.26,1.27-.57s1.78-2.46,3-2.35,1.57.64,1.6.82-.18.57-.41.45-.27-.62-.67-.7A1.84,1.84,0,0,0,71.83,29a4.59,4.59,0,0,0,0,2.55.94.94,0,0,1-.37,1.14c-.62.33-.95.42-1.14.21-.44-.49,0-1.39-1.19-1.27-.61.07-1.29,1.36-1.49,3-.14,1.19.14,2.7.68,3.13a1.77,1.77,0,0,0,1.81.38s1-.33,1,0a1.34,1.34,0,0,1-1.74,1.27c-1.13-.25-2.71-1-2.78-5.21" transform="translate(0 0)" style="fill:#555"/><path d="M67.1,42.77a3.78,3.78,0,0,1,3.84-2.51,3.73,3.73,0,0,0-2,2c-.33.94-.56,1.69-1,1.69a.88.88,0,0,1-.84-1.22" transform="translate(0 0)" style="fill:#555"/><path d="M74.56,37.34A1.81,1.81,0,0,0,76.44,36c.41-1.51,0-2,0-2A1.28,1.28,0,0,1,77.63,35c.18,1-.11,2.46-1.18,2.83a2.85,2.85,0,0,1-2-.13l-.34-.24Z" transform="translate(0 0)" style="fill:#555"/><path d="M74.26,32.38c-.33-.05-.8,0-.82.6s.28,1,.64,1a.79.79,0,0,0,.67-.78.67.67,0,0,0-.49-.77" transform="translate(0 0)" style="fill:#555"/><path d="M75.71,30.53a.72.72,0,0,1,.94.26c.36.56-.12,1.13.42,1.59a1.82,1.82,0,0,0,.61.36,2.92,2.92,0,0,1-2.06-.92c-.58-.92.09-1.29.09-1.29" transform="translate(0 0)" style="fill:#555"/><path d="M62.34,49.05c1.11-1.6,2.51-2.76,3.77-2.68,0,0,.48.14.25.23a8.07,8.07,0,0,0-2,1.32,6.27,6.27,0,0,0-1.67,3.91,5.54,5.54,0,0,0,1.36,3.37.88.88,0,0,1,0,1.38,2.27,2.27,0,0,1-2.46-1.19,5,5,0,0,1-.49-3.52,8.64,8.64,0,0,1,1.26-2.82" transform="translate(0 0)" style="fill:#555"/><path d="M79.78,32.74a.58.58,0,0,0,.43.21c.33,0,.37-.54.37-.77s.07-1.18.46-.91.55.55,1,.51.8-.82.8-.82.42-.25,1.25.26a.74.74,0,0,0,1.09-.14A.83.83,0,0,0,84.72,30a1.39,1.39,0,0,0-1.4,0c-.44.16-.65.32-1,.08a1.48,1.48,0,0,0-1.81,0c-.57.59-1.15,1.91-.72,2.61" transform="translate(0 0)" style="fill:#555"/><path d="M78.34,34.69s-.31-.88,1.59-1.1a44,44,0,0,0,7.28-2.21c1.44-.58,3.52-1.4,4.72-1.17a4.3,4.3,0,0,1,3,1.61,1.4,1.4,0,0,1,0,1.69,1.62,1.62,0,0,1-2.2,0,3.93,3.93,0,0,0-4.11-.81s2.21.85,1.59,2.9a5.13,5.13,0,0,1-3.72,3,13.24,13.24,0,0,1-3.75.68c-.31,0-.5-.09-.5-.64s-.11-.83.9-1,5.58-.32,5.84-2.44c.13-1-.07-1.77-2.38-1.77a14.93,14.93,0,0,0-5.91,1.19c-.87.49-2,.78-2.31-.05" transform="translate(0 0)" style="fill:#555"/><path d="M93.31,30.11s-1.73-1.59-.83-3.49c0,0,.64-1.25,1.51-.82s1,2-.22,3.31a.62.62,0,0,0-.06.8c.24.29.37.81-.4.2" transform="translate(0 0)" style="fill:#555"/><path d="M83.21,35.09c-.22-.2-.61-.2-2.31.59A11.72,11.72,0,0,0,77,39.34c-.58.86-.65,1.69-.06,1.82,1,.22,1.16-.15,1.43-1.15a6,6,0,0,1,3.17-4c-1.4,1.39-1.4,4.91-1.69,6.68s-3.25,1.89-4.37,1.89A23,23,0,0,1,72,44c-.63-.09-1.62.11-1.62,1.52a1.49,1.49,0,0,0,2.66.86c.19-.19.32-.47.85-.32s.45.51.45,1.31c0,1.26-.5,3.9-1.79,4.42a3.15,3.15,0,0,1-1.24.22.84.84,0,0,0-.93.87c.09.38,1.11,1.45,2.59,0a10.32,10.32,0,0,0,2.95-6.15c0-.36,0-.76,0-1,.59,0,1.29,0,2,0,2.7,0,3.2-2.64,3.31-4,.22-3.94,1.12-4.88,1.84-5.43s.36-1,.15-1.18" transform="translate(0 0)" style="fill:#555"/><path d="M81.58,42.94a.93.93,0,0,1,1.13-.3,2,2,0,0,0,2.62-1.39,4.18,4.18,0,0,0-.13-1.91,3.79,3.79,0,0,1,.57,2.7,2.46,2.46,0,0,1-2.18,2c-1.12.08-1.47,0-1.83-.32a.62.62,0,0,1-.18-.76" transform="translate(0 0)" style="fill:#555"/><path d="M55.67,60.07a4.53,4.53,0,0,1,2.16-.77A10.76,10.76,0,0,1,63.27,61c2.11,1.22,4.39,2.84,5.72,2s2.2-3.45,1.34-5.81A9.11,9.11,0,0,0,68,54.07c-.29-.45-.44-1.27.17-1.64s1.47-.19,2.27,1.13a11.29,11.29,0,0,1,1.59,3.71,6.92,6.92,0,0,1-1.42,5.42A3.36,3.36,0,0,1,68,63.83c-1.41.05-4.56-1.56-6.12-2.32a4,4,0,0,0-2.1-.57c-1.24,0-1.64,1.48-2.71,1.82s-1.48.09-1.81-.46a1.75,1.75,0,0,1,.42-2.23" transform="translate(0 0)" style="fill:#555"/><path d="M52,70.84a.86.86,0,0,1,0-1.42c.64-.48,1.88-.25,2,1.35.1,1.83.85,3,1.55,3.06a4,4,0,0,1-.31-4.71c.33-.53.82-1.5,3.82-2.09,2.27-.44,3.41-.59,4.37-1.59.83-.85,1.19-1.52,1.64-1.31s.33.62,0,1.06a6,6,0,0,1-3.74,2.55c-3.18.75-4.54,1.56-5,3.21-.64,2.12-.13,2.34.22,2.82s.31.86.07.92c-.56.15-2.71.14-3.4-1.4s-.7-2-1.18-2.45" transform="translate(0 0)" style="fill:#555"/></g></svg>