<svg xmlns="http://www.w3.org/2000/svg" viewBox="0 0 120 120"><title>icon-bonnier</title><g id="Layer_1" data-name="Layer 1"><rect width="120" height="120" style="fill:none"/></g><g id="Layer_2" data-name="Layer 2"><g id="Page-1"><g id="bonnier_publications" data-name="bonnier publications"><path id="Shape" d="M91.86,50.69h2.68c1.32,0,2.12.61,2.12,1.76v0c0,1-.75,1.74-2.06,1.74H91.86l4.8,6.31h3.21l-3.25-4.27a3.93,3.93,0,0,0,2.76-3.91v0a3.8,3.8,0,0,0-1-2.8,4.84,4.84,0,0,0-3.56-1.25h-5.6V60.54h2.69ZM67.69,48.26v7.55L62,48.26H58.23l1.25,1.63V60.53h2.65V52.89l5.8,7.64h2.43V48.26Zm-13.49,0v7.55l-5.74-7.55H44.74L46,49.89V60.53h2.66V52.89l5.8,7.64h2.42V48.26Zm24,0h9.23v2.39H80.86v2.5h5.78v2.39H80.86v2.58h6.66v2.4H78.2Zm-5.31,0h2.69V60.53H72.89ZM41.7,54.43v0A3.73,3.73,0,0,0,38,50.53a3.67,3.67,0,0,0-3.68,3.82v0A3.73,3.73,0,0,0,38,58.25,3.66,3.66,0,0,0,41.7,54.43Zm-10.2,0v0A6.34,6.34,0,0,1,38,48a6.28,6.28,0,0,1,6.48,6.31v0A6.34,6.34,0,0,1,38,60.74,6.27,6.27,0,0,1,31.5,54.43ZM26,58.17c1.2,0,1.91-.41,1.91-1.33v0c0-.83-.62-1.32-2-1.32H22.75v2.7H26Zm-.72-4.94c1.19,0,1.94-.39,1.94-1.3v0c0-.81-.63-1.26-1.77-1.26H22.75v2.6Zm-5.1-5h5.68A4.43,4.43,0,0,1,29,49.34a2.83,2.83,0,0,1,.84,2.09v0a2.86,2.86,0,0,1-1.61,2.65,3,3,0,0,1,2.3,3v0c0,2.25-1.83,3.36-4.59,3.36H20.13Z" transform="translate(0 0)" style="fill:#555"/><g id="Group"><path id="Shape-2" data-name="Shape" d="M23.58,63.93a1.38,1.38,0,0,1-.13.62,1.46,1.46,0,0,1-.38.44,1.69,1.69,0,0,1-.52.26,2.35,2.35,0,0,1-.6.08h-.5v1.35a.41.41,0,0,0,0,.19.31.31,0,0,0,.15.12l.2,0,.27,0v.23H20.17v-.21l.21,0,.2,0a.22.22,0,0,0,.13-.12.4.4,0,0,0,0-.2V63.46a1.5,1.5,0,0,0,0-.2.22.22,0,0,0-.15-.13,1,1,0,0,0-.24-.05l-.2,0v-.23h2a1.51,1.51,0,0,1,1,.3A1,1,0,0,1,23.58,63.93Zm-1,.77a1.06,1.06,0,0,0,.14-.31,1.08,1.08,0,0,0,0-.3,1.47,1.47,0,0,0,0-.36.84.84,0,0,0-.14-.32.89.89,0,0,0-.3-.23,1.15,1.15,0,0,0-.44-.08h-.44v2h.32a1.19,1.19,0,0,0,.55-.11A.88.88,0,0,0,22.62,64.7Z" transform="translate(0 0)" style="fill:#555"/><path id="Shape-3" data-name="Shape" d="M27.33,67.23l-1,.07,0,0v-.39h0l-.17.17-.22.16a2.26,2.26,0,0,1-.26.14,1.84,1.84,0,0,1-.38,0,.81.81,0,0,1-.63-.27,1.19,1.19,0,0,1-.21-.78V64.84a.44.44,0,0,0,0-.18.41.41,0,0,0-.12-.14l-.15,0-.18,0v-.2l1-.08,0,0v2.16a.76.76,0,0,0,.15.51.42.42,0,0,0,.36.17.78.78,0,0,0,.31-.05l.22-.12a1,1,0,0,0,.15-.14.91.91,0,0,0,.1-.13V64.84a.37.37,0,0,0-.05-.18.27.27,0,0,0-.12-.14.35.35,0,0,0-.17,0h-.25v-.2l1.12-.08.05,0v2.45a.58.58,0,0,0,0,.19A.4.4,0,0,0,27,67a.2.2,0,0,0,.13,0h.17Z" transform="translate(0 0)" style="fill:#555"/><path id="Shape-4" data-name="Shape" d="M30.67,65.74a1.65,1.65,0,0,1-.44,1.17,1.38,1.38,0,0,1-1,.47,1.69,1.69,0,0,1-.5-.08,2.23,2.23,0,0,1-.47-.22l-.22.36-.2,0c0-.16,0-.33,0-.56s0-.43,0-.63V63.14a.41.41,0,0,0-.05-.21.52.52,0,0,0-.12-.16.42.42,0,0,0-.2-.07l-.23,0v-.2l1.14-.06,0,.05v2.06h0a1.39,1.39,0,0,1,.42-.31,1.36,1.36,0,0,1,.46-.1,1.16,1.16,0,0,1,1,.45A1.77,1.77,0,0,1,30.67,65.74Zm-.66,0a1.8,1.8,0,0,0-.05-.46,1.31,1.31,0,0,0-.16-.42.86.86,0,0,0-.28-.29.73.73,0,0,0-.42-.11.93.93,0,0,0-.39.08.89.89,0,0,0-.29.23v1.81a.63.63,0,0,0,.08.17.66.66,0,0,0,.15.19,1.1,1.1,0,0,0,.21.14.67.67,0,0,0,.3.06.69.69,0,0,0,.61-.38A1.88,1.88,0,0,0,30,65.75Z" transform="translate(0 0)" style="fill:#555"/><path id="Shape-5" data-name="Shape" d="M32.37,67.3H30.86v-.21H31a.29.29,0,0,0,.14,0,.21.21,0,0,0,.13-.09.36.36,0,0,0,0-.19V63.18a.36.36,0,0,0,0-.21.52.52,0,0,0-.12-.16.42.42,0,0,0-.2-.07l-.24,0v-.2l1.16-.07,0,.06v4.24a.44.44,0,0,0,0,.18.26.26,0,0,0,.14.1.75.75,0,0,0,.13.06l.15,0v.21Z" transform="translate(0 0)" style="fill:#555"/><path id="Shape-6" data-name="Shape" d="M34.22,67.3h-1.5v-.21h.15a.28.28,0,0,0,.13,0,.26.26,0,0,0,.14-.09.49.49,0,0,0,0-.19V64.86a.53.53,0,0,0,0-.19.27.27,0,0,0-.13-.13.73.73,0,0,0-.17-.07.54.54,0,0,0-.2,0v-.2l1.1-.07,0,0v2.52a.38.38,0,0,0,0,.19A.28.28,0,0,0,34,67a.74.74,0,0,0,.14,0l.14,0v.21Zm-.4-4.36a.43.43,0,0,1-.12.31.42.42,0,0,1-.3.13.39.39,0,0,1-.28-.12A.4.4,0,0,1,33,63a.41.41,0,0,1,.7-.31A.38.38,0,0,1,33.82,62.94Z" transform="translate(0 0)" style="fill:#555"/><path id="Shape-7" data-name="Shape" d="M35.86,67.38a1.31,1.31,0,0,1-1.06-.45,1.72,1.72,0,0,1-.38-1.19,1.83,1.83,0,0,1,.11-.61,1.6,1.6,0,0,1,.29-.53,1.43,1.43,0,0,1,.47-.36,1.39,1.39,0,0,1,.61-.13,1.13,1.13,0,0,1,.73.21.72.72,0,0,1,.28.59.44.44,0,0,1-.08.28.27.27,0,0,1-.25.12.35.35,0,0,1-.28-.09.31.31,0,0,1-.11-.22,1.06,1.06,0,0,1,0-.29.73.73,0,0,0,0-.21.3.3,0,0,0-.17-.14.63.63,0,0,0-.24,0,.69.69,0,0,0-.29.07.71.71,0,0,0-.26.24,1.23,1.23,0,0,0-.19.43,2.06,2.06,0,0,0-.07.64,1.6,1.6,0,0,0,.26,1A.81.81,0,0,0,36,67a.85.85,0,0,0,.51-.15,1.18,1.18,0,0,0,.37-.44l.2.14a1.7,1.7,0,0,1-.54.59A1.21,1.21,0,0,1,35.86,67.38Z" transform="translate(0 0)" style="fill:#555"/><path id="Shape-8" data-name="Shape" d="M40.3,67.23a1,1,0,0,1-.25.08,1.7,1.7,0,0,1-.26,0,.56.56,0,0,1-.38-.12.58.58,0,0,1-.19-.34h0a1.61,1.61,0,0,1-.45.35,1.25,1.25,0,0,1-.56.12.79.79,0,0,1-.58-.22.77.77,0,0,1-.22-.56.8.8,0,0,1,.05-.32A.92.92,0,0,1,37.6,66a.88.88,0,0,1,.2-.18A1.34,1.34,0,0,1,38,65.7a5.52,5.52,0,0,1,.58-.2,2.53,2.53,0,0,0,.57-.23V65a1.26,1.26,0,0,0,0-.16.76.76,0,0,0-.08-.21.58.58,0,0,0-.18-.2.47.47,0,0,0-.32-.08.62.62,0,0,0-.27,0,.5.5,0,0,0-.17.11.89.89,0,0,0,0,.19,2,2,0,0,1,0,.22.25.25,0,0,1-.09.2.37.37,0,0,1-.28.1.25.25,0,0,1-.23-.11.53.53,0,0,1-.08-.25.45.45,0,0,1,.11-.28.93.93,0,0,1,.27-.25,1.84,1.84,0,0,1,.34-.14,1.46,1.46,0,0,1,.39-.07,2,2,0,0,1,.46,0,1,1,0,0,1,.36.16.7.7,0,0,1,.24.32,1.52,1.52,0,0,1,.08.51c0,.3,0,.56,0,.79s0,.48,0,.77a.59.59,0,0,0,0,.2.28.28,0,0,0,.14.12l.15,0h.21v.22Zm-1.09-1.65c-.18,0-.34.11-.47.16a1.69,1.69,0,0,0-.38.19.85.85,0,0,0-.25.25.6.6,0,0,0-.1.35.47.47,0,0,0,.14.39.49.49,0,0,0,.34.12.69.69,0,0,0,.39-.11.85.85,0,0,0,.28-.25Z" transform="translate(0 0)" style="fill:#555"/><path id="Shape-9" data-name="Shape" d="M42.31,67.16a3.12,3.12,0,0,1-.39.15,1.4,1.4,0,0,1-.44,0,.66.66,0,0,1-.55-.2.9.9,0,0,1-.16-.55v-2.1h-.56v-.3h.58v-1h.57v1h.89v.3h-.89v1.73a1.47,1.47,0,0,0,0,.32.6.6,0,0,0,.06.23.28.28,0,0,0,.15.13.68.68,0,0,0,.27,0h.23l.21,0v.24Z" transform="translate(0 0)" style="fill:#555"/><path id="Shape-10" data-name="Shape" d="M44.15,67.3h-1.5v-.21h.15a.28.28,0,0,0,.13,0,.21.21,0,0,0,.13-.09.36.36,0,0,0,0-.19V64.86a.38.38,0,0,0,0-.19.22.22,0,0,0-.12-.13.73.73,0,0,0-.17-.07.54.54,0,0,0-.2,0v-.2l1.1-.07,0,0v2.52a.38.38,0,0,0,0,.19.21.21,0,0,0,.13.11.74.74,0,0,0,.14,0l.14,0v.21Zm-.4-4.36a.43.43,0,0,1-.12.31.42.42,0,0,1-.3.13.38.38,0,0,1-.28-.12.4.4,0,0,1-.12-.29.41.41,0,0,1,.12-.3.39.39,0,0,1,.28-.13.41.41,0,0,1,.3.12A.38.38,0,0,1,43.75,62.94Z" transform="translate(0 0)" style="fill:#555"/><path id="Shape-11" data-name="Shape" d="M47.35,65.71a2.11,2.11,0,0,1-.11.65,1.42,1.42,0,0,1-.29.53,1.45,1.45,0,0,1-.51.38,1.62,1.62,0,0,1-.64.12,1.56,1.56,0,0,1-.57-.11,1.65,1.65,0,0,1-.46-.32,1.41,1.41,0,0,1-.33-.51,1.83,1.83,0,0,1-.12-.68,1.7,1.7,0,0,1,.43-1.19,1.43,1.43,0,0,1,1.11-.46,1.47,1.47,0,0,1,1.08.44A1.53,1.53,0,0,1,47.35,65.71Zm-.64,0a2.12,2.12,0,0,0-.06-.49,1.27,1.27,0,0,0-.14-.44.82.82,0,0,0-.27-.31.65.65,0,0,0-.4-.12.74.74,0,0,0-.42.12,1,1,0,0,0-.28.32,1.43,1.43,0,0,0-.15.44,4.26,4.26,0,0,0,0,.47,2.47,2.47,0,0,0,.06.56,1.09,1.09,0,0,0,.16.46,1.07,1.07,0,0,0,.27.32.63.63,0,0,0,.4.12.66.66,0,0,0,.61-.37A2.18,2.18,0,0,0,46.71,65.71Z" transform="translate(0 0)" style="fill:#555"/><path id="Shape-12" data-name="Shape" d="M51,67.3H49.51v-.21h.16a.37.37,0,0,0,.15,0A.24.24,0,0,0,50,67a.34.34,0,0,0,0-.19V65.18a.73.73,0,0,0-.16-.51.48.48,0,0,0-.37-.17.78.78,0,0,0-.31,0,1.33,1.33,0,0,0-.24.12.65.65,0,0,0-.17.16.92.92,0,0,1-.09.13v1.79a.31.31,0,0,0,0,.17.33.33,0,0,0,.14.11l.14,0a.76.76,0,0,1,.16,0v.2H47.62v-.2l.15,0,.13,0A.27.27,0,0,0,48,67a.32.32,0,0,0,0-.18V64.87a.49.49,0,0,0,0-.2.26.26,0,0,0-.12-.15.46.46,0,0,0-.14,0l-.18,0v-.2l1-.07,0,0v.45h0a1.7,1.7,0,0,1,.19-.18l.21-.17a.65.65,0,0,1,.28-.12,1.36,1.36,0,0,1,.36-.06.78.78,0,0,1,.66.28,1.27,1.27,0,0,1,.21.74v1.61a.39.39,0,0,0,0,.17.33.33,0,0,0,.14.11.24.24,0,0,0,.13,0h.15v.21Z" transform="translate(0 0)" style="fill:#555"/><path id="Shape-13" data-name="Shape" d="M53.41,65.77a1.16,1.16,0,0,1,.2.25.8.8,0,0,1,.07.36.84.84,0,0,1-.33.7,1.24,1.24,0,0,1-.83.27,1.33,1.33,0,0,1-.49-.09,1.63,1.63,0,0,1-.32-.18l-.07.2H51.4l0-1.07h.22a1.06,1.06,0,0,0,.1.28,1.31,1.31,0,0,0,.2.3.84.84,0,0,0,.3.22.73.73,0,0,0,.39.1.68.68,0,0,0,.47-.14.5.5,0,0,0,.16-.38.39.39,0,0,0-.06-.23.79.79,0,0,0-.14-.18,1,1,0,0,0-.26-.13l-.33-.12-.33-.12a2.16,2.16,0,0,1-.3-.18.83.83,0,0,1-.23-.26.67.67,0,0,1-.1-.38.84.84,0,0,1,.29-.64,1,1,0,0,1,.75-.27,1.22,1.22,0,0,1,.37,0,1.77,1.77,0,0,1,.31.11l.07-.16h.22l.06,1h-.22a1,1,0,0,0-.28-.55.69.69,0,0,0-.53-.21.58.58,0,0,0-.41.13.44.44,0,0,0-.14.31A.47.47,0,0,0,52,65a.39.39,0,0,0,.15.16l.24.12.35.12.39.15A1.08,1.08,0,0,1,53.41,65.77Z" transform="translate(0 0)" style="fill:#555"/></g></g></g></g></svg>