<svg xmlns="http://www.w3.org/2000/svg" viewBox="0 0 120 120"><title>icon-alvilda</title><g id="Layer_1" data-name="Layer 1"><rect width="120" height="120" style="fill:none"/></g><g id="Layer_2" data-name="Layer 2"><path d="M46.66,60.46h2.83l-1.38-4.38h0Zm-.21-7.85h3.3l4.68,12.5H51l-.77-2.24H45.9l-.78,2.24H41.77Z" transform="translate(0 0)" style="fill:#555"/><rect x="55.36" y="52.61" width="2.98" height="12.5" style="fill:#555"/><polygon points="65.84 65.11 62.41 65.11 59.38 56.03 62.48 56.03 64.15 62.03 64.18 62.03 65.86 56.03 68.89 56.03 65.84 65.11" style="fill:#555"/><path d="M69.94,56h3v9.08h-3Zm3-1.14h-3V52.62h3Z" transform="translate(0 0)" style="fill:#555"/><rect x="75.13" y="52.61" width="2.98" height="12.5" style="fill:#555"/><path d="M82.74,60.47c0,1.24.46,2.63,1.82,2.63s1.77-1.39,1.77-2.54c0-1.31-.47-2.52-1.77-2.52s-1.82,1.28-1.82,2.43m6.46,4.64H86.36v-1h0a2.92,2.92,0,0,1-2.51,1.32c-2.85,0-4.06-2.46-4.06-5,0-2.37,1.26-4.6,3.84-4.6A3.05,3.05,0,0,1,86.19,57h0v-4.4h3Z" transform="translate(0 0)" style="fill:#555"/><path d="M95,63.54c1.42,0,1.89-.81,1.82-2.68a8.82,8.82,0,0,1-1.84.49c-.66.16-1.22.44-1.22,1.15s.58,1,1.24,1m-3.85-4.71a2.77,2.77,0,0,1,1.42-2.43,5.9,5.9,0,0,1,2.88-.64c2.16,0,4.24.48,4.24,3.05v4a5.3,5.3,0,0,0,.35,2.33H97a3.58,3.58,0,0,1-.18-.85,4.12,4.12,0,0,1-3,1.12c-1.73,0-3.1-.88-3.1-2.75,0-3,3.22-2.73,5.29-3.15.51-.11.78-.28.78-.85s-.82-.94-1.43-.94a1.34,1.34,0,0,0-1.49,1.14Z" transform="translate(0 0)" style="fill:#555"/><polygon points="27.55 59.46 22.35 59.13 26.4 62.19 23.97 67.11 28.91 64.36 33.44 67.94 31.47 62.51 35.84 59.99 30.63 59.66 29.38 55.27 27.55 59.46" style="fill:#555"/><polygon points="32.47 57.43 32.86 54.45 30.16 53.15 33.06 52.59 33.42 49.68 34.81 52.25 37.72 51.7 35.72 53.9 37.16 56.53 34.49 55.25 32.47 57.43" style="fill:#555"/><polygon points="23.8 49.88 20 49.04 22.6 52.01 20.28 55.67 24.15 53.82 26.72 56.73 26.32 52.83 30.5 51.16 26.08 50.37 25.73 46.58 23.8 49.88" style="fill:#555"/></g></svg>