<?xml version="1.0" encoding="utf-8"?>
<!-- Generator: Adobe Illustrator 19.2.1, SVG Export Plug-In . SVG Version: 6.00 Build 0)  -->
<svg version="1.1" id="Lag_1" xmlns="http://www.w3.org/2000/svg" xmlns:xlink="http://www.w3.org/1999/xlink" x="0px" y="0px"
	 viewBox="0 0 120 120" style="enable-background:new 0 0 120 120;" xml:space="preserve">
<style type="text/css">
	.st0{fill:#555555;}
</style>
<g>
	<path class="st0" d="M23.1,74.9c0.6,0.4,1.9,0.8,2.9,0.8c1,0,1.5-0.3,1.5-0.9c0-0.6-0.3-0.9-1.6-1.3c-2.3-0.8-3.2-2-3.1-3.3
		c0-2.1,1.8-3.6,4.5-3.6c1.3,0,2.4,0.3,3.1,0.7l-0.6,2.4C29,69.2,28.2,69,27.4,69c-0.8,0-1.3,0.3-1.3,0.9c0,0.5,0.4,0.8,1.8,1.3
		c2.1,0.7,2.9,1.8,3,3.4c0,2.1-1.6,3.6-4.7,3.6c-1.4,0-2.7-0.3-3.5-0.8C22.5,77.3,23.1,74.9,23.1,74.9z M36.2,63.9v3h2.4v2.5h-2.4v4
		c0,1.3,0.3,1.9,1.3,1.9c0.3,0,0.7,0,1-0.1l0,2.6c-0.4,0.2-1.3,0.3-2.2,0.3c-1.1,0-2-0.4-2.6-0.9c-0.6-0.6-0.9-1.7-0.9-3.3v-9
		C32.8,64.8,36.2,63.9,36.2,63.9z M51.3,72.2c0,4-2.9,5.9-5.8,5.9c-3.2,0-5.7-2.1-5.7-5.7c0-3.6,2.3-5.8,5.9-5.8
		C49.1,66.6,51.3,68.9,51.3,72.2z M43.4,72.3c0,1.9,0.8,3.3,2.2,3.3c1.3,0,2.2-1.3,2.2-3.3c0-1.6-0.6-3.3-2.2-3.3
		C44,69,43.4,70.7,43.4,72.3L43.4,72.3z M53.4,70.5c0-1.6,0-2.7-0.1-3.6h2.9l0.1,2h0.1c0.6-1.6,1.9-2.3,3-2.3c0.2,0,0.5,0,0.7,0.1
		v3.2c-0.3-0.1-0.6-0.1-0.9-0.1c-1.3,0-2.1,0.7-2.3,1.7c0,0.3-0.1,0.5-0.1,0.8v5.6h-3.4L53.4,70.5L53.4,70.5z M64.9,66.9l1.6,5.4
		c0.2,0.6,0.4,1.5,0.5,2h0.1c0.1-0.6,0.3-1.4,0.5-2.1l1.4-5.4h3.6l-2.6,7.2c-1.6,4.4-2.6,6.1-3.9,7.2c-0.9,0.8-2.1,1.3-3.3,1.5
		l-0.7-2.9c0.5-0.1,1-0.3,1.5-0.6c0.6-0.3,1.1-0.8,1.4-1.4c0.1-0.1,0.2-0.3,0.2-0.5c0-0.2,0-0.4-0.1-0.6l-4-10.1L64.9,66.9
		L64.9,66.9z M77.9,63.9v3h2.4v2.5h-2.4v4c0,1.3,0.3,1.9,1.3,1.9c0.3,0,0.7,0,1-0.1l0,2.6c-0.4,0.2-1.3,0.3-2.2,0.3
		c-1.1,0-2-0.4-2.6-0.9c-0.6-0.6-0.9-1.7-0.9-3.3v-9C74.6,64.8,77.9,63.9,77.9,63.9z M84.8,73.4c0.1,1.4,1.5,2.1,3.1,2.1
		c1,0,2.1-0.1,3-0.5l0.4,2.3c-1.1,0.5-2.5,0.7-4,0.7c-3.7,0-5.9-2.2-5.9-5.6c0-2.8,1.7-5.9,5.5-5.9c3.5,0,4.9,2.8,4.9,5.5
		c0,0.5,0,0.9-0.1,1.3H84.8L84.8,73.4z M88.9,71.1c0-0.8-0.4-2.2-1.9-2.2c-1.4,0-2,1.3-2.1,2.2H88.9z M94.1,77.8h3.4V62.4l-3.4,0.9
		V77.8z"/>
	<path class="st0" d="M71.1,49.3c1-5.3-2.2-10-7.3-11.5C55,35,48.6,43.1,48.7,51.4c0.1,6.6,1.5,11.1,1.5,11.1
		c-0.1-0.2,1.7-1.1,1.9-1.2c0.7-0.3,1.4-0.6,2.1-0.9c1.5-0.5,3.1-0.8,4.6-1.2c4.8-1.1,10-3.2,11.8-8.2C70.9,50.4,71,49.9,71.1,49.3
		L71.1,49.3z"/>
</g>
</svg>
