<svg xmlns="http://www.w3.org/2000/svg" viewBox="0 0 120 120"><title>icon-dafolo</title><g id="Layer_1" data-name="Layer 1"><rect width="120" height="120" style="fill:none"/></g><g id="Layer_2" data-name="Layer 2"><path d="M22.71,63.3a7,7,0,0,1,6.76-12.12,6.55,6.55,0,0,1,2.7-.55,6.86,6.86,0,0,1,6.79,7,7.44,7.44,0,0,1-2.82,5.79,6.75,6.75,0,0,1-13.43-.09m6.77.84a7,7,0,0,1-3.64-3.91v0a4.35,4.35,0,0,0-.52,2.07,4.17,4.17,0,0,0,4.09,4.24,4,4,0,0,0,3.37-1.83c-.22,0-.39,0-.61,0a6.52,6.52,0,0,1-2.69-.57m.72-8.81a4,4,0,0,0-3.44-1.95,4.17,4.17,0,0,0-4.09,4.25,4.55,4.55,0,0,0,.49,2,6.64,6.64,0,0,1,7.05-4.31Zm1.94-1.95.07.06a7.26,7.26,0,0,1,0,8.45,4.13,4.13,0,0,0,4-4.26,4.18,4.18,0,0,0-4.1-4.25M29.48,61a1.75,1.75,0,1,0-1.68-1.74A1.72,1.72,0,0,0,29.48,61" transform="translate(0 0)" style="fill:#555"/><path d="M46.42,53.39H50c4,0,7.59,1.36,7.59,6.58S54.05,66.55,50,66.55h-3.6Zm2.64,11.08h1.47a4.51,4.51,0,0,0,0-9H49.06Z" transform="translate(0 0)" style="fill:#555"/><rect x="85.99" y="52.41" width="2.53" height="14.14" style="fill:#555"/><path d="M69.69,56.84h0a8.28,8.28,0,0,1,.36-2.73c1-1.88,3.49-1.7,4.36-1.7v2.07h-.6c-.72,0-.92.08-1.22.36s-.37.65-.38,1.32a3.88,3.88,0,0,0,0,.68h2.2v1.85h-2.2v7.86H69.68V58.69H67.82V56.84Z" transform="translate(0 0)" style="fill:#555"/><path d="M63.93,58.72s-1.17-.85-4.36.54V57.32a8.77,8.77,0,0,1,3.32-.7,4.81,4.81,0,0,1,2,.29,2.71,2.71,0,0,1,1.2.75,4.83,4.83,0,0,1,1,2.76v6.13H64.84V66s0-.17-.34,0a7.58,7.58,0,0,1-2,.68,5,5,0,0,1-1.88-.14,2.73,2.73,0,0,1-1.46-.89,2.68,2.68,0,0,1-.69-2.07,2.9,2.9,0,0,1,.85-2,2.83,2.83,0,0,1,1.15-.71,6,6,0,0,1,1.82-.35c.4,0,2.48,0,2.48,0s.07-1.31-.73-1.78Zm.81,3.33H63.47a6.8,6.8,0,0,0-1.46.22A1.75,1.75,0,0,0,61,63a1.46,1.46,0,0,0-.1,1.16,1.2,1.2,0,0,0,.89.69,2.49,2.49,0,0,0,1.55-.11,2.6,2.6,0,0,0,.95-.81,3.08,3.08,0,0,0,.35-.94Z" transform="translate(0 0)" style="fill:#555"/><path d="M79.65,56.6a4.87,4.87,0,0,1,5.09,5.15,5.08,5.08,0,0,1-10.16,0,4.87,4.87,0,0,1,5.07-5.15m0,8.27c2,0,2.5-1.77,2.5-3.43,0-1.51-.81-2.94-2.5-2.94S77.17,60,77.17,61.44c0,1.64.52,3.43,2.48,3.43" transform="translate(0 0)" style="fill:#555"/><path d="M94.91,56.61A4.87,4.87,0,0,1,100,61.76a5.08,5.08,0,0,1-10.16,0,4.87,4.87,0,0,1,5.07-5.15m0,8.27c2,0,2.5-1.77,2.5-3.42s-.81-3-2.5-3-2.48,1.47-2.48,3,.52,3.42,2.48,3.42" transform="translate(0 0)" style="fill:#555"/></g></svg>