<?xml version="1.0" encoding="utf-8"?>
<!-- Generator: Adobe Illustrator 19.2.1, SVG Export Plug-In . SVG Version: 6.00 Build 0)  -->
<svg version="1.1" id="Lag_1" xmlns="http://www.w3.org/2000/svg" xmlns:xlink="http://www.w3.org/1999/xlink" x="0px" y="0px"
	 viewBox="0 0 120 120" style="enable-background:new 0 0 120 120;" xml:space="preserve">
<style type="text/css">
	.st0{fill:#545454;}
	.st1{fill:#555555;}
</style>
<title>icon-storytel</title>
<g>
	<path class="st0" d="M110.1,63.5c0.2-1.6,0.8-2.7,1.6-3.5c0.1-0.1,0.3-0.1,0.3-0.1c1,0.2,1.7,0.3,2.3-0.3c0.2-0.3,0.5-0.7,0.9-0.6
		c0.3,0.1,0.4,0.6,0.3,1.1c-0.3,0.6-1.1,1-2,0.8c-0.8-0.1-1.1,0.1-1.4,0.4c-0.3,0.3-0.6,1.2-0.8,1.8c-0.1,0.3-0.4,0.6-0.7,0.6
		c-0.3,0-0.3,0.2-0.2,0.3c0.1,0.1,0.6,0.3,0.7,0.4c0.5,0.2,0.8-0.1,1-0.6c0.1-0.5,0.6-1.6,1-1.7c0.5-0.1,0.6,0.3,0.4,0.5
		c-0.1,0.2-0.3,0.8-0.3,1.1c0,1.1,0.6,1.3,1.3,1.2c0.6-0.1,1.6-1.2,1.9-1.8c0.2-0.3,0.4-0.1,0.4,0c0.1,0.1,0.1,0.4,0.1,0.7
		c-0.1,0.2,0.1,0.3,0.3,0.1c0.1-0.1,0.4-1.1,0.3-1.6c-0.1-0.7-0.5-0.5-0.8-0.3c-0.4,0.2-1,0.6-1.1,0.9c-0.1,0.1-0.4,0.4-0.6,0.4
		c-0.2,0.1-0.3,0-0.4-0.3c-0.1-0.2,0.1-0.6,0.7-1c0.3-0.2,1.6-0.7,2.3-0.9c0.5-0.1,0.8-1.3,0.1-1.8c-0.3-0.2-0.4-0.4-0.6-0.7
		c-0.1-0.3-0.1-1-0.1-1.8c0-0.5-0.4-0.6-0.7-0.6c-0.2,0-0.4,0.1-0.8,0.2c-0.3,0.1-0.6-0.2-0.6-0.5c-0.1-0.7-0.5-1.3-1.4-1.2
		c-0.9,0-1.1,1-0.8,1.5c0.2,0.5,0.7,0.8,1.3,0.6c0.6-0.1,0.6,0.3,0.4,0.4c-0.1,0.1-0.5,0.6-0.6,1s-0.5,0.8-0.7,0.7
		c-0.3-0.1-0.9-0.1-0.7-0.5c0.2-0.3,0.9-0.3,0.5-0.8c-0.1-0.2-0.6,0.1-1.1,0.4c-0.2,0.1-0.5-0.1-0.3-0.2c0.5-0.4,1-0.5,1.1-0.6
		s-0.1-0.3-0.2-0.3c-0.2,0-0.9,0.3-1.3,0.7c-0.1,0.1-0.3,0-0.2-0.2c0.4-0.5,1.2-0.6,1.2-0.8s-0.2-0.3-0.3-0.2
		c-1.1,0.2-2.3,1-3.2,2.3c-0.2,0.2-0.1,0.3-0.1,0.6c0,0.1,0.1,0.2,0.3,0c0.3-0.4,0.6-0.7,1-1c0.1-0.1,0.3,0.1,0.1,0.3
		c-0.3,0.2-0.9,0.8-1.2,1.2c-0.1,0.2-0.1,0.3,0,0.6c0,0.2,0.1,0.5,0.2,0.3c0.3-0.6,0.8-1.3,1.1-1.6c0.1-0.1,0.4,0,0.2,0.2
		c-0.3,0.3-1,1.4-1.3,1.9c-0.1,0.2-0.1,0.3,0.1,0.6c0.1,0.4,0.3,0.4,0.3,0.1c0.2-0.5,0.9-1.8,1.2-2c0.1-0.2,0.4-0.1,0.2,0.2
		c-0.2,0.3-1,1.8-1.1,2.3c-0.1,0.3,0.1,0.6,0.3,0.8C109.9,63.7,110,63.8,110.1,63.5"/>
	<g>
		<path class="st1" d="M13,61.9v-2.3c0-0.5,0.4-1,0.9-1c0.1,0,0.3,0,0.3,0.2l0,0.1L13.9,59c0,0.3,0.2,0.6,0.5,0.6
			c0.3,0,0.6-0.2,0.6-0.6c0-0.5-0.4-0.8-0.8-0.8c-0.6,0-0.9,0.3-1.2,0.8h0l-0.1-0.7l-1.2,0v0.3l0.5,0.1v3.3L11.8,62v0.3h2.2V62
			L13,61.9z M9.1,62c-0.4,0-0.6-0.2-0.6-0.6c0-0.5,0.2-0.8,1-0.8H10v0.7C10,61.7,9.5,62,9.1,62z M9.4,60.2c-1,0-1.7,0.3-1.7,1.2
			c0,0.8,0.5,1,1.1,1c0.5,0,0.9-0.2,1.2-0.6c0.1,0.4,0.3,0.6,0.7,0.6c0.2,0,0.5-0.1,0.6-0.1L11.3,62c-0.1,0-0.2,0-0.3,0
			c-0.2,0-0.3-0.1-0.3-0.5v-1.8c0-1.1-0.4-1.5-1.5-1.5c-0.8,0-1.4,0.4-1.4,1c0,0.3,0.2,0.5,0.5,0.5c0.3,0,0.5-0.2,0.5-0.4
			c0-0.1,0-0.2,0-0.3H8.5l0-0.1c0-0.3,0.4-0.3,0.7-0.3c0.6,0,0.8,0.4,0.8,1.1v0.6H9.4z M4.4,57.9L4.4,57.9l0.8,2.2H3.6L4.4,57.9z
			 M5.8,61.9L5.1,62v0.3h2.2V62l-0.6-0.1l-2-5.3H4.5l-2,5.3L1.9,62v0.3h1.7V62l-0.7-0.1l0.5-1.4h1.9L5.8,61.9z"/>
		<path class="st1" d="M15.2,56.3v0.3l0.6,0.1v5.3L15.2,62v0.3h1.9V62l-0.6-0.1v-2.1c0-0.7,0.5-1.1,1.1-1.1c0.6,0,0.7,0.3,0.7,0.8
			v2.3L17.8,62v0.3h1.8V62l-0.5-0.1v-2.4c0-0.9-0.4-1.4-1.2-1.4c-0.7,0-1.2,0.4-1.4,0.8h0l0-0.5v-2.3L15.2,56.3z"/>
		<path class="st1" d="M33,62c-1.1,0-1.3-0.6-1.3-1.5V57l0.6,0v-0.3h-2.1V57l0.6,0v3.5c0,1.4,0.8,1.8,2,1.8c1.5,0,2-0.7,2-1.9V57
			l0.6-0.1v-0.3h-1.6V57l0.6,0.1v3.5C34.4,61.5,34,62,33,62z M25.1,62.4h0.3c0-0.3,0.1-0.3,0.1-0.3l0.1,0c0.3,0.2,0.6,0.3,1.1,0.3
			c0.9,0,1.4-0.6,1.4-1.3c0-0.9-0.7-1.1-1.3-1.2c-0.5-0.1-1-0.2-1-0.7c0-0.3,0.3-0.6,0.7-0.6c0.5,0,0.9,0.3,1,0.9h0.3v-1.3h-0.3
			c0,0.1,0,0.2-0.1,0.2l-0.1,0c-0.2-0.1-0.5-0.2-0.8-0.2c-0.7,0-1.3,0.5-1.3,1.2c0,0.9,0.7,1,1.3,1.1c0.5,0.1,1,0.2,1,0.7
			c0,0.5-0.3,0.7-0.8,0.7c-0.6,0-1.2-0.3-1.2-1.1h-0.3V62.4z M21.3,58.2l-1.3,0v0.3l0.5,0.1V61c0,0.9,0.4,1.4,1.2,1.4
			c0.7,0,1.1-0.4,1.4-0.8h0l0,0.7h1.2V62l-0.5-0.1v-3.7l-1.3,0v0.3l0.6,0.1v2.1c0,0.7-0.5,1.1-1.1,1.1c-0.6,0-0.7-0.3-0.7-0.8V58.2z
			"/>
		<path class="st1" d="M40.7,58.3v0.3l0.6,0.1v3.3L40.7,62v0.3h2V62l-0.6-0.1v-3.7L40.7,58.3z M41.1,56.9c0,0.3,0.1,0.5,0.5,0.5
			c0.3,0,0.5-0.2,0.5-0.5c0-0.4-0.2-0.5-0.5-0.5C41.3,56.4,41.1,56.6,41.1,56.9z M35.8,58.3v0.3l0.5,0.1v3.3L35.8,62v0.3h1.8V62
			l-0.6-0.1v-2.2c0-0.7,0.5-1,1.1-1c0.6,0,0.7,0.3,0.7,0.8v2.3L38.4,62v0.3h1.8V62l-0.5-0.1v-2.4c0-0.9-0.4-1.4-1.2-1.4
			c-0.7,0-1.2,0.4-1.4,0.8h0L37,58.2L35.8,58.3z"/>
		<polygon class="st1" points="42.8,58.6 43.2,58.6 44.5,62.3 45.1,62.3 46.4,58.6 46.8,58.6 46.8,58.3 45.4,58.3 45.4,58.6 
			45.9,58.6 45,61.5 45,61.5 44,58.6 44.6,58.6 44.6,58.3 42.8,58.3 		"/>
		<path class="st1" d="M58.3,58.3v0.3l0.6,0.1v3.3L58.3,62v0.3h2V62l-0.6-0.1v-3.7L58.3,58.3z M58.7,56.9c0,0.3,0.1,0.5,0.5,0.5
			c0.3,0,0.5-0.2,0.5-0.5c0-0.4-0.2-0.5-0.5-0.5C58.9,56.4,58.7,56.6,58.7,56.9z M54.8,62.4h0.3c0-0.3,0.1-0.3,0.1-0.3l0.1,0
			c0.3,0.2,0.6,0.3,1.1,0.3c0.9,0,1.4-0.6,1.4-1.3c0-0.9-0.7-1.1-1.3-1.2c-0.5-0.1-1-0.2-1-0.7c0-0.3,0.3-0.6,0.7-0.6
			c0.5,0,0.9,0.3,1,0.9h0.3v-1.3h-0.3c0,0.1,0,0.2-0.1,0.2l-0.1,0c-0.2-0.1-0.5-0.2-0.8-0.2c-0.7,0-1.3,0.5-1.3,1.2
			c0,0.9,0.7,1,1.3,1.1c0.5,0.1,1,0.2,1,0.7c0,0.5-0.3,0.7-0.8,0.7c-0.6,0-1.2-0.3-1.2-1.1h-0.3V62.4z M52.4,61.9v-2.3
			c0-0.5,0.4-1,0.9-1c0.1,0,0.3,0,0.3,0.2l0,0.1L53.2,59c0,0.3,0.2,0.6,0.5,0.6c0.3,0,0.6-0.2,0.6-0.6c0-0.5-0.4-0.8-0.8-0.8
			c-0.6,0-0.9,0.3-1.2,0.8h0l-0.1-0.7l-1.2,0v0.3l0.5,0.1v3.3L51.1,62v0.3h2.2V62L52.4,61.9z M47.9,59.9c0-0.7,0.4-1.3,1-1.3
			c0.6,0,0.8,0.4,0.8,1.1v0.2H47.9z M47.1,60.3c0,1.2,0.6,2,1.8,2c0.8,0,1.4-0.4,1.6-1.1l-0.4-0.1c-0.2,0.5-0.5,0.7-1.1,0.7
			c-0.8,0-1.1-0.6-1.1-1.6h2.6c0-0.1,0-0.2,0-0.3c0-1.2-0.6-1.8-1.6-1.8C47.9,58.2,47.1,59,47.1,60.3z"/>
		<path class="st1" d="M61.3,61.4c0,0.7,0.4,1,0.9,1c0.7,0,1-0.3,1.2-1l-0.3-0.1c-0.1,0.5-0.3,0.6-0.6,0.6c-0.3,0-0.4-0.2-0.4-0.6
			v-2.6H63v-0.4h-0.9v-1.2h-0.2l-0.6,0.2v1h-0.6v0.4h0.6V61.4z"/>
		<path class="st1" d="M64.7,59.9c0-0.7,0.4-1.3,1-1.3c0.6,0,0.8,0.4,0.8,1.1v0.2H64.7z M63.9,60.3c0,1.2,0.6,2,1.8,2
			c0.8,0,1.4-0.4,1.6-1.1l-0.4-0.1c-0.2,0.5-0.5,0.7-1.1,0.7c-0.8,0-1.1-0.6-1.1-1.6h2.6c0-0.1,0-0.2,0-0.3c0-1.2-0.6-1.8-1.6-1.8
			C64.7,58.2,63.9,59,63.9,60.3z"/>
		<path class="st1" d="M71,62.4h0.3c0-0.3,0.1-0.3,0.1-0.3l0.1,0c0.3,0.2,0.6,0.3,1.1,0.3c0.9,0,1.4-0.6,1.4-1.3
			c0-0.9-0.7-1.1-1.3-1.2c-0.5-0.1-1-0.2-1-0.7c0-0.3,0.3-0.6,0.7-0.6c0.5,0,0.9,0.3,1,0.9h0.3v-1.3h-0.3c0,0.1,0,0.2-0.1,0.2
			l-0.1,0c-0.2-0.1-0.5-0.2-0.8-0.2c-0.7,0-1.3,0.5-1.3,1.2c0,0.9,0.7,1,1.3,1.1c0.5,0.1,1,0.2,1,0.7c0,0.5-0.3,0.7-0.8,0.7
			c-0.6,0-1.2-0.3-1.2-1.1H71V62.4z M68.3,61.4c0,0.7,0.4,1,0.9,1c0.7,0,1-0.3,1.2-1l-0.3-0.1c-0.1,0.5-0.3,0.6-0.6,0.6
			c-0.3,0-0.4-0.2-0.4-0.6v-2.6H70v-0.4h-0.9v-1.2h-0.2l-0.6,0.2v1h-0.6v0.4h0.6V61.4z"/>
		<path class="st1" d="M76.9,58.3h-1.1v-0.8c0-0.6,0.1-1.1,0.7-1.1c0.2,0,0.4,0.1,0.4,0.3l0,0.2l-0.2,0.1c0,0.3,0.1,0.5,0.5,0.5
			c0.3,0,0.5-0.2,0.5-0.6c0-0.5-0.4-0.8-1-0.8c-1.1,0-1.6,0.8-1.6,1.9v0.4h-0.6v0.4h0.6v3.2L74.5,62v0.3h2.4V62l-1-0.1v-3.2h1.1
			V58.3z"/>
		<path class="st1" d="M82.9,61.9v-2.3c0-0.5,0.4-1,0.9-1c0.1,0,0.3,0,0.3,0.2l0,0.1L83.8,59c0,0.3,0.2,0.6,0.5,0.6
			c0.3,0,0.6-0.2,0.6-0.6c0-0.5-0.4-0.8-0.8-0.8c-0.6,0-0.9,0.3-1.2,0.8h0l-0.1-0.7l-1.2,0v0.3l0.5,0.1v3.3L81.6,62v0.3h2.2V62
			L82.9,61.9z M77.3,60.3c0,1.2,0.6,2.1,1.8,2.1c1.2,0,1.9-0.9,1.9-2.1c0-1.2-0.6-2.1-1.8-2.1C78,58.2,77.3,59,77.3,60.3z
			 M80.1,60.3c0,0.9-0.2,1.7-1,1.7c-0.8,0-1-0.8-1-1.8c0-0.9,0.2-1.7,1-1.7C80,58.6,80.1,59.4,80.1,60.3z"/>
		<path class="st1" d="M89,62c-0.4,0-0.6-0.2-0.6-0.6c0-0.5,0.2-0.8,1-0.8h0.5v0.7C89.8,61.7,89.4,62,89,62z M89.3,60.2
			c-1,0-1.7,0.3-1.7,1.2c0,0.8,0.5,1,1.1,1c0.5,0,0.9-0.2,1.2-0.6c0.1,0.4,0.3,0.6,0.7,0.6c0.2,0,0.5-0.1,0.6-0.1L91.1,62
			c-0.1,0-0.2,0-0.3,0c-0.2,0-0.3-0.1-0.3-0.5v-1.8c0-1.1-0.4-1.5-1.5-1.5c-0.8,0-1.4,0.4-1.4,1c0,0.3,0.2,0.5,0.5,0.5
			c0.3,0,0.5-0.2,0.5-0.4c0-0.1,0-0.2,0-0.3h-0.3l0-0.1c0-0.3,0.4-0.3,0.7-0.3c0.6,0,0.8,0.4,0.8,1.1v0.6H89.3z M85,56.3v0.3
			l0.6,0.1v5.3L85,62v0.3h2V62l-0.6-0.1v-5.7L85,56.3z"/>
		<path class="st1" d="M92.5,59.6c0-0.8,0.4-1.1,0.8-1.1c0.5,0,0.8,0.3,0.8,1.1c0,0.8-0.3,1.1-0.8,1.1
			C92.8,60.7,92.5,60.4,92.5,59.6z M93.4,62.4c0.8,0,1.2,0,1.2,0.5c0,0.5-0.5,0.7-1.3,0.7c-1,0-1.2-0.2-1.2-0.6
			c0-0.2,0.1-0.4,0.2-0.6H93.4z M94.2,58.4c-0.2-0.1-0.5-0.2-0.9-0.2c-1.1,0-1.6,0.7-1.6,1.5c0,0.6,0.3,1,0.8,1.2
			c-0.4,0.3-0.7,0.6-0.7,0.9c0,0.2,0.1,0.4,0.3,0.4c-0.3,0.2-0.6,0.4-0.6,0.8c0,0.5,0.4,0.9,1.6,0.9c1.5,0,2-0.5,2-1.3
			c0-0.9-0.7-1.1-1.6-1.1h-0.8c-0.2,0-0.3,0-0.3-0.2c0-0.1,0.1-0.2,0.4-0.5c0.2,0,0.3,0,0.5,0c0.8,0,1.5-0.5,1.5-1.5
			c0-0.5-0.2-0.8-0.4-1l0.8-0.1v-0.5L94.9,58C94.6,58,94.3,58.2,94.2,58.4z"/>
	</g>
	<g>
		<polyline class="st1" points="101.6,55.1 101.6,64.9 102.2,64.9 102.2,55.1 		"/>
	</g>
</g>
</svg>
