<svg xmlns="http://www.w3.org/2000/svg" viewBox="0 0 120 120"><title>icon-harlequin</title><g id="Layer_1" data-name="Layer 1"><rect width="120" height="120" style="fill:none"/></g><g id="Layer_2" data-name="Layer 2"><path d="M86.1,63.24h2.18V54.82H86.1Zm8.51-8.42V59.4h0l-2.78-4.58h-2v8.42H92V58.56h0l2.86,4.68h1.93V54.82ZM82.42,60.39a1.06,1.06,0,0,1-1.12,1.19c-.7,0-1.2-.29-1.2-1.25V54.82H77.93v5.63c0,2,1.12,2.94,3.31,2.94,2,0,3.36-1,3.36-2.75V54.82H82.42Zm-9.25,1.3c-1.33,0-1.58-1.51-1.58-2.68s.4-2.51,1.53-2.51,1.54,1.53,1.54,2.59c0,1.27-.34,2.6-1.49,2.6m3.92,2.2a7.34,7.34,0,0,1-2.31-.84c1.32-.57,2.13-1.9,2.13-4,0-3.22-1.71-4.39-3.66-4.39s-3.92,1.14-3.92,4.39c0,2.56,1.09,4,3,4.28l-.61,1.27a1.22,1.22,0,0,1,.45-.2,2.58,2.58,0,0,1,.82,0c1.47,0,2.28,1.16,4.08,1.22a3.75,3.75,0,0,0,.67,0l.89-1.84a3.38,3.38,0,0,1-.65.2,2.09,2.09,0,0,1-.88,0m-11.72-4h1.95l.92-1.9H65.37V56.72h3.34v-1.9H63.19v8.42h5.6v-1.9H65.37Zm-6.24-5.08H56.94v8.42h4.63l.92-1.91H59.13Zm-6.94,3.59h-.82v-1.9H52c.78,0,1.2.18,1.2.88a.92.92,0,0,1-1,1m2.74,2.67c-.35-.79-.29-1.4-.75-1.73h0a2.36,2.36,0,0,0,1.29-2.13c0-1.8-1.3-2.39-3.25-2.39h-3v8.42h2.18V60.09h.52c.6,0,.69.57.87,1l.41,1a2,2,0,0,0,2.22,1.3l.9-1.85-.23,0a1,1,0,0,1-1.13-.49m-11.3-1.24.87-3h0l.85,3Zm-.29-5L40.6,63.24h2.09l.57-1.8h2.55l.57,1.8H48.7l-2.92-8.42Zm-5.41,3.24H35.27V54.82H33.09v8.42h2.18V60h2.66v3.27h2.19V54.82H37.93" transform="translate(0 0)" style="fill:#555"/><path d="M29.05,63.24h0Zm0,0,2-4.2-2-4.2ZM20,59l5.54,11.52,3.51-7.31H26.86V60H24.2v3.27H22v-8.4Zm2-4.21H24.2v3.24h2.66V54.82h2.19l-3.51-7.31Z" transform="translate(0 0)" style="fill:#555"/><path d="M98.79,54.28h-.17v.49h.16c.19,0,.31-.08.31-.24s-.11-.25-.3-.25m.4,1.2-.41-.57h-.15v.56h-.16V54.13h.33c.28,0,.45.15.45.38a.38.38,0,0,1-.29.38l.4.55Zm-.36-1.73a1.1,1.1,0,1,0,1.06,1.09,1,1,0,0,0-1.06-1.09m0,2.29a1.2,1.2,0,1,1,1.16-1.2A1.13,1.13,0,0,1,98.83,56" transform="translate(0 0)" style="fill:#555"/><path d="M27.12,69.14v.14h.44v1.25h.14V69.28h.44l0-.14Zm2.36,0L29,70.36l-.46-1.22h-.18l-.11,1.39h.14l.09-1.15.45,1.15h.13l.46-1.15.08,1.15h.15l-.11-1.39Z" transform="translate(0 0)" style="fill:#555"/></g></svg>