<?xml version="1.0" encoding="utf-8"?>
<!-- Generator: Adobe Illustrator 19.2.1, SVG Export Plug-In . SVG Version: 6.00 Build 0)  -->
<svg version="1.1" id="Lag_1" xmlns="http://www.w3.org/2000/svg" xmlns:xlink="http://www.w3.org/1999/xlink" x="0px" y="0px"
	 viewBox="0 0 120 120" style="enable-background:new 0 0 120 120;" xml:space="preserve">
<style type="text/css">
	.st0{fill:#555555;}
</style>
<g>
	<g>
		<path class="st0" d="M90.2,43.8h1.9V51l7.3-7.2h2.5l-0.2,0.2l-5.9,5.6l6.3,8.6h-1.7c-0.2,0-0.5,0-0.7,0L94.5,51l0,0l-2.4,2.2v5
			h-1.9V43.8z"/>
	</g>
	<path class="st0" d="M19.1,44.3h13.5v29.1l-2.9-3.6l-3.8,4.7l0,0L22,69.8l-2.8,3.6h0V44.3z M17.8,43V77l4.1-5.2h0l3.8,4.7l3.8-4.7
		l0,0l4.2,5.2l0-34.1H17.8z"/>
	<g>
		<path class="st0" d="M66.5,52.1c-0.1,0.5-0.2,1.1-0.4,1.6c-0.6,1.4-1.5,2.6-3,3.1c-0.4,0.1-0.8,0.2-1.3,0.2h-0.6l-0.6,0
			c-0.4-0.1-0.9-0.2-1.3-0.4c-1.5-0.8-2.3-2.1-2.7-3.9c-0.2-0.8-0.2-1.6-0.1-2.5c0.1-0.4,0.1-0.8,0.2-1.2c0.5-1.6,1.4-2.8,2.8-3.4
			c0.4-0.1,0.7-0.2,1.1-0.3l0.5,0c2.9,0,4.2,1.5,4.9,3.7C66.6,49.9,66.7,51,66.5,52.1L66.5,52.1z M68,48c-1-2.7-3-4.5-6.8-4.5
			l-0.7,0.1c-0.5,0.1-1,0.2-1.4,0.3c-1.9,0.8-3.4,2.4-3.9,4.4c-0.1,0.5-0.3,1.1-0.3,1.6c-0.2,1.1-0.1,2.1,0.2,3.2
			c0.6,2.4,1.8,4.1,3.9,5c0.6,0.2,1.2,0.4,1.8,0.5c0.3,0.1,0.6,0,0.9,0.1H62c0.6-0.1,1.2-0.2,1.7-0.3c1.9-0.6,3.5-2,4.1-3.9
			c0.2-0.6,0.4-1.2,0.5-1.9C68.6,51,68.5,49.4,68,48"/>
		<path class="st0" d="M83.9,52.2c-0.1,0.5-0.2,1.1-0.4,1.6c-0.6,1.4-1.5,2.6-3,3c-0.4,0.1-0.8,0.2-1.2,0.2h-0.6l-0.5,0
			c-0.5-0.1-0.9-0.2-1.3-0.4c-1.6-0.7-2.4-2.2-2.8-4.1c-0.2-0.8-0.2-1.6-0.1-2.4c0.1-0.4,0.2-0.8,0.3-1.3c0.5-1.6,1.4-2.8,2.9-3.4
			c0.3-0.1,0.7-0.2,1-0.3l0.5,0c2.9,0,4.2,1.5,4.9,3.6C83.9,49.9,84,51,83.9,52.2 M85.4,48.1c-1.1-2.8-2.9-4.6-6.8-4.6l-0.8,0.1
			c-0.5,0.1-0.9,0.2-1.4,0.3c-1.9,0.7-3.3,2.3-3.9,4.3c-0.1,0.5-0.3,1-0.3,1.6c-0.2,1.1-0.1,2.1,0.1,3.2c0.6,2.4,1.7,4.1,3.7,5
			c0.6,0.3,1.2,0.4,1.8,0.5c0.3,0.1,0.6,0,0.9,0.1h0.6c0.6-0.1,1.2-0.2,1.8-0.3c1.9-0.6,3.4-2,4.1-3.9c0.2-0.6,0.4-1.3,0.5-1.9
			C86,51,85.9,49.5,85.4,48.1"/>
		<path class="st0" d="M48.7,55.4c-0.3,0.5-0.8,0.9-1.4,1c-0.6,0.2-1.4,0.1-2.1,0.1h-3.6v-5h3.7c1.1,0,2.1,0,2.7,0.4
			c0.7,0.4,1,0.9,1.1,1.8C49.1,54.4,49,55,48.7,55.4L48.7,55.4z M41.6,45.4h3.4c1.1,0,2.1,0,2.8,0.5c0.5,0.3,0.6,0.8,0.8,1.6
			c0.1,0.5-0.1,1.1-0.4,1.6c-0.7,1-2.1,0.9-3.8,0.9h-2.7V45.4z M51,53.9c0-0.3,0-0.5-0.1-0.7c-0.2-1-0.9-1.9-1.9-2.3
			c-0.2-0.1-0.5-0.2-0.8-0.2v0c1.4-0.5,2.6-2.3,2-4.3C50,45.6,49.6,45,49,44.6c-0.5-0.3-1.1-0.6-1.7-0.7l-0.7-0.1l-1.2,0h-5.8v14.4
			h6.6c0.3,0,0.7,0,1,0c1.2-0.2,2.1-0.6,2.8-1.3c0.4-0.5,0.7-1.1,0.9-1.8C51,54.7,51,54.3,51,53.9"/>
	</g>
	<polygon class="st0" points="51.4,62 46.9,74.1 42.3,62 39.7,62 39.7,76.4 41.5,76.4 41.5,64.4 41.6,64.4 46,76.4 47.7,76.4 
		52.2,64.4 52.2,64.4 52.2,76.4 54,76.4 54,62 	"/>
	<g>
		<path class="st0" d="M90.2,62h1.9v7.2l7.3-7.2h2.5l-0.1,0.1l-5.9,5.7l4.6,6.3l1.2,1.6c0.2,0.2,0.4,0.5,0.5,0.7h-2.4l-5.2-7.3
			l-2.4,2.2v5.1h-1.9L90.2,62z"/>
		<path class="st0" d="M79.1,68.6h-2.8v-5h3.9c0.9,0,1.7,0,2.3,0.3c0.8,0.5,1,0.9,1.2,2c0.1,0.6-0.1,1.1-0.4,1.6
			C82.5,68.6,81,68.6,79.1,68.6 M85.8,76c-0.2-0.4-0.3-0.7-0.4-1.1c-0.1-0.5-0.1-1.1-0.2-1.7l0-0.6c-0.1-0.4-0.1-0.8-0.2-1.2
			c-0.3-1.1-0.9-1.8-2-2v-0.1c0.2,0,0.4-0.1,0.7-0.3c0.9-0.5,1.5-1.3,1.7-2.3c0.4-1.5-0.1-3.1-1-3.8c-0.6-0.5-1.2-0.8-1.9-1
			c-0.8-0.2-2-0.1-3-0.1h-5.2v14.4h1.9v-6.2h3.5c1.5,0,2.5-0.1,3.1,0.9c0.5,0.7,0.5,1.8,0.6,2.8c0.1,0.7,0,1.4,0.2,2
			c0.1,0.1,0.1,0.3,0.2,0.4c0.2,0,0.4,0.1,0.6,0H86L85.8,76z"/>
	</g>
	<path class="st0" d="M64.2,63.7L64.2,63.7l2.5,6.7h-4.9L64.2,63.7z M63.2,62l-5.6,14.4h2l1.6-4.3h6.1l1.6,4.3h2.1L65.3,62H63.2z"/>
</g>
</svg>
