<svg xmlns="http://www.w3.org/2000/svg" viewBox="0 0 120 120"><title>icon-l&amp;amp;r</title><g id="Layer_1" data-name="Layer 1"><rect width="120" height="120" style="fill:none"/></g><g id="Layer_2" data-name="Layer 2"><path d="M48.6,53.6a4,4,0,0,1,1.57-3.39c.8-.71,1.67-1.34,2.47-2.05A40.74,40.74,0,0,0,56,45.08a5.58,5.58,0,0,0,1.32-5.18,3.23,3.23,0,0,0-1.24-2.08,5.48,5.48,0,0,1-1.37,4.5A22.1,22.1,0,0,1,53,44.06c-1,.87-2.07,1.64-3,2.57a13.07,13.07,0,0,0-2.14,2.67c-.85,1.48-.54,2.94.79,4.3m2.92,12.75a13.62,13.62,0,0,1-7.05.9,13.35,13.35,0,0,1-6.35-3.13A14.69,14.69,0,0,1,34,58.37a13.11,13.11,0,0,1,.56-11,14.76,14.76,0,0,1,8.29-7.49C37,38,34.56,34.35,35.76,28.5A3.17,3.17,0,0,0,32.59,32q0,18,0,36a2.47,2.47,0,0,0,1.62,2.49,8.31,8.31,0,0,0,3.87.65c3-.17,6.08-.39,9.11-.63a5,5,0,0,0,4.36-4.07m3.57-44.71a5.69,5.69,0,0,1-4.17-.35,11.79,11.79,0,0,0-6.33-.46A10.51,10.51,0,0,0,36,31a7.63,7.63,0,0,0,3.7,7,9.1,9.1,0,0,0,4,1.44,7.78,7.78,0,0,1,1.14.33c0,.09,0,.18,0,.28a7.25,7.25,0,0,1-.78.28A11.89,11.89,0,0,0,38.64,43c-4.25,3.63-6.82,10.29-3.61,16.3C38.36,65.52,46,70,54.21,64.06a9.6,9.6,0,0,0,3.93-5.53,13.39,13.39,0,0,0-.52-7.77,4.88,4.88,0,0,0-.51-.92,10.71,10.71,0,0,1-1.11,9c-2.86,5.21-12.1,6.77-16.15.58a12.84,12.84,0,0,1-2-9.43c.81-4.93,3.5-8.35,8.32-10a6,6,0,0,0,.65-.29c-.1-.1-.12-.14-.16-.15-.3-.12-.62-.21-.92-.34-3-1.26-5.15-3.35-5.66-6.64a11.38,11.38,0,0,1,1.34-7.41,6.43,6.43,0,0,1,3.38-2.95,8.49,8.49,0,0,1,9.86,3.06c.17.24.36.45.71.89-.1-1.69-.17-3.07-.25-4.54M49.82,55.28c-.11,0-.22.11-.26.08-2.36-1.42-3.45-3.89-2.35-6.29a10,10,0,0,1,2.67-3.21c.9-.78,1.86-1.5,2.74-2.31a14.52,14.52,0,0,0,2-2c1.48-2,1.27-3.69-.73-5.37a3.65,3.65,0,0,1,.9,0A5.09,5.09,0,0,1,58,40.55a6.59,6.59,0,0,1-1.41,4.74c-.45.58-1,1.11-1.44,1.67A22.63,22.63,0,0,1,57,48.64a7.85,7.85,0,0,1,1.77,4c1.06,6.09-.73,10-6,13.07-.18.1-.35.22-.61.38q-.95,3.3-1.94,6.76H23.63l0-.13.78-.2a4,4,0,0,0,3.07-3.48,14.22,14.22,0,0,0,.06-1.73q0-17.37,0-34.75c0-2.6-.77-3.54-3.31-4.09a.54.54,0,0,1-.42-.37H35.84c.24-.56.41-1,.58-1.38A11.07,11.07,0,0,1,48.25,20.1a30.84,30.84,0,0,1,3.23.76c.6.15,1.19.34,1.8.45a1.6,1.6,0,0,0,1.66-.57,5.07,5.07,0,0,1,.77-.65c.11,2.72.21,5.25.31,7.88.69,0,1.22.09,1.74.09,4.87,0,9.73,0,14.59,0a10.71,10.71,0,0,1,9.86,7.36c1.06,3.86-.12,7.25-2.7,10.18a16.37,16.37,0,0,1-5.63,4l-1.12.49a8.66,8.66,0,0,0,.62.8q8.9,9,17.8,18a12.2,12.2,0,0,0,6.93,3.54,1.54,1.54,0,0,1,.87.4H87.88a4.43,4.43,0,0,0-.5-.7q-8.66-8.92-17.33-17.82c-1.37-1.41-2.8-2.75-4.16-4.08A17.67,17.67,0,0,0,68.31,50c4.45-1.08,6.85-4.18,8-8.39a9.56,9.56,0,0,0-.33-6.2c-1.35-3.39-4.09-5-7.5-5.75a6.23,6.23,0,0,0-3.53,0c0,.33-.08.69-.08,1q0,18.73-.07,37.47,0,.44,0,.87c.15,2.22,1,3.18,3.2,3.55a.85.85,0,0,1,.57.26H55.84l0-.1L57,72.48a2.85,2.85,0,0,0,2.48-2.56,18.41,18.41,0,0,0,.2-2.46q0-17.74,0-35.49V31.6c-.07-2.16-1.17-3.15-3.58-3.07v1.52l-.33,0c-.09-.37-.17-.75-.27-1.12-.71-2.92-2.18-5.27-5.22-6.21a9.57,9.57,0,0,0-3.28-.4,6.17,6.17,0,0,0-5.73,4.36,11.25,11.25,0,0,0-.76,5.22,7.85,7.85,0,0,0,5,6.55,17.74,17.74,0,0,0,2.6.79c.33.09.68.16,1.31.31a6.13,6.13,0,0,1-.81.44,26.71,26.71,0,0,0-3.21.89c-4.55,1.88-6.73,5.48-7.15,10.25a12.26,12.26,0,0,0,1.85,7.56c3.81,6.29,12.73,4.62,15.42-.28,2.05-3.71,1.94-7.55-.52-10.51a5.73,5.73,0,0,1-.38-.63c-1.53,1.26-2.91,2.35-4.24,3.5a3,3,0,0,0-1.22,2.47,10.73,10.73,0,0,0,.64,2" transform="translate(0 0)" style="fill:#555"/><path d="M61,99.07l1.54.42a12.62,12.62,0,0,1-4.87.09L59.14,99c-.31-2-.62-4-.93-6L58,93c-1.26,2.26-2.51,4.52-3.89,7-1.55-2.35-2.45-4.76-4-6.93l-1,5.93.71.29a1.27,1.27,0,0,1,.54.3,8.56,8.56,0,0,1-3.45-.09l1.35-.43c.48-2.6,1-5.28,1.47-8h1.44c1.06,2.09,2.16,4.24,3.38,6.62l3.73-6.61h1.25c.49,2.66,1,5.28,1.49,8" transform="translate(0 0)" style="fill:#555"/><path d="M84.55,97.5V91.67l-1.39-.4a1.1,1.1,0,0,0,0-.18h3.48l-1.32.66v7.94c-.76.35-1-.16-1.39-.47l-5.69-5.31c-.29-.26-.6-.51-1.05-.88v6l1.52.4a6.63,6.63,0,0,1-3.74.08L76.41,99V91.11c.75-.44,1.19-.1,1.63.32l5.57,5.25.94.82" transform="translate(0 0)" style="fill:#555"/><path d="M68.63,99.38A3.25,3.25,0,0,0,72.1,97c.59-2,.06-4.22-1.27-5.06a4.11,4.11,0,0,0-1.61-.55c-2.46-.29-3.93.95-4.12,3.43a8.05,8.05,0,0,0,0,1.47,3.22,3.22,0,0,0,3.49,3.08m-.29.55A5.88,5.88,0,0,1,65.23,99a4.17,4.17,0,0,1,0-7.26,6.3,6.3,0,0,1,7.12.17,4.14,4.14,0,0,1,.2,6.77,6.46,6.46,0,0,1-4.23,1.24" transform="translate(0 0)" style="fill:#555"/><path d="M45.14,91.25a2.19,2.19,0,0,1,0,.45,1.83,1.83,0,0,1-.18.35,34,34,0,0,0-3.41-.65A3.25,3.25,0,0,0,38,93.1,4.63,4.63,0,0,0,38.28,98a3.65,3.65,0,0,0,1.8,1.19,6.09,6.09,0,0,0,3.33,0V96.47L41.93,96a9.77,9.77,0,0,1,4.54,0l-1.28.54v3c-2.45.58-4.79.88-7.08-.18a4,4,0,0,1-2.52-3.66,4.07,4.07,0,0,1,2.35-4,8.17,8.17,0,0,1,2.46-.76,12.87,12.87,0,0,1,4.74.41" transform="translate(0 0)" style="fill:#555"/><path d="M34,91.09v.8l-5.3-.48a13.07,13.07,0,0,0-.07,3.42,47.38,47.38,0,0,1,5.37.31,5.64,5.64,0,0,1-2.57.3c-.9,0-1.79,0-2.78,0v3.84l5.56-.53v.91H25.45l0-.18,1.28-.4V91.66l-1.33-.39,0-.18Z" transform="translate(0 0)" style="fill:#555"/><path d="M90.86,91.41l-3.47.47c0-.23-.1-.44-.18-.78h9.1v.78l-3.54-.45v7.65l1.33.38,0,.25c-1.5.12-3,0-4.51.05l-.06-.26,1.35-.43Z" transform="translate(0 0)" style="fill:#555"/></g></svg>