<svg xmlns="http://www.w3.org/2000/svg" viewBox="0 0 120 120"><title>icon-mofibo</title><g id="Layer_1" data-name="Layer 1"><rect width="120" height="120" style="fill:none"/></g><g id="Layer_2" data-name="Layer 2"><path d="M48.17,93.13a2.28,2.28,0,0,0-2.49-2.27,3.54,3.54,0,0,0-3,1.49,2.35,2.35,0,0,0-2.55-1.5,3.83,3.83,0,0,0-2.75,1.39c-.08-.41-.13-.71-.18-1H34.59v1l1.27.14v7.2h1.65V93.34a3.11,3.11,0,0,1,1.78-1.15,1.37,1.37,0,0,1,1.74,1,4.35,4.35,0,0,1,.16,1.24c0,1.47,0,2.94,0,4.41,0,.25,0,.51.06.74h1.56V93.34a3,3,0,0,1,1.79-1.14,1.39,1.39,0,0,1,1.78,1.08,6,6,0,0,1,.16,1.33c0,1.41,0,2.82,0,4.23,0,.25,0,.51.06.77h1.55c0-.3.06-.56.06-.82,0-1.53,0-3.05,0-4.58a9.75,9.75,0,0,0,0-1.08" transform="translate(0 0)" style="fill:#555"/><path d="M75.79,96.67a2.44,2.44,0,0,1-3,2c-.27,0-.53-.11-.89-.18V93.2a2.07,2.07,0,0,1,2.34-.89A1.92,1.92,0,0,1,75.78,94a8.41,8.41,0,0,1,0,2.65M73.8,91a12.07,12.07,0,0,0-1.92.73V87H69.1v1l1.2.16v11a6.76,6.76,0,0,0,3.48.69A3.73,3.73,0,0,0,77,97.78a5.64,5.64,0,0,0,.18-4.94A2.91,2.91,0,0,0,73.8,91" transform="translate(0 0)" style="fill:#555"/><path d="M62.63,86.79a3,3,0,0,0-2.42,2.57,8.57,8.57,0,0,0-.13,1.34c0,2.7,0,5.39,0,8.09,0,.26,0,.52.05.8h1.58c.07-2.45-.05-4.83.07-7.23l1.43-.1.35-1-1.71-.11c-.25-1.38,0-2.47.78-2.94a3.18,3.18,0,0,1,3.13-.12c0,.45.08.83.12,1.23H67.4v-2a7.56,7.56,0,0,0-4.77-.49" transform="translate(0 0)" style="fill:#555"/><path d="M64.36,92.26l1.44.11c0,2.49,0,4.86,0,7.23h1.56V91.22H64.72c-.13.36-.23.68-.36,1" transform="translate(0 0)" style="fill:#555"/><path d="M54.19,98.69c-1.55,0-2.46-1.43-2.46-3.24s.86-3.32,2.46-3.32,2.46,1.58,2.46,3.26c0,1.85-.89,3.3-2.46,3.3m0-7.87c-2.5,0-4.22,1.93-4.22,4.66S51.59,100,54.1,100s4.26-1.7,4.26-4.68c0-2.53-1.53-4.5-4.13-4.5" transform="translate(0 0)" style="fill:#555"/><path d="M83.07,98.69c-1.56,0-2.47-1.43-2.47-3.24s.86-3.32,2.47-3.32,2.45,1.58,2.45,3.25c0,1.86-.88,3.31-2.45,3.31m0-7.87c-2.5,0-4.22,1.93-4.22,4.66S80.47,100,83,100s4.26-1.7,4.26-4.68c0-2.53-1.53-4.5-4.13-4.5" transform="translate(0 0)" style="fill:#555"/><path d="M70.12,55c-6.76,6.35-15.4,4.2-21.3,9a48.49,48.49,0,0,1-1.76-13.16c0-2.42,1-16,12.93-16,15.32,0,17.94,12.8,10.13,20.14M89.68,26.23a6.51,6.51,0,0,0-.25-1.76,6.08,6.08,0,0,0-6-4.45H43.36l-5.74,0a6.3,6.3,0,0,0-6.32,6.32q0,22.92,0,45.85a6.16,6.16,0,0,0,6.27,6.27q22.92,0,45.84,0a6.16,6.16,0,0,0,6.27-6.27q0-23,0-45.94" transform="translate(0 0)" style="fill:#555"/></g></svg>