<svg xmlns="http://www.w3.org/2000/svg" viewBox="0 0 120 120"><title>icon-gyldendal</title><g id="Layer_1" data-name="Layer 1"><rect width="120" height="120" style="fill:none"/></g><g id="Layer_2" data-name="Layer 2"><path d="M47.64,74.67a1.63,1.63,0,0,0,1.71,1.71A1.61,1.61,0,0,0,51,74.67a1.59,1.59,0,0,0-1.6-1.61,1.62,1.62,0,0,0-1.71,1.61M58,32.56a1,1,0,0,0,1.1,1,1,1,0,0,0,1-1,1.08,1.08,0,0,0-1-1,1.1,1.1,0,0,0-1.1,1M75.68,75.48c0-8.34-4.53-17.69-12.16-21.71-3.62-1.81-4.43-3.72-4.43-5.93,0-5.13,5.13-9.35,5.13-13.77,0-2.81-2-4.72-5.23-4.72a4.19,4.19,0,0,0-2.21.6c-1.81-.5-7.64-1.61-8.64-1.71l-.1.1c.4.3,7,3.22,8.24,4.42l.6.61.31-.3a3.41,3.41,0,0,1-.11-.61c0-1,.91-1.71,2.32-1.71a3.27,3.27,0,0,1,3.51,3.32c0,1.91-1.5,4.22-2,4.22l-.2-.2c0-.4.4-1.21.4-1.81a1.79,1.79,0,0,0-2-2l-.4.1.2.1c.41,0,.81.6.81,1.41,0,4.62-8.55,12.76-8.55,17.49,0,7.33,8.34,13.66,11.36,15.57a.75.75,0,0,1,.4.61l-.5.8H50.25a10.29,10.29,0,0,0-3,.5,6.12,6.12,0,0,0-1.92,2.21,5.45,5.45,0,0,0,.61,3.22c.3.6,1.1.4.8-.1a3.67,3.67,0,0,1-.3-1.41,3,3,0,1,1,5.93,0c0,.3.2.4.3.4.5,0,.5-.6.5-.9,0-.8-.6-1.61-.6-2.11s.3-.6,1.11-.6c2.21,0,9,1.1,9.85,1.1s1.3-2,1.8-2c.81,0,2.62,6.64,2.62,7.44v1.1c0,.61.4,1.11.2,1.81-3,7.54-3.52,9.35-3.52,9.35-.6,1.41-6.53,1.51-7.94,1.51-1,0-1.6.6-1.6,1l.29.31a59.26,59.26,0,0,1,9.25-.51,21.67,21.67,0,0,1,3,.41l.2-.31c0-.8-2.71-.8-2.21-2l4.12-9.54a5.79,5.79,0,0,0,.5-1.81,17.65,17.65,0,0,0-.81-2.62,41,41,0,0,1-.7-4.32h.2c1.31,0,2.72,2.92,3,3.92.2.8,1,.91,1.71,1a4.87,4.87,0,0,1,.1,1.2c0,.41.8.6,1.2.6s.71-3.21.71-3.71M87.33,60c0-18.9-.7-27.24-4.52-33.07C78.89,20.8,73,20,60.6,20,48,20,42,20.8,38.09,26.93,34.37,32.76,33.67,41.1,33.67,60c0,18.69.7,27.13,4.42,33,4,6.23,9.95,7,22.51,7,12.36,0,18.29-.91,22.21-7,3.82-5.83,4.52-14.27,4.52-33m-2.61,0c0,18-.7,25.83-4,31.05S72,97.29,60.6,97.29c-11.56,0-17-.91-20.3-6.24s-4-13.06-4-31,.6-25.83,4-31.06,8.64-6.23,20.3-6.23c11.36,0,16.78,1.11,20.1,6.23s4,13.47,4,31.06" transform="translate(0 0)" style="fill:#555"/></g></svg>