<?xml version="1.0" encoding="utf-8"?>
<!-- Generator: Adobe Illustrator 19.2.1, SVG Export Plug-In . SVG Version: 6.00 Build 0)  -->
<svg version="1.1" id="Lag_1" xmlns="http://www.w3.org/2000/svg" xmlns:xlink="http://www.w3.org/1999/xlink" x="0px" y="0px"
	 viewBox="0 0 120 120" style="enable-background:new 0 0 120 120;" xml:space="preserve">
<style type="text/css">
	.st0{fill:#555555;}
</style>
<g>
	<g>
		<g>
			<g>
				<g>
					<g>
						<polygon class="st0" points="74.3,61.4 73.6,63.1 75,63.1 						"/>
						<path class="st0" d="M89.8,60.8H89v1.3h0.7c0.5,0,1.1,0,1.1-0.6C90.8,60.9,90.3,60.8,89.8,60.8z"/>
						<path class="st0" d="M93.4,69.1h-0.8v1.3h0.7c0.5,0,1.1,0,1.1-0.6C94.4,69.2,93.9,69.1,93.4,69.1z"/>
						<path class="st0" d="M94.9,63c0.2-0.1,0.5-0.2,0.4-0.5c0-0.3-0.1-0.4-0.4-0.4c-0.3,0-0.4,0.2-0.4,0.4
							C94.6,62.8,94.8,62.9,94.9,63z"/>
						<path class="st0" d="M94.1,64.4c0,0.3,0.3,0.5,0.6,0.5c0.3,0,0.5-0.2,0.7-0.3l-0.8-0.8C94.5,63.9,94.2,64.1,94.1,64.4z"/>
						<path class="st0" d="M60.4,39v42h42V39H60.4z M81.8,59.7h1.3v3.5c0,0.7,0.5,1.2,1.2,1.2c0.7,0,1.1-0.5,1.1-1.2v-3.5h1.3v3.5
							c0,1.3-0.8,2.3-2.4,2.3c-1.6,0-2.4-1-2.4-2.3V59.7z M76.7,59.7h4.5v1.1h-1.6v4.6h-1.3v-4.6h-1.6V59.7z M73.8,59.7h1l2.5,5.7
							h-1.4l-0.5-1.2h-2.2l-0.5,1.2h-1.4L73.8,59.7z M69,73.7L66.7,71v2.7h-1.3V68h1.3v2.4l2.2-2.4h1.6L68,70.7l2.8,3.1H69z
							 M70.8,65.4h-1.6l-2.5-4.1h0v4.1h-1.3v-5.7h1.7l2.4,4h0v-4h1.3V65.4z M76,71.5c0,1.3-0.8,2.3-2.4,2.3c-1.6,0-2.4-1-2.4-2.3V68
							h1.3v3.5c0,0.7,0.5,1.2,1.2,1.2c0.7,0,1.1-0.5,1.1-1.2V68H76V71.5z M80.8,73.7h-3.6V68h1.3v4.5h2.3V73.7z M84.7,69.1h-1.6v4.6
							h-1.3v-4.6h-1.6V68h4.5V69.1z M90.2,71.5c0,1.3-0.8,2.3-2.4,2.3c-1.6,0-2.4-1-2.4-2.3V68h1.3v3.5c0,0.7,0.5,1.2,1.2,1.2
							c0.7,0,1.1-0.5,1.1-1.2V68h1.3V71.5z M89.6,63.1H89v2.3h-1.3v-5.7H90c1.2,0,2.1,0.4,2.1,1.7c0,0.8-0.4,1.4-1.2,1.6l1.4,2.4
							h-1.5L89.6,63.1z M94.4,73.7l-1.2-2.3h-0.6v2.3h-1.3V68h2.2c1.2,0,2.1,0.4,2.1,1.7c0,0.8-0.4,1.4-1.2,1.6l1.4,2.4H94.4z
							 M96.2,65.4l-0.3-0.4c-0.3,0.3-0.7,0.5-1.1,0.5c-0.7,0-1.3-0.4-1.3-1.1c0-0.5,0.4-0.9,0.8-1c-0.2-0.3-0.4-0.5-0.4-0.9
							c0-0.7,0.6-1,1.2-1c0.6,0,1.1,0.3,1.1,0.9c0,0.5-0.3,0.8-0.7,1l0.5,0.5l0.4-0.5h0.9l-0.8,1.1l0.8,0.9H96.2z"/>
					</g>
				</g>
			</g>
		</g>
	</g>
	<g>
		<path class="st0" d="M38.3,65.5L38.3,65.5l0.1,0.1c1.1,0,2.1-0.2,3-0.7c0-0.2,0.1-0.4,0-0.5l-0.1-0.3C41.4,64,39.4,65.1,38.3,65.5
			z"/>
		<path class="st0" d="M44.1,67.6c-0.1-0.1-0.2,0-0.3-0.1c-0.6-0.2-1.3-0.3-1.8-0.6c-0.3-0.4-0.3-0.9-0.4-1.4c0-0.1,0-0.2-0.1-0.1
			c-0.8,0.5-1.7,1-2.8,1.1c-0.1,0-0.2,0.1-0.2,0.2c0.2,0.4,0.8,0.1,1.2,0.1c0.2,0.1,0.1,0.3,0.1,0.5c-0.3,0.3-0.6,0.3-0.8,0.4
			c-0.9,0.4-0.7,1.4-0.8,2.2c0.3,0.2,0.7,0.2,1,0.3l0.1,0c0.5-1,0.8-2.1,1.2-3.2c0.1-0.2,0.3-0.2,0.4-0.3c0.1,0,0.3-0.2,0.4,0
			l0.2,1.2c0.1,0.2,0.1,0.2,0.2,0.2c1.2,0.5,2.1,0.4,3.1,0.7c0.1,0,0.3,0,0.4,0c0.1-0.3,0.2-0.5,0.2-0.8L45.3,68
			C44.9,67.9,44.5,67.8,44.1,67.6z"/>
		<path class="st0" d="M38.4,64.2c1,0,1.9-0.3,2.7-0.6c0.3-0.1,0.1-0.5,0.1-0.8c-0.1-0.3-0.2,0-0.4,0.1c-0.8,0.5-1.6,0.8-2.4,1.1
			c-0.1,0-0.2,0-0.3,0.1C38.2,64.3,38.4,64.2,38.4,64.2z"/>
		<path class="st0" d="M41.2,61.5l-0.1-0.1c-1,0.6-2.1,1.1-3.2,1.4l0,0.1c1.1,0,2.1-0.4,3.1-0.7C41.4,62.2,41.2,61.7,41.2,61.5z"/>
		<path class="st0" d="M36,67c-1.1,0.3-2.1,0.4-3.2,0.8l-0.1,0.1c0.1,0.3,0.1,0.6,0.2,0.8c0.8,0,1.4-0.3,2.1-0.3
			c0.3-0.1,0.7-0.1,1.1-0.3c0.2-0.3,0.1-0.6,0-0.9C36.2,67.2,36.2,67,36,67z"/>
		<path class="st0" d="M17.7,39v42h42.7V39H17.7z M52,49.9c0.1-0.2,0.2-0.5,0.5-0.5c0.3,0.2,0.5,0.5,0.7,0.8
			c0.3,0.6,0.4,1.6-0.1,2.2c-0.2,0.3-0.5,0.6-0.7,0.7c-0.3-0.1-0.3-0.3-0.4-0.4C51.4,51.9,51.5,50.7,52,49.9z M46.6,58.3
			c0.4,0.8,0.2,1.6,0.1,2.4l-0.1,0.1c-0.7-0.2-1.5-0.6-1.8-1.4c-0.2-0.7-0.1-1.6,0.2-2.2C45.6,57.4,46.3,57.7,46.6,58.3z M45.8,52.2
			c0.4-0.3,0.8-0.4,1.2-0.6l0.2,0.1c0.1,0.8,0.2,1.7-0.4,2.3c-0.4,0.5-1,0.7-1.7,0.9L45,54.7C44.9,53.8,45,52.8,45.8,52.2z
			 M45.1,55.4c0.5-0.2,1-0.3,1.6-0.3c0.8,0,1.6,0.3,2.2,1c-0.4,0.7-1.1,0.9-1.8,0.9c-0.1-0.1-0.2,0-0.3,0
			C46,56.8,45.3,56.2,45.1,55.4z M50.8,52.9c-0.5,1-1.5,1.5-2.6,1.5c-0.2,0-0.5,0-0.6-0.1c0.1-0.8,0.3-1.7,1.2-2.1
			c0.7-0.2,1.5-0.2,2.2,0.1C50.9,52.6,50.9,52.7,50.8,52.9z M52,53.7l0.1,0.2c0.1,0.4,0,0.8-0.1,1.2c-0.1,0.4-0.2,0.7-0.5,1
			c-0.5,0.6-1.3,0.6-1.9,0.7c-0.2-0.4-0.1-0.7,0-1c0.1-0.7,0.7-1.5,1.4-1.8C51.2,53.8,51.6,53.7,52,53.7z M47.8,57.7
			c0.4-0.3,0.9-0.6,1.5-0.4c0.2,0,0.3,0.2,0.5,0.2c0.1,0,0.2-0.1,0.3-0.1c0.4-0.2,1-0.2,1.3,0c0.7,0.5,0.8,1.4,0.6,2.2
			c-0.1,0.6-0.4,1.3-1,1.6c-0.8,0.4-1.9,0.3-2.7-0.1c-0.3-0.2-0.5-0.5-0.7-0.8C47.2,59.6,47.1,58.4,47.8,57.7z M51.6,56.8
			c0.3-0.3,0.3-0.3,0.6-0.4c0.7-0.4,1.7-0.4,2.4,0.1c0.3,0.2,0.6,0.5,0.9,0.8l0,0.1c-0.6,0.5-1.2,0.8-2,0.7
			C52.7,57.9,52,57.4,51.6,56.8z M51.3,49.4c0.1,0.5-0.1,0.9-0.3,1.4c-0.6,0.9-1.8,1.1-2.8,0.8c-0.2-0.1-0.4-0.1-0.6-0.2
			c0.2-0.5,0.6-0.8,1-1.2C49.4,49.6,50.2,49.3,51.3,49.4L51.3,49.4z M48.9,46.3c0.2-0.2,0.9-0.7,0.9,0c0.3,0.8,0.3,1.8-0.4,2.5
			c-0.4,0.5-1,0.7-1.6,0.9c-0.1-0.1,0-0.3-0.1-0.5C47.7,48.1,48,46.9,48.9,46.3z M46.1,45.2c0.8-0.3,1.8-0.1,2.5,0.5
			c-0.1,0.2-0.3,0.4-0.5,0.6c-0.9,0.7-2.1,1-3.3,0.7l0,0C45,46.2,45.4,45.5,46.1,45.2z M44.7,47.8c0.4-0.2,1-0.2,1.3,0
			c0.7,0.5,0.8,1.4,0.6,2.2c-0.1,0.6-0.4,1.3-1,1.6c-0.8,0.4-1.9,0.3-2.7-0.1c-0.3-0.2-0.5-0.5-0.7-0.8c-0.3-0.8-0.4-1.9,0.2-2.6
			c0.4-0.3,0.9-0.6,1.5-0.4c0.2,0,0.3,0.2,0.5,0.2C44.5,47.9,44.6,47.8,44.7,47.8z M42.2,43.5c0.4,0.1,0.7,0.2,1,0.4
			c0.6,0.4,1.2,1.1,1.1,1.8c0,0.4-0.1,0.8-0.2,1.1c-0.3,0-0.6-0.1-0.8-0.2c-0.8-0.3-1.4-1.3-1.3-2.2C42,44.2,42.1,43.8,42.2,43.5z
			 M41.9,52.1c0-0.3,0.3-0.2,0.5-0.2c0.6,0.1,1.3,0.6,1.6,1.3c0.3,0.5,0.4,1.1,0.4,1.7c-0.4,0.1-0.9,0-1.3-0.1
			c-0.6-0.2-1.2-0.8-1.3-1.5C41.7,52.9,41.8,52.5,41.9,52.1z M42,56.8c0.5-0.9,1.5-1.2,2.5-1.2c0.1,0,0.2,0.1,0.2,0.2
			c0,0.9-0.3,1.9-1.2,2.3c-0.6,0.2-1.2,0.3-1.8,0.1C41.7,57.6,41.8,57.2,42,56.8z M39.7,44.9c0.1-0.2,0.2,0,0.4,0
			c0.6,0.3,1,0.8,1.4,1.3l0.1,0.6c0,0.5-0.1,0.9-0.3,1.3l-0.1,0.2c-0.8-0.2-1.5-0.8-1.7-1.6C39.3,46.3,39.4,45.5,39.7,44.9z
			 M39.5,50.9c0.1-0.7,0.7-1.2,1.2-1.5h0.1c0.3,0.5,0.5,1.2,0.5,1.8c0,0.7-0.5,1.3-1.1,1.7c-0.1,0-0.4,0.2-0.4,0
			c-0.2-0.5-0.3-1-0.3-1.5C39.4,51.3,39.4,51,39.5,50.9z M39.6,53.7c0.4-0.2,0.9-0.2,1.3,0c0.7,0.5,0.8,1.4,0.6,2.2
			c-0.1,0.6-0.4,1.3-1,1.6c-0.8,0.4-1.9,0.3-2.7-0.1c-0.3-0.2-0.5-0.5-0.7-0.8c-0.3-0.8-0.4-1.9,0.2-2.6c0.4-0.3,0.9-0.6,1.5-0.4
			c0.2,0,0.3,0.2,0.5,0.2C39.4,53.9,39.5,53.7,39.6,53.7z M39.2,49c-0.1,0.6-0.3,1-0.6,1.5c-0.2,0-0.3-0.2-0.4-0.2
			c-0.7-0.5-1.1-1.4-1-2.3c0.1-0.5,0.3-1,0.6-1.4l0.1,0.1C38.8,47.2,39.4,48,39.2,49z M36.9,43.7c0.2-0.6,0.8-1.1,1.3-1.3l0.1,0
			c0.5,0.6,0.8,1.4,0.5,2.2c-0.2,0.3-0.4,0.6-0.7,0.8c-0.2,0.1-0.6,0.6-0.8,0.1C37,45,36.8,44.4,36.9,43.7z M38.7,52
			c0.2,0.3,0.3,0.6,0.3,1c-0.3,0.2-0.6,0.2-0.9,0.2c-0.3,0-0.7,0-1-0.2c-0.6-0.3-1.1-1-1.2-1.7c0.3-0.1,0.6-0.2,0.9-0.2
			C37.6,51,38.3,51.3,38.7,52z M34.1,55.4c0.9,0,1.8,0.3,2.3,1.2c0.2,0.3,0.3,0.7,0.3,1.1c-0.5,0.1-1.1,0.1-1.6,0
			c-0.7-0.3-1.1-1.1-1.1-1.9C33.9,55.6,33.8,55.4,34.1,55.4z M33.7,53.1c0-0.3,0-0.4,0-0.6l0.1-0.1c0.9-0.1,1.6,0.3,2.1,1
			c0.3,0.5,0.4,1.1,0.4,1.7l-0.1,0c-0.8,0.1-1.7,0-2.2-0.8C33.9,53.9,33.7,53.6,33.7,53.1z M33.5,44c0-0.2,0.3-0.2,0.5-0.2
			c0.3,0,0.6,0.1,0.9,0.1c0.9,0.3,1.5,1.1,1.7,2c0,0.2,0.1,0.3,0,0.5c-0.6,0.1-1.2,0-1.8-0.3C34,45.7,33.4,44.9,33.5,44z M33.9,47.1
			c0.2,0,0.3,0.2,0.5,0.2c0.1,0,0.2-0.1,0.3-0.1c0.4-0.2,0.9-0.2,1.3,0c0.7,0.5,0.8,1.4,0.6,2.2c-0.1,0.6-0.4,1.3-1,1.6
			c-0.8,0.4-1.9,0.3-2.7-0.1c-0.3-0.2-0.5-0.5-0.7-0.8c-0.3-0.8-0.4-1.9,0.2-2.6C32.8,47.1,33.4,46.9,33.9,47.1z M27,59.4
			c-0.3-0.2-0.5-0.5-0.7-0.8c-0.3-0.8-0.4-1.9,0.2-2.6c0.4-0.3,0.9-0.6,1.5-0.4c0.2,0,0.3,0.2,0.5,0.2c0.1,0,0.2-0.1,0.3-0.1
			c0.4-0.2,1-0.2,1.3,0c0.7,0.5,0.8,1.4,0.6,2.2c-0.1,0.6-0.4,1.3-1,1.6C28.8,60,27.8,59.8,27,59.4z M28.2,63.4
			c-0.1,0.1-0.3,0-0.4,0c-0.7-0.3-1.3-0.9-1.4-1.7c0-0.3-0.1-0.6,0-0.9c0.1-0.2,0.1-0.4,0.2-0.5c0.6,0.1,1.3,0.3,1.6,1
			C28.5,61.8,28.4,62.7,28.2,63.4z M31.1,55.5c-0.3,0-0.5-0.1-0.8-0.2c-0.5-0.2-1-0.6-1.2-1L29,53.9c0-0.3-0.1-0.6,0-0.9
			c0-0.2,0.1-0.4,0.1-0.6c0.6,0,1.2,0.3,1.7,0.7C31.2,53.8,31.3,54.7,31.1,55.5z M30.9,51.3c0.1-0.3,0.2-0.7,0.4-1
			c0.6,0.1,1.1,0.7,1.4,1.2c0.4,0.7,0.2,1.6,0.1,2.4c-0.1,0-0.6-0.2-0.8-0.3l-0.3-0.2C31.1,52.9,30.7,52.2,30.9,51.3z M29.9,61.3
			c0.1-0.8,0.5-1.6,1.3-2c0.4-0.2,1-0.4,1.5-0.3c0.1,0.6-0.1,1.2-0.4,1.7c-0.6,0.7-1.5,0.9-2.4,1C29.8,61.5,29.8,61.5,29.9,61.3z
			 M32.6,58.5l-0.2,0c-0.4-0.4-0.7-0.8-0.8-1.2c-0.1-0.4-0.1-0.9,0.1-1.3c0.2-0.5,0.6-1.1,1.2-1.4c0.5,0.6,0.7,1.5,0.6,2.3
			C33.3,57.4,33.1,58,32.6,58.5z M31.4,44.9c0.2,0,0.2,0.3,0.3,0.4c0.4,0.7,0.3,1.8-0.1,2.5c-0.2,0.4-0.5,0.7-0.8,0.9
			c-0.2-0.1-0.3-0.3-0.4-0.4c-0.3-0.5-0.4-1-0.4-1.6C30.1,45.9,30.7,45.2,31.4,44.9z M28.5,48.7c0.2-0.3,0.4-0.6,0.7-0.8
			c0.3-0.2,0.4,0.1,0.6,0.4c0.4,0.6,0.5,1.5,0.2,2.3c-0.2,0.5-0.6,0.9-0.9,1.3l0,0C28.5,51,27.9,49.7,28.5,48.7z M26.4,50
			c0.3,0,0.7,0.2,0.9,0.5c0.1,0.1,0.1,0.1,0.1,0.1c0.4,0.4,0.5,1,0.6,1.5l-0.1,0.1c-0.9,0-2.2,0.2-2.7-0.8c-0.2-0.4-0.3-0.8-0.3-1.2
			C25.4,50,25.9,50,26.4,50z M26.7,53c0.6,0,1,0.1,1.5,0.2c0.1,0,0,0.3-0.1,0.4c-0.3,0.7-1,1.4-1.8,1.4c-0.6,0-1.1-0.1-1.6-0.4
			c-0.1-0.1-0.4-0.2-0.3-0.4C24.9,53.5,25.8,53.2,26.7,53z M23.3,54.9c0.8,0.1,1.5,0.5,1.9,1.2c0.3,0.6,0.3,1.2,0.4,1.9
			c0,0.1-0.1,0.2-0.2,0.2c-0.9-0.1-1.8-0.4-2.2-1.3C22.9,56.3,23,55.4,23.3,54.9z M22.2,59.8l0-0.1c0.7-0.9,1.8-1.2,2.8-0.9
			c0.4,0.2,0.7,0.4,1,0.7c-0.1,0.2-0.4,0.3-0.6,0.5c-0.7,0.4-1.8,0.6-2.6,0.2C22.7,60.1,22.4,60,22.2,59.8z M23,63.4
			c-0.1-0.2,0-0.4,0-0.6c0.1-0.5,0.3-1,0.8-1.3c0.5-0.4,1.2-0.5,1.8-0.6l0.1,0c0.1,0.9-0.1,1.8-0.9,2.2C24.3,63.4,23.6,63.4,23,63.4
			z M53.5,67.7c-0.5,1.1-1.2,2.2-2.1,3.1c-1,1-2,2-3.3,2.7c-1,0.6-2.1,1.1-3.2,1.5c-0.6,0.2-1.2,0.4-1.8,0.5
			c-1.7,0.4-3.6,0.5-5.4,0.5c-0.3,0-0.2,0-0.8-0.1c-1.5-0.1-2.8-0.7-4.2-1.1c-0.8-0.4-1.6-0.7-2.4-1.2c-1-0.7-2-1.4-2.9-2.3
			c-1-1-2-2.1-2.5-3.4c0-0.3,0.3-0.3,0.5-0.4c1.5-0.4,2.9-0.8,4.4-1c0.7,0,1.1,0.6,1.8,0.5c1.4-0.4,2.8-0.7,4.1-1.1l0-0.3
			c-0.2-1-0.4-2-0.5-3.1c-0.1-0.6-0.1-1.4-0.2-2.1c-0.5-0.4-1.1-0.6-1.7-1l-0.3-0.2c0.1-0.5,0.7-1.3,0.7-1.3c0.1-0.1,0.7,0.4,1,0.5
			c0.6,0.3,1.2,0.5,1.7,0.8c0.2,0,0.1-0.3,0.1-0.5l0-0.3c0.4-0.1,0.8-0.2,1.2-0.1c0.1,0.3-0.1,0.5,0,0.8c0.2,0.1,0.4,0,0.7-0.1
			c0.7-0.2,1.3-0.4,2-0.6c0.2,0,0.3,0.2,0.7,0.4c0.7-0.1,1.6,0,2.3,0c0.2,0.1,0.5,0,0.6,0.1c0,0.4-0.1,0.8-0.2,1.1L44,60.1l-1.7,0
			l-0.1,0.1c0.1,2,0.2,3.9,0.7,5.8c0,0.2,0.2,0.3,0.3,0.4l2.4,0.7c0.6,0,1.2-0.2,1.7-0.4c1-0.1,1.8,0.4,2.7,0.5
			c0.5-0.1,0.9-0.5,1.5-0.4c0.6,0.1,1.2,0.3,1.8,0.5C53.6,67.4,53.6,67.6,53.5,67.7z M53.8,63.1c-0.6-0.1-1.3-0.4-1.6-1.1
			c-0.1-0.4-0.2-0.8-0.2-1.2c0.4-0.1,0.8,0.1,1.2,0.1c0.5,0.1,1,0.3,1.3,0.8c0.2,0.4,0.3,0.9,0.3,1.3C54.6,63.2,54.2,63.1,53.8,63.1
			z M55.6,59.3c-0.5,0.8-1.4,1.2-2.4,1.1c-0.3-0.1-0.6-0.1-0.9-0.2c0-0.2,0.2-0.3,0.2-0.5c0.3-0.6,0.9-1,1.6-1c0.6,0,1,0.1,1.5,0.3
			C55.8,59.1,55.6,59.2,55.6,59.3z M55.4,55.8c-0.9,0.1-1.9-0.1-2.4-0.8c-0.3-0.3-0.4-0.7-0.5-1.1c0.7-0.3,1.7-0.4,2.3,0.2
			c0.5,0.4,0.9,1,0.9,1.6C55.8,55.8,55.6,55.8,55.4,55.8z"/>
		<path class="st0" d="M38.6,61.6c0.9-0.2,1.7-0.4,2.5-0.8l0-0.6c0-0.1-0.1-0.1-0.2-0.1c-1,0.5-2,1-3.1,1.5v0
			C38.1,61.7,38.4,61.5,38.6,61.6z"/>
	</g>
</g>
</svg>
