<?xml version="1.0" encoding="utf-8"?>
<!-- Generator: Adobe Illustrator 23.0.3, SVG Export Plug-In . SVG Version: 6.00 Build 0)  -->
<svg version="1.1" id="Layer_1" xmlns="http://www.w3.org/2000/svg" xmlns:xlink="http://www.w3.org/1999/xlink" x="0px" y="0px"
	 viewBox="0 0 120 120" style="enable-background:new 0 0 120 120;" xml:space="preserve">
<style type="text/css">
	.st0{fill:none;}
	.st1{fill:#FFFFFF;}
</style>
<title>icon-saxo</title>
<g>
	<rect class="st0" width="120" height="120"/>
</g>
<g>
	<ellipse class="st1" cx="47.2" cy="60" rx="1" ry="2"/>
	<path class="st1" d="M32.7,61.1v0.1c0,0.3,0.3,0.5,0.6,0.5c0.5,0,0.8-0.3,0.8-1v-0.5c-0.2,0-0.3,0.1-0.5,0.1
		C32.9,60.4,32.7,60.7,32.7,61.1z"/>
	<path class="st1" d="M20,54.2v11.7h35.3V54.2H20z M28.2,62.7c-0.8,0.1-1.6-0.2-2.1-0.7v0.7h-1V61H26c0.4,0.6,1.1,1,1.9,0.9
		c0.4,0,0.6-0.2,0.6-0.5c0-0.3-0.3-0.5-1.4-0.8c-1.3-0.3-2-0.7-2-1.7s0.9-1.8,1.9-1.8h0.1c0.7-0.1,1.4,0.2,1.9,0.7v-0.7h1v1.7h-1
		c-0.4-0.6-1-0.9-1.6-0.9c-0.5,0-0.6,0.2-0.6,0.5c0,0.3,0.3,0.5,1.4,0.7c1.1,0.2,2.1,0.7,2.1,1.8C30.3,62,29.5,62.7,28.2,62.7z
		 M36.4,62.8h-2.1v-0.9c-0.4,0.6-1.1,0.9-1.8,0.9c-0.1,0-0.1,0-0.2,0c-0.8,0-1.5-0.7-1.5-1.5c0-0.3,0.2-0.7,0.4-0.9
		c0.8-0.6,1.9-0.9,2.9-0.8V59c0-0.1,0-0.1,0-0.2c-0.1-0.6-0.6-1-1.1-0.9c-0.2,0-0.3,0-0.5,0c0.2,0.2,0.3,0.4,0.3,0.7
		c0,0.4-0.4,0.8-0.8,0.8c-0.5,0.1-0.9-0.3-1-0.8c0-1.1,1.5-1.4,2.7-1.4c1.8,0,2.3,0.9,2.3,2v2.6h0.4V62.8z M43.8,58.2h-0.6l-1.7,1.7
		l1.6,1.9h0.7v1h-3.6v-1h0.6l-0.9-1.1l-1,1.1h0.7v1H37v-1h0.6l1.7-1.7l-1.5-1.9H37v-1h3.7v1h-0.6l0.8,1l1-1h-0.7v-1h2.6V58.2z
		 M47.8,62.9c-1.6,0.2-2.9-1-3.1-2.5c-0.2-1.6,1-2.9,2.5-3.1c0-0.1,0-0.1,0.1,0c1.6,0,2.9,1.2,3,2.8C50.3,61.5,49.2,62.7,47.8,62.9z
		"/>
</g>
<path class="st1" d="M64.7,60c0-1.3-0.7-2.4-1.9-2.4c-0.7,0-1.4,0.4-1.8,1v2.7c0.4,0.6,1.1,1,1.8,1C64,62.4,64.7,61.4,64.7,60z
	 M61,61.9v3h-0.6v-7.6H61v0.9c0.4-0.6,1.2-1,1.9-1c1.5,0,2.5,1.1,2.5,2.9s-1,2.9-2.5,2.9C62.2,62.9,61.4,62.5,61,61.9"/>
<path class="st1" d="M66.5,62.8v-5.5h0.6v1c0.4-0.7,1.1-1.1,1.9-1.1v0.7h-0.3c-0.6,0.1-1.2,0.4-1.6,1v4h-0.6V62.8z"/>
<path class="st1" d="M72.2,57.6c-1.1,0-2,1-2,2.1h4C74.3,58.6,73.4,57.7,72.2,57.6C72.3,57.6,72.2,57.6,72.2,57.6z M69.6,60
	c-0.1-1.5,1.1-2.8,2.6-2.9h0.1c1.5,0,2.6,1.2,2.6,2.7c0,0.1,0,0.1,0,0.2v0.2h-4.6c0,1.2,0.9,2.2,2.1,2.2c0,0,0,0,0.1,0
	c0.7,0,1.3-0.3,1.8-0.8l0.3,0.4c-0.6,0.6-1.4,0.9-2.2,0.9c-1.5,0-2.7-1.2-2.8-2.7C69.5,60.1,69.5,60.1,69.6,60"/>
<path class="st1" d="M82.6,62.8v-3.9c0-0.8-0.3-1.3-1.1-1.3c-0.6,0-1.2,0.4-1.6,0.9v4.2h-0.6v-3.9c0-0.8-0.3-1.3-1.1-1.3
	c-0.7,0.1-1.2,0.4-1.6,1v4.2H76v-5.6h0.6v0.8c0.4-0.6,1.1-0.9,1.8-1c0.7-0.1,1.3,0.4,1.4,1c0.4-0.6,1.1-1,1.8-1c1,0,1.5,0.6,1.5,1.7
	v4L82.6,62.8z"/>
<path class="st1" d="M84.8,57.2h0.6v5.5h-0.6V57.2z M84.6,55.9c0-0.3,0.3-0.4,0.5-0.4s0.4,0.2,0.4,0.4l0,0c0,0.3-0.1,0.5-0.4,0.5
	S84.6,56.3,84.6,55.9L84.6,55.9"/>
<path class="st1" d="M90.7,62.8V62c-0.5,0.6-1.2,1-2,1c-1.1,0-1.7-0.5-1.7-1.8v-3.9h0.6V61c0,1.1,0.5,1.4,1.3,1.4
	c0.7,0,1.4-0.4,1.8-0.9v-4.2h0.6v5.5H90.7z"/>
<path class="st1" d="M99.4,62.8v-3.9c0-0.8-0.3-1.3-1.1-1.3c-0.6,0-1.2,0.4-1.6,0.9v4.2h-0.6v-3.9c0-0.8-0.3-1.3-1.1-1.3
	c-0.7,0.1-1.2,0.4-1.6,1v4.2h-0.6v-5.6h0.6v0.8c0.4-0.6,1.1-0.9,1.8-1c0.7-0.1,1.3,0.4,1.4,1c0.4-0.6,1.1-1,1.8-1
	c1,0,1.5,0.6,1.5,1.7v4L99.4,62.8z"/>
</svg>
