<svg xmlns="http://www.w3.org/2000/svg" viewBox="0 0 120 120"><title>icon-harpercollinsnordic</title><g id="Layer_1" data-name="Layer 1"><rect width="120" height="120" style="fill:none"/></g><g id="Layer_2" data-name="Layer 2"><path d="M78.7,57.68a1,1,0,0,0-1.07-.63l0-.24s0,0,.08,0,.25,0,.43,0c.39,0,.62,0,.9,0,.08,0,.27.39.39.61l2,3.73c0,.05.06.1.08.1l0,0,1-3.55a1,1,0,0,0,.06-.34c0-.15-.13-.23-.31-.23H82c0-.26.05-.27.23-.27s.48,0,.69,0,.42,0,.63,0,.17,0,.17,0,0,.17-.06.18a.51.51,0,0,1-.24,0c-.3,0-.4.31-.56.86l-1.1,3.77.35.63,0,.12s0,.08-.09.08l-.38,0a1.59,1.59,0,0,0-.17,0c-.06,0-.13-.08-.21-.23l-2.21-4.14C79,58.07,79,58,79,58s0,0-.06.09L78.06,61a7.87,7.87,0,0,0-.26,1c0,.21.18.23.35.23s.28,0,.28.05a.3.3,0,0,1,0,.17s-.08,0-.17,0-.25,0-.71,0a6.74,6.74,0,0,0-.79,0s-.06,0-.06,0l0-.22h.11c.21,0,.32,0,.41-.1a2.23,2.23,0,0,0,.42-1" transform="translate(0 0)" style="fill:#555"/><path d="M84.58,62.34c1,0,1.41-1.65,1.41-2.37,0-.42-.2-.84-.68-.84-.89,0-1.39,1.5-1.39,2.23,0,.43.11,1,.66,1m.73-3.47a1.33,1.33,0,0,1,1.33,1.4,2.33,2.33,0,0,1-2.09,2.34,1.31,1.31,0,0,1-1.24-1.47,2.26,2.26,0,0,1,2-2.27" transform="translate(0 0)" style="fill:#555"/><path d="M88.65,59.51a4.86,4.86,0,0,1-.16.93h0c.29-.48.9-1.57,1.35-1.57a.41.41,0,0,1,.45.36.37.37,0,0,1-.41.39.3.3,0,0,1-.2-.08s-.09-.11-.13-.11c-.27,0-.93,1.36-1.11,1.77s-.43,1.41-.66,1.41-.33,0-.33-.17.2-.6.41-1.26A5.54,5.54,0,0,0,88.18,60c0-.19,0-.45-.32-.45s-.37.31-.48.48a.64.64,0,0,1-.16-.11c.15-.33.55-1,.94-1s.49.38.49.64" transform="translate(0 0)" style="fill:#555"/><path d="M93,59.77c0-.36-.17-.64-.57-.64-.81,0-1.51,1.75-1.51,2.44,0,.25.12.47.41.47.59,0,1.67-1.78,1.67-2.27m.22,1.41a3.3,3.3,0,0,0-.13.59c0,.12,0,.19.17.19s.6-.62.72-.79l.18.09c-.39.65-.84,1.35-1.36,1.35a.35.35,0,0,1-.32-.38A10,10,0,0,1,92.75,61h0c-.33.54-1.07,1.67-1.8,1.67s-.72-.51-.72-1c0-1.19,1.12-2.72,2.29-2.72a1.54,1.54,0,0,1,.66.17l0,0,.38-1.59a2.28,2.28,0,0,0,.09-.51c0-.32-.26-.32-.51-.32l0-.18c.54-.07,1.1-.24,1.21-.24a.07.07,0,0,1,.08.07.44.44,0,0,1,0,.14c0,.06-.07.26-.14.5" transform="translate(0 0)" style="fill:#555"/><path d="M96.3,56.66a.38.38,0,0,1,0,.76.38.38,0,0,1,0-.76m-1.56,3a1.9,1.9,0,0,1,1.08-.78c.27,0,.41.12.41.38s-.94,2.39-.94,2.63c0,.09.09.16.21.16s.64-.56.83-.74l.15.12c-.28.43-.91,1.19-1.46,1.19-.24,0-.41-.11-.41-.37s.93-2.31.93-2.66a.13.13,0,0,0-.14-.15c-.14,0-.37.21-.49.34" transform="translate(0 0)" style="fill:#555"/><path d="M99.35,61.89h0a1.33,1.33,0,0,1-1.2.71A1.14,1.14,0,0,1,97,61.42a2.46,2.46,0,0,1,2.16-2.55c.3,0,.86.11.86.5a.29.29,0,0,1-.32.32c-.21,0-.22-.14-.25-.27s-.07-.29-.35-.29c-.87,0-1.45,1.34-1.45,2.07,0,.48.18.94.77.94a1.16,1.16,0,0,0,.82-.37" transform="translate(0 0)" style="fill:#555"/><path d="M23.16,55.39h0a1.22,1.22,0,0,1,.73,1.2c0,.75-.8,1.37-.77,2h0c.19-.91,1.59-1.45,1.3-2.44a2.18,2.18,0,0,1,.64,1.53c.18-.57,1-.92,1.08-1.36h0v2.86H20V57.75c0-.88,1.51-.86,1.39-1.67h0c.44.73-.25,1.35-.12,1.82h0c.36-1.39,1.7-1,2-1.91a.58.58,0,0,0-.13-.59" transform="translate(0 0)" style="fill:#555"/><path d="M21.07,59.49c-.36.36-.73.53-1.06.39V62.5h6.14V59.73c-.53.63-1.16.36-1.1-.16h0c-.95,1.11-1.5.49-1.35,0h0c-.87,1-1.41.43-1.15-.09h0c-1.1,1.32-1.8.84-1.47,0" transform="translate(0 0)" style="fill:#555"/><path d="M28.16,57.8c0-.37-.05-.64-.75-.65l0-.07V57c0-.06.07-.07.13-.07.24,0,.71,0,1.06,0s.64,0,1,0c.17,0,.21,0,.21.09v.13s-.1,0-.22,0c-.33,0-.66,0-.66.41v1.8H32.3V57.87c0-.55,0-.67-.64-.72-.09,0-.11,0-.11-.13v-.09l0,0c.27,0,.77,0,1.26,0a6.44,6.44,0,0,0,.95,0l0,0v.15c0,.07-.07.07-.19.07-.41,0-.62.07-.62.53v4c0,.57.31.62.76.62,0,0,0,.12,0,.21s0,0-.25,0-.64,0-1,0-.79,0-.88,0-.25,0-.25,0v-.18l0,0c.77,0,.78-.16.78-.72V59.67H28.88v2c0,.45.12.56.71.56.09,0,.11,0,.11.09v.12s-.08,0-.25,0c-.33,0-.66,0-1,0s-.62,0-.92,0a.24.24,0,0,1-.17,0v-.18l.06,0c.37,0,.72,0,.72-.44" transform="translate(0 0)" style="fill:#555"/><path d="M36.34,60.84l-.79.36c-.11,0-.4.2-.4.41s.1.62.37.62.55-.28.74-.47l.08-.07Zm0-.61c0-.43-.05-.77-.63-.77-.22,0-.62.06-.62.3a.58.58,0,0,0,0,.18l-.5.29a.85.85,0,0,1-.05-.24c0-.26.26-.46.43-.55l.71-.42c.1-.05.14-.08.17-.08a.88.88,0,0,1,1,1v1.7c0,.16,0,.5.25.5s.18-.07.29-.23l.15,0c-.1.39-.3.7-.64.7a.61.61,0,0,1-.59-.7,1.82,1.82,0,0,1-1.17.7c-.46,0-.7-.6-.7-1,0-.14.15-.39.81-.65l1-.4" transform="translate(0 0)" style="fill:#555"/><path d="M39.12,61.67c0,.32,0,.62.61.62,0,0,.05,0,.05.11s0,.11-.06.11c-.28,0-.56,0-.84,0s-.62,0-.92,0c0,0,0,0,0-.06v-.07c0-.08,0-.09.18-.1.35,0,.41-.14.41-.57V59.94a.29.29,0,0,0-.24-.3s-.23-.06-.23-.17,0-.07.11-.11l.59-.27.33-.15a.07.07,0,0,1,.07.07l0,.82,0,0c.25-.33.62-.91,1.1-.91.29,0,.46.14.46.43a.33.33,0,0,1-.33.31c-.21,0-.29-.14-.53-.14s-.44.27-.6.47l-.12.15" transform="translate(0 0)" style="fill:#555"/><path d="M42.12,61.72c0,.41.4.55.79.55a1.21,1.21,0,0,0,1.23-1.38,1.26,1.26,0,0,0-2-1.17Zm-.61-1.58c0-.35,0-.42-.18-.5L41,59.52v-.06c0-.06,0-.06.06-.1l1-.46s0,.07,0,.11a2.36,2.36,0,0,0,0,.46,4.31,4.31,0,0,1,1.19-.53,1.64,1.64,0,0,1,1.49,1.68,2.15,2.15,0,0,1-2.16,2,4.34,4.34,0,0,1-.52-.08v1.24c0,.54.13.57.71.61l.05,0v.08s0,.1,0,.1c-.34,0-.68,0-1,0s-.67,0-.88,0-.08,0-.08-.11v-.05l0-.06c.6-.06.64-.07.64-.71" transform="translate(0 0)" style="fill:#555"/><path d="M47.6,60.16c.11,0,.23-.15.23-.29a.65.65,0,0,0-.69-.66c-.48,0-.8.55-.88,1Zm-1.38.23a1.83,1.83,0,0,0,0,.33,1.36,1.36,0,0,0,1.26,1.39c.29,0,.5-.11.9-.47l.14.1a1.65,1.65,0,0,1-1.43.89A1.62,1.62,0,0,1,45.59,61a1.91,1.91,0,0,1,1.69-2,1.18,1.18,0,0,1,1.21,1.2v.25" transform="translate(0 0)" style="fill:#555"/><path d="M50.19,61.67c0,.32,0,.62.61.62.05,0,.06,0,.06.11s0,.11-.07.11c-.28,0-.55,0-.83,0s-.63,0-.93,0c0,0,0,0,0-.06v-.07c0-.08,0-.09.17-.1.35,0,.42-.14.42-.57V59.94a.29.29,0,0,0-.24-.3s-.24-.06-.24-.17,0-.07.11-.11l.59-.27a3.22,3.22,0,0,1,.34-.15s.06.05.06.07l0,.82,0,0c.26-.33.62-.91,1.11-.91a.39.39,0,0,1,.45.43.33.33,0,0,1-.32.31c-.22,0-.3-.14-.54-.14s-.44.27-.6.47l-.12.15" transform="translate(0 0)" style="fill:#555"/><path d="M57.48,62.2a4.33,4.33,0,0,1-1.9.43,3.15,3.15,0,0,1-3.3-3,3.11,3.11,0,0,1,3.26-2.91,4.52,4.52,0,0,1,1.91.47l.1.92c0,.07,0,.15,0,.19s-.13.06-.16.06-.1-.13-.22-.39a1.79,1.79,0,0,0-1.63-.94,2.46,2.46,0,0,0-2.39,2.69,2.52,2.52,0,0,0,2.39,2.54A2.43,2.43,0,0,0,57,61.89a1.71,1.71,0,0,0,.45-.85l.1,0c.06,0,.18,0,.16.12" transform="translate(0 0)" style="fill:#555"/><path d="M60.19,59.21c-.81,0-1,.75-1,1.52s.38,1.63,1.2,1.63,1.09-.69,1.09-1.38-.27-1.77-1.24-1.77m.18-.27a1.83,1.83,0,0,1,1.78,1.79,1.92,1.92,0,0,1-2,1.9,1.77,1.77,0,0,1-1.73-1.79,1.92,1.92,0,0,1,1.95-1.9" transform="translate(0 0)" style="fill:#555"/><path d="M63.93,61.91c0,.17,0,.38.55.38,0,0,0,.05,0,.11s0,.11,0,.11c-.31,0-.67,0-.83,0s-.58,0-.86,0c-.06,0-.08,0-.08,0v-.07c0-.1,0-.1.14-.1.35,0,.48,0,.48-.42V57.56c0-.5,0-.53-.31-.66-.12,0-.23-.09-.23-.15s.08-.09.4-.22l.58-.21.12,0c.06,0,.06.08.06.13,0,.38,0,.77,0,1.15" transform="translate(0 0)" style="fill:#555"/><path d="M66.15,61.91c0,.17,0,.38.55.38,0,0,0,.05,0,.11s0,.11,0,.11c-.31,0-.66,0-.83,0s-.57,0-.86,0c0,0-.07,0-.07,0v-.07c0-.1,0-.1.14-.1.35,0,.47,0,.47-.42V57.56c0-.5,0-.53-.31-.66-.12,0-.23-.09-.23-.15s.08-.09.41-.22l.58-.21.12,0c.06,0,.06.08.06.13,0,.38,0,.77,0,1.15" transform="translate(0 0)" style="fill:#555"/><path d="M68,56.57a.45.45,0,1,1-.45.45.45.45,0,0,1,.45-.45m.33,5.34c0,.17,0,.38.55.38,0,0,0,.05,0,.11s0,.11,0,.11c-.31,0-.66,0-.83,0s-.57,0-.86,0c-.06,0-.07,0-.07,0v-.07c0-.1,0-.1.13-.1.35,0,.48,0,.48-.42V60.23c0-.51,0-.54-.31-.67-.12,0-.23-.08-.23-.15s.08-.08.4-.21l.59-.22.12,0s0,.08,0,.13c0,.38,0,.77,0,1.16" transform="translate(0 0)" style="fill:#555"/><path d="M70,59.84c0-.15-.07-.24-.15-.26l-.27-.06a.1.1,0,0,1,0-.09l0-.09a9.27,9.27,0,0,0,1-.4l0,.1v.55a2.24,2.24,0,0,1,1.31-.65c.7,0,1,.39,1,1.06v2c0,.34.26.34.53.34l0,.06v.14l0,0c-.32,0-.53,0-.79,0s-.57,0-.85,0c-.06,0-.06-.14-.06-.17s0-.05.08-.05.49,0,.49-.24V60.18c0-.5-.15-.78-.71-.78a1.59,1.59,0,0,0-1,.43v2.08c0,.17,0,.38.55.38,0,0,0,.05,0,.11s0,.11,0,.11c-.31,0-.67,0-.83,0s-.58,0-.86,0c-.06,0-.08,0-.08,0v-.07c0-.1,0-.1.14-.1.35,0,.48,0,.48-.42" transform="translate(0 0)" style="fill:#555"/><path d="M76.16,59.93H76c-.1-.35-.28-.72-.7-.72s-.66.17-.66.55.43.5.84.73.84.52.84,1A1.21,1.21,0,0,1,75,62.63c-.51,0-1-.24-1-.36l0-.73.24,0a.33.33,0,0,1,0,.15,1,1,0,0,0,.8.69.6.6,0,0,0,.66-.66c0-.26-.37-.54-.57-.64-.46-.24-1-.51-1-1.12a1.09,1.09,0,0,1,1.21-1,2,2,0,0,1,.94.25" transform="translate(0 0)" style="fill:#555"/></g></svg>