<svg xmlns="http://www.w3.org/2000/svg" viewBox="0 0 120 120"><title>icon-lust</title><g id="Layer_1" data-name="Layer 1"><rect width="120" height="120" style="fill:none"/></g><g id="Layer_2" data-name="Layer 2"><path d="M46.2,54.31c-.73.75-1.42,1.48-2.13,2.2a3.11,3.11,0,0,0-.46,3.89,3.11,3.11,0,1,0,5.06-3.59c-.73-.86-1.59-1.61-2.47-2.5M44.88,53l-1-.94a5.87,5.87,0,0,0-9.57,6.42A8.57,8.57,0,0,0,36.22,61c2.52,2.58,5,5.18,7.56,7.74a3.17,3.17,0,0,0,4.3.42,12.18,12.18,0,0,0,1.57-1.48q3.62-3.65,7.21-7.31a5.87,5.87,0,0,0-5.81-9.8A8.09,8.09,0,0,0,47.59,53c.73.72,1.47,1.43,2.17,2.17a4.75,4.75,0,0,1,1.32,4.28,4.91,4.91,0,0,1-9.71-.29,5.08,5.08,0,0,1,1.83-4.47c.58-.53,1.09-1.13,1.68-1.75m1.28-1.25c.75-.67,1.39-1.31,2.1-1.85a7.33,7.33,0,0,1,3.62-1.4,7.72,7.72,0,0,1,8.42,6.17,7.59,7.59,0,0,1-2.21,7c-2.71,2.77-5.45,5.51-8.16,8.26a5.32,5.32,0,0,1-3.49,1.67,4.45,4.45,0,0,1-3.51-1.24c-1.87-1.84-3.68-3.74-5.51-5.62-1.1-1.12-2.2-2.24-3.29-3.38a7.51,7.51,0,0,1-2-4.19A7.7,7.7,0,0,1,45,50.5c.41.38.76.82,1.12,1.21" transform="translate(0 0)" style="fill:#555"/><path d="M71.88,71.4a9.8,9.8,0,0,1-7.56-3.22,1,1,0,0,1,.05-1.4.92.92,0,0,1,1.39,0,19,19,0,0,0,1.83,1.53,7.88,7.88,0,0,0,4.9,1.18A5.73,5.73,0,0,0,76,68.19a3.26,3.26,0,0,0,1.17-3.06,3.79,3.79,0,0,0-2.43-3.06c-1.29-.6-2.68-1-4-1.54a24.06,24.06,0,0,1-3-1.29A5.18,5.18,0,0,1,65,54.88a5.25,5.25,0,0,1,2-4.64,7.35,7.35,0,0,1,3.75-1.55,10.33,10.33,0,0,1,5.08.52,6.72,6.72,0,0,1,2.88,2c.63.76.4,1.6-.53,1.77a1,1,0,0,1-.72-.23,6.9,6.9,0,0,0-4.55-2.18,6.33,6.33,0,0,0-4.58,1.1A3.08,3.08,0,0,0,67,54.05a3.3,3.3,0,0,0,1.73,3.29A21.79,21.79,0,0,0,73,59.12a22.53,22.53,0,0,1,3.33,1.35,5.05,5.05,0,0,1,2.86,4.64A5.61,5.61,0,0,1,75,71a8.23,8.23,0,0,1-3.08.45" transform="translate(0 0)" style="fill:#555"/><path d="M90.45,50.42H83.92a.88.88,0,0,1-1-.88.94.94,0,0,1,.9-1h15c.67,0,1,.24,1.13.79a.86.86,0,0,1-.89,1.08H92.48v20a1,1,0,0,1-2,.34,1.64,1.64,0,0,1,0-.44q0-9.7,0-19.41Z" transform="translate(0 0)" style="fill:#555"/><path d="M22,69.47H32.07a3.43,3.43,0,0,1,.55.06.9.9,0,0,1,.72,1.09,1,1,0,0,1-.93.79H21a.85.85,0,0,1-.95-.94V49.67a.94.94,0,0,1,1-1,1,1,0,0,1,1,1v19.8Z" transform="translate(0 0)" style="fill:#555"/></g></svg>