<?xml version="1.0" encoding="utf-8"?>
<!-- Generator: Adobe Illustrator 19.2.1, SVG Export Plug-In . SVG Version: 6.00 Build 0)  -->
<svg version="1.1" id="Lag_1" xmlns="http://www.w3.org/2000/svg" xmlns:xlink="http://www.w3.org/1999/xlink" x="0px" y="0px"
	 viewBox="0 0 120 120" style="enable-background:new 0 0 120 120;" xml:space="preserve">
<style type="text/css">
	.st0{fill:#555555;}
</style>
<g>
	<path class="st0" d="M111.1,52c-0.9-0.6-1.9-0.9-2.8-0.9c-2.3,0-3.9,1.3-3.9,3.4c0,3.5,5.5,3.8,5.5,6.4c0,0.7-0.7,1.6-2.1,1.6
		c-1.3,0-2.4-0.7-3.4-1.8V63c1.1,0.8,2.2,1.2,3.6,1.2c2.1,0,3.6-1.5,3.6-3.5c0-4.1-5.5-4-5.5-6.5c0-0.9,0.8-1.5,2-1.5
		c0.9,0,1.9,0.3,3,1.3V52z M97.3,54l2.1,4.6h-4L97.3,54z M97.9,51.2h-1.3L91.2,64h1.9l1.6-3.8h5.4l1.7,3.8h1.9L97.9,51.2z
		 M92.7,51.3H82.1v1.6h4.4V64h1.8V52.9h4.4V51.3z M80.4,51.3h-1.7v9.9L70,51.3h-1.5V64h1.7v-9.8l8.5,9.8h1.6V51.3z M66.5,51.3h-7.2
		V64h7.4v-1.6h-5.6v-4h5.2v-1.6h-5.2v-3.8h5.4V51.3z M56.5,51.3h-1.8v12.3c0,2-0.2,2.9-2.1,2.9h-0.5l0.3,1.7c0.2,0,0.3,0,0.6,0
		c2.6,0,3.5-1.8,3.5-4.1V51.3z"/>
	<g>
		<path class="st0" d="M10.2,60c0.4-0.3,1.8-0.9,4.9-1.3C15.1,59.1,15,59.5,15,60c0,0.4,0,0.9,0.1,1.3C12,60.9,10.7,60.3,10.2,60
			 M35.5,56.8l0.4,1.7c3.8,0.5,4.5,1.2,5,1.5c-0.7,0.5-2.3,1.4-6.6,1.8c-1.4,0.1-3,0.2-5,0.3v-1.2l-3.4,2l3.4,2v-1.1
			c1.8,0,3.2-0.1,4.5-0.3c-1.4,3.2-4.5,5.4-8.1,5.4c-4.9,0-8.8-4-8.8-8.8c0-4.9,4-8.8,8.8-8.8v-0.9v-0.9c-4.7,0-8.7,3.1-10,7.4
			c-7.1,1-7.1,2.5-7.1,3.1c0,0.6,0,2.2,7.1,3.1c1.3,4.3,5.3,7.4,10.1,7.4c4.6,0,8.7-3,10-7.4c0.5-0.1,1-0.2,1.6-0.3
			c3.8-0.7,5.5-1.6,5.5-2.9C42.6,59.4,42.8,57.7,35.5,56.8"/>
	</g>
</g>
</svg>
