<svg xmlns="http://www.w3.org/2000/svg" viewBox="0 0 120 120"><title>icon-saga</title><g id="Layer_1" data-name="Layer 1"><rect width="120" height="120" style="fill:none"/></g><g id="Layer_2" data-name="Layer 2"><path d="M60.57,74.4a2.24,2.24,0,1,1,2.2,1.83,2,2,0,0,1-2.2-1.83m.77,0c0,.87.38,1.6,1.43,1.6s1.44-.73,1.44-1.6-.38-1.6-1.44-1.6-1.43.73-1.43,1.6" transform="translate(0 0)" style="fill:#555"/><polygon points="58.63 72.65 57.13 75.32 55.78 72.65 55.21 72.65 54.63 75.89 54.02 76.01 54.02 76.15 55.54 76.15 55.54 76.01 54.97 75.89 55.42 73.34 56.84 76.15 57.04 76.15 58.58 73.33 58.99 75.89 58.38 76.01 58.38 76.15 60.36 76.15 60.36 76.01 59.72 75.89 59.12 72.65 58.63 72.65" style="fill:#555"/><polygon points="65.85 72.61 65.85 75.9 65.27 76.01 65.27 76.15 66.82 76.15 66.82 76.01 66.16 75.9 66.16 73.42 69.12 76.19 69.42 76.19 69.42 72.9 69.92 72.78 69.92 72.65 68.46 72.65 68.46 72.78 69.11 72.9 69.11 75.29 66.26 72.61 65.85 72.61" style="fill:#555"/><path d="M46.8,75.93V74.44H49V74.2H46.8V72.85h.1c.65,0,2.12.2,2.12.2v-.4H45.48v.13l.63.12v3l-.63.11v.14h3.59v-.44s-1.68.22-2.12.22Z" transform="translate(0 0)" style="fill:#555"/><path d="M52.08,74.53v.14l.68.14v1.11a4.34,4.34,0,0,1-.87.08,1.41,1.41,0,0,1-1.51-1.57c0-1.25.71-1.63,1.54-1.63a3.17,3.17,0,0,1,1.43.38l.13-.42a6.91,6.91,0,0,0-1.63-.2,2,2,0,0,0-2.24,1.91c0,1.13,1.09,1.77,2.28,1.77a6.83,6.83,0,0,0,1.54-.19V74.81l.55-.14v-.14Z" transform="translate(0 0)" style="fill:#555"/><path d="M73.8,72.65v.4a9.73,9.73,0,0,0-1.37-.19h-.11v3L73,76v.14H71V76l.65-.11v-3h-.12a9.73,9.73,0,0,0-1.37.19v-.4Z" transform="translate(0 0)" style="fill:#555"/><path d="M56.18,57.75h-1a4.29,4.29,0,0,0-4.34-4.15c-2.28,0-3,1.1-3,2.36,0,3.66,9,.85,9,6.27,0,2.7-2.24,3.9-5.1,3.9a5.43,5.43,0,0,1-4-1.7l-.56,1.41h-1V60.53h1a4.85,4.85,0,0,0,4.67,4.56c1.56,0,3.34-.58,3.34-2.43,0-4-9-.95-9-6.49,0-1.7,1.24-3.61,4.52-3.61A5.48,5.48,0,0,1,54.74,54l.55-1.16h.89Z" transform="translate(0 0)" style="fill:#555"/><path d="M64.22,55l-2.09,5.5h4.21Zm-6.8,10.8v-1h.79c.87,0,1.14-.42,1.43-1.16l4.13-10.73h1.59l4.22,10.93a1.36,1.36,0,0,0,1.37,1h.74v1H65.57v-1h1.18c.77,0,1-.13,1-.44A5.48,5.48,0,0,0,67.33,63l-.58-1.56h-5l-.6,1.76a4.26,4.26,0,0,0-.33,1.08c0,.37.19.44,1.12.44H63v1Z" transform="translate(0 0)" style="fill:#555"/><path d="M83.46,57.65h-1c-.58-2.08-1.75-4-4.3-4-3.48,0-4.4,2.65-4.4,6.27,0,3.1,1.77,5.22,4.24,5.22,2.2,0,3.92-1.28,3.92-2.4v-1.5c0-.64-.25-1-.89-1H79.44v-1H86v1H84.68c-.64,0-.9.36-.9,1v4.65h-1l-.69-1.18A6.81,6.81,0,0,1,78,66.13c-3.59,0-6.31-2.24-6.31-6.78,0-4.11,2.68-6.79,6.08-6.79A5.64,5.64,0,0,1,82,54.22l.62-1.37h.89Z" transform="translate(0 0)" style="fill:#555"/><path d="M92.53,55l-2.09,5.5h4.21Zm-6.8,10.79v-1h.79c.87,0,1.14-.42,1.43-1.16l4.13-10.73h1.59L97.9,63.78a1.34,1.34,0,0,0,1.37,1H100v1H93.88v-1h1.18c.77,0,1-.13,1-.44A5.48,5.48,0,0,0,95.64,63l-.58-1.56h-5l-.6,1.75a4.93,4.93,0,0,0-.33,1.09c0,.37.19.44,1.12.44h1.06v1Z" transform="translate(0 0)" style="fill:#555"/><path d="M37.87,56.72c5-3.69,4-11,1.36-14-3.51-3.89-9.84-3.52-9.88,1a2.9,2.9,0,0,0,3.41,3c.53-.1.25-.61,0-.64a1.66,1.66,0,0,1-1.31-2.57c1.88-3.1,7,1.21,4.31,4.65-3.22,4.08-10.06,5-13.56,3.68a1.58,1.58,0,0,1-1.11-2.15c.37-1-2.37,1.08-.24,3.54,4.36,5,2.53,10.83,2.17,12.64h3.85c-.52-2.41-1.85-8,1.68-8.29s5,4.63,5.21,8.29h4.58c-1.83-2.34-4.9-7.66-3.68-10.16,1.1-2.27,1.76-1.7,1.76-1.7-1.07,2,.85,3.11,1.48,2.65m1.64-5.37a.53.53,0,0,1,.52.55.54.54,0,0,1-.52.56.53.53,0,0,1-.5-.56.52.52,0,0,1,.5-.55" transform="translate(0 0)" style="fill:#555"/></g></svg>