<svg xmlns="http://www.w3.org/2000/svg" viewBox="0 0 120 120"><title>icon-rosinante</title><g id="Layer_1" data-name="Layer 1"><rect width="120" height="120" style="fill:none"/></g><g id="Layer_2" data-name="Layer 2"><path d="M63.15,44.15c-.08.09-.12.12-.14.17-.41.71-.1,1.44,0,2.14a.64.64,0,0,0,.73.44c.28,0,.55-.07.85-.11l.27-.56c-.58-.69-.63-1.77-1.73-2.08M57,50.6c-.21-.65-.39-1.31-.64-1.94s-.51-1.15-1.27-1a.9.9,0,0,0-.45.87,11.16,11.16,0,0,0,.47,3.25c.06.21.15.41.23.63,1.12-.15,1.33-1,1.66-1.78m1.41,42a3.05,3.05,0,0,1-2.51-.13,1.73,1.73,0,0,1,.58-1.14c.51-1.53-.06-2.89-.4-4.26a7.17,7.17,0,0,0-.51-1.17,2.15,2.15,0,0,1-.44-.42c-.2-.32-.43-.56-.81-.47a1.21,1.21,0,0,0-.92.84,8.19,8.19,0,0,0-.17,1c-.11.57-.23,1.14-.35,1.71,0,.1-.08.21-.06.3.16.76,0,1.58.58,2.27A5.5,5.5,0,0,1,54,92.46c-.13.39-.47.49-.78.59a2.55,2.55,0,0,0-1.56,1.17,3.26,3.26,0,0,1-.69.7c-.56-.2-1.2-.1-1.5-.78,0-.1.07-.28.18-.37a7,7,0,0,0,1.86-3c.22-.68.36-1.38.54-2.08a5.69,5.69,0,0,0,.16-.59,1.73,1.73,0,0,0,.09-.59,5.08,5.08,0,0,1,.22-2,5.4,5.4,0,0,0,.11-.9,15.26,15.26,0,0,0,0-3.82,19.83,19.83,0,0,0-1-3A4.47,4.47,0,0,0,50.4,76a3.3,3.3,0,0,1-1-1.68,2.11,2.11,0,0,0-.57-1,2.86,2.86,0,0,1-.9-1.47c-.12-.62-.37-1.22-.55-1.83a1.45,1.45,0,0,1-.06-.3c-.09-.78-.22-1.57-.25-2.36a7.27,7.27,0,0,1,.15-1.74c.22-1.1.57-2.18.78-3.28a4.75,4.75,0,0,0-.33-2.61c-.6-.3-.92-.24-1.25.26-.1.15-.15.33-.24.48a.69.69,0,0,1-.79.42,11,11,0,0,1-.58-1,10.59,10.59,0,0,1-.47-1.22,1.37,1.37,0,0,1-.12-.67,2,2,0,0,0-.1-1.05,1,1,0,0,1,0-.54,9.93,9.93,0,0,0,.14-2.88,15.21,15.21,0,0,0-.07-2,.36.36,0,0,0,0-.15c-.53-.72-.11-1.24.37-1.75a1.56,1.56,0,0,0,.16-.27l-.81-1c.53-.94,1.72-1.12,2.21-2-.16-.41-.78-.27-.71-.79a1.11,1.11,0,0,1,1.43.08,13.6,13.6,0,0,1,2.51,2.46s0,.05.05.06c.83.42.85,1.28,1,2,.28,1.17.47,2.37.71,3.54a1.56,1.56,0,0,0,.73,1l.59.37a.93.93,0,0,0,1.3-.16,3.59,3.59,0,0,0,.67-.84,2.35,2.35,0,0,0,.25-.94,12.61,12.61,0,0,0,0-1.37,2.36,2.36,0,0,0-.07-.44,18.52,18.52,0,0,1-1-3.83A3.27,3.27,0,0,0,53,46.4c-.36-.64-.74-1.26-1.13-1.89a3.09,3.09,0,0,1-.4-1.85,23.2,23.2,0,0,0-.15-3.12,33.44,33.44,0,0,0-.85-4.12,29.35,29.35,0,0,0-1-3.14c-.33-.94-.75-1.85-1-2.81-.31-1.21-.84-2.33-1.19-3.52-.14-.49-.18-1-.3-1.5a4.42,4.42,0,0,0-.36-1,2.6,2.6,0,0,1-.31-1.25,2.18,2.18,0,0,0-.21-1.34c-.14-.23,0-.6-.11-.9a11.13,11.13,0,0,0-.65-2.11,10.61,10.61,0,0,1-.53-2.61c0-.08,0-.17.1-.32.09.13.15.18.16.24A31,31,0,0,0,46,18.47c.23.65.47,1.3.67,2s.33,1.39.51,2.08c.13.49.31,1,.46,1.45.37,1.28.75,2.56,1.11,3.85.17.59.29,1.19.47,1.77s.51,1.4.77,2.09l.63,1.81c0,.05.06.11,0,.15-.24.74.21,1.25.54,1.83a3.93,3.93,0,0,1,.37,1.16A24.9,24.9,0,0,1,52.26,41a7,7,0,0,0,.17,1.37,1,1,0,0,0,.29.6A20.59,20.59,0,0,1,55,45.33a2.49,2.49,0,0,0,.5.35c1,.56,1.91.26,2.23-1a7.89,7.89,0,0,0,.18-1.53,1.8,1.8,0,0,0-.53-1.62v-2l.51-.63,1,.28a3,3,0,0,0,.59.14c.6,0,.73-.06.75-.67s0-1.27,0-1.91c0-.35.12-.7.15-1a1.49,1.49,0,0,0-.05-.67,2.4,2.4,0,0,1,.52-2.54,2.22,2.22,0,0,1,1.44.21,1.45,1.45,0,0,1,.86,1.44,10.92,10.92,0,0,1-.34,2.11c-.16.64-.43,1.24-.65,1.87a.88.88,0,0,0,.8,1.21,2,2,0,0,1,2,1.79A15,15,0,0,0,65.49,43a3,3,0,0,0,1.38,1.66A22.28,22.28,0,0,1,69.36,46a1.45,1.45,0,0,1,.09,2.29,9.7,9.7,0,0,1-1.31,1.07c-.18.14-.37.27-.55.42a5.51,5.51,0,0,1-1.39.92,4.14,4.14,0,0,0-.8.61,3.75,3.75,0,0,0-2.19,1.23c-.2.18-.28.44-.11.62a11.33,11.33,0,0,0,2.16,2.16,1.67,1.67,0,0,0,.45.13,4,4,0,0,0,1.45-1.1c.42-.6,1.08-.43,1.35.27a1.92,1.92,0,0,1,.19.66,1.59,1.59,0,0,0,.83,1.3c.41.27.81.55,1.22.81a2.81,2.81,0,0,0,.56.25c.69.21,1.38.42,2.07.6a6.16,6.16,0,0,1,1.27.49,2.56,2.56,0,0,1,1.21,1.52,9.75,9.75,0,0,1,.28,1.66l-.87.29a6.68,6.68,0,0,0-.71-2.48A1.24,1.24,0,0,0,72.91,59c-.62.18-.94.65-.58,1.15a1.74,1.74,0,0,1,0,2.12A3.55,3.55,0,0,0,72,64.35c.08.81,0,1.64.13,2.45A10.6,10.6,0,0,1,72,69.93a2.88,2.88,0,0,0,.29,1.94,1.84,1.84,0,0,1,.16.57,17.5,17.5,0,0,1,2.39,4.15,2.14,2.14,0,0,1-.06,1.35,9.87,9.87,0,0,0-.59,2.77,3.33,3.33,0,0,0,.17,1.36A11.39,11.39,0,0,0,75,83.85a2.23,2.23,0,0,1,.06,2,8.12,8.12,0,0,0-.86,3.84,9.61,9.61,0,0,1-.14,1.6c-.07.47-.55.73-1.14.68s-.65-.25-.65-.78a2.44,2.44,0,0,1,.63-1.76,2.38,2.38,0,0,0,.54-2.15,5.71,5.71,0,0,1,.1-2.43,4.42,4.42,0,0,0,.13-1.58,8,8,0,0,0-.22-2.58,10.78,10.78,0,0,1-.38-1.61c0-.08,0-.18,0-.22-.85-.84-.65-2-.92-3.1-.48-.36-1-.76-1.58-1.19a3.31,3.31,0,0,1-1.26-2,1.91,1.91,0,0,0-2-1.53,2.61,2.61,0,0,0-2.15,1.27,5.88,5.88,0,0,0-.64,1.62,11.63,11.63,0,0,1-.56,1.25,2.83,2.83,0,0,0-.23,2.14,25.63,25.63,0,0,1,.53,2.8,11,11,0,0,1-.81,1,4.17,4.17,0,0,0-1.07,2.16c-.17.72-.36,1.44-.54,2.16a11.2,11.2,0,0,0-.12,3.83c0,.46.14.87-.34,1.14a1.33,1.33,0,0,1-1.56-.12,8.24,8.24,0,0,1,.5-2.67A2.83,2.83,0,0,0,60.83,86a2.2,2.2,0,0,1,.36-1.08,3,3,0,0,0,.29-1.49,4.26,4.26,0,0,1,.25-1.58,9.78,9.78,0,0,0,.39-3.27,10.25,10.25,0,0,0-.06-2.08,6.09,6.09,0,0,0-.8-2.69,1,1,0,0,0-1.12-.46,2.74,2.74,0,0,1-1.06-.07,1.3,1.3,0,0,0-1.4.7,1.41,1.41,0,0,0-.19.34,1.12,1.12,0,0,1-1.37.82.56.56,0,0,0-.7.44,3.54,3.54,0,0,1-.61,1.13,2.82,2.82,0,0,0-.41,1.38A14.18,14.18,0,0,0,54.45,81a16.72,16.72,0,0,0,.89,2.61,14.55,14.55,0,0,0,.79,1.58,28.63,28.63,0,0,1,2.27,5.42,3.13,3.13,0,0,1,.05,2" transform="translate(0 0)" style="fill:#555"/></g></svg>