<?xml version="1.0" encoding="utf-8"?>
<!-- Generator: Adobe Illustrator 23.0.2, SVG Export Plug-In . SVG Version: 6.00 Build 0)  -->
<svg version="1.1" id="Layer_1" xmlns="http://www.w3.org/2000/svg" xmlns:xlink="http://www.w3.org/1999/xlink" x="0px" y="0px"
	 viewBox="0 0 120 120" style="enable-background:new 0 0 120 120;" xml:space="preserve">
<style type="text/css">
	.st0{fill:none;}
	.st1{fill:#555555;}
</style>
<title>icon-bibelselskabet</title>
<g>
	<rect class="st0" width="120" height="120"/>
</g>
<g>
	<path class="st1" d="M39.3,59.3c-0.1-0.2-0.2-0.3-0.3-0.4c-0.2-0.1-0.3-0.3-0.5-0.3c-0.2-0.1-0.4-0.1-0.6-0.1h-2v0.3l0.6,0.2v4.3
		l-0.6,0.2v0.3H38c0.3,0,0.4,0,0.7-0.1c0.2-0.1,0.3-0.2,0.5-0.3c0.2-0.1,0.3-0.3,0.3-0.4c0.1-0.2,0.2-0.4,0.1-0.7
		c0-0.2,0-0.3-0.1-0.4c-0.1-0.2-0.1-0.3-0.2-0.3s-0.2-0.2-0.3-0.3c-0.2-0.1-0.3-0.1-0.4-0.2c0.1-0.1,0.2-0.1,0.3-0.2
		c0.1-0.1,0.2-0.2,0.3-0.3c0.1-0.1,0.1-0.2,0.2-0.3c0-0.2,0-0.3,0-0.4C39.5,59.6,39.4,59.5,39.3,59.3 M37.7,61.3c0.2,0,0.3,0,0.5,0
		s0.3,0.1,0.4,0.2c0.1,0.1,0.2,0.2,0.3,0.3c0.1,0.2,0.1,0.3,0.1,0.4c0,0.3-0.1,0.5-0.3,0.7c-0.3,0.2-0.6,0.3-0.9,0.2h-0.7v-1.8
		L37.7,61.3z M37.1,60.8v-1.7h0.7c0.3,0,0.5,0.1,0.8,0.2c0.2,0.2,0.3,0.4,0.3,0.6c0,0.3-0.1,0.5-0.3,0.7c-0.2,0.2-0.4,0.3-0.7,0.2
		L37.1,60.8z M41.8,60.1h-0.2l-1,0.3v0.2l0.5,0.1v2.7l-0.5,0.2v0.3h1.7v-0.2l-0.6-0.3L41.8,60.1z M41,59.2c0.2,0.2,0.4,0.2,0.7,0
		c0.2-0.2,0.2-0.5,0-0.7c-0.2-0.2-0.4-0.2-0.7,0C40.8,58.7,40.8,59,41,59.2 M43.8,60.8c0.1-0.1,0.3-0.2,0.4-0.3
		c0.2-0.1,0.3-0.1,0.4-0.1c0.3,0,0.4,0.1,0.6,0.3c0.1,0.3,0.2,0.7,0.2,1c0,1-0.3,1.5-1,1.5h-0.3h-0.2h-0.2V60.8z M43.8,58.3
		L43.8,58.3l-1.1,0.3v0.2l0.5,0.1v4.7c0.2,0.1,0.3,0.1,0.5,0.2c0.3,0.1,0.5,0.1,0.8,0.1c0.3,0,0.5-0.1,0.8-0.2
		c0.2-0.1,0.3-0.3,0.5-0.4c0.2-0.2,0.3-0.4,0.3-0.6c0.1-0.3,0.1-0.5,0.1-0.8c0-0.3,0-0.5-0.1-0.7c0-0.2-0.1-0.3-0.3-0.5
		c-0.1-0.2-0.3-0.3-0.4-0.3c-0.3-0.2-0.4-0.2-0.7-0.2c-0.2,0-0.3,0-0.5,0.1c-0.2,0.1-0.3,0.2-0.4,0.3V58.3z M47.1,62.8
		c0.1,0.2,0.2,0.4,0.3,0.6c0.2,0.2,0.3,0.3,0.5,0.3c0.2,0.1,0.4,0.1,0.7,0.1c0.2,0,0.3,0,0.4,0c0.1,0,0.3-0.1,0.3-0.1
		c0.1,0,0.2-0.1,0.3-0.1l0.2-0.1l-0.2-0.3l-0.2-0.1l-0.3,0.1L49,63.3c-0.1,0-0.2,0-0.3,0c-0.2,0-0.3,0-0.4-0.1
		c-0.1-0.1-0.3-0.1-0.3-0.3c-0.1-0.1-0.2-0.3-0.2-0.4c-0.1-0.2-0.1-0.4-0.1-0.6h2.3v-0.3c0-0.4-0.1-0.8-0.3-1.1
		c-0.3-0.3-0.7-0.4-1-0.4c-0.2,0-0.4,0-0.6,0.1c-0.2,0.1-0.3,0.2-0.5,0.3c-0.2,0.2-0.3,0.3-0.3,0.6c-0.1,0.3-0.1,0.5-0.1,0.9
		C47,62.2,47,62.5,47.1,62.8 M48.9,60.5c0.1,0.1,0.2,0.2,0.3,0.3c0.1,0.1,0.1,0.3,0.1,0.3c0,0.2,0,0.3,0,0.4h-1.6c0-0.2,0-0.3,0-0.4
		c0-0.1,0.1-0.3,0.2-0.3c0.1-0.1,0.2-0.2,0.3-0.3c0.1-0.1,0.3-0.1,0.4-0.1C48.6,60.4,48.7,60.5,48.9,60.5 M51.1,58.8v4.4l-0.5,0.2
		v0.2h1.8v-0.2l-0.5-0.2v-5h-0.1l-1.1,0.3v0.2L51.1,58.8z M54.1,61.5l-0.3-0.2c-0.1-0.1-0.1-0.1-0.2-0.2c0-0.1,0-0.2,0-0.3
		s0-0.2,0-0.3c0-0.1,0.1-0.1,0.2-0.2c0.1,0,0.2-0.1,0.2-0.1c0.1,0,0.2,0,0.3,0h0.2h0.3l0.2,0.1l0.2,0.6h0.3l0.1-0.9l-0.3-0.1
		L54.7,60c-0.2,0-0.3,0-0.4,0c-0.2,0-0.3,0-0.5,0.1c-0.2,0-0.3,0.1-0.4,0.2c-0.1,0.1-0.3,0.2-0.3,0.3C53,60.8,53,60.9,53,61
		c0,0.2,0,0.3,0.1,0.4c0.1,0.1,0.2,0.2,0.3,0.3c0.1,0.1,0.3,0.2,0.3,0.2l0.4,0.2l0.3,0.1c0.1,0,0.2,0.1,0.3,0.1
		c0.1,0,0.1,0.1,0.2,0.2c0,0.1,0,0.2,0,0.3c0,0.2-0.1,0.3-0.2,0.4c-0.2,0.1-0.3,0.2-0.5,0.1h-0.3l-0.2-0.1c-0.1,0-0.1-0.1-0.2-0.1
		l-0.2-0.5H53l-0.1,0.9c0.1,0.1,0.2,0.1,0.3,0.2l0.3,0.1c0.2,0,0.3,0,0.5,0s0.3,0,0.5,0c0.2,0,0.3-0.1,0.4-0.2
		c0.1-0.1,0.3-0.2,0.3-0.3c0.1-0.2,0.1-0.3,0.1-0.5c0-0.2,0-0.3-0.1-0.4c-0.1-0.1-0.2-0.2-0.3-0.3c-0.1-0.1-0.2-0.2-0.3-0.3
		l-0.4-0.2L54.1,61.5 M56.6,62.8c0.1,0.2,0.2,0.4,0.3,0.6c0.2,0.2,0.3,0.3,0.5,0.3c0.2,0.1,0.4,0.1,0.7,0.1c0.2,0,0.3,0,0.4,0
		c0.1,0,0.3-0.1,0.3-0.1l0.3-0.1l0.2-0.1l-0.3-0.4l-0.2,0.1l-0.2,0.1l-0.3,0.1c-0.1,0-0.2,0-0.3,0c-0.2,0-0.3,0-0.4-0.1
		c-0.1-0.1-0.3-0.1-0.3-0.3c-0.1-0.1-0.2-0.3-0.2-0.4c-0.1-0.2-0.1-0.4-0.1-0.6h2.3v-0.3c0-0.4-0.1-0.8-0.3-1.1
		c-0.3-0.3-0.7-0.4-1-0.4c-0.2,0-0.4,0-0.6,0.1c-0.2,0.1-0.3,0.2-0.5,0.3s-0.3,0.3-0.3,0.6s-0.1,0.5-0.1,0.9
		C56.5,62.2,56.5,62.5,56.6,62.8 M58.4,60.6c0.1,0.1,0.2,0.2,0.3,0.3c0.1,0.1,0.1,0.2,0.1,0.3c0,0.2,0,0.3,0,0.4h-1.6
		c0-0.2,0-0.3,0-0.4c0-0.1,0.1-0.3,0.2-0.3c0.1-0.1,0.2-0.2,0.3-0.3c0.1-0.1,0.3-0.1,0.4-0.1C58.1,60.4,58.2,60.4,58.4,60.6
		 M60.5,58.8v4.4L60,63.5v0.2h1.7v-0.2l-0.5-0.2v-5h-0.1L60,58.6v0.2L60.5,58.8z M63.6,61.5l-0.3-0.1c-0.1,0-0.2-0.1-0.2-0.2
		c0-0.1-0.1-0.2-0.1-0.3s0-0.2,0.1-0.3c0-0.1,0.1-0.1,0.2-0.2c0.1,0,0.2-0.1,0.2-0.1c0.1,0,0.2,0,0.3,0h0.2c0.1,0,0.1,0,0.2,0
		l0.2,0.1l0.2,0.6h0.3l0.1-0.9l-0.3-0.2L64.2,60c-0.2,0-0.3,0-0.4,0s-0.3,0-0.5,0.1c-0.2,0-0.3,0.1-0.4,0.2
		c-0.1,0.1-0.3,0.2-0.3,0.3c-0.1,0.2-0.1,0.3-0.1,0.5c0,0.2,0,0.3,0.1,0.4c0.1,0.1,0.2,0.2,0.3,0.3c0.1,0.1,0.3,0.2,0.3,0.2l0.4,0.2
		l0.3,0.1c0.1,0,0.2,0.1,0.3,0.1c0.1,0,0.1,0.1,0.2,0.2c0,0.1,0,0.2,0,0.3c0,0.2-0.1,0.3-0.2,0.4c-0.2,0.1-0.3,0.2-0.5,0.1h-0.3
		l-0.2-0.1c-0.1,0-0.2-0.1-0.2-0.1l-0.2-0.4h-0.3l-0.1,0.9c0.1,0.1,0.2,0.1,0.3,0.2l0.3,0.1c0.2,0,0.3,0,0.5,0c0.2,0,0.3,0,0.5,0
		c0.2,0,0.3-0.1,0.4-0.2c0.1-0.1,0.3-0.2,0.3-0.3c0.1-0.2,0.1-0.3,0.1-0.5c0-0.2,0-0.3-0.1-0.4c-0.1-0.1-0.2-0.2-0.3-0.3
		c-0.1-0.1-0.3-0.2-0.3-0.2l-0.4-0.2l-0.3-0.1 M66.2,59v4.4l-0.5,0.1v0.1h1.7v-0.2l-0.5-0.2V62h0.3c0.2,0,0.3,0.1,0.3,0.2l0.7,1.2
		c0.1,0.1,0.1,0.2,0.2,0.2c0.1,0.1,0.2,0.1,0.3,0.1h0.8v-0.1l-0.5-0.2l-0.8-1.3c0-0.1-0.1-0.1-0.1-0.2c-0.1-0.1-0.2-0.1-0.3-0.2
		l0.9-1.1l0.5-0.2v-0.2h-1.5v0.2l0.4,0.1l-0.6,0.9c-0.1,0.1-0.1,0.1-0.2,0.2c-0.1,0-0.2,0-0.3,0h-0.3v-3.2h-0.1l-1,0.3v0.2L66.2,59z
		 M70.7,62.2c0.2-0.2,0.3-0.3,0.6-0.2H72v1c-0.1,0.1-0.3,0.2-0.3,0.3c-0.2,0.1-0.3,0.1-0.4,0.1h-0.2c-0.1,0-0.2-0.1-0.2-0.1
		c-0.1-0.1-0.1-0.1-0.2-0.2C70.5,62.9,70.5,62.5,70.7,62.2 M72.3,63.9l1-0.2v-0.2l-0.5-0.1v-2c0-0.2,0-0.3,0-0.5
		c0-0.2-0.1-0.3-0.2-0.4c-0.1-0.2-0.3-0.3-0.3-0.3c-0.3-0.1-0.4-0.1-0.7-0.1c-0.3,0-0.5,0-0.8,0.1c-0.2,0.1-0.3,0.1-0.5,0.2l0.1,0.8
		h0.3l0.1-0.5l0.3-0.1c0.2,0,0.3,0,0.4,0c0.1,0,0.2,0,0.3,0c0.1,0,0.2,0.1,0.2,0.2c0.1,0.1,0.1,0.2,0.1,0.3c0,0.2,0,0.3,0,0.4v0.2
		h-0.8c-0.3,0-0.7,0.1-1,0.3c-0.2,0.2-0.3,0.5-0.3,0.8c0,0.2,0,0.3,0.1,0.5c0.1,0.2,0.2,0.3,0.3,0.3s0.3,0.2,0.3,0.2
		c0.2,0,0.3,0,0.4,0c0.1,0,0.3,0,0.3,0l0.3-0.1c0.1,0,0.2-0.1,0.3-0.1l0.2-0.1L72.3,63.9z M74.8,61c0.1-0.1,0.3-0.2,0.4-0.3
		c0.2-0.1,0.3-0.1,0.4-0.1c0.3,0,0.5,0.1,0.6,0.3c0.1,0.3,0.2,0.7,0.2,1c0,1-0.3,1.5-1,1.5h-0.3H75h-0.2V61z M74.8,58.5L74.8,58.5
		l-1.1,0.3v0.2l0.5,0.1v4.6c0.2,0.1,0.3,0.1,0.5,0.2c0.3,0.1,0.5,0.1,0.8,0.1c0.3,0,0.5-0.1,0.8-0.2c0.2-0.1,0.4-0.3,0.5-0.4
		c0.2-0.2,0.3-0.4,0.3-0.6c0.1-0.3,0.1-0.5,0.1-0.8s0-0.5-0.1-0.7c0-0.2-0.1-0.3-0.3-0.5c-0.1-0.2-0.3-0.3-0.4-0.3
		c-0.2-0.1-0.4-0.1-0.6-0.1c-0.2,0-0.3,0-0.5,0.1c-0.2,0.1-0.3,0.2-0.4,0.3C74.8,60.6,74.8,58.5,74.8,58.5z M78.1,62.9
		c0.1,0.2,0.2,0.4,0.3,0.6c0.2,0.1,0.4,0.2,0.6,0.2c0.2,0.1,0.4,0.1,0.7,0.1c0.2,0,0.3,0,0.4,0c0.1,0,0.3-0.1,0.3-0.1
		c0.1,0,0.2-0.1,0.3-0.1l0.2-0.1l-0.2-0.3l-0.2,0.1l-0.3,0.1l-0.3,0c-0.1,0-0.2,0-0.3,0c-0.2,0-0.3,0-0.4-0.1
		C79.2,63.2,79,63.2,79,63c-0.1-0.1-0.2-0.3-0.2-0.4c-0.1-0.2-0.1-0.4-0.1-0.6H81v-0.3c0-0.4-0.1-0.8-0.3-1.1
		c-0.3-0.3-0.7-0.4-1-0.4c-0.2,0-0.4,0-0.6,0.1c-0.2,0.1-0.3,0.2-0.5,0.3c-0.2,0.2-0.3,0.3-0.3,0.6C78,61.4,78,61.6,78,62
		C78,62.2,78,62.6,78.1,62.9 M80,60.6c0.1,0.1,0.2,0.2,0.3,0.3c0.1,0.1,0.1,0.2,0.1,0.3c0,0.2,0,0.3,0,0.4h-1.6c0-0.2,0-0.3,0-0.4
		c0-0.1,0.1-0.3,0.1-0.3c0.1-0.1,0.2-0.2,0.3-0.3c0.1-0.1,0.3-0.1,0.4-0.1C79.6,60.4,79.8,60.4,80,60.6 M82.1,62.8c0,0.6,0.3,1,1,1
		h0.3l0.3-0.1H84l0.1-0.1l-0.2-0.3l-0.2,0.1c-0.1,0-0.3,0-0.3,0c-0.2,0-0.3,0-0.3-0.2s-0.2-0.3-0.1-0.5v-2.1h1v-0.4h-1v-1h-0.6v1
		l-0.7,0.1v0.3h0.7L82.1,62.8z M85.9,61.5c-0.1,0-0.2-0.1-0.3-0.1c-0.1,0-0.2-0.1-0.2-0.2s0-0.2,0-0.3c0-0.1,0-0.2,0-0.3
		c0-0.1,0.1-0.1,0.2-0.2c0.1,0,0.2-0.1,0.2-0.1c0.1,0,0.2,0,0.3,0h0.2c0.1,0,0.1,0,0.2,0l0.2,0.1l0.2,0.6H87l0.1-0.9l-0.3-0.1
		l-0.3-0.2c-0.2,0-0.3,0-0.4,0c-0.2,0-0.3,0-0.5,0.1c-0.2,0-0.3,0.1-0.4,0.2c-0.1,0.1-0.3,0.2-0.3,0.3c-0.1,0.2-0.1,0.3-0.1,0.4
		c0,0.2,0,0.3,0.1,0.4c0.1,0.1,0.2,0.2,0.3,0.3c0.1,0.1,0.3,0.2,0.3,0.2l0.4,0.2l0.3,0.1c0.1,0,0.2,0.1,0.3,0.1
		c0.1,0,0.1,0.1,0.2,0.2c0,0.1,0,0.2,0,0.3c0,0.2-0.1,0.3-0.2,0.4c-0.2,0.1-0.3,0.2-0.5,0.1h-0.3l-0.2-0.1c-0.1,0-0.2-0.1-0.2-0.1
		l-0.2-0.5h-0.3l-0.1,0.9c0.1,0.1,0.2,0.1,0.3,0.2l0.3,0.1c0.2,0,0.3,0,0.5,0c0.2,0,0.3,0,0.5,0c0.2,0,0.3-0.1,0.4-0.2
		c0.1-0.1,0.3-0.2,0.3-0.3c0.1-0.2,0.1-0.3,0.1-0.5c0-0.2,0-0.3-0.1-0.4c-0.1-0.1-0.2-0.2-0.3-0.3c-0.1-0.1-0.1-0.2-0.2-0.3
		l-0.4-0.2L85.9,61.5 M90.4,63.3l-0.6,0.2v0.3H92v-0.3l-0.9-0.2v-1.9h1.8v-0.4h-1.8v-1.8h1.7l0.2,0.8h0.3v-1.3h-3.6v0.3l0.6,0.2
		V63.3z M95.1,60.8c0.2-0.3,0.4-0.3,0.7-0.3c0.3,0,0.5,0.1,0.7,0.3c0.2,0.3,0.3,0.7,0.2,1c0,0.3-0.1,0.8-0.2,1
		c-0.2,0.3-0.4,0.3-0.7,0.3c-0.3,0-0.5-0.1-0.7-0.3c-0.2-0.3-0.2-0.7-0.2-1C95,61.5,95,61.2,95.1,60.8 M97,60.5
		c-0.3-0.3-0.7-0.5-1.2-0.4c-0.4,0-0.9,0.2-1.1,0.4c-0.3,0.4-0.4,1-0.4,1.4c-0.1,0.5,0.1,1,0.4,1.4c0.3,0.3,0.7,0.5,1.1,0.4
		c0.4,0,0.9-0.2,1.2-0.4c0.3-0.4,0.4-0.9,0.4-1.4C97.5,61.4,97.3,60.8,97,60.5 M100.5,60.2L100.5,60.2h-0.3c-0.2,0-0.3,0.1-0.5,0.1
		c-0.2,0.1-0.3,0.2-0.4,0.3l-0.1-0.5l-1,0.3v0.2l0.5,0.1v2.7l-0.5,0.2v0.2h1.8v-0.3l-0.6-0.2v-2.3c0.1-0.1,0.3-0.2,0.3-0.3
		c0.2-0.1,0.3-0.1,0.4-0.1h0.2h0.1h0.1L100.5,60.2z M101.5,58.8v4.4l-0.5,0.2v0.2h1.7v-0.2l-0.5-0.2v-5H102l-1.1,0.3v0.2L101.5,58.8
		z M104.2,62.2c0.2-0.2,0.3-0.2,0.6-0.2h0.7v1c-0.1,0.1-0.3,0.2-0.3,0.3c-0.2,0.1-0.3,0.1-0.4,0.1h-0.3c-0.1,0-0.2-0.1-0.2-0.1
		c-0.1-0.1-0.1-0.1-0.2-0.2c0-0.1,0-0.3,0-0.3C104.1,62.5,104.2,62.3,104.2,62.2 M105.7,63.7l1-0.2v-0.2l-0.5-0.1v-1.8
		c0-0.2,0-0.3,0-0.5c0-0.2-0.1-0.3-0.2-0.4c-0.1-0.2-0.2-0.3-0.3-0.3c-0.3-0.1-0.4-0.1-0.7-0.1c-0.3,0-0.5,0-0.8,0.1
		c-0.2,0.1-0.3,0.1-0.5,0.2l0.1,0.8h0.3l0.1-0.5l0.3-0.1c0.2,0,0.3,0,0.4,0c0.1,0,0.2,0,0.3,0c0.1,0,0.2,0.1,0.2,0.2
		c0.1,0.1,0.1,0.2,0.1,0.3c0,0.2,0,0.3,0,0.4v0.2h-0.8c-0.3,0-0.7,0.1-1,0.3c-0.2,0.2-0.3,0.5-0.3,0.8c0,0.2,0,0.3,0.1,0.5
		s0.2,0.3,0.3,0.3c0.1,0.1,0.3,0.2,0.3,0.2c0.2,0,0.3,0,0.4,0c0.1,0,0.3,0,0.3,0s0.2-0.1,0.3-0.1c0.1,0,0.2-0.1,0.2-0.1l0.2-0.1
		L105.7,63.7z M107.8,60.3c-0.3,0.3-0.3,0.6-0.3,0.9c0,0.2,0,0.3,0.1,0.5c0.1,0.2,0.2,0.3,0.3,0.3l-0.2,0.3l-0.1,0.2
		c0,0.1-0.1,0.1-0.1,0.2c0,0,0,0.1,0,0.2c0,0.1,0,0.2,0.1,0.3c0,0.1,0.1,0.2,0.2,0.2c-0.1,0.1-0.3,0.3-0.3,0.3
		c-0.1,0.2-0.1,0.3-0.1,0.4c0,0.1,0,0.3,0.1,0.3s0.2,0.3,0.3,0.3c0.2,0.1,0.3,0.2,0.4,0.2c0.3,0,0.5,0,0.7,0c0.4,0,0.9-0.1,1.3-0.3
		c0.3-0.2,0.4-0.5,0.4-0.9c0-0.3-0.1-0.5-0.3-0.7c-0.3-0.2-0.5-0.3-0.9-0.2h-0.8c-0.2,0-0.3,0-0.4-0.1c-0.1-0.1-0.2-0.2-0.2-0.3
		c0-0.1,0-0.2,0-0.2c0-0.1,0.1-0.2,0.1-0.2l0.3,0.1c0.2,0,0.3,0,0.4,0c0.3,0,0.8-0.1,1-0.3c0.3-0.3,0.3-0.5,0.3-0.9
		c0-0.1,0-0.3,0-0.3s-0.1-0.3-0.2-0.3h0.1h0.3h0.1l0.1-0.4h-0.3c-0.2,0-0.3,0-0.4,0.1c-0.1,0.1-0.2,0.1-0.2,0.2
		c-0.1-0.1-0.3-0.2-0.4-0.2c-0.2-0.1-0.3-0.1-0.5-0.1C108.5,59.9,108.1,60.1,107.8,60.3 M109.4,61.8c-0.3,0.3-0.8,0.3-1.1,0
		c-0.2-0.2-0.2-0.4-0.2-0.6c0-0.3,0.1-0.4,0.2-0.6c0.2-0.2,0.3-0.2,0.6-0.2c0.2,0,0.4,0.1,0.5,0.2C109.8,60.9,109.8,61.5,109.4,61.8
		 M107.9,63.8c0.1-0.1,0.1-0.2,0.2-0.3c0.2,0,0.3,0,0.4,0h0.7c0.4,0,0.6,0.2,0.6,0.4c0,0.2-0.1,0.3-0.3,0.4
		c-0.3,0.2-0.5,0.3-0.8,0.2h-0.3c-0.1,0-0.2,0-0.3-0.1c-0.1,0-0.2-0.1-0.3-0.2s-0.1-0.2-0.1-0.3C107.9,64,107.9,63.9,107.9,63.8"/>
	<path class="st1" d="M26.4,67.1c-1.6,1.5-3.8,2.2-7.2,2.2c-2.5,0.2-5.1-0.6-7.2-2.2c-1.7-1.7-2.6-4.2-2.4-6.6
		c0-3.1,0.8-5.2,2.3-6.7c1.6-1.5,3.9-2.3,7.2-2.3s5.6,0.7,7.2,2.1c1.5,1.4,2.3,3.6,2.3,6.5C28.7,63.2,27.9,65.6,26.4,67.1
		 M19.3,51.3c-6.8,0-10,3.1-10,9.2c0,6,3.4,9.1,10,9.1s9.9-3,9.9-9.4C29.2,54.2,26.1,51.3,19.3,51.3"/>
	<path class="st1" d="M20.5,63.3h-0.9c0-0.7,0-1.4,0-2.2v-1c1.4-0.3,2.4,0.3,2.4,1.6C21.9,62.5,21.3,63.2,20.5,63.3 M22.1,64.9
		c0.1,0.3,0.2,1.4-0.7,1.7c-0.3,0.2-0.7,0.2-1,0.2h-0.8c-0.1-1,0-2-0.1-3.2h0.9C21.3,63.6,22,64.2,22.1,64.9 M19.5,59.3L19.5,59.3
		c0-2.3,0.2-4.3,0.3-5.8c-0.2,0.1-0.4,0.2-0.7,0.2s-0.5-0.1-0.7-0.2c0.2,1.5,0.3,3.5,0.3,5.8l0,0c-2.2,0-4.3-0.1-6.2-0.3
		c0.2,0.2,0.3,0.4,0.2,0.7c0,0.3-0.1,0.5-0.2,0.7c1.9-0.2,4-0.3,6.2-0.3l0,0v1c0,2.1-0.1,4.2-0.3,6.3h2.5c1.3,0,2.4-0.5,2.4-2.1
		c-0.1-1.1-1-2-2.2-1.8l0,0l0,0c0.9-0.1,1.7-0.7,1.8-1.6c0.2-0.7-0.2-1.4-0.8-1.7c1.4,0,2.5,0.2,3.7,0.3c-0.2-0.2-0.3-0.4-0.3-0.7
		s0.1-0.5,0.3-0.7C23.8,59.3,21.7,59.4,19.5,59.3"/>
</g>
</svg>
