<svg xmlns="http://www.w3.org/2000/svg" viewBox="0 0 120 120"><defs><style>.a{fill:none;}.b{fill:#555;}</style></defs><title>icon-gadsforlag</title><rect class="a" width="120" height="120"/><path class="b" d="M14.28,59.73A1.62,1.62,0,0,0,16.07,58a1.6,1.6,0,0,0-1.79-1.65A1.58,1.58,0,0,0,12.51,58a1.61,1.61,0,0,0,1.77,1.71"/><path class="b" d="M14.64,67.55a6,6,0,0,1-3.55-1,1.4,1.4,0,0,1-.53-1.1,1,1,0,0,1,1.08-1,1,1,0,0,1,1.14,1,1,1,0,0,1-.09.43h0a4.28,4.28,0,0,0,2,.39c1.27,0,2.09-.45,2.09-1.14s-.74-.92-2.11-1.23c-2.51-.56-3.46-.9-3.46-2.25,0-.49.36-.88,1.06-1.13a3.24,3.24,0,0,1-.58-.48,2.81,2.81,0,0,1-.81-2c0-1.75,1.39-3,3.39-3h4V56.5H17.3a3.59,3.59,0,0,1,.43,1.56v0a3.11,3.11,0,0,1-3.4,3,5.34,5.34,0,0,1-1.17-.14.62.62,0,0,0-.44.52c0,.45.32.53,1.24.7h0c.29.06.62.11,1,.2,2,.47,3.57,1,3.57,2.56,0,1.81-2,2.63-3.9,2.63M7.7,52.45a3.37,3.37,0,0,0-3.37,3.37V72a2.19,2.19,0,0,1,2.25-2H24.14V52.45Z"/><path class="b" d="M53,59.66a2.62,2.62,0,0,0-.58-1.73A3.15,3.15,0,0,0,49.91,57C48,57,47,57.91,47,58.83a.9.9,0,0,0,.94.94.89.89,0,0,0,.92-.91,1.19,1.19,0,0,0-.06-.37,1.86,1.86,0,0,1,.85-.18,1.8,1.8,0,0,1,1.46.53,1.52,1.52,0,0,1,.31,1v.72a8.31,8.31,0,0,0-1.92-.26c-1.76,0-2.94.92-2.94,2.28A2.2,2.2,0,0,0,49,64.71a3.91,3.91,0,0,0,2.43-.92v.78h2.66V63.2H53Zm-3.53,3.79c-.78,0-1.26-.39-1.26-1s.58-1.12,1.53-1.12a6.84,6.84,0,0,1,1.7.23l0,1.07a3.11,3.11,0,0,1-2,.84"/><path class="b" d="M62.06,52.47H59.2v1.41h1.25v3.81a3.31,3.31,0,0,0-2.09-.7,3.73,3.73,0,0,0-3.63,3.9,3.55,3.55,0,0,0,3.49,3.82,3.12,3.12,0,0,0,2.25-.95v.81h2.72V63.2H62.06ZM58.5,63.28a2.18,2.18,0,0,1-2.13-2.4,2.25,2.25,0,0,1,2.16-2.47,3.23,3.23,0,0,1,1.92.64l0,3.33a2.71,2.71,0,0,1-2,.9"/><path class="b" d="M67.36,60.11c-1.18-.31-1.67-.52-1.67-1s.47-.85,1.36-.85a3.07,3.07,0,0,1,1.07.18,1.16,1.16,0,0,0-.05.34.89.89,0,0,0,1,.89.86.86,0,0,0,.86-.94,1.3,1.3,0,0,0-.4-.94,3.57,3.57,0,0,0-2.42-.8c-1.93,0-2.94,1.14-2.94,2.26,0,1.32,1,1.82,2.92,2.31,1.16.29,1.55.54,1.55,1,0,.67-.82.91-1.51.91a3.1,3.1,0,0,1-1.4-.3,1.11,1.11,0,0,0,0-.34.9.9,0,0,0-.94-.92.93.93,0,0,0-.91,1,1.36,1.36,0,0,0,.43,1,4.26,4.26,0,0,0,2.77.89c1.79,0,3-1,3-2.35s-1.2-1.87-2.78-2.27"/><path class="b" d="M78.17,54.07a1,1,0,0,1,.39-.28,1.05,1.05,0,0,0,1,.68.92.92,0,0,0,.92-1c0-.69-.61-1.16-1.53-1.16a2.58,2.58,0,0,0-1.87.73,3.46,3.46,0,0,0-.87,2.72v1.34H75v1.41h1.27V63.2H75.09v1.37h4.15V63.2H77.82V58.53h1.89V57.12H77.82V55.51a2.37,2.37,0,0,1,.35-1.44"/><path class="b" d="M84.13,57a3.79,3.79,0,0,0-3.89,3.87,3.74,3.74,0,0,0,3.89,3.85,3.86,3.86,0,1,0,0-7.72m0,6.33a2.48,2.48,0,1,1,2.22-2.46,2.25,2.25,0,0,1-2.22,2.46"/><path class="b" d="M93.87,57a2.93,2.93,0,0,0-2.19,1.59V57.12H89v1.41h1.13V63.2H89v1.37h4.07V63.2H91.73V60a3.07,3.07,0,0,1,1.41-1.42,1.11,1.11,0,0,0,1,.61,1,1,0,0,0,1-1.06A1.15,1.15,0,0,0,93.87,57"/><polygon class="b" points="95.56 52.47 95.56 53.88 96.74 53.88 96.74 63.2 95.56 63.2 95.56 64.57 99.52 64.57 99.52 63.2 98.35 63.2 98.35 52.47 95.56 52.47"/><path class="b" d="M106.7,59.66a2.61,2.61,0,0,0-.57-1.73,3.19,3.19,0,0,0-2.52-.94c-1.89,0-2.88.92-2.88,1.84a.93.93,0,0,0,1.86,0,1,1,0,0,0-.07-.37,1.9,1.9,0,0,1,.86-.18,1.8,1.8,0,0,1,1.46.53,1.52,1.52,0,0,1,.3,1v.72a8.31,8.31,0,0,0-1.92-.26c-1.75,0-2.94.92-2.94,2.28a2.21,2.21,0,0,0,2.47,2.16,3.93,3.93,0,0,0,2.43-.92v.78h2.66V63.2H106.7Zm-3.53,3.79c-.77,0-1.26-.39-1.26-1s.59-1.12,1.53-1.12a6.77,6.77,0,0,1,1.7.23l0,1.07a3.08,3.08,0,0,1-2,.84"/><path class="b" d="M42.65,64.05l-.94-.19c-.86-.16-1.16-.23-1.16-.64,0-.26.24-.41.38-.49a4.88,4.88,0,0,0,1.12.13,2.9,2.9,0,0,0,3.16-2.8,3.31,3.31,0,0,0-.4-1.44h.86V57.21H41.94l0,0c-1.86,0-3.15,1.17-3.15,2.79a2.63,2.63,0,0,0,.75,1.85,2.77,2.77,0,0,0,.54.44c-.65.24-1,.59-1,1,0,1.25.88,1.57,3.2,2.1,1.27.28,2,.54,2,1.13s-.76,1.06-1.94,1.06a4.09,4.09,0,0,1-1.81-.36h0a.84.84,0,0,0,.09-.4,1,1,0,0,0-2.06,0,1.32,1.32,0,0,0,.49,1,5.6,5.6,0,0,0,3.29.93c1.75,0,3.63-.76,3.63-2.44,0-1.5-1.44-2-3.32-2.38M42,58.49A1.49,1.49,0,0,1,43.67,60a1.66,1.66,0,0,1-3.31,0A1.48,1.48,0,0,1,42,58.49"/><path class="b" d="M112.35,64.05c-.34-.08-.64-.13-.94-.19-.86-.16-1.16-.23-1.16-.64,0-.26.24-.41.38-.49a4.88,4.88,0,0,0,1.12.13,2.9,2.9,0,0,0,3.16-2.8,3.31,3.31,0,0,0-.4-1.44h.86V57.21h-3.73l0,0c-1.86,0-3.15,1.17-3.15,2.79a2.63,2.63,0,0,0,.75,1.85,2.77,2.77,0,0,0,.54.44c-.65.24-1,.59-1,1,0,1.25.88,1.57,3.2,2.1,1.27.28,2,.54,2,1.13s-.76,1.06-1.94,1.06a4.13,4.13,0,0,1-1.81-.36h0a.84.84,0,0,0,.08-.4.94.94,0,0,0-1-.91,1,1,0,0,0-1,1,1.32,1.32,0,0,0,.49,1,5.6,5.6,0,0,0,3.29.93c1.75,0,3.63-.76,3.63-2.44,0-1.5-1.44-2-3.32-2.38m-.64-5.56A1.49,1.49,0,0,1,113.37,60a1.66,1.66,0,0,1-3.31,0,1.48,1.48,0,0,1,1.65-1.53"/></svg>