<?xml version="1.0" encoding="utf-8"?>
<!-- Generator: Adobe Illustrator 23.0.4, SVG Export Plug-In . SVG Version: 6.00 Build 0)  -->
<svg version="1.1" id="Layer_1" xmlns="http://www.w3.org/2000/svg" xmlns:xlink="http://www.w3.org/1999/xlink" x="0px" y="0px"
	 viewBox="0 0 120 120" style="enable-background:new 0 0 120 120;" xml:space="preserve">
<style type="text/css">
	.st0{fill:#565555;}
	.st1{clip-path:url(#SVGID_2_);fill:#565555;}
</style>
<title>icon-alvilda</title>
<g>
	<polygon class="st0" points="74,71.8 81.8,71.8 77.9,59.8 	"/>
	<g>
		<defs>
			<rect id="SVGID_1_" x="15.1" y="36.5" width="89.6" height="47.9"/>
		</defs>
		<clipPath id="SVGID_2_">
			<use xlink:href="#SVGID_1_"  style="overflow:visible;"/>
		</clipPath>
		<path class="st1" d="M15.1,54v21.6c2.2,2.7,5.2,4.4,8.5,4.4c6.7,0,12.2-7,12.2-15.2c0-5.1-2.1-9.7-5.4-12.5H16.8
			C16.2,52.8,15.6,53.4,15.1,54"/>
		<path class="st1" d="M85,81.5l-2.7-8.2h-8.8l-2.7,8.2h-1.3l8.4-25.7l8.4,25.7H85z M66.4,77.8c-1.9,2.6-4.8,4-7.6,4
			c-5.5,0-10.3-5.8-10.3-12.7c0-7.1,4.7-12.9,10.4-12.9c3.6,0,6.6,2.2,8.7,5.8l-1,1c-1.8-3.3-4.5-5.3-7.7-5.3
			c-4.9,0-9.1,5.3-9.1,11.3c0,6.1,4.1,11.3,9.1,11.3c2.1,0,4.2-1.1,5.9-2.7c1.7-1.8,2.4-3.9,2.4-6.6H60v-1.5h8.4
			C68.5,72.6,68.1,75.4,66.4,77.8 M47.4,81.5H41V56.6h1.3V80h5.1V81.5z M33.1,52.3c2.7,3.1,4.5,7.6,4.5,12.5
			c0,9.4-6.4,17.1-13.9,17.1c-3.2,0-6.1-1.4-8.5-3.7v6.1h89.6V52.3H33.1z"/>
		<path class="st1" d="M52.1,43.4c0,1.3,0,1.5-0.7,1.6L51,45l0,0.3c0.7,0,1,0,1.5,0h1.1c1.2,0,2.3,0,2.9,0c0.2-0.3,0.5-1.6,0.5-1.8
			c0-0.1-0.2-0.1-0.3-0.1c-0.2,0.6-0.5,1.1-0.8,1.3c-0.2,0.1-0.4,0.2-1.4,0.2c-0.9,0-1.2-0.2-1.3-0.3c-0.2-0.2-0.2-0.6-0.2-1.4v-4.4
			c0-1.3,0-1.5,0.7-1.6l0.3,0l0-0.3c-0.6,0-1,0-1.5,0c-0.5,0-0.9,0-1.5,0l0,0.3l0.3,0c0.7,0.1,0.8,0.3,0.8,1.6V43.4z M41.3,37.7
			c0-0.4,0-0.4,0.8-0.4c1.3,0,1.9,0.9,1.9,1.9c0,0.9-0.3,1.3-0.6,1.6c-0.3,0.3-0.8,0.3-1.2,0.3c-0.6,0-0.8,0-0.8-0.1
			c0-0.1,0-0.2,0-0.4V37.7z M40.4,43.4c0,1.3,0,1.5-0.7,1.6l-0.3,0c-0.1,0.1,0,0.3,0,0.3c0.6,0,1,0,1.5,0c0.5,0,0.9,0,1.4,0l0-0.3
			l-0.2,0c-0.7-0.1-0.7-0.3-0.7-1.6v-1.6c0-0.3,0-0.3,0.6-0.3c0.5,0,0.7,0.1,0.8,0.4c0.4,0.6,0.9,1.4,1.2,1.9
			c0.8,1.3,1.4,1.6,2.4,1.6c0.2,0,0.4,0,0.5-0.1l0-0.2c-0.3,0-0.6-0.2-0.8-0.4c-0.8-0.7-1.4-1.7-2.4-3.4c-0.1-0.1-0.1-0.2-0.1-0.3
			c0.6-0.3,1.5-0.9,1.5-2.1c0-0.9-0.4-1.5-1-1.8c-0.5-0.3-1.2-0.4-2-0.4c-1.2,0-2,0-2.6,0.1c-0.1,0.1-0.1,0.3,0,0.3l0.4,0.1
			c0.5,0.1,0.5,0.3,0.5,1.5V43.4z M30.2,45.1c-2.3,0-3.2-2.4-3.2-4.3c0-2.8,1.6-3.7,2.8-3.7c2.3,0,3.1,2.3,3.1,4.3
			C33,43.9,31.7,45.1,30.2,45.1 M30.1,45.5c2.3,0,4.1-1.9,4.1-4.4c0-2.2-1.4-4.3-4.1-4.3c-2.4,0-4.2,1.9-4.2,4.5
			C25.9,43.4,27.5,45.5,30.1,45.5 M17.3,37.8c0-0.5,0-0.5,0.4-0.5h0.7c0.5,0,0.9,0,1.1,0.1c0.6,0.2,0.7,0.6,0.8,1.2
			c0.1,0.1,0.2,0,0.3,0c0-0.5,0-1.1,0-1.7c-0.2,0-0.8,0-1.6,0h-2.2c-0.5,0-0.9,0-1.4,0l0,0.3l0.2,0c0.7,0.1,0.7,0.3,0.7,1.6v4.6
			c0,1.3,0,1.5-0.7,1.6l-0.3,0l0,0.3c0.6,0,1,0,1.5,0c0.5,0,0.9,0,1.6,0l0-0.3l-0.4,0c-0.7-0.1-0.7-0.3-0.7-1.6v-1.8
			c0-0.3,0-0.3,0.4-0.3h0.8c0.4,0,0.7,0,0.9,0.1c0.2,0.1,0.3,0.3,0.4,0.5l0.1,0.5c0.1,0.1,0.3,0.1,0.3,0c0-0.3,0-0.8,0-1.2
			c0-0.5,0-1,0-1.3h-0.3l-0.1,0.5c-0.1,0.3-0.2,0.4-0.3,0.4c-0.1,0.1-0.5,0.1-1,0.1h-0.8c-0.4,0-0.4,0-0.4-0.3V37.8z"/>
		<path class="st1" d="M64.6,39c0.1-0.4,0.2-0.7,0.3-0.7h0c0.1,0.2,0.2,0.5,0.3,0.8l0.6,2.1c0.1,0.3,0.1,0.4-0.3,0.4h-1.5
			c-0.3,0-0.3,0-0.2-0.3L64.6,39z M66.7,44c0.1,0.3,0.2,0.5,0.2,0.7c0,0.1-0.2,0.2-0.4,0.2l-0.3,0c-0.1,0.1-0.1,0.3,0,0.3
			c0.3,0,0.8,0,1.4,0c0.5,0,0.9,0,1.4,0c0.1-0.1,0.1-0.3,0-0.3l-0.3,0c-0.5-0.1-0.7-0.3-1-1.3L66,38.5c-0.2-0.6-0.4-1.1-0.5-1.7
			c0-0.1-0.1-0.1-0.2-0.1c-0.1,0.2-0.3,0.4-0.6,0.5c0,0.2,0,0.4-0.2,0.9l-1.2,3.4c-0.5,1.4-0.8,2.2-1,2.8c-0.2,0.5-0.4,0.6-0.7,0.6
			l-0.4,0l0,0.3c0.3,0,0.7,0,1.1,0c0.6,0,0.9,0,1.2,0c0.1-0.1,0.1-0.3,0-0.3l-0.4,0c-0.3,0-0.3-0.1-0.3-0.3c0-0.1,0.1-0.5,0.3-1
			l0.4-1.3c0.1-0.3,0.2-0.3,0.4-0.3h1.8c0.4,0,0.4,0,0.5,0.3L66.7,44z"/>
		<path class="st1" d="M101,37.7c0-0.4,0-0.4,0.3-0.4h0.8c0.7,0,1.1,0.1,1.4,0.3c0.2,0.1,0.3,0.6,0.3,0.9c0.1,0.1,0.3,0.1,0.3,0
			c0-0.4,0-1.4,0.2-1.9l-0.2,0c-0.2,0.3-0.3,0.4-0.9,0.4h-4.8c-0.5,0-0.9,0-1-0.4h-0.2c-0.1,0.5-0.3,1.3-0.4,1.9
			c0,0.1,0.2,0.2,0.3,0.1c0.1-0.3,0.2-0.6,0.5-0.9c0.3-0.3,0.9-0.3,1.5-0.3h0.7c0.4,0,0.4,0,0.4,0.4v5.7c0,1.3-0.1,1.5-0.7,1.6
			l-0.4,0c-0.1,0.1-0.1,0.3,0,0.3c0.8,0,1.2,0,1.6,0c0.5,0,0.9,0,1.5,0l0-0.3l-0.4,0c-0.7-0.1-0.7-0.3-0.7-1.6V37.7z M87.2,43.4
			c0,1.3-0.1,1.5-0.7,1.6l-0.4,0l0,0.3c0.7,0,1.1,0,1.6,0h1.1c1.1,0,2.1,0,3.2,0c0.2-0.3,0.5-1.3,0.5-1.8c0-0.1-0.2-0.2-0.3-0.1
			c-0.3,0.7-0.6,1.1-0.8,1.2c-0.3,0.1-0.6,0.2-1.5,0.2c-1,0-1.3-0.1-1.4-0.3c-0.2-0.2-0.2-0.6-0.2-1.3v-1.8c0-0.3,0-0.3,0.4-0.3h0.7
			c0.5,0,0.7,0,0.9,0.1c0.2,0.1,0.3,0.3,0.4,0.5l0.1,0.5c0.1,0.1,0.3,0.1,0.3,0c0-0.3,0-0.8,0-1.2c0-0.5,0-1,0-1.3
			c0-0.1-0.2-0.1-0.3,0l-0.1,0.5c-0.1,0.3-0.1,0.4-0.3,0.4c-0.1,0.1-0.5,0.1-1,0.1h-0.7c-0.4,0-0.4,0-0.4-0.4v-2.5
			c0-0.5,0-0.5,0.4-0.5h0.9c0.5,0,0.9,0,1.1,0.1c0.6,0.2,0.7,0.6,0.9,1.2l0.3,0c0-0.6-0.1-1.5-0.2-1.7c-0.1,0-0.8,0-1.6,0h-2.2
			c-0.5,0-0.9,0-1.4,0l0,0.3l0.2,0c0.7,0.1,0.7,0.3,0.7,1.6V43.4z M80.4,43.3c0-0.6,0-1,0.5-1.1l0.2,0c0.1-0.1,0.1-0.3,0-0.3
			c-0.4,0-0.8,0-1.3,0c-0.7,0-1.3,0-1.7,0c-0.1,0-0.1,0.3,0,0.3l0.5,0.1c0.7,0.1,0.8,0.2,0.8,1.2V44c0,0.4-0.1,0.6-0.1,0.7
			c-0.1,0.2-0.6,0.4-1.3,0.4c-2.4,0-3.5-1.9-3.5-4.3c0-1.9,1-3.6,3.3-3.6c1.2,0,2.1,0.4,2.4,1.8c0.1,0.1,0.3,0.1,0.3,0
			c-0.1-0.8-0.2-1.4-0.2-1.8c-0.1,0-0.5-0.1-0.7-0.1c-0.2-0.1-0.8-0.2-1.5-0.2c-1.8,0-3,0.6-3.7,1.5c-0.7,0.8-1.1,1.9-1.1,3
			c0,1.1,0.4,2.1,1.1,2.9c0.9,1,2.2,1.4,3.6,1.4c0.6,0,1.5-0.2,2.1-0.3c0.2-0.1,0.4-0.1,0.6-0.1l0-0.2c-0.2-0.1-0.3-0.4-0.3-0.9
			V43.3z"/>
	</g>
</g>
</svg>
