<?xml version="1.0" encoding="utf-8"?>
<!-- Generator: Adobe Illustrator 19.2.1, SVG Export Plug-In . SVG Version: 6.00 Build 0)  -->
<svg version="1.1" id="Lag_1" xmlns="http://www.w3.org/2000/svg" xmlns:xlink="http://www.w3.org/1999/xlink" x="0px" y="0px"
	 viewBox="0 0 120 120" style="enable-background:new 0 0 120 120;" xml:space="preserve">
<style type="text/css">
	.st0{fill:#555555;}
</style>
<g>
	<g>
		<g>
			<path class="st0" d="M86.4,61.9H83v1.1c-1-0.8-2.4-1.3-3.8-1.3c-3.6,0-6.4,3-6.4,6.8c0,1.8,0.6,3.4,1.7,4.6c1.2,1.4,3,2.2,5,2.2
				c1.3,0,2.6-0.4,3.7-1.3V75h3.4V61.9z M82.9,70.4c-0.7,1-1.8,1.6-3.2,1.6c-2,0-3.5-1.5-3.5-3.6c0-1.9,1.3-3.6,3.4-3.6
				c1.4,0,2.5,0.6,3.2,1.6V70.4z M61.1,66.5c0.5-0.7,1.7-1.6,3.2-1.6c0.8,0,1.5,0.3,2,0.7c0.5,0.5,0.8,1.2,0.8,2.5v7h3.5v-6.7
				c0-2.2-0.5-3.6-1.4-4.6c-1.1-1.3-2.7-2.1-4.5-2.1c-1.4,0-2.6,0.5-3.6,1.2v-7h-3.5V75h3.5V66.5z M45,66.5c0.7-1,1.9-1.6,3.2-1.6
				c2.1,0,3.4,1.7,3.4,3.6c0,2.1-1.5,3.6-3.5,3.6c-1.3,0-2.5-0.6-3.2-1.6V66.5z M41.5,81.5H45v-7.4c1.1,0.8,2.2,1.2,3.5,1.2
				c1.9,0,3.8-0.9,5-2.2c1-1.2,1.6-2.8,1.6-4.6c0-3.9-2.9-6.8-6.4-6.8c-1.5,0-2.8,0.5-3.8,1.3v-1.1h-3.4V81.5z M38,55.8h-3.5V75H38
				V55.8z M30.9,61.9h-3.4v1.1c-1-0.8-2.4-1.3-3.8-1.3c-3.6,0-6.4,3-6.4,6.8c0,1.8,0.6,3.4,1.7,4.6c1.2,1.4,3,2.2,4.9,2.2
				c1.3,0,2.6-0.4,3.7-1.3V75h3.4V61.9z M27.4,70.4c-0.7,1-1.8,1.6-3.2,1.6c-2,0-3.5-1.5-3.5-3.6c0-1.9,1.3-3.6,3.4-3.6
				c1.4,0,2.5,0.6,3.2,1.6V70.4z"/>
			<path class="st0" d="M82,57.4v-0.8c0-1.5,1.2-2.7,2.7-2.7c1.5,0,2.7,1.2,2.7,2.7c0,0.3,0,0.5,0,0.8h15.4v-1.6H88.7l13-5.4
				l-0.6-1.5l-13,5.4l10-10l-1.1-1.1l-10,10l5.4-13l-1.5-0.6l-5.4,13V38.5h-1.6v14.1l-5.4-13L77,40.2l5.4,13l-10-10l-1.1,1.1l10,10
				l-13-5.4l-0.6,1.5l13,5.4h-14v1.6H82z"/>
		</g>
	</g>
</g>
</svg>
