<svg xmlns="http://www.w3.org/2000/svg" viewBox="0 0 120 120"><title>icon-polaris</title><g id="Layer_1" data-name="Layer 1"><rect width="120" height="120" style="fill:none"/></g><g id="Layer_2" data-name="Layer 2"><path d="M95.69,57.64a1.61,1.61,0,0,1-1,1.61,7.13,7.13,0,0,1-1.75.18V55.85a7.11,7.11,0,0,1,1.68.14,1.62,1.62,0,0,1,1.1,1.65m-7.21-4.49H86.31V55.9h2.17v8.51H86.31v2.75H95.2V64.41H92.92V62.16h2l.38,0c2.94-.16,4.72-2,4.72-4.5a4.52,4.52,0,0,0-4.78-4.45l-.37,0h-2" transform="translate(0 0)" style="fill:#555"/><path d="M20,53.17h2.13c1.3,0,2,.39,2,1.33a1.21,1.21,0,0,1-.91,1.21v0A1.25,1.25,0,0,1,24.34,57c0,1.33-1.08,1.66-2.41,1.66H20Zm1.34,1.09v1.05h.7c.46,0,.68-.24.68-.55s-.19-.5-.58-.5Zm0,3.22h.93c.42,0,.67-.21.67-.59s-.25-.58-.67-.58h-.93Z" transform="translate(0 0)" style="fill:#555"/><path d="M28.31,53.08a2.82,2.82,0,0,1,0,5.63,2.82,2.82,0,0,1,0-5.63m0,4.42c.84,0,1.28-.64,1.28-1.62s-.44-1.59-1.28-1.59S27,55,27,55.88s.44,1.62,1.28,1.62" transform="translate(0 0)" style="fill:#555"/><polygon points="32.45 53.17 33.78 53.17 33.78 55.32 34.37 55.32 35.52 53.17 37 53.17 35.51 55.85 37.16 58.61 35.61 58.61 34.34 56.41 33.78 56.41 33.78 58.61 32.45 58.61 32.45 53.17" style="fill:#555"/><polygon points="38.36 53.17 42.01 53.17 42.01 54.34 39.7 54.34 39.7 55.46 41.73 55.46 41.73 56.55 39.7 56.55 39.7 58.61 38.36 58.61 38.36 53.17" style="fill:#555"/><path d="M45.74,53.07a2.82,2.82,0,1,1-2.69,2.81,2.56,2.56,0,0,1,2.69-2.81m-.83-1.34c.42,0,.61.24.61.54a.54.54,0,0,1-.61.53c-.41,0-.62-.21-.62-.53a.56.56,0,0,1,.62-.54m.83,5.77c.84,0,1.28-.64,1.28-1.62s-.44-1.59-1.28-1.59-1.28.68-1.28,1.59.44,1.62,1.28,1.62m.84-5.77c.43,0,.62.24.62.54a.55.55,0,0,1-.62.53c-.4,0-.62-.21-.62-.53a.55.55,0,0,1,.62-.54" transform="translate(0 0)" style="fill:#555"/><path d="M52,53.17c1.37,0,2.08.7,2.08,1.76a1.6,1.6,0,0,1-.83,1.51l1.12,2.17H52.92L52,56.75a3,3,0,0,1-.43,0h-.37v1.83H49.88V53.17Zm-.79,1.14v1.41h.68c.55,0,.83-.26.83-.72s-.26-.69-.79-.69Z" transform="translate(0 0)" style="fill:#555"/><polygon points="57 53.17 57 57.44 59.26 57.44 59.26 58.61 55.66 58.61 55.66 53.17 57 53.17" style="fill:#555"/><path d="M63.5,53.17l1.94,5.44H64l-.31-1H62l-.3,1H60.23l1.93-5.44Zm-.15,3.31-.52-1.79-.52,1.79Z" transform="translate(0 0)" style="fill:#555"/><path d="M69,55.61H71v2.25a2.93,2.93,0,0,1-2.21.85c-1.93,0-2.55-1.32-2.55-2.8,0-1.65.79-2.84,2.54-2.84A1.93,1.93,0,0,1,71,55H69.64a.72.72,0,0,0-.81-.69c-.76,0-1.17.59-1.17,1.61s.38,1.64,1.27,1.64a1.3,1.3,0,0,0,.8-.22v-.7H69Z" transform="translate(0 0)" style="fill:#555"/><polygon points="72.53 53.17 76.3 53.17 76.3 54.34 73.86 54.34 73.86 55.32 76.07 55.32 76.07 56.42 73.86 56.42 73.86 57.44 76.33 57.44 76.33 58.61 72.53 58.61 72.53 53.17" style="fill:#555"/><polygon points="79.03 54.34 77.46 54.34 77.46 53.17 81.94 53.17 81.94 54.34 80.37 54.34 80.37 58.61 79.03 58.61 79.03 54.34" style="fill:#555"/><path d="M45.93,61.67h2.14a1.74,1.74,0,0,1,2,1.82c0,1.18-.67,1.89-2.06,1.89h-.73v1.73H45.93Zm1.34,1.14V64.3h.66c.54,0,.81-.28.81-.75a.69.69,0,0,0-.78-.74Z" transform="translate(0 0)" style="fill:#555"/><path d="M54,61.57a2.82,2.82,0,1,1-2.68,2.81A2.57,2.57,0,0,1,54,61.57M54,66c.85,0,1.29-.64,1.29-1.62s-.44-1.59-1.29-1.59-1.27.67-1.27,1.59S53.16,66,54,66" transform="translate(0 0)" style="fill:#555"/><polygon points="58.13 61.67 58.13 67.01 61.73 67.01 61.73 65.94 59.47 65.94 59.47 61.67 58.13 61.67" style="fill:#555"/><path d="M65.31,63.19,65.83,65h-1Zm-.67-1.53L62.74,67h1.43l.27-.9h1.74l.27.9h1.44L66,61.66Z" transform="translate(0 0)" style="fill:#555"/><path d="M71.26,61.67c1.37,0,2.08.7,2.08,1.76a1.6,1.6,0,0,1-.83,1.51l1.12,2.17H72.18l-.91-1.86a3.11,3.11,0,0,1-.43,0h-.37v1.83H69.13V61.67Zm-.79,1.14v1.41h.68c.55,0,.83-.26.83-.73s-.26-.68-.79-.68Z" transform="translate(0 0)" style="fill:#555"/><rect x="74.92" y="61.66" width="1.34" height="5.35" style="fill:#555"/><path d="M78.21,65.44a2.77,2.77,0,0,0,1.55.66c.42,0,.66-.19.66-.52s-.19-.46-1.06-.71c-1.1-.32-1.58-.76-1.58-1.63,0-1.14.89-1.67,2-1.67a2.94,2.94,0,0,1,2,.76l-.62.82a2.19,2.19,0,0,0-1.31-.5c-.39,0-.65.15-.65.45s.31.45,1.21.75,1.44.72,1.44,1.59c0,1.11-.78,1.77-2,1.77a3,3,0,0,1-2.22-1Z" transform="translate(0 0)" style="fill:#555"/></g></svg>