<?xml version="1.0" encoding="utf-8"?>
<!-- Generator: Adobe Illustrator 19.2.1, SVG Export Plug-In . SVG Version: 6.00 Build 0)  -->
<svg version="1.1" id="Lag_1" xmlns="http://www.w3.org/2000/svg" xmlns:xlink="http://www.w3.org/1999/xlink" x="0px" y="0px"
	 viewBox="0 0 120 120" style="enable-background:new 0 0 120 120;" xml:space="preserve">
<style type="text/css">
	.st0{fill:#555555;}
</style>
<g>
	<polygon class="st0" points="68.9,75.7 53.5,50 68.9,24.2 84.3,50 	"/>
	<g>
		<path class="st0" d="M50.6,24.3C41.7,29.4,35.7,39,35.7,50s6,20.6,14.8,25.7V24.3z"/>
		<path class="st0" d="M37,90.8v-0.1c0-2.9,2-5,4.7-5c1.9,0,3.6,0.9,3.9,2.9h-0.8c-0.4-1.6-1.6-2.3-3.2-2.3c-2.4,0-3.9,1.8-3.9,4.4
			v0.1c0,2.6,1.4,4.3,3.9,4.3c2.3,0,3.4-1.4,3.5-3.6v-0.1h-3v-0.6h3.8v0.6c0,2.8-1.7,4.3-4.2,4.3C38.7,95.8,37,93.7,37,90.8"/>
		<path class="st0" d="M47.5,93v-4.5h0.7V93c0,1.5,0.7,2.2,2,2.2c1.2,0,2.3-0.8,2.3-2.3v-4.4h0.7v7.2h-0.7v-1.4
			c-0.3,0.8-1.3,1.5-2.5,1.5C48.6,95.8,47.5,95,47.5,93"/>
		<path class="st0" d="M55.2,86.5h0.7v2h1.9v0.6h-1.9v4.8c0,0.9,0.4,1.3,1.1,1.3c0.4,0,0.7-0.1,0.9-0.2v0.6
			c-0.2,0.1-0.5,0.2-0.9,0.2c-1.1,0-1.8-0.7-1.8-1.8V86.5z"/>
	</g>
	<polygon class="st0" points="59.6,86.5 60.3,86.5 60.3,91.9 63.8,88.5 64.7,88.5 61.1,91.8 64.9,95.7 64,95.7 60.3,91.9 60.3,95.7 
		59.6,95.7 	"/>
	<g>
		<path class="st0" d="M66.1,88.5h0.7v7.2h-0.7V88.5z M66,86.8c0-0.3,0.2-0.5,0.5-0.5c0.3,0,0.5,0.2,0.5,0.5c0,0.3-0.2,0.5-0.5,0.5
			C66.2,87.3,66,87.1,66,86.8"/>
		<path class="st0" d="M68.9,88.5h0.7v1.4c0.3-0.8,1.3-1.5,2.5-1.5c1.5,0,2.6,0.8,2.6,2.9v4.4H74v-4.5c0-1.5-0.7-2.2-2-2.2
			c-1.2,0-2.4,0.8-2.4,2.3v4.4h-0.7V88.5z"/>
		<path class="st0" d="M82.2,92.1V92c0-2-1.1-3-2.6-3c-1.5,0-2.7,1.1-2.7,3.1v0.1c0,2,1.1,3,2.5,3C80.9,95.2,82.2,94.1,82.2,92.1
			 M76.2,92.2v-0.1c0-2.2,1.4-3.7,3.3-3.7c1.4,0,2.2,0.8,2.6,1.7v-4.4h0.7v10h-0.7V94c-0.4,0.9-1.4,1.8-2.7,1.8
			C77.6,95.8,76.2,94.5,76.2,92.2"/>
	</g>
</g>
</svg>
