<?xml version="1.0" encoding="utf-8"?>
<!-- Generator: Adobe Illustrator 19.2.1, SVG Export Plug-In . SVG Version: 6.00 Build 0)  -->
<svg version="1.1" id="Lag_1" xmlns="http://www.w3.org/2000/svg" xmlns:xlink="http://www.w3.org/1999/xlink" x="0px" y="0px"
	 viewBox="0 0 120 120" style="enable-background:new 0 0 120 120;" xml:space="preserve">
<style type="text/css">
	.st0{fill:#3E4E59;}
</style>
<g>
	<path class="st0" d="M17.1,52.1L17.1,52.1c0.7,0.1,1.3,1,1.3,2c0,1.3-1.4,2.4-1.3,3.5h0c0.3-1.6,2.7-2.5,2.2-4.2
		c0.7,0.4,1,1.7,1.1,2.6c0.3-1,1.6-1.6,1.8-2.3h0v4.9H11.7l0-2.5c0-1.5,2.6-1.5,2.4-2.9l0,0c0.8,1.2-0.4,2.3-0.2,3.1h0
		c0.6-2.4,2.9-1.8,3.4-3.3C17.5,52.7,17.3,52.2,17.1,52.1"/>
	<path class="st0" d="M13.5,59.1c-0.6,0.6-1.2,0.9-1.8,0.7v4.5h10.5v-4.8c-0.9,1.1-2,0.6-1.9-0.3v0c-1.6,1.9-2.6,0.8-2.3,0.1v0
		c-1.5,1.8-2.4,0.7-2-0.2l0,0C14.1,61.4,12.9,60.6,13.5,59.1"/>
	<path class="st0" d="M25.7,56.2c0-0.6-0.1-1.1-1.3-1.1L24.3,55v-0.2c0-0.1,0.1-0.1,0.2-0.1c0.4,0,1.2,0.1,1.8,0.1
		c0.5,0,1.1-0.1,1.7-0.1c0.3,0,0.4,0,0.4,0.2V55c0,0.1-0.2,0.1-0.4,0.1c-0.6,0-1.1,0-1.1,0.7v3.1h5.9v-2.6c0-0.9,0-1.1-1.1-1.2
		c-0.2,0-0.2-0.1-0.2-0.2v-0.2l0.1-0.1c0.5,0,1.3,0.1,2.2,0.1c0.9,0,1.2,0,1.6-0.1l0.1,0.1V55c0,0.1-0.1,0.1-0.3,0.1
		c-0.7,0-1.1,0.1-1.1,0.9v6.8c0,1,0.5,1.1,1.3,1.1c0.1,0,0.1,0.2,0.1,0.4c0,0.1-0.1,0.1-0.4,0.1c-0.5,0-1.1-0.1-1.6-0.1
		c-0.5,0-1.4,0.1-1.5,0.1c-0.4,0-0.4,0-0.4-0.1v-0.3l0.1-0.1c1.3,0,1.3-0.3,1.3-1.2v-3.2h-5.9v3.5c0,0.8,0.2,1,1.2,1
		c0.2,0,0.2,0,0.2,0.2v0.2c0,0.1-0.1,0.1-0.4,0.1c-0.6,0-1.1-0.1-1.7-0.1c-0.5,0-1.1,0.1-1.6,0.1c-0.1,0-0.2,0-0.3-0.1v-0.3l0.1-0.1
		c0.6,0,1.2-0.1,1.2-0.8"/>
	<path class="st0" d="M39.7,61.4l-1.4,0.6c-0.2,0.1-0.7,0.3-0.7,0.7c0,0.4,0.2,1.1,0.6,1.1c0.5,0,0.9-0.5,1.3-0.8l0.1-0.1V61.4z
		 M39.7,60.4c0-0.8-0.1-1.3-1.1-1.3c-0.4,0-1.1,0.1-1.1,0.5c0,0.1,0,0.2,0.1,0.3l-0.9,0.5c0-0.1-0.1-0.2-0.1-0.4
		c0-0.4,0.4-0.8,0.7-0.9l1.2-0.7c0.2-0.1,0.2-0.1,0.3-0.1c1.1,0,1.7,0.5,1.7,1.7v2.9c0,0.3,0,0.9,0.4,0.9c0.3,0,0.3-0.1,0.5-0.4
		l0.3,0.1c-0.2,0.7-0.5,1.2-1.1,1.2c-0.9,0-1-0.9-1-1.2c-0.5,0.5-1.2,1.2-2,1.2c-0.8,0-1.2-1-1.2-1.6c0-0.2,0.3-0.7,1.4-1.1l1.8-0.7
		"/>
	<path class="st0" d="M44.5,62.9c0,0.5,0,1.1,1,1.1c0.1,0,0.1,0.1,0.1,0.2s0,0.2-0.1,0.2c-0.5,0-1-0.1-1.4-0.1
		c-0.5,0-1.1,0.1-1.6,0.1c-0.1,0-0.1,0-0.1-0.1v-0.1c0-0.1,0-0.2,0.3-0.2c0.6,0,0.7-0.2,0.7-1v-3c0-0.3-0.1-0.4-0.4-0.5
		c-0.1,0-0.4-0.1-0.4-0.3c0-0.1,0-0.1,0.2-0.2l1-0.5c0.3-0.1,0.5-0.2,0.6-0.2c0.1,0,0.1,0.1,0.1,0.1l0,1.4l0,0
		c0.4-0.6,1.1-1.6,1.9-1.6c0.5,0,0.8,0.2,0.8,0.7c0,0.3-0.3,0.5-0.6,0.5c-0.4,0-0.5-0.2-0.9-0.2c-0.3,0-0.8,0.5-1,0.8l-0.2,0.3"/>
	<path class="st0" d="M49.7,62.9c0,0.7,0.7,0.9,1.4,0.9c1.4,0,2.1-1,2.1-2.4c0-1.2-0.7-2.5-2-2.5c-0.5,0-1,0.1-1.5,0.4V62.9z
		 M48.6,60.2c0-0.6,0-0.7-0.3-0.8l-0.5-0.2l0-0.1c0-0.1,0-0.1,0.1-0.2l1.7-0.8c0.1,0,0.1,0.1,0.1,0.2c0,0.3,0,0.5,0,0.8
		c0.5-0.2,1.6-0.9,2.1-0.9c1.5,0,2.6,1.5,2.6,2.9c0,2.6-2.7,3.5-3.7,3.5c-0.3,0-0.6-0.1-0.9-0.1v2.1c0,0.9,0.2,1,1.2,1l0.1,0.1v0.1
		c0,0.1,0,0.2-0.1,0.2c-0.6,0-1.2-0.1-1.8-0.1c-0.6,0-1.1,0.1-1.5,0.1c-0.1,0-0.1-0.1-0.1-0.2v-0.1l0-0.1c1-0.1,1.1-0.1,1.1-1.2"/>
	<path class="st0" d="M59.1,60.3c0.2,0,0.4-0.3,0.4-0.5c0-0.7-0.5-1.1-1.2-1.1c-0.8,0-1.4,0.9-1.5,1.7L59.1,60.3z M56.7,60.7
		c0,0.2,0,0.4,0,0.6c0,1.2,0.9,2.4,2.2,2.4c0.5,0,0.9-0.2,1.5-0.8l0.2,0.2c-0.5,0.9-1.4,1.5-2.5,1.5c-1.4,0-2.5-1.3-2.5-2.9
		c0-1.6,1.1-3.5,2.9-3.5c1.2,0,2.1,0.9,2.1,2.1v0.4"/>
	<path class="st0" d="M63.5,62.9c0,0.5,0,1.1,1,1.1c0.1,0,0.1,0.1,0.1,0.2s0,0.2-0.1,0.2c-0.5,0-1-0.1-1.4-0.1
		c-0.5,0-1.1,0.1-1.6,0.1c-0.1,0-0.1,0-0.1-0.1v-0.1c0-0.1,0-0.2,0.3-0.2c0.6,0,0.7-0.2,0.7-1v-3c0-0.3-0.1-0.4-0.4-0.5
		c-0.1,0-0.4-0.1-0.4-0.3c0-0.1,0-0.1,0.2-0.2l1-0.5c0.3-0.1,0.5-0.2,0.6-0.2c0.1,0,0.1,0.1,0.1,0.1l0,1.4l0,0
		c0.4-0.6,1.1-1.6,1.9-1.6c0.5,0,0.8,0.2,0.8,0.7c0,0.3-0.3,0.5-0.6,0.5c-0.4,0-0.5-0.2-0.9-0.2c-0.3,0-0.8,0.5-1,0.8l-0.2,0.3"/>
	<path class="st0" d="M76.1,63.8c-0.9,0.5-2,0.7-3.3,0.7c-2.7,0-5.7-1.9-5.7-5.1c0-3,2.8-5,5.6-5c0.9,0,2.5,0.3,3.3,0.8l0.2,1.6
		c0,0.1,0,0.3,0,0.3c0,0.1-0.2,0.1-0.3,0.1c-0.1,0-0.2-0.2-0.4-0.7C75.2,55.7,74,55,72.8,55c-2.6,0-4.1,2.2-4.1,4.6
		c0,2.2,1.8,4.4,4.1,4.4c0.8,0,1.9-0.3,2.4-0.7c0.4-0.3,0.6-1,0.8-1.5l0.2,0c0.1,0,0.3,0,0.3,0.2"/>
	<path class="st0" d="M80.7,58.6c-1.4,0-1.8,1.3-1.8,2.6c0,1.2,0.6,2.8,2.1,2.8c1.3,0,1.9-1.2,1.9-2.4
		C82.8,60.3,82.4,58.6,80.7,58.6 M81,58.2c1.6,0,3.1,1.4,3.1,3.1c0,2-1.6,3.3-3.4,3.3c-1.7,0-3-1.4-3-3.1
		C77.7,59.6,79.2,58.2,81,58.2"/>
	<path class="st0" d="M87.1,63.3c0,0.3,0,0.7,0.9,0.7c0,0,0,0.1,0,0.2c0,0.1,0,0.2,0,0.2c-0.5,0-1.1-0.1-1.4-0.1
		c-0.5,0-1,0.1-1.5,0.1c-0.1,0-0.1,0-0.1-0.1v-0.1c0-0.2,0-0.2,0.2-0.2c0.6,0,0.8-0.1,0.8-0.7v-7.4c0-0.9,0-0.9-0.5-1.1
		c-0.2-0.1-0.4-0.1-0.4-0.3s0.1-0.2,0.7-0.4l1-0.4l0.2-0.1c0.1,0,0.1,0.1,0.1,0.2c0,0.7,0,1.3,0,2"/>
	<path class="st0" d="M90.9,63.3c0,0.3,0,0.7,0.9,0.7c0,0,0,0.1,0,0.2c0,0.1,0,0.2,0,0.2c-0.5,0-1.1-0.1-1.4-0.1
		c-0.5,0-1,0.1-1.5,0.1c-0.1,0-0.1,0-0.1-0.1v-0.1c0-0.2,0-0.2,0.2-0.2c0.6,0,0.8-0.1,0.8-0.7v-7.4c0-0.9,0-0.9-0.5-1.1
		c-0.2-0.1-0.4-0.1-0.4-0.3s0.1-0.2,0.7-0.4l1-0.4l0.2-0.1c0.1,0,0.1,0.1,0.1,0.2c0,0.7,0,1.3,0,2"/>
	<path class="st0" d="M94.2,54.1c0.4,0,0.8,0.3,0.8,0.8c0,0.4-0.3,0.8-0.8,0.8c-0.4,0-0.8-0.3-0.8-0.8
		C93.4,54.5,93.8,54.1,94.2,54.1 M94.7,63.3c0,0.3,0,0.7,0.9,0.7c0,0,0,0.1,0,0.2c0,0.1,0,0.2,0,0.2c-0.5,0-1.1-0.1-1.4-0.1
		c-0.5,0-1,0.1-1.5,0.1c-0.1,0-0.1,0-0.1-0.1v-0.1c0-0.2,0-0.2,0.2-0.2c0.6,0,0.8-0.1,0.8-0.7v-2.8c0-0.9,0-0.9-0.5-1.1
		c-0.2-0.1-0.4-0.2-0.4-0.3c0-0.1,0.1-0.2,0.7-0.4l1-0.4l0.2-0.1c0.1,0,0.1,0.1,0.1,0.2c0,0.7,0,1.3,0,2"/>
	<path class="st0" d="M97.5,59.7c0-0.3-0.1-0.4-0.3-0.5l-0.5-0.1c0,0-0.1-0.1-0.1-0.2l0.1-0.2c0.7-0.2,1.6-0.7,1.7-0.7l0.1,0.2v0.9
		c0.6-0.5,1.4-1.1,2.2-1.1c1.2,0,1.7,0.7,1.7,1.8v3.3c0,0.6,0.5,0.6,0.9,0.6l0.1,0.1v0.2l-0.1,0c-0.5,0-0.9-0.1-1.4-0.1
		c-0.5,0-1,0.1-1.5,0.1c-0.1,0-0.1-0.2-0.1-0.3c0,0,0.1-0.1,0.1-0.1c0.2,0,0.8,0,0.8-0.4v-3.2c0-0.8-0.3-1.3-1.2-1.3
		c-0.6,0-1.3,0.3-1.7,0.7v3.6c0,0.3,0,0.7,0.9,0.7c0,0,0,0.1,0,0.2c0,0.1,0,0.2,0,0.2c-0.5,0-1.1-0.1-1.4-0.1c-0.5,0-1,0.1-1.5,0.1
		c-0.1,0-0.1,0-0.1-0.1v-0.1c0-0.2,0-0.2,0.2-0.2c0.6,0,0.8-0.1,0.8-0.7"/>
	<path class="st0" d="M108.1,59.9h-0.3c-0.2-0.6-0.5-1.2-1.2-1.2c-0.6,0-1.1,0.3-1.1,0.9c0,0.5,0.7,0.9,1.4,1.3
		c0.7,0.4,1.4,0.9,1.4,1.7c0,1.2-1.1,1.9-2.2,1.9c-0.9,0-1.8-0.4-1.8-0.6l-0.1-1.2l0.4,0c0.1,0.1,0.1,0.2,0.1,0.3
		c0.1,0.6,0.8,1.2,1.4,1.2c0.7,0,1.1-0.4,1.1-1.1c0-0.5-0.6-0.9-1-1.1c-0.8-0.4-1.8-0.9-1.8-1.9c0-1.1,1-1.7,2.1-1.7
		c0.5,0,1.1,0.2,1.6,0.4"/>
</g>
</svg>
