<svg xmlns="http://www.w3.org/2000/svg" viewBox="0 0 120 120"><title>icon-kristeligtdagblad</title><g id="Layer_1" data-name="Layer 1"><rect width="120" height="120" style="fill:none"/></g><g id="Layer_2" data-name="Layer 2"><path d="M99.73,66.41A37.6,37.6,0,0,0,88,67.26C82.08,68.89,74.4,73.34,70.34,76a22.05,22.05,0,0,1-4.3,2.1,87.26,87.26,0,0,0,7.68-12.36c3.21-2.41,9-6.78,14.66-11.18,15.39-12,9.42-30.32,9.42-30.32-1,.11-2.73,10.73-10.15,22.12a112.25,112.25,0,0,1-11.84,15c1.52-3.38,2.25-5.56,2.25-5.56,1.44-3.12,6.6-9.45,6.78-15.89.23-8-1.31-12.45-1.31-12.45s-4.07,2.64-5.87,9.77c-.91,3.59-.74,5.6-.78,9-.07,7-1,9-1,9S74,63.38,65.82,73.29a18.5,18.5,0,0,1,.37-4.43C66.89,65.89,69.77,57,68,50c-2.27-9-5.57-11.34-5.57-11.34S59,42.94,60.31,54.71c.72,6.64,2.78,11.52,3.16,13.42a39.35,39.35,0,0,1,.39,7.35h.06a73.94,73.94,0,0,1-8.25,7.82,30.25,30.25,0,0,1-3.21-10.69c-.61-6.36.08-6.52.73-14,.81-9.16-6.36-20.35-6.36-20.35S42.44,45.08,43,57.55c.37,8.74,8.33,23,10.78,27.25A85.6,85.6,0,0,1,21.47,99.5s-2.85.76.22,3.2A6.7,6.7,0,0,0,26,104.21h0a6.35,6.35,0,0,0,2-.33A83.17,83.17,0,0,0,55.86,89a63.79,63.79,0,0,0,7.72-7.8c4.11.45,12.33.94,19.46-1.12C93.64,77,99.68,66.51,99.73,66.42Z" transform="translate(0 0)" style="fill:#555"/></g></svg>