<svg xmlns="http://www.w3.org/2000/svg" viewBox="0 0 120 120"><title>icon-illustreretvidenskab</title><g id="Layer_1" data-name="Layer 1"><rect width="120" height="120" style="fill:none"/></g><g id="Layer_2" data-name="Layer 2"><path d="M34.42,52.74c0-.46.07-1.2-.42-1.4v0h2.13v0c-.48.2-.43.94-.43,1.4v3.83c0,.46-.05,1.2.43,1.39v0H34v0c.47-.18.42-.93.42-1.39Z" transform="translate(0 0)" style="fill:#555"/><path d="M50.16,57.31a2.16,2.16,0,0,1-1.79.83,2.18,2.18,0,0,1-2.43-2.71V52.72c0-.46.06-1.2-.43-1.39v0h2.14v0c-.48.2-.43.94-.43,1.4v2.71c0,1.35.43,1.86,1.43,1.86a1.39,1.39,0,0,0,1.3-.6,1.38,1.38,0,0,0,.16-.92v-3c0-.46.07-1.2-.43-1.4v0h2.14v0c-.49.2-.44.94-.44,1.4v3.83c0,.46,0,1.19.44,1.38v0H50.16Z" transform="translate(0 0)" style="fill:#555"/><path d="M56,52.39a1.93,1.93,0,0,0-1.38-.49c-.56,0-1.13.18-1.13.89,0,1.13,3.25,1.36,3.25,3.23a2.43,2.43,0,0,1-2.63,2.11,5.2,5.2,0,0,1-1.84-.32L52,56.55a3.39,3.39,0,0,0,2.09.72,1,1,0,0,0,1.2-.93c0-1.37-3.22-1.3-3.22-3.45,0-1.29,1.31-1.79,2.49-1.76a6,6,0,0,1,1.45.15Z" transform="translate(0 0)" style="fill:#555"/><path d="M59.46,56.66c0,.58,0,1,.51,1.29v0H57.76v0c.48-.2.43-.94.43-1.4V52h-.62a1.64,1.64,0,0,0-1.15.41h0l.35-1.2h0a1.63,1.63,0,0,0,.36.07h3.75a1.23,1.23,0,0,0,.44-.07h0L61,52.44h0c-.14-.36-.51-.41-.84-.41h-.69Z" transform="translate(0 0)" style="fill:#555"/><path d="M84.54,56.66c0,.58,0,1,.51,1.29v0H82.83v0c.48-.2.43-.94.43-1.4V52h-.71a1.66,1.66,0,0,0-1.15.41h0l.35-1.2h0a1.53,1.53,0,0,0,.36.07H86a1.2,1.2,0,0,0,.44-.07h0l-.31,1.2h0c-.13-.36-.51-.41-.84-.41h-.72v4.63" transform="translate(0 0)" style="fill:#555"/><path d="M70.91,51.26" transform="translate(0 0)" style="fill:#555"/><path d="M63.25,54.5V52l.66-.09a1.1,1.1,0,0,1,1.21,1.12c0,.94-1.1,1.32-1.87,1.45m8.51,2.15a2.35,2.35,0,0,1-1.79.59l-1.23-.12V54.73h.72c.3,0,.71,0,.86.28h0V53.94h0a1,1,0,0,1-.43.06H68.74V52.11a5.22,5.22,0,0,1,1-.06,1.27,1.27,0,0,1,1.14.41h0V51.28a1.27,1.27,0,0,1-.48,0H67v0c.44.2.44.93.44,1.4v3.81a3.3,3.3,0,0,1-.1,1,5.61,5.61,0,0,1-1-1l-1.46-1.79A1.85,1.85,0,0,0,66.46,53c0-.93-.86-1.68-2.16-1.68H61.56v0c.49.2.43.94.43,1.4v3.83c0,.46.06,1.2-.43,1.39v0H63.7v0c-.5-.18-.45-.92-.45-1.39V54.68l1,1.26,1.25,1.53a1.47,1.47,0,0,0,1.17.51h4.68l.44-1.33Z" transform="translate(0 0)" style="fill:#555"/><path d="M81.09,51.26" transform="translate(0 0)" style="fill:#555"/><path d="M73.44,54.5V52l.65-.09a1.11,1.11,0,0,1,1.22,1.12c0,.94-1.1,1.32-1.87,1.45M82,56.65a2.36,2.36,0,0,1-1.8.59l-1.23-.12V54.73h.73c.29,0,.7,0,.87.28h0V53.94h0a1,1,0,0,1-.43.06H78.94V52.11a5.27,5.27,0,0,1,1-.06,1.27,1.27,0,0,1,1.13.41h0V51.28a1.24,1.24,0,0,1-.47,0H77.23v0c.46.2.44.93.44,1.4v3.81a3.66,3.66,0,0,1-.09,1,5.62,5.62,0,0,1-1-1l-1.46-1.79A1.86,1.86,0,0,0,76.66,53c0-.93-.86-1.68-2.16-1.68H71.76v0c.49.2.43.94.43,1.4v3.83c0,.46.06,1.2-.43,1.39v0H73.9v0c-.5-.18-.45-.92-.45-1.39V54.68l1,1.26,1.25,1.53a1.47,1.47,0,0,0,1.17.51h4.68L82,56.65Z" transform="translate(0 0)" style="fill:#555"/><path d="M44,57.26a2.33,2.33,0,0,0,1.71-.63h0L45.18,58h-4v0c.5-.18.43-.94.43-1.38V52.74c0-.46.07-1.2-.43-1.4v0h2.14v0c-.49.2-.43.94-.43,1.4v4.42Z" transform="translate(0 0)" style="fill:#555"/><path d="M39.45,57.26a2.33,2.33,0,0,0,1.71-.63h0L40.68,58h-4v0c.5-.18.45-.94.45-1.38V52.74c0-.46.06-1.2-.45-1.4v0h2.14v0c-.49.2-.43.94-.43,1.4v4.42Z" transform="translate(0 0)" style="fill:#555"/><path d="M32.24,62.71c.38-1,.84-2.22,0-2.58v-.05h2.24L30.82,70c-1-.63-1.93-.79-2.34-1.93L26.39,62.2a4.33,4.33,0,0,0-1.07-2.07v-.05H27.8v.18a6.49,6.49,0,0,0,.37,1.35l2.21,6.29Z" transform="translate(0 0)" style="fill:#555"/><path d="M35.44,62.12c0-.66.1-1.73-.61-2v-.05h3.11v.05c-.69.28-.61,1.35-.61,2v5.45c0,.66-.08,1.71.61,2v0H34.83v0c.69-.26.61-1.33.61-2Z" transform="translate(0 0)" style="fill:#555"/><path d="M40.81,68.46a5.56,5.56,0,0,0,1,.1c2.06,0,3.82-1.14,3.82-3.63s-1.29-3.8-3.59-3.8a5.36,5.36,0,0,0-1.24.17v7.16Zm-1.87-6.39c0-.66.1-1.73-.61-1.94v-.05h4c3.16,0,5.11,1.79,5.11,4.67s-2.08,4.84-5.17,4.84h-4v0c.69-.49.61-1.18.61-2Z" transform="translate(0 0)" style="fill:#555"/><path d="M50.18,68.38l1.75.18a3.34,3.34,0,0,0,2.55-.86h0l-.62,1.89H47.68v0c.71-.26.62-1.33.62-2V62.1c0-.66.09-1.72-.62-2v0h4.89A1.74,1.74,0,0,0,53.3,60h0v1.69h0a2,2,0,0,0-1.71-.57,7.21,7.21,0,0,0-1.41.1v2.69h1.64a1.79,1.79,0,0,0,.67-.08h0v1.52h0c-.21-.42-.87-.41-1.3-.41h-1Z" transform="translate(0 0)" style="fill:#555"/><path d="M56.3,67.72c0,.8,0,1.4.73,1.84v0H54.51v0c.74-.44.74-1,.74-1.84V62c0-.8,0-1.38-.72-1.82v-.05h2.68v0a.8.8,0,0,0,.21.36l.2.3L61.94,67V62c0-.8,0-1.38-.73-1.82v-.05h2.5v.05c-.72.43-.72,1-.72,1.82v8.12a4.44,4.44,0,0,1-2.27-1.64l-4.4-6.3v5.59" transform="translate(0 0)" style="fill:#555"/><path d="M69.44,61.81a2.66,2.66,0,0,0-2-.91c-.79,0-1.71.32-1.71,1.32,0,1.72,4.48,2,4.48,4.63,0,1.54-1.61,3-3.77,3a6.09,6.09,0,0,1-2.32-.43l-.4-1.8a3.79,3.79,0,0,0,2.7,1.08c.79,0,1.82-.38,1.82-1.4,0-2-4.48-1.85-4.48-4.91,0-1.82,1.92-2.51,3.61-2.51a6.75,6.75,0,0,1,2,.31Z" transform="translate(0 0)" style="fill:#555"/><path d="M90.42,68.56l-1.08-.12V64.88l.85,0c1.22-.07,2.51.52,2.51,1.94a1.86,1.86,0,0,1-2.28,1.79m-1.1-7.48.82-.1a1.48,1.48,0,0,1,1.71,1.43c0,1.19-1.17,1.52-2.07,1.52h-.46Zm-9,3.8,1.33-3.57L83,64.88Zm11.76-.82a2.08,2.08,0,0,0,1.45-1.88c0-1.28-1.25-2.1-3.08-2.1H86.82v.05c.71.28.61,1.33.61,2v5.45c0,.59.07,1.48-.39,1.87a3.83,3.83,0,0,1-1.15-1.92L83,60.11H80.29v0c.65.22.39.82.21,1.35l-2.3,6a7.12,7.12,0,0,1-.3.72l-.11-.1L77.64,68l-3-3.79,3.32-4.08v0H75.26v0c.92.43-.12,1.33-.57,2l-1.78,2.36V62.15c0-.66-.08-1.72.62-2v0H70.41v0c.71.28.63,1.33.63,2v5.46c0,.65.08,1.72-.63,2v0h3.12v0c-.7-.28-.62-1.33-.62-2V64.85L76.15,69a2,2,0,0,0,1.56.62h1.77v0c-.66-.26-.56-.67-.28-1.49l.72-2h3.49l.79,2c.37,1,.44,1.16-.23,1.49v0H89.5a7.39,7.39,0,0,0,3.27-.44,2.91,2.91,0,0,0,1.66-2.53,2.73,2.73,0,0,0-2.35-2.61" transform="translate(0 0)" style="fill:#555"/><rect x="20" y="58.87" width="80" height="0.33" style="fill:#555"/><rect x="20" y="70.59" width="80" height="0.33" style="fill:#555"/><rect x="20" y="50.08" width="80" height="0.33" style="fill:#555"/></g></svg>