<svg xmlns="http://www.w3.org/2000/svg" viewBox="0 0 120 120"><title>icon-klim</title><g id="Layer_1" data-name="Layer 1"><rect width="120" height="120" style="fill:none"/></g><g id="Layer_2" data-name="Layer 2"><rect x="53.01" y="99.04" width="14.98" height="0.96" style="fill:#555"/><polygon points="50.89 78.8 49.31 78.8 45.59 85.38 45.59 78.8 44.03 78.8 44.03 92.42 45.59 92.42 45.59 87.85 46.41 86.5 49.41 92.42 51.01 92.42 47.35 85.01 50.89 78.8" style="fill:#555"/><polygon points="54.21 78.8 54.21 92.42 59.77 92.42 59.77 91.04 55.77 91.04 55.77 78.8 54.21 78.8" style="fill:#555"/><rect x="62.95" y="78.8" width="1.56" height="13.61" style="fill:#555"/><polygon points="72.57 89.67 70.27 78.8 68.09 78.8 68.09 92.42 69.45 92.42 69.45 81.56 71.77 92.4 73.27 92.4 75.49 81.47 75.49 92.42 76.97 92.42 76.97 78.8 74.79 78.8 72.57 89.67" style="fill:#555"/><path d="M60.5,20A26.09,26.09,0,1,0,86.59,46.09,26.09,26.09,0,0,0,60.5,20M73.73,62.15H63.86V60.76h1L59.72,50.65,58.58,52a1.58,1.58,0,0,0-.42,1v7.7h1v1.39H49.28V60.76h.93V32.19h-.92V30.84l.48,0a9.52,9.52,0,0,0,4-1.26,10.2,10.2,0,0,0,3.07-2.72l.16-.21h1.13V50.34L65.8,41.4H63.71V40h7V41.4H67.79l-.21.07-3,3.49,0,.32,7.78,15.17.47.31h.92Z" transform="translate(0 0)" style="fill:#555"/></g></svg>