<svg xmlns="http://www.w3.org/2000/svg" viewBox="0 0 120 120"><defs><style>.a{fill:none;}.b{fill:#fff;}</style></defs><title>logo-storytel-white</title><rect class="a" width="120" height="120"/><path class="b" d="M41.32,83.45S37.63,72,37.47,54.77C37.42,49.49,39.74,20,65.65,20c33.38.06,39.09,27.88,22.07,43.87C73,77.71,54.18,73,41.32,83.45"/><path class="b" d="M23.43,93.91a5.18,5.18,0,0,0,2.27.62c.79,0,1.12-.26,1.12-.69s-.26-.66-1.23-1c-1.76-.58-2.43-1.53-2.41-2.54,0-1.58,1.34-2.77,3.43-2.77A5.61,5.61,0,0,1,29,88l-.45,1.81a4.19,4.19,0,0,0-1.83-.48c-.64,0-1,.26-1,.67s.32.62,1.36,1c1.61.56,2.26,1.39,2.28,2.61,0,1.59-1.23,2.74-3.64,2.74a5.88,5.88,0,0,1-2.73-.6Z"/><path class="b" d="M33.48,85.46v2.28h1.88v1.94H33.48v3c0,1,.25,1.49,1,1.49a3.43,3.43,0,0,0,.78-.07v2a5.39,5.39,0,0,1-1.69.23,2.79,2.79,0,0,1-2-.73,3.47,3.47,0,0,1-.73-2.5v-7Z"/><path class="b" d="M39,92c0,1.45.6,2.53,1.72,2.53s1.68-1,1.68-2.55c0-1.24-.49-2.52-1.68-2.52S39,90.71,39,92m6.11-.09a4.24,4.24,0,0,1-3.94,4.5,4.34,4.34,0,0,1-.51,0,4.12,4.12,0,0,1-4.35-3.89,4.51,4.51,0,0,1,0-.52,4.21,4.21,0,0,1,3.93-4.49,3.87,3.87,0,0,1,.59,0,4.1,4.1,0,0,1,4.3,3.89,3.23,3.23,0,0,1,0,.44"/><path class="b" d="M46.75,90.52c0-1.24,0-2-.07-2.78h2.25L49,89.3h.07a2.45,2.45,0,0,1,2.28-1.76,2.53,2.53,0,0,1,.55,0V90a3.35,3.35,0,0,0-.71-.07,1.68,1.68,0,0,0-1.79,1.33,2.81,2.81,0,0,0,0,.58v4.29H46.75Z"/><path class="b" d="M55.59,87.74l1.26,4.16c.14.49.31,1.13.42,1.57h.06c.11-.46.25-1.08.37-1.58l1-4.15h2.8l-2,5.56c-1.21,3.37-2,4.7-3,5.54A4.58,4.58,0,0,1,54.09,100l-.57-2.21a4,4,0,0,0,1.14-.45,3.07,3.07,0,0,0,1.09-1,.82.82,0,0,0,.13-.38,1,1,0,0,0-.1-.43l-3.11-7.74Z"/><path class="b" d="M65.59,85.46v2.28h1.88v1.94H65.59v3c0,1,.26,1.49,1,1.49a3.43,3.43,0,0,0,.78-.07v2a5.72,5.72,0,0,1-1.7.23,2.79,2.79,0,0,1-2-.73,3.47,3.47,0,0,1-.73-2.5v-7Z"/><path class="b" d="M74,91a1.52,1.52,0,0,0-1.32-1.7h-.16A1.72,1.72,0,0,0,70.91,91Zm-3.08,1.8c.07,1.09,1.16,1.61,2.38,1.61A6.89,6.89,0,0,0,75.63,94L76,95.82a8,8,0,0,1-3.06.54c-2.86,0-4.5-1.66-4.5-4.3a4.23,4.23,0,0,1,3.94-4.5h.32c2.73,0,3.77,2.13,3.77,4.22a5.55,5.55,0,0,1-.09,1Z"/><polygon class="b" points="78.02 96.19 80.64 96.19 80.64 84.33 78.02 85.05 78.02 96.19"/></svg>