<svg xmlns="http://www.w3.org/2000/svg" viewBox="0 0 120 120"><title>icon-peoplespress</title><g id="Layer_1" data-name="Layer 1"><rect width="120" height="120" style="fill:none"/></g><g id="Layer_2" data-name="Layer 2"><path d="M29.45,59.82c.07-.67.46-1.19,1.09-1.19a1.18,1.18,0,0,1,1.18,1.19Zm1.18-2.7c-1.68,0-2.95,1.43-2.95,3.45S28.89,64,30.79,64A3.09,3.09,0,0,0,33.16,63l-1.24-1a1.46,1.46,0,0,1-1.13.47,1.27,1.27,0,0,1-1.36-1.25h4c0-.13,0-.3,0-.56,0-1.89-1-3.45-2.78-3.45" transform="translate(0 0)" style="fill:#555"/><path d="M23.82,59H21.77V56.77h2c.78,0,1.28.35,1.28,1.12S24.64,59,23.82,59m0-4H20v8.82h1.77V60.75h1.94c1.82,0,3.19-.85,3.19-2.9a2.73,2.73,0,0,0-3-2.79" transform="translate(0 0)" style="fill:#555"/><path d="M37.44,62.34c-.83,0-1.22-.75-1.22-1.77s.39-1.77,1.22-1.77,1.24.77,1.24,1.77-.41,1.77-1.24,1.77m0-5.22c-1.72,0-3,1.43-3,3.45s1.27,3.44,3,3.44,3-1.4,3-3.44-1.27-3.45-3-3.45" transform="translate(0 0)" style="fill:#555"/><path d="M44.46,62.38a1.41,1.41,0,0,1-1.17-.57v-2.5a1.23,1.23,0,0,1,1.07-.55c.68,0,1.14.57,1.14,1.93,0,1.11-.37,1.69-1,1.69m.23-5.26a2,2,0,0,0-1.4.56v-.42H41.55v9.05l1.74-.87V63.5a2.1,2.1,0,0,0,1.4.51c1.64,0,2.57-1.38,2.57-3.36,0-2.47-1.16-3.53-2.57-3.53" transform="translate(0 0)" style="fill:#555"/><path d="M53.37,59.82a1.16,1.16,0,0,1,1.09-1.19,1.18,1.18,0,0,1,1.18,1.19Zm1.17-2.7c-1.67,0-2.94,1.43-2.94,3.45S52.81,64,54.71,64A3.09,3.09,0,0,0,57.08,63l-1.24-1a1.46,1.46,0,0,1-1.13.47,1.27,1.27,0,0,1-1.36-1.25h4c0-.13,0-.3,0-.56,0-1.89-1-3.45-2.79-3.45" transform="translate(0 0)" style="fill:#555"/><polygon points="50.39 54.69 48.65 55.56 48.65 63.88 50.39 63.88 50.39 54.69" style="fill:#555"/><path d="M78.27,57.7v-.44H76.53v6.62h1.74V60.3c0-1.15.44-1.44,1.12-1.44a1.52,1.52,0,0,1,1,.43l.45-1.7a1.7,1.7,0,0,0-1.22-.47,1.8,1.8,0,0,0-1.36.58" transform="translate(0 0)" style="fill:#555"/><path d="M83.13,59.82c.06-.67.45-1.19,1.08-1.19a1.19,1.19,0,0,1,1.19,1.19Zm1.17-2.7c-1.68,0-3,1.43-3,3.45S82.56,64,84.46,64A3.09,3.09,0,0,0,86.83,63l-1.23-1a1.5,1.5,0,0,1-1.14.47,1.28,1.28,0,0,1-1.36-1.25h4c0-.13,0-.3,0-.56,0-1.89-1-3.45-2.79-3.45" transform="translate(0 0)" style="fill:#555"/><path d="M91.22,59.81c-1.18-.38-1.38-.49-1.38-.77s.19-.43.9-.43a4.36,4.36,0,0,1,1.93.53l.55-1.38a5.28,5.28,0,0,0-2.44-.64c-1.56,0-2.65.59-2.65,2s1,1.79,2.61,2.27c.73.21,1,.36,1,.67s-.2.5-.88.5a4.55,4.55,0,0,1-2.3-.61L88,63.25a5.27,5.27,0,0,0,2.77.77c1.49,0,2.7-.55,2.7-2.07,0-1.32-1-1.75-2.2-2.14" transform="translate(0 0)" style="fill:#555"/><path d="M97.79,59.81c-1.17-.38-1.37-.49-1.37-.77s.19-.43.9-.43a4.29,4.29,0,0,1,1.92.53l.56-1.38a5.29,5.29,0,0,0-2.45-.64c-1.55,0-2.65.59-2.65,2s1,1.79,2.62,2.27c.73.21,1,.36,1,.67s-.19.5-.88.5a4.54,4.54,0,0,1-2.29-.61l-.58,1.33A5.27,5.27,0,0,0,97.3,64c1.49,0,2.7-.55,2.7-2.07,0-1.32-1-1.75-2.21-2.14" transform="translate(0 0)" style="fill:#555"/><path d="M72.08,59H70V56.77h2c.79,0,1.29.35,1.29,1.12S72.9,59,72.08,59m0-4H68.26v8.82H70V60.75h2c1.82,0,3.18-.85,3.18-2.9a2.73,2.73,0,0,0-3-2.79" transform="translate(0 0)" style="fill:#555"/><polygon points="58.63 55.05 58.45 58.59 59.65 58.59 60.68 55.05 58.63 55.05" style="fill:#555"/><path d="M64.38,59.81C63.21,59.43,63,59.32,63,59s.19-.43.89-.43a4.3,4.3,0,0,1,1.93.53l.56-1.38a5.32,5.32,0,0,0-2.45-.64c-1.55,0-2.65.59-2.65,2s1,1.79,2.61,2.27c.73.21,1,.36,1,.67s-.2.5-.88.5a4.51,4.51,0,0,1-2.29-.61l-.58,1.33a5.22,5.22,0,0,0,2.77.77c1.49,0,2.7-.55,2.7-2.07,0-1.32-1-1.75-2.21-2.14" transform="translate(0 0)" style="fill:#555"/></g></svg>