<svg xmlns="http://www.w3.org/2000/svg" viewBox="0 0 120 120"><title>icon-saxo</title><g id="Layer_1" data-name="Layer 1"><rect width="120" height="120" style="fill:none"/></g><g id="Layer_2" data-name="Layer 2"><rect x="20" y="54.17" width="35.29" height="11.66" style="fill:#555"/><path d="M25,61h1a2.14,2.14,0,0,0,1.85.94c.43,0,.63-.17.63-.45s-.27-.53-1.38-.79c-1.33-.32-2-.72-2-1.72a1.86,1.86,0,0,1,2.06-1.76,2.51,2.51,0,0,1,1.91.68V57.2h1v1.7h-1A2,2,0,0,0,27.43,58c-.47,0-.62.19-.62.45s.29.46,1.35.72,2.09.66,2.09,1.77-.75,1.79-2.14,1.79A2.54,2.54,0,0,1,26,62v.73H25Z" transform="translate(0 0)" style="fill:#f5fafa"/><path d="M47.16,62c-.66,0-1-.53-1-2s.36-2,1-2,1,.53,1,2-.37,2-1,2m0-4.74A2.8,2.8,0,1,0,50.25,60a2.88,2.88,0,0,0-3.09-2.78" transform="translate(0 0)" style="fill:#f5fafa"/><path d="M34.13,60.69c0,.69-.31,1-.75,1a.59.59,0,0,1-.64-.62c0-.38.23-.72.87-.84a4.92,4.92,0,0,0,.51-.1Zm2.32,1.09H36V59.17c0-1.1-.51-2-2.28-2-1.17,0-2.67.33-2.67,1.42a.91.91,0,0,0,1.81,0,.89.89,0,0,0-.3-.67,1.75,1.75,0,0,1,.46,0A1,1,0,0,1,34.13,59v.6a4.39,4.39,0,0,0-2.92.83,1.26,1.26,0,0,0-.37.9A1.49,1.49,0,0,0,32.5,62.8a2,2,0,0,0,1.79-.94h.05v.94h2.11Z" transform="translate(0 0)" style="fill:#f5fafa"/><polygon points="43.79 61.78 43.11 61.78 41.5 59.9 43.19 58.22 43.79 58.22 43.79 57.21 41.22 57.21 41.22 58.22 41.93 58.22 40.92 59.23 40.07 58.22 40.65 58.22 40.65 57.21 37.03 57.21 37.03 58.22 37.78 58.22 39.35 60.07 37.63 61.78 37.03 61.78 37.03 62.78 39.61 62.78 39.61 61.78 38.88 61.78 39.93 60.74 40.82 61.78 40.17 61.78 40.17 62.78 43.79 62.78 43.79 61.78" style="fill:#f5fafa"/><path d="M64.71,60c0-1.34-.7-2.36-1.94-2.36a2.24,2.24,0,0,0-1.82,1v2.73a2.28,2.28,0,0,0,1.82,1c1.24,0,1.94-1,1.94-2.37ZM61,61.86v3h-.59V57.22H61v.87a2.38,2.38,0,0,1,1.93-1c1.47,0,2.47,1.13,2.47,2.9s-1,2.91-2.47,2.91a2.36,2.36,0,0,1-1.93-1" transform="translate(0 0)" style="fill:#555"/><path d="M66.54,62.76V57.22h.6v1A2.38,2.38,0,0,1,69,57.1v.66l-.3,0a2.12,2.12,0,0,0-1.57,1v4Z" transform="translate(0 0)" style="fill:#555"/><path d="M72.2,57.6a2.08,2.08,0,0,0-2,2.11h4a2,2,0,0,0-2-2.11ZM69.55,60a2.75,2.75,0,0,1,2.67-2.9A2.66,2.66,0,0,1,74.83,60v.16H70.2a2.16,2.16,0,0,0,2.17,2.2,2.44,2.44,0,0,0,1.81-.77l.31.39a2.87,2.87,0,0,1-2.17.89A2.73,2.73,0,0,1,69.55,60" transform="translate(0 0)" style="fill:#555"/><path d="M82.64,62.76V58.88c0-.78-.33-1.26-1.11-1.26a2.07,2.07,0,0,0-1.58.94v4.19h-.6V58.88c0-.78-.32-1.26-1.11-1.26a2.12,2.12,0,0,0-1.58,1v4.18h-.6V57.22h.6v.84a2.44,2.44,0,0,1,1.79-1,1.39,1.39,0,0,1,1.45,1,2.31,2.31,0,0,1,1.83-1c1,0,1.52.57,1.52,1.68v4Z" transform="translate(0 0)" style="fill:#555"/><path d="M84.79,57.22h.59v5.54h-.59Zm-.16-1.33a.46.46,0,0,1,.91,0h0a.46.46,0,1,1-.91,0" transform="translate(0 0)" style="fill:#555"/><path d="M90.66,62.76v-.82a2.8,2.8,0,0,1-2,1c-1.14,0-1.74-.53-1.74-1.78V57.22h.59V61c0,1.08.54,1.37,1.34,1.37a2.4,2.4,0,0,0,1.8-.91V57.22h.6v5.54Z" transform="translate(0 0)" style="fill:#555"/><path d="M99.4,62.76V58.88c0-.78-.34-1.26-1.12-1.26a2,2,0,0,0-1.57.94v4.19H96.1V58.88c0-.78-.32-1.26-1.11-1.26a2.12,2.12,0,0,0-1.58,1v4.18h-.59V57.22h.59v.84a2.46,2.46,0,0,1,1.79-1,1.38,1.38,0,0,1,1.45,1,2.33,2.33,0,0,1,1.84-1c1,0,1.51.57,1.51,1.68v4Z" transform="translate(0 0)" style="fill:#555"/></g></svg>