<?xml version="1.0" encoding="utf-8"?>
<!-- Generator: Adobe Illustrator 19.2.1, SVG Export Plug-In . SVG Version: 6.00 Build 0)  -->
<svg version="1.1" id="Lag_1" xmlns="http://www.w3.org/2000/svg" xmlns:xlink="http://www.w3.org/1999/xlink" x="0px" y="0px"
	 viewBox="0 0 120 120" style="enable-background:new 0 0 120 120;" xml:space="preserve">
<style type="text/css">
	.st0{fill:#555555;}
</style>
<g id="logo-with-text">
	<g id="logo-with-text-2" transform="translate(-200.644 589.478)">
		<g id="g12" transform="translate(200.644 -589.478)">
			<g id="Group_1" transform="translate(0 0)">
				<g id="g20" transform="translate(31.891 35.834)">
					<path id="path22" class="st0" d="M14.4,36.9c0.3,0.1,0.6-0.1,0.7-0.4l0.2-0.8c0.1-0.3-0.1-0.6-0.4-0.7
						c-0.3-0.1-0.6,0.1-0.6,0.4c-0.1,0.2-0.1,0.5-0.2,0.8C13.9,36.5,14.1,36.8,14.4,36.9C14.4,36.9,14.4,36.9,14.4,36.9"/>
				</g>
				<g id="g24" transform="translate(67.107 25.795)">
					<path id="path26" class="st0" d="M14,35c0,0.1,0.1,0.2,0.1,0.3c0,0,0,0,0,0C14.1,35.2,14,35.1,14,35"/>
				</g>
				<g id="g28" transform="translate(73.669 35.274)">
					<path id="path30" class="st0" d="M15.6,35c-0.3,1.2-0.8,2.3-1.6,3.3C14.9,37.4,15.4,36.2,15.6,35"/>
				</g>
				<g id="g32" transform="translate(70.139 39.343)">
					<path id="path34" class="st0" d="M15,36.7c-0.3,0.2-0.6,0.3-1,0.4l0.3,1.1c1.7-0.6,3.1-1.8,4-3.2C17.4,35.9,16.2,36.5,15,36.7"
						/>
				</g>
				<g id="g36" transform="translate(65.431 8.675)">
					<path id="path38" class="st0" d="M18.1,36.1c-1.4,1.4-2.2,3.3-2.2,5.3c0,1.8,0.2,2.3,0.4,2.6c0,0.1,0,0.1,0.1,0.2
						c0,0.6-0.9,2-1.5,2.9c-0.6,0.9-0.9,1.4-0.9,1.7c0,0.1,0,0.1,0,0.2c0.2,0.5,0.8,0.9,1.4,1.2l0.2,0.1c0,0.1,0,0.2,0,0.3
						c0,0.3-0.1,0.5-0.1,0.8c0,0.2,0,0.4,0.1,0.6c0,0.1,0.1,0.2,0.2,0.3c0,0,0,0,0,0c-0.1,0.1-0.2,0.3-0.2,0.5c0,0.1,0,0.2,0.1,0.3
						c0.2,0.3,0.4,0.6,0.7,0.8c0.1,0.1,0.1,0.1,0.2,0.2c0,0.2,0,0.4,0,0.7c0,0.3-0.1,0.6-0.1,1c0,0.2,0,0.4,0.1,0.6
						c0.1,0.4,0.4,0.7,0.7,0.8c0.9,0.4,1.9,0.5,2.9,0.4c2-0.1,2.9,0.4,3.3,1c0.2,0.4,0.4,0.9,0.3,1.3c0,0.5-0.1,1-0.2,1.5
						c-0.2,1.2-0.7,2.4-1.6,3.3c-0.7,1-1.5,1.9-2.6,2.5c1.3-0.2,2.5-0.8,3.4-1.7c0.8-1.2,1.5-2.4,1.8-3.8c0.1-0.6,0.2-1.3,0.2-1.9
						c0-0.7-0.2-1.3-0.5-1.9c-0.5-0.8-1.7-1.6-4.3-1.5c-0.8,0.1-1.6,0-2.3-0.3c-0.1,0-0.1-0.1-0.2-0.2c0,0,0-0.1,0-0.1
						c0-0.3,0-0.6,0-0.8c0-0.3,0.1-0.7,0.1-1c0-0.1,0-0.2-0.1-0.3c-0.1-0.3-0.3-0.5-0.6-0.7L17,53l-0.1-0.1c0.2-0.2,0.3-0.4,0.3-0.6
						c0-0.1,0-0.2,0-0.2c-0.1-0.2-0.3-0.3-0.4-0.3c0,0,0,0,0-0.1c0,0,0,0,0,0c0-0.1,0-0.4,0.1-0.7c0-0.2,0.1-0.5,0.1-0.7
						c0-0.1,0-0.2-0.1-0.3c-0.1-0.3-0.4-0.4-0.8-0.6c-0.3-0.1-0.5-0.3-0.8-0.4c0,0,0,0-0.1,0c0.1-0.2,0.4-0.7,0.7-1.1
						c1-1.4,1.7-2.6,1.7-3.5c0-0.3-0.1-0.5-0.2-0.8c-0.1-0.1-0.2-0.4-0.3-2.1c0-1.7,0.7-3.3,1.9-4.5C20.6,35.1,20.1,34.1,18.1,36.1"
						/>
				</g>
				<g id="g40">
					<path id="path42" class="st0" d="M15,43.7v-6.5c0-0.7,0.6-1.3,1.3-1.3h86.6c0.7,0,1.3,0.6,1.3,1.3v6.5h1v-6.5
						c0-1.2-1-2.2-2.2-2.2H16.2C15,35,14,36,14,37.2v6.5L15,43.7z"/>
				</g>
				<g id="g44" transform="translate(0 41.298)">
					<path id="path46" class="st0" d="M23.3,42.7h-7.1c-0.7,0-1.3-0.6-1.3-1.3V35h-1v6.5c0,1.2,1,2.2,2.2,2.2h7.1L23.3,42.7z"/>
				</g>
				<g id="g48" transform="translate(81.791 41.298)">
					<path id="path50" class="st0" d="M22.3,35v6.5c0,0.7-0.6,1.3-1.3,1.3H14v1h7.1c1.2,0,2.2-1,2.2-2.2V35H22.3z"/>
				</g>
				<g id="g52" transform="translate(26.225 39.553)">
					<path id="path54" class="st0" d="M14,35.2L14,35.2c0-0.1,0-0.1,0-0.2C14,35,14,35.1,14,35.2"/>
				</g>
				<g id="g56" transform="translate(56.033 45.253)">
					<path id="path58" class="st0" d="M14.2,35c-0.1,0.1-0.1,0.2-0.2,0.2C14.1,35.2,14.1,35.1,14.2,35"/>
				</g>
				<g id="g60" transform="translate(56.26 44.333)">
					<path id="path62" class="st0" d="M14,35.9c0.3-0.3,0.5-0.6,0.7-0.9v0C14.5,35.3,14.3,35.6,14,35.9"/>
				</g>
				<g id="g64" transform="translate(55.991 45.478)">
					<path id="path66" class="st0" d="M14,35L14,35L14,35L14,35z"/>
				</g>
				<g id="g68" transform="translate(56.244 45.235)">
					<path id="path70" class="st0" d="M14,35L14,35L14,35z"/>
				</g>
				<g id="g72" transform="translate(52.811 30.674)">
					<path id="path74" class="st0" d="M16.7,36.2c0.3,1-0.7,4.6-2.5,7.7c-0.1,1-0.2,1.8-0.2,2.5c1.1-1.8,2-3.5,2.1-3.8
						c0.3-0.7,0.6-1.3,0.8-2c2-5.7-0.1-6.1-1.1-5.1c-0.1,0.2-0.3,0.3-0.4,0.5c-0.5,2.5-0.9,4.7-1.1,6.5C15,39.4,16,36.9,16.7,36.2"
						/>
				</g>
				<g id="g76" transform="translate(51.603 43.817)">
					<path id="path78" class="st0" d="M14,35L14,35L14,35L14,35L14,35z"/>
				</g>
				<g id="g80" transform="translate(24.92 30.674)">
					<path id="path82" class="st0" d="M55,49c-1.7,2.9-3.3-1.3-1.3-3.9c0.3,0.8,1,1.4,1.7,1.7C55.6,47.5,55.4,48.3,55,49 M29.4,46.7
						c-1.7,0.6-3.2,1.5-4.4,2.7c0-0.1,0-0.3,0-0.5c0.3-2.9,3.9-4.9,4.6-4.2C29.9,45.1,29.6,46.2,29.4,46.7 M25.3,50.7
						c-0.6-0.3,1.4-1.5,3.5-2.6C28,49.7,26.4,50.9,25.3,50.7 M28.1,36.2c0.3,1.1-0.7,4.8-2.6,7.9C26,40.3,27.2,37,28.1,36.2
						 M15.3,43.9c0.6-3.7,1.8-6.9,2.6-7.7c0.3,1.1-0.7,4.8-2.6,7.8l0,0C15.3,44,15.3,43.9,15.3,43.9 M36.7,44.8
						c0.2,0.6-1.1,1.6-2.5,1.9C35.1,44.6,36.6,44.3,36.7,44.8 M42.1,43.2L42.1,43.2c0.1-0.3,0.1-0.6,0.2-0.8c0.6-3,1.6-5.5,2.3-6.2
						c0.3,1-0.7,4.6-2.5,7.7C42,43.9,42,44,42,44C42,43.8,42,43.5,42.1,43.2 M50.3,36.2c0.3,1.1-0.7,4.8-2.6,7.9
						C48.3,40.3,49.5,37,50.3,36.2 M60.1,46.2c-0.1-0.3-0.4-0.5-0.7-0.4c-0.9,0.3-1.9,0.3-2.9,0.1c-0.2-1-1.1-2.5-2.2-2.3
						c-0.2-0.1-0.5-0.1-0.7,0c-0.7,0.6-1.3,1.4-1.6,2.4c0,0-0.1,0.1-0.1,0.1c-0.9,1.7-2.3,3.5-3.1,3.8c-0.1,0.1-0.3,0.1-0.4,0
						c-0.3-0.2-0.9-0.5-0.9-2.7c0-0.2,0-0.3,0-0.5c1.2-1.9,2.2-3.8,2.3-4c0.3-0.7,0.6-1.3,0.8-2c2-5.7-0.1-6.1-1.1-5.1
						c-0.2,0.3-0.5,0.6-0.6,0.9c-0.8,1.5-1.3,3.2-1.7,4.9c-0.3,1.2-0.5,2.2-0.7,3.2c-0.1,0.7-0.2,1.3-0.3,2c-0.3,0.5-0.6,1-1,1.5
						c-0.1,0.1-0.1,0.2-0.2,0.2c-0.5,0.7-1.1,1.3-1.8,1.7c-0.1,0-0.2,0.1-0.2,0.1c-0.5,0-1.3-0.6-1.3-2.8c0-0.2,0-0.3,0-0.5l0.2-0.3
						l0,0l0,0c1.1-1.8,2-3.5,2.1-3.8c0.3-0.7,0.6-1.3,0.8-2c2-5.7-0.1-6.1-1.1-5.1c-0.1,0.2-0.3,0.3-0.4,0.5l0,0l0,0
						c0,0-0.1,0.1-0.1,0.2c0,0,0,0.1-0.1,0.1s-0.1,0.1-0.1,0.1c0,0.1-0.1,0.2-0.1,0.3v0c0,0.1-0.1,0.2-0.1,0.2l0,0
						c0,0.1-0.1,0.1-0.1,0.2l0,0.1c0,0.1-0.1,0.1-0.1,0.2l0,0.1c0,0.1-0.1,0.2-0.1,0.2l0,0.1c0,0.1-0.1,0.2-0.1,0.3l0,0
						c-0.1,0.2-0.2,0.4-0.2,0.7l0,0.1c0,0.1-0.1,0.2-0.1,0.3l0,0.1c0,0.1,0,0.2-0.1,0.2l0,0.1c0,0.1,0,0.2-0.1,0.2l0,0.1
						c0,0.1,0,0.2-0.1,0.2c0,0.1,0,0.1,0,0.1c0,0.1,0,0.2-0.1,0.3c0,0,0,0.1,0,0.1c0,0.1-0.1,0.3-0.1,0.4c0,0.2-0.1,0.4-0.1,0.6
						l0,0.1c0,0.2-0.1,0.4-0.1,0.6c0,0,0,0,0,0c0,0,0,0,0,0c-0.1,0.7-0.3,1.3-0.4,1.9c-0.1,0.7-0.2,1.3-0.3,2
						c-0.3,0.5-0.5,0.9-0.8,1.3c0,0-0.1,0.1-0.1,0.1c-0.5,0.6-1.1,1.1-1.8,1.5c-1.6,0.9-4.3,1-3.9-1.5c1.9-0.2,4.3-1.7,3.9-3.3
						c-0.2-1-1.7-1.6-3.3-0.1c-0.4,0.4-0.8,0.9-1.1,1.4c-0.9,0-1.8,0.2-2.7,0.4c0.7-3-1.8-3.6-4.3-1.6c0.8-1.3,1.5-2.7,2-4.1
						c2-5.7-0.1-6.1-1.1-5.1c-0.8,0.8-1.7,3.1-2.3,5.8c-0.4,1.7-0.8,3.4-1,5.2c-1.2,2.1-2.7,3.8-3.4,3.4c-0.8-0.5,0.5-4.7,0.8-5.6
						c0.1-0.3-0.1-0.6-0.4-0.7c-0.3-0.1-0.6,0.1-0.7,0.4c-0.2,0.7-0.4,1.4-0.6,2.1c0,0,0,0,0,0c-1.1,2-2.8,4.2-3.6,3.7
						c-0.3-0.2-0.9-0.5-0.9-2.7c0-0.2,0-0.4,0-0.6c1.1-1.9,2.1-3.7,2.2-3.9c0.3-0.7,0.6-1.3,0.8-2c2-5.7-0.1-6.1-1.1-5.1
						c-0.2,0.2-0.4,0.5-0.5,0.7c-0.8,1.6-1.5,3.3-1.8,5.1c-0.2,0.9-0.4,1.6-0.5,2.4c-0.3,1.5-0.3,3-0.1,4.4c0.2,1.8,0.8,3,2.1,3
						c1,0,2.1-1,2.9-2.2c-0.1,0.8,0.2,1.5,0.8,2c1.3,0.7,2.7-0.6,3.8-2.2c0,0.6,0,1.3,0,2.1c0,0.2,0.4,0.5,0.8,0.7
						c0.6,0.2,1.3,0.3,2,0c1.4-0.5,2.5-1.5,3.1-2.8c0.2-0.4,0.4-0.8,0.5-1.1c0.9-0.3,1.7-0.5,2.6-0.6c-0.6,2,0,4.1,2.8,4.1
						c1.3,0,2.6-0.5,3.6-1.4c0.5-0.4,1-0.9,1.4-1.4l0,0l0,0l0,0c0-0.1,0.1-0.1,0.1-0.2c0.2,1.7,0.7,2.9,1.9,3c0.1,0,0.2,0,0.3,0
						c0.1,0,0.2,0,0.3,0c0.7-0.2,1.3-0.6,1.8-1.1l0,0c0.1-0.1,0.1-0.1,0.2-0.2l0,0c0.3-0.3,0.5-0.6,0.7-0.9v0
						c0.1-0.2,0.3-0.4,0.4-0.5c0,0,0,0,0,0c0.2,1.7,0.8,2.8,2,2.9c0,0,0.1,0,0.1,0c1.1,0,2.3-1.2,3.2-2.5c0.3,2.6,2.8,3.5,4.3,1
						c0.4-0.7,0.6-1.6,0.7-2.4c1,0.1,2,0.1,3-0.2C59.9,46.8,60.1,46.5,60.1,46.2"/>
				</g>
				<g id="g84" transform="translate(15.412 32.044)">
					<path id="path86" class="st0" d="M14,36.5c0,0.7,0.1,1.3,0.2,2c0-0.7,0-1.4,0-2.2c0-0.5,0.1-0.9,0.4-1.4
						C14.1,35.4,14,36,14,36.5"/>
				</g>
				<g id="g88" transform="translate(23.506 25.999)">
					<path id="path90" class="st0" d="M14.2,35.3c0-0.1-0.1-0.2-0.1-0.3l0,0C14.1,35.1,14.1,35.2,14.2,35.3"/>
				</g>
				<g id="g92" transform="translate(20.014 10.037)">
					<path id="path94" class="st0" d="M14,35c0.2,0.2,0.4,0.5,0.6,0.7c0.6,0.6,1,1.2,1.3,2c-0.3-0.8-0.8-1.6-1.4-2.2
						C14.3,35.3,14.2,35.1,14,35"/>
				</g>
				<g id="g96" transform="translate(22.669 27.753)">
					<path id="path98" class="st0" d="M14,35.7c0,0.3,0.1,0.6,0.1,1c0,0,0,0.1,0,0.1c0-0.1,0-0.1,0-0.2C14.1,36.3,14.1,36,14,35.7
						c0-0.3,0-0.5,0-0.7l0,0C14,35.3,14,35.5,14,35.7"/>
				</g>
				<g id="g100" transform="translate(22.974 15.137)">
					<path id="path102" class="st0" d="M14,37.8c0,0,0,0.1,0,0.1c0-0.2,0-0.2,0.1-0.3c0.2-0.3,0.4-0.7,0.4-2.5c0,0,0,0,0-0.1
						c0,1.8-0.2,2.2-0.4,2.5C14,37.6,14,37.6,14,37.8"/>
				</g>
				<g id="g104" transform="translate(15.85 29.682)">
					<path id="path106" class="st0" d="M17.2,35.5c0.8,0.1,1.6,0,2.3-0.3c0.1,0,0.2-0.1,0.2-0.2c0,0-0.1,0.1-0.1,0.1
						c-0.7,0.3-1.5,0.4-2.3,0.3c-1.2-0.1-2.3,0.1-3.3,0.7C15,35.6,16.1,35.4,17.2,35.5"/>
				</g>
				<g id="g108" transform="translate(14.611 36.088)">
					<path id="path110" class="st0" d="M26.3,38.5c-0.2-0.1-0.6,0-0.7,0.2c0,0,0,0,0,0c0,0-1,1.8-1.9,3.1c-1.9,2.8-3.8,4.1-5.1,3.7
						c-1.6-0.5-2.8-3.4-3.3-7.8c-0.6-0.8-1-1.7-1.2-2.7c0.3,6.6,1.8,10.7,4.3,11.5c0.3,0.1,0.6,0.1,0.9,0.1c1.7,0,3.5-1.4,5.4-4.2
						c1-1.4,1.9-3.2,2-3.2C26.6,38.9,26.5,38.6,26.3,38.5C26.3,38.5,26.3,38.5,26.3,38.5"/>
				</g>
				<g id="g112" transform="translate(22.681 26.341)">
					<path id="path114" class="st0" d="M14.3,36.1c-0.1,0.1-0.2,0.2-0.3,0.2c0,0,0,0,0,0.1C14.1,36.3,14.2,36.3,14.3,36.1
						c0.4-0.2,0.7-0.5,0.7-0.9c0-0.1,0-0.1,0-0.2c0,0,0,0.1,0,0.1C15,35.5,14.6,35.8,14.3,36.1"/>
				</g>
				<g id="g116" transform="translate(22.98 17.998)">
					<path id="path118" class="st0" d="M15.5,37.8c0.6,0.9,0.9,1.3,0.9,1.7c0,0.6-0.8,1-1.4,1.3c-0.1,0-0.2,0.1-0.3,0.1
						c0,0.1,0,0.2,0,0.3c0,0.3,0.1,0.5,0.1,0.8c0,0.3-0.1,0.6-0.3,0.8c0,0,0,0,0,0c0.2-0.2,0.3-0.5,0.3-0.8c0-0.3,0-0.6-0.1-0.8
						c0-0.1,0-0.2,0-0.3c0.1,0,0.2-0.1,0.3-0.1c0.7-0.3,1.4-0.7,1.5-1.4C16.4,39.1,16.1,38.7,15.5,37.8C14.8,36.9,14.3,36,14,35l0,0
						C14,35.6,14.9,37,15.5,37.8"/>
				</g>
				<g id="g120" transform="translate(21.581 12.692)">
					<path id="path122" class="st0" d="M14.2,51.6c0-0.3,0-0.6,0-0.8c0-0.3-0.1-0.7-0.1-1c0-0.3,0.3-0.5,0.6-0.8
						c0.1-0.1,0.1-0.1,0.2-0.2c-0.2-0.1-0.3-0.4-0.3-0.6c0-0.3,0.2-0.6,0.5-0.6l0,0c0,0,0-0.1,0-0.1c0-0.1,0-0.4-0.1-0.6
						c0-0.2-0.1-0.5-0.1-0.7c0-0.4,0.3-0.5,0.8-0.8c0.3-0.1,0.6-0.3,0.8-0.5c-0.2-0.4-0.4-0.7-0.7-1.1c-0.8-1.2-1.7-2.5-1.6-3.4
						c0-0.3,0.1-0.5,0.2-0.7c0.1-0.1,0.2-0.4,0.3-2.1c0-0.9-0.1-1.7-0.5-2.5c0.3,0.7,0.4,1.5,0.4,2.3c0,1.7-0.2,2-0.3,2.1
						c-0.1,0.2-0.2,0.5-0.2,0.8c0,0.9,0.7,2.1,1.7,3.5c0.2,0.4,0.6,0.8,0.7,1.1c-0.3,0.2-0.5,0.3-0.8,0.5c-0.5,0.3-0.9,0.4-0.9,0.9
						c0,0.2,0,0.5,0.1,0.7c0,0.2,0.1,0.6,0.1,0.7c0,0,0,0.1,0,0.1c-0.3,0.1-0.5,0.4-0.5,0.7c0,0.2,0.1,0.4,0.3,0.6
						c-0.1,0.1-0.1,0.1-0.2,0.2c-0.4,0.3-0.6,0.5-0.6,0.9c0,0.3,0,0.7,0.1,1c0,0.3,0,0.6,0,0.8c0,0.1,0,0.2-0.1,0.2
						C14.2,51.9,14.2,51.8,14.2,51.6"/>
				</g>
				<g id="g124" transform="translate(1.414 6.662)">
					<path id="path126" class="st0" d="M33.9,38.3c1.4,1.4,2.1,3.2,2.1,5.1c0,0,0-0.1,0-0.1c0-2-0.8-3.9-2.2-5.3
						c-2.2-2.1-5.1-3.2-8.1-3.1c-4.1,0-7.2,1.2-9.2,3.4c-2,2.3-2.8,5.6-2.4,9.6c0.4,2.9,2.3,5.2,4,7.3c1.2,1.5,2.3,2.8,2.3,3.9
						c0,1.4-2.7,3.6-4.3,4.5c-0.3,0.2-0.3,0.5-0.2,0.7c0.2,0.3,0.5,0.3,0.7,0.2c0,0,0,0,0,0c0.5-0.3,4.9-2.9,4.9-5.5
						c0-1.4-1.2-2.9-2.6-4.5c-1.6-1.9-3.4-4.2-3.7-6.7c-0.6-4.6,0.8-7.3,2.1-8.7c1.8-2,4.6-3.1,8.4-3.1c2.5-0.1,4.9,0.7,6.9,2.3
						C31.7,37.1,32.3,36.7,33.9,38.3"/>
				</g>
				<g id="g128" transform="translate(14.548 8.915)">
					<path id="path130" class="st0" d="M15.1,61.6c-0.1-0.6-0.2-1.3-0.2-2c0-0.6,0.1-1.1,0.5-1.5c0.4-0.6,1.3-1,3.3-1
						c1,0.1,1.9,0,2.8-0.4c0.4-0.2,0.7-0.6,0.8-1.1c0,0,0-0.1,0-0.1c0-0.3,0-0.6-0.1-1c0-0.3,0-0.5,0-0.7l0,0c0,0,0,0,0-0.1
						c0.1-0.1,0.2-0.2,0.3-0.2c0.4-0.3,0.7-0.6,0.7-1c0,0,0-0.1,0-0.1c0-0.1-0.1-0.2-0.2-0.3l0,0c0,0,0,0,0,0
						c0.2-0.2,0.3-0.5,0.3-0.8c0-0.3,0-0.5-0.1-0.8c0-0.1,0-0.2,0-0.3c0.1,0,0.2-0.1,0.3-0.1c0.7-0.3,1.4-0.7,1.4-1.3
						c0-0.4-0.3-0.8-0.9-1.7c-0.6-0.9-1.5-2.2-1.5-2.8l0,0c0,0,0-0.1,0-0.1c0-0.2,0-0.2,0.1-0.2c0.2-0.3,0.4-0.8,0.4-2.5
						c0-1.9-0.8-3.8-2.1-5.1c-1.6-1.7-2.2-1.2-1.3,0c0.2,0.1,0.3,0.3,0.5,0.4c0.6,0.6,1.1,1.4,1.4,2.2c0.3,0.8,0.5,1.6,0.5,2.5
						c0,1.7-0.2,1.9-0.3,2.1c-0.1,0.2-0.2,0.5-0.2,0.7c0,1,0.9,2.3,1.6,3.4c0.2,0.3,0.5,0.7,0.7,1.1c-0.3,0.2-0.5,0.4-0.8,0.5
						c-0.5,0.3-0.8,0.4-0.8,0.8c0,0.2,0,0.5,0.1,0.7c0,0.2,0.1,0.6,0.1,0.6c0,0,0,0.1,0,0.1l0,0c-0.3,0.1-0.5,0.3-0.5,0.6
						c0,0.2,0.1,0.4,0.3,0.6c-0.1,0.1-0.2,0.1-0.2,0.2c-0.4,0.3-0.6,0.5-0.6,0.8c0,0.3,0,0.7,0.1,1c0,0.3,0,0.6,0,0.8
						c0,0.1,0,0.3-0.1,0.3c0,0.1-0.1,0.1-0.2,0.2c-0.7,0.3-1.6,0.4-2.3,0.3c-1.1-0.1-2.2,0.1-3.2,0.6c-0.9,0.6-1.4,1.6-1.3,2.6
						c0,0.9,0,1.8,0.1,2.7c0.2,1,0.6,1.9,1.2,2.7C15.2,63.8,15.1,62.8,15.1,61.6"/>
				</g>
				<g id="g132" transform="translate(67.119 25.759)">
					<path id="path134" class="st0" d="M14,35c0,0.1,0.1,0.2,0.1,0.3c0,0,0,0,0,0C14.1,35.2,14,35.1,14,35"/>
				</g>
				<g id="g136" transform="translate(73.68 35.238)">
					<path id="path138" class="st0" d="M15.6,35c-0.3,1.2-0.8,2.3-1.6,3.3C14.9,37.4,15.4,36.2,15.6,35"/>
				</g>
				<g id="g140" transform="translate(70.151 39.306)">
					<path id="path142" class="st0" d="M15,36.7c-0.3,0.2-0.6,0.3-1,0.4l0.3,1.1c1.7-0.6,3.1-1.8,4-3.2C17.4,35.9,16.2,36.5,15,36.7
						"/>
				</g>
				<g id="g144" transform="translate(65.442 6.663)">
					<path id="path146" class="st0" d="M33.8,55.3c1.7-2.1,3.6-4.4,4-7.3c0.5-4-0.3-7.3-2.4-9.6c-0.1-0.2-0.3-0.3-0.5-0.5
						c-2-2-4.9-2.9-8.7-3c-3-0.1-5.9,1-8.1,3.1c-1.4,1.4-2.2,3.3-2.2,5.3c0,1.8,0.2,2.3,0.4,2.6c0,0.1,0,0.1,0.1,0.2
						c0,0.6-0.9,2-1.5,2.9c-0.6,0.9-0.9,1.4-0.9,1.7c0,0.1,0,0.1,0,0.2c0.2,0.5,0.8,0.9,1.4,1.2l0.2,0.1c0,0.1,0,0.2,0,0.3
						c0,0.3-0.1,0.5-0.1,0.8c0,0.2,0,0.4,0.1,0.6c0,0.1,0.1,0.2,0.2,0.3c0,0,0,0,0,0c-0.1,0.1-0.2,0.3-0.2,0.5c0,0.1,0,0.2,0.1,0.3
						c0.2,0.3,0.4,0.6,0.7,0.8c0.1,0.1,0.1,0.1,0.2,0.2c0,0.2,0,0.4,0,0.7c0,0.3-0.1,0.6-0.1,1c0,0.2,0,0.4,0.1,0.6
						c0.1,0.4,0.4,0.7,0.7,0.8c0.9,0.4,1.9,0.5,2.9,0.4c2-0.1,2.9,0.4,3.3,1c0.2,0.4,0.4,0.9,0.3,1.3c0,0.5-0.1,1-0.2,1.5
						c-0.2,1.2-0.7,2.4-1.6,3.3c-0.7,1-1.5,1.9-2.6,2.5c1.3-0.2,2.5-0.8,3.4-1.7c0.8-1.1,1.5-2.4,1.8-3.8c0.1-0.6,0.2-1.3,0.2-1.9
						c0-0.7-0.2-1.3-0.5-1.9c-0.5-0.8-1.7-1.6-4.3-1.6c-0.8,0.1-1.6,0-2.3-0.3c-0.1,0-0.1-0.1-0.2-0.2c0,0,0-0.1,0-0.1
						c0-0.3,0-0.6,0-0.8c0-0.3,0.1-0.7,0.1-1c0-0.1,0-0.2-0.1-0.3c-0.1-0.3-0.3-0.5-0.6-0.7L17,54.9l-0.1-0.1
						c0.2-0.2,0.3-0.4,0.3-0.6c0-0.1,0-0.2,0-0.2c-0.1-0.2-0.3-0.3-0.4-0.3c0,0,0,0,0-0.1c0,0,0,0,0-0.1c0-0.1,0-0.4,0.1-0.7
						c0-0.2,0.1-0.5,0.1-0.7c0-0.1,0-0.2-0.1-0.3c-0.1-0.3-0.4-0.4-0.8-0.6c-0.3-0.1-0.5-0.3-0.8-0.4c0,0,0,0-0.1,0
						c0.1-0.2,0.4-0.7,0.7-1.1c1-1.4,1.7-2.6,1.7-3.5c0-0.3-0.1-0.5-0.2-0.8c-0.1-0.1-0.2-0.4-0.3-2.1c0-1.7,0.7-3.3,1.9-4.5
						c2-1.9,4.6-2.8,7.4-2.7c0.3,0,0.6,0,0.8,0c3.4,0.1,5.9,1.2,7.6,3.1c1.3,1.4,2.7,4.1,2.1,8.7c-0.3,2.5-2.1,4.8-3.7,6.7
						c-0.4,0.5-0.9,1-1.2,1.5c-0.8,0.8-1.2,1.9-1.3,3c0,0.1,0,0.2,0,0.3c0.3,2.4,4.4,4.9,4.8,5.2c0.3,0.2,0.6,0.1,0.7-0.2
						c0.2-0.3,0.1-0.6-0.2-0.7c-1.5-0.9-3.8-2.7-4.3-4.1c0-0.1-0.1-0.3-0.1-0.4c0.1-0.6,0.3-1.1,0.6-1.6
						C32.7,56.7,33.2,56,33.8,55.3"/>
				</g>
			</g>
		</g>
	</g>
</g>
</svg>
