<svg xmlns="http://www.w3.org/2000/svg" viewBox="0 0 120 120"><defs><style>.a{fill:none;}.b{fill:#fff;}</style></defs><title>logo-nextory-white</title><rect class="a" width="120" height="120"/><path class="b" d="M20.05,50.1v16a.2.2,0,0,0,.06.15.24.24,0,0,0,.14,0h2.43a.2.2,0,0,0,.2-.2V54.82l8.58,11.39.08.06h2.19a.2.2,0,0,0,.15-.06.17.17,0,0,0,0-.14v-16a.33.33,0,0,0,0-.14.2.2,0,0,0-.15-.06H31.31a.2.2,0,0,0-.15.06.35.35,0,0,0-.06.14V61L22.78,50H20.25a.2.2,0,0,0-.14.06.2.2,0,0,0-.06.15M97.12,54h2.63a.2.2,0,0,1,.17.09.21.21,0,0,1,0,.19L95.13,66.62c-1,2.55-2.09,3.49-4.08,3.49a5.69,5.69,0,0,1-2.77-.69.2.2,0,0,1-.08-.26l.8-1.72a.25.25,0,0,1,.12-.11.19.19,0,0,1,.15,0,3.36,3.36,0,0,0,1.49.38c.79,0,1.28-.36,1.75-1.41l-5-12.11a.21.21,0,0,1,0-.19.26.26,0,0,1,.16-.09h2.72a.16.16,0,0,1,.08.1l3.41,9,3.19-9a.23.23,0,0,1,.07-.1ZM80.19,54a.25.25,0,0,1,.14-.06h2.46a.22.22,0,0,1,.2.2v2.59A4.25,4.25,0,0,1,86,54a.18.18,0,0,1,.24.09l1.07,2.57a.31.31,0,0,1,0,.19.22.22,0,0,1-.16.09C84.67,57,83,58.36,83,61.58v4.51a.2.2,0,0,1-.06.14.35.35,0,0,1-.14.06H80.33a.35.35,0,0,1-.14-.06.25.25,0,0,1-.06-.14v-12a.2.2,0,0,1,.06-.14M76,60.17h0a3.82,3.82,0,0,0-3.64-4h-.15a3.72,3.72,0,0,0-3.74,3.68c0,.09,0,.17,0,.25v0a3.82,3.82,0,0,0,3.64,4h.13A3.71,3.71,0,0,0,76,60.49C76,60.38,76,60.28,76,60.17Zm-10.35,0h0a6.59,6.59,0,1,1,13.18-.05h0v.05a6.46,6.46,0,0,1-6.48,6.44h-.14a6.4,6.4,0,0,1-6.56-6.22v-.22Zm-5.92,2.7V50.1a.33.33,0,0,1,0-.14.2.2,0,0,1,.15-.06h2.43a.2.2,0,0,1,.2.2h0v3.82H65a.21.21,0,0,1,.14.07.16.16,0,0,1,.06.13v2a.21.21,0,0,1-.21.21h-2.4v6.06c0,.94.32,1.58,1.16,1.58a2.44,2.44,0,0,0,1.16-.23.18.18,0,0,1,.2,0,.22.22,0,0,1,.09.17v1.88a.21.21,0,0,1,0,.11.26.26,0,0,1-.2.1,4,4,0,0,1-2.13.48c-2.09,0-3.2-.92-3.2-3.63M53,58.05l2.86-4a.23.23,0,0,1,.07-.07h2.62a.19.19,0,0,1,.17.1.22.22,0,0,1,0,.22L54.61,60l4.31,6a.2.2,0,0,1,0,.21.18.18,0,0,1-.17.11H56.06A.23.23,0,0,1,56,66.2l-3-4.32L50,66.2H47.36a.19.19,0,0,1-.17-.1.2.2,0,0,1,0-.21l4.29-6-4.13-5.75a.2.2,0,0,1,0-.21.21.21,0,0,1,.19-.11h2.69l.07.06Zm-8.53,1.17C44.35,57.41,43.27,56,41.4,56s-3,1.34-3.21,3.26Zm-9.15.91h0a6.13,6.13,0,0,1,5.83-6.43h.17c3.93,0,5.92,3.09,5.92,6.65V61a.19.19,0,0,1-.07.12h-9a3.47,3.47,0,0,0,3.56,3.14A4.36,4.36,0,0,0,45,62.9a.25.25,0,0,1,.17,0h.11l1.38,1.22a.23.23,0,0,1,.06.12.18.18,0,0,1,0,.16,6.24,6.24,0,0,1-4.93,2.17,6.16,6.16,0,0,1-6.34-6,3.09,3.09,0,0,1,0-.43"/></svg>