<svg xmlns="http://www.w3.org/2000/svg" viewBox="0 0 120 120"><title>icon-hoi</title><g id="Layer_1" data-name="Layer 1"><rect width="120" height="120" style="fill:none"/></g><g id="Layer_2" data-name="Layer 2"><path d="M87.52,45.8a13.34,13.34,0,0,1,1.76,2,12.68,12.68,0,0,1,1.31,2.34,13.14,13.14,0,0,1,.81,2.63,14.4,14.4,0,0,1,.27,2.81,15.47,15.47,0,0,1-.42,3.69,11.56,11.56,0,0,1-1.36,3.31,20.89,20.89,0,0,1-2.16,3,11.22,11.22,0,0,1-2.45,2v0H99.8V41.35H85.28V44l0,0a15.45,15.45,0,0,1,2.21,1.74" transform="translate(0 0)" style="fill:#555"/><path d="M72.8,81a3.25,3.25,0,0,1-1.12-.18,3.88,3.88,0,0,1-1.11-.61,4.79,4.79,0,0,0-1.15,1.06,4.19,4.19,0,0,0-.58,4.2,3.7,3.7,0,0,0,.9,1.28,4,4,0,0,0,1.4.85,4.77,4.77,0,0,0,1.75.31h2.39v-8a4,4,0,0,1-1.17.86A3.22,3.22,0,0,1,72.8,81" transform="translate(0 0)" style="fill:#555"/><path d="M74,75.06a2.56,2.56,0,0,0-1.32-.35,2.59,2.59,0,0,0-1.31.36,2.48,2.48,0,0,0-1,1,2.65,2.65,0,0,0-.34,1.32,2.59,2.59,0,0,0,.34,1.31,2.65,2.65,0,0,0,1,1,2.59,2.59,0,0,0,1.31.36A2.71,2.71,0,0,0,75,78.68a2.56,2.56,0,0,0,.35-1.33A2.57,2.57,0,0,0,74,75.06" transform="translate(0 0)" style="fill:#555"/><path d="M80.9,75.35a7.38,7.38,0,0,0-3.21-.61h-1.4V87.81h7.14V80.34a7,7,0,0,0-.62-3.14,3.91,3.91,0,0,0-1.91-1.85" transform="translate(0 0)" style="fill:#555"/><path d="M88.59,75.25a6.45,6.45,0,0,0-2.17,1.36A6.13,6.13,0,0,0,85,78.7a6.69,6.69,0,0,0-.51,2.62,6.27,6.27,0,0,0,.9,3.27A6.63,6.63,0,0,0,87.8,87a6.41,6.41,0,0,0,3.31.9h.77V74.76h-.57a7.13,7.13,0,0,0-2.72.49" transform="translate(0 0)" style="fill:#555"/><path d="M92.92,74.8V91.4h.83a9.31,9.31,0,0,0,3.2-.5,5.23,5.23,0,0,0,1.42-.79A3.58,3.58,0,0,0,99.3,89a5,5,0,0,0,.53-1.52,11.13,11.13,0,0,0,.17-2V74.8Z" transform="translate(0 0)" style="fill:#555"/><path d="M31.41,74.86H29.52A3.5,3.5,0,0,1,28,74.53a2.45,2.45,0,0,1-1-1,2.56,2.56,0,0,1-.38-1.4A2.66,2.66,0,0,1,26.8,71a2.39,2.39,0,0,1,.75-.9h-.26a5.59,5.59,0,0,0-3.87,1.38,4.54,4.54,0,0,0-1.14,1.45,6.09,6.09,0,0,0-.61,1.93H20v.79h1.63V87.91h7V75.68h2.74Z" transform="translate(0 0)" style="fill:#555"/><path d="M28.07,70.62a2.06,2.06,0,0,0-.61,1.48,2,2,0,0,0,.61,1.45,1.93,1.93,0,0,0,1.46.62A2,2,0,0,0,31,73.56a2,2,0,0,0,.62-1.46A2,2,0,0,0,31,70.62,2,2,0,0,0,29.53,70a2,2,0,0,0-1.46.61" transform="translate(0 0)" style="fill:#555"/><path d="M34.11,75.52a6.73,6.73,0,0,0-2.23,1.4A6.43,6.43,0,0,0,30.39,79a6.57,6.57,0,0,0-.53,2.6A6.29,6.29,0,0,0,30.79,85a6.44,6.44,0,0,0,2.53,2.38,7.5,7.5,0,0,0,3.59.87h.36V75h-.44a7.46,7.46,0,0,0-2.72.5" transform="translate(0 0)" style="fill:#555"/><path d="M43.72,76.88a6.49,6.49,0,0,0-2.28-1.37,8.36,8.36,0,0,0-2.9-.48h-.26V88.24h.32a7.73,7.73,0,0,0,3.67-.86A6.47,6.47,0,0,0,44.83,85a6.34,6.34,0,0,0,.92-3.37A6.79,6.79,0,0,0,45.22,79a6.39,6.39,0,0,0-1.5-2.12" transform="translate(0 0)" style="fill:#555"/><path d="M33.53,70.66a2.06,2.06,0,0,0-.6,1.49,2,2,0,0,0,.6,1.44,1.89,1.89,0,0,0,1.46.62,2.07,2.07,0,0,0,1.48-.6,2.06,2.06,0,0,0,0-3,2.07,2.07,0,0,0-1.48-.6,2,2,0,0,0-1.46.6" transform="translate(0 0)" style="fill:#555"/><path d="M40.65,70.1a2,2,0,0,0-1.46.61,2.05,2.05,0,0,0-.6,1.48,2,2,0,0,0,.6,1.45,1.93,1.93,0,0,0,1.46.62,2.07,2.07,0,0,0,1.48-.6,2.06,2.06,0,0,0,0-3,2.08,2.08,0,0,0-1.48-.61" transform="translate(0 0)" style="fill:#555"/><path d="M58.66,75.63a3.25,3.25,0,0,0-1.52-.36,4,4,0,0,0-1.81.43,7.93,7.93,0,0,0-1.88,1.44V75H46.89V88h6.56V78.12a7.79,7.79,0,0,1,1.4-1.22,3.57,3.57,0,0,0-.17,1,2.71,2.71,0,0,0,.79,2,2.8,2.8,0,0,0,3.33.44,2.56,2.56,0,0,0,1-1,2.71,2.71,0,0,0,.34-1.35,2.81,2.81,0,0,0-.37-1.42,2.6,2.6,0,0,0-1.09-1" transform="translate(0 0)" style="fill:#555"/><rect x="60.94" y="70.51" width="6.48" height="17.43" style="fill:#555"/><path d="M40.19,44.32h2.26V67.76H62.11a13.63,13.63,0,0,1-5-5.29,13.4,13.4,0,0,1-1.78-7.06,13.26,13.26,0,0,1,1.08-5.3,13.1,13.1,0,0,1,3.06-4.34,19.93,19.93,0,0,1,2.59-2V30.13H42.45v11.4H40.19V30.13H20.53V67.76H40.19Z" transform="translate(0 0)" style="fill:#555"/><path d="M58,50.23A13.27,13.27,0,0,0,57,55.54a12.93,12.93,0,0,0,1.91,6.86,13.24,13.24,0,0,0,5.31,4.74A17.11,17.11,0,0,0,71,69c.32,0,.63,0,1,0h.73V42.18h-.91l-.87,0a18.18,18.18,0,0,0-5.23,1,15.12,15.12,0,0,0-7.64,7" transform="translate(0 0)" style="fill:#555"/><path d="M75.1,69a18,18,0,0,0,8-2,12.22,12.22,0,0,0,7.17-11.5,13.83,13.83,0,0,0-1.08-5.44,13,13,0,0,0-3.22-4.2,13.37,13.37,0,0,0-4.63-2.78A19.38,19.38,0,0,0,75,42.22l-.59,0L74.44,69Z" transform="translate(0 0)" style="fill:#555"/><path d="M92.94,39.89a5.65,5.65,0,0,0,0-11.29h0a5.65,5.65,0,1,0,0,11.29" transform="translate(0 0)" style="fill:#555"/></g></svg>