<svg xmlns="http://www.w3.org/2000/svg" viewBox="0 0 120 120"><title>icon-gadsforlag</title><g id="Layer_1" data-name="Layer 1"><rect width="120" height="120" style="fill:none"/></g><g id="Layer_2" data-name="Layer 2"><path d="M99.79,22H33.51A13.47,13.47,0,0,0,20,35.54v65.22c0-5.07,4.64-8.23,9.08-8.23H100V22M61.58,77.54c5.07,0,8.45-1.9,8.45-4.64,0-2.53-3-3.8-8.45-4.86C51.45,65.72,47.65,64.45,47.65,59c0-1.9,1.48-3.59,4.22-4.65a11.15,11.15,0,0,1-2.32-1.9,11.53,11.53,0,0,1-3.38-8c0-7,5.7-12,13.73-12.24H76.15v6.12h-3.8A13.28,13.28,0,0,1,74,44.61v.21c-.21,7-5.91,12-13.72,12a17.71,17.71,0,0,1-4.65-.63A2.51,2.51,0,0,0,54,58.33c0,1.69,1.26,2.11,5.06,2.75,1.06.21,2.53.42,4,.84,8.23,1.9,14.35,3.8,14.35,10.35,0,7.38-8.23,10.55-15.83,10.55-5.7,0-11.61-1.69-14.35-4a5.58,5.58,0,0,1-2.11-4.43,4.29,4.29,0,0,1,4.43-4.23c2.75,0,4.65,1.69,4.65,4a3.81,3.81,0,0,1-.43,1.68c1.27.85,4,1.69,7.81,1.69M60.11,37.65c-4.44,0-7.18,2.53-7.18,6.75s2.74,7,7.18,7,7.17-2.75,7.17-7-2.74-6.75-7.17-6.75" transform="translate(0 0)" style="fill:#555"/></g></svg>