<svg xmlns="http://www.w3.org/2000/svg" viewBox="0 0 120 120"><defs><style>.a{fill:none;}.b{fill:#fff;}</style></defs><title>logo-pubhub</title><rect class="a" width="120" height="120"/><path class="b" d="M109.81,64.46A3.75,3.75,0,0,1,107,63.29,5,5,0,0,1,107,57a4.06,4.06,0,0,1,5.7,0,5,5,0,0,1,0,6.29,3.75,3.75,0,0,1-2.85,1.17m.78-12.33A6,6,0,0,0,105.9,54V46.45h-4.52V67.93h4.32V66.14a6,6,0,0,0,4.89,2,8,8,0,0,0,4-1,7.27,7.27,0,0,0,2.8-2.81,9.3,9.3,0,0,0,0-8.43,7.27,7.27,0,0,0-2.8-2.81,8,8,0,0,0-4-1m-17.92.23v7.7a4.49,4.49,0,0,1-1,3.14,3.43,3.43,0,0,1-2.61,1.06q-3.15,0-3.15-3.77V52.36H81.41v8.8A7.08,7.08,0,0,0,83.2,66.4a7.43,7.43,0,0,0,7.56,1.23,6,6,0,0,0,2.14-1.55v1.85h4.29V52.36ZM71,52.13a7.8,7.8,0,0,0-2.78.47A6,6,0,0,0,66,54V46.45H61.49V67.93H66v-7.7a4.34,4.34,0,0,1,1-3.14A3.61,3.61,0,0,1,69.74,56a3,3,0,0,1,2.35.92,4,4,0,0,1,.81,2.76v8.22h4.51V59a6.89,6.89,0,0,0-1.78-5.16A6.37,6.37,0,0,0,71,52.13m-21,12.33a3.75,3.75,0,0,1-2.85-1.17,5,5,0,0,1,0-6.29,4.06,4.06,0,0,1,5.7,0,5,5,0,0,1,0,6.29,3.75,3.75,0,0,1-2.85,1.17m.78-12.33A6,6,0,0,0,46,54V46.45H41.51V67.93h4.32V66.14a6,6,0,0,0,4.89,2,8,8,0,0,0,4-1,7.27,7.27,0,0,0,2.8-2.81,9.3,9.3,0,0,0,0-8.43,7.27,7.27,0,0,0-2.8-2.81,8,8,0,0,0-4-1m-17.92.23v7.7a4.49,4.49,0,0,1-1,3.14,3.43,3.43,0,0,1-2.61,1.06q-3.15,0-3.15-3.77V52.36H21.54v8.8a7.08,7.08,0,0,0,1.79,5.24,6.63,6.63,0,0,0,4.87,1.76,6.69,6.69,0,0,0,2.69-.53A6,6,0,0,0,33,66.08v1.85h4.29V52.36ZM10.07,64.46a3.78,3.78,0,0,1-2.85-1.17,5,5,0,0,1,0-6.29,3.78,3.78,0,0,1,2.85-1.17A3.79,3.79,0,0,1,12.93,57a5,5,0,0,1,0,6.29,3.79,3.79,0,0,1-2.86,1.17m.79-12.33a6,6,0,0,0-4.9,2V52.36H1.65V73.55H6.17V66.28a6,6,0,0,0,4.69,1.88,8,8,0,0,0,4-1,7.18,7.18,0,0,0,2.79-2.81,9.22,9.22,0,0,0,0-8.43,7.18,7.18,0,0,0-2.79-2.81,8,8,0,0,0-4-1"/></svg>