<svg xmlns="http://www.w3.org/2000/svg" viewBox="0 0 120 120"><defs><style>.a{fill:none;}.b{fill:#fff;}</style></defs><title>logo-bookbeat</title><rect class="a" width="120" height="120"/><path class="b" d="M86.65,70.86c-3.73,0-6-2.88-6-6.42,0-4.21,3.06-7.18,6.61-7.18s5.26,1.82,5.26,4.21v.77c0,.19-.19.28-.38.28H84.93c0,3.55,1.63,5.27,4.4,5.27a3.5,3.5,0,0,0,2.78-1.24.56.56,0,0,1,.38-.1h0c.1.1.2.29.1.38-1.25,2.49-3.06,4-5.94,4m-1.72-9s2.68-.09,3.45-.09c.19,0,.28-.1.28-.29-.09-1.82-.57-3.45-1.72-3.45a1.15,1.15,0,0,0-.86.39,4.64,4.64,0,0,0-1.15,3.44"/><path class="b" d="M48.54,64.25A6.82,6.82,0,0,1,46.43,69a7,7,0,0,1-5.27,1.82A6.61,6.61,0,0,1,34.55,64a6.82,6.82,0,0,1,2.11-4.79,7,7,0,0,1,5.27-1.82,6.61,6.61,0,0,1,6.61,6.9m-5.85,5.27a10.9,10.9,0,0,0,.87-4.89c.09-3.45-.58-6.61-2-6.61a1.27,1.27,0,0,0-1.14.67,10.76,10.76,0,0,0-.87,4.89c-.09,3.45.58,6.61,2,6.61a1.13,1.13,0,0,0,1.15-.67"/><path class="b" d="M33.4,64.25A6.77,6.77,0,0,1,31.3,69,7,7,0,0,1,26,70.86,6.61,6.61,0,0,1,19.42,64a6.82,6.82,0,0,1,2.11-4.79,7,7,0,0,1,5.27-1.82,6.59,6.59,0,0,1,6.6,6.9m-5.84,5.27a10.9,10.9,0,0,0,.86-4.89c.1-3.45-.57-6.61-2-6.61a1.29,1.29,0,0,0-1.15.67,10.9,10.9,0,0,0-.86,4.89c-.09,3.45.58,6.61,2,6.61a1.22,1.22,0,0,0,1.15-.67"/><path class="b" d="M114,68.27a1.84,1.84,0,0,1-1.43-.48,2.06,2.06,0,0,1-.48-1.53V59.84a.2.2,0,0,1,.19-.19h0a2.17,2.17,0,0,0,1.34-.38l1.82-1.05c.09-.1.19-.2.19-.29h0a.31.31,0,0,0-.29-.29h-3.16V56.2a.49.49,0,0,0-.19-.38h0c-.19-.19-.48-.19-.57,0l-5.08,3.26a.35.35,0,0,0-.09.28h0c0,.2.09.29.28.29h.67c.48,0,.39.38.39.77V67a3.72,3.72,0,0,0,1,2.87,4.82,4.82,0,0,0,3.16,1,5,5,0,0,0,4.7-3c.09-.1,0-.29-.1-.39h0a.3.3,0,0,0-.38,0,4,4,0,0,1-1.92.77"/><path class="b" d="M106.57,68.75a.17.17,0,0,0-.28,0,1.36,1.36,0,0,1-.58.19,1,1,0,0,1-1-.67.76.76,0,0,0-.09-.38V62.62h0V61.18a4.05,4.05,0,0,0-.86-3,4.22,4.22,0,0,0-3-1h-.2c-3.06,0-5.55,1.63-6.41,3.16a1.63,1.63,0,0,0-.29,1,1.92,1.92,0,1,0,2.68-1.73,2,2,0,0,1,1.73-1.15c1.34,0,1.82,2,1.82,3.07h0v1c-5.37,2.49-6.61,3.83-6.61,5.27v.29a2.74,2.74,0,0,0,2.77,2.58,4.72,4.72,0,0,0,3.36-1.53l.38-.29.1-.09a2.75,2.75,0,0,0,2.1,1.82,2.26,2.26,0,0,0,.77.09,5,5,0,0,0,3.54-1.82c.1,0,.1-.09,0-.19Zm-6.41-.38a1.8,1.8,0,0,1-1.25.19c-1.53-.29-2-2.78-.48-4a11.37,11.37,0,0,1,1.73-1.06v4.89Z"/><path class="b" d="M12.43,60.23a3.11,3.11,0,0,0,3.26-3.16c0-2.59-2.88-3.45-5.94-3.45H3.91a.42.42,0,0,0-.39.38h0c0,.19.1.29.29.38.58.2.86,0,.86,1v14c0,.87-.28.67-.86,1-.19.1-.29.19-.29.39h0a.42.42,0,0,0,.39.38h6.6c5.18,0,7.76-1.63,7.76-5.65,0-3.74-2.87-5.17-5.84-5.17M9.37,54.38h.47a2.63,2.63,0,0,1,2.59,2.78,2.82,2.82,0,0,1-3.06,3Zm.57,15.9H9.37V60.8a4.12,4.12,0,0,1,4.4,4.41c0,4.69-2.87,5.07-3.83,5.07"/><path class="b" d="M73.72,60.23A3.11,3.11,0,0,0,77,57.07c0-2.59-2.87-3.45-5.94-3.45H65.3a.41.41,0,0,0-.39.38h0c0,.19.1.29.29.38.57.2.86,0,.86,1v14c0,.58.1.67-.48,1-.19.1-.28.19-.28.39h0a.41.41,0,0,0,.38.38H71.9c5.18,0,7.76-1.63,7.76-5.65-.09-3.74-3-5.17-5.94-5.17m-3.06-5.85h.48a2.63,2.63,0,0,1,2.58,2.78,2.82,2.82,0,0,1-3.06,3Zm.67,15.9h-.58V60.8a4.12,4.12,0,0,1,4.41,4.41c-.1,4.69-2.87,5.07-3.83,5.07"/><path class="b" d="M64,70.19h-.19a1.83,1.83,0,0,1-1.43-1.25l-2.49-6.13c-.67-1.82,0-4.12,2.68-4.31h.86a.62.62,0,0,0,.38-.48.41.41,0,0,0-.38-.38H57.54a.39.39,0,1,0,0,.77h.19a.58.58,0,0,1,.57.38.55.55,0,0,1-.19.67l-3.54,2.3V55.15a.57.57,0,0,0-.29-.57h0a1,1,0,0,0-.57-.2c-.19,0-4.7,1-4.7,1-.19,0-.28.19-.28.39h0c0,.19,0,.28.19.28.38.1,1,.29,1,.86V69.42c0,.48-.1.48-.67.67H49c-.19,0-.28.19-.28.38h0a.41.41,0,0,0,.38.39h6a.41.41,0,0,0,.39-.39h0c0-.19-.1-.28-.48-.38s-.48-.19-.48-.57v-7a1.38,1.38,0,0,1,1,1l2.11,5.65c.29.77.29,1-.19,1.06h-.1a.31.31,0,0,0-.29.28h0a.42.42,0,0,0,.39.39h6.22a.42.42,0,0,0,.39-.39h0c.09-.19-.1-.28-.2-.28"/></svg>