<svg xmlns="http://www.w3.org/2000/svg" viewBox="0 0 120 120"><defs><style>.a{fill:none;}.b{fill:#fff;}</style></defs><title>logo-kirjavalitys</title><rect class="a" width="120" height="120"/><path class="b" d="M11.44,58.21c-1.39,0-2.53,0-3.66,0a7.56,7.56,0,0,1-1.5-.15,3.27,3.27,0,0,1-2.9-2.91c0-.07-.09-.13-.16-.23-.77-.18-1.63.17-2.42-.19.31-.93.31-.93,2.62-1.12,3.87-6.15,9.64-8.9,16.77-9.47.72-.47.68-2,2.15-1.84.33.9-.47,1.41-.61,2.16l.65.33a3,3,0,0,1,1.54,4.14c-.24.62-.58,1.21-.88,1.81-.21.41-.43.81-.68,1.29a7.37,7.37,0,0,0,2.57,0,16,16,0,0,1,5,.21,7.8,7.8,0,0,1,5,3.44l1.42-.08c1.13,0,2.27-.1,3.41-.11.61,0,.61,0,1.3.66a1.06,1.06,0,0,1-.93,1,7.9,7.9,0,0,1-1.62.22c-1,0-1.93,0-2.92,0l-.25,2.23H27.7l.54-1.92c-3,0-6,0-9,.26l-4,7.39a7.8,7.8,0,0,0,3.35.11,20.84,20.84,0,0,1-.07,6.44c-2.14.55-4.2,0-6.4-.61-.3.49-.57,1-.9,1.47s-.94,1.09-1.77.83c-.43-.79-.43-.79.78-3.39-.24-.3-.5-.63-.75-1a5.62,5.62,0,0,1-1-5.25A12.11,12.11,0,0,1,10,60.65C10.43,59.91,10.87,59.15,11.44,58.21ZM15,52.56l3-4.89s-.05-.14-.09-.21c-3.16-.23-9,3.07-9.6,5.62A32.3,32.3,0,0,0,15,52.56Zm-1.59,12c1.19-2.15,2.42-4.26,3.62-6.62l-3.6.22c-.29.5-.56.93-.79,1.37a10.21,10.21,0,0,0-.54,1.28A3,3,0,0,0,13.45,64.54ZM28,55.88c-1.71-2.43-4.06-2.39-6.58-2.12L20.13,56.2A69,69,0,0,0,28,55.88Zm-7.9-3.53a5.1,5.1,0,0,0,1.12-2.45c.16-1.09-.28-1.72-1.43-2.1a14.54,14.54,0,0,0-2.62,4.71ZM7.9,54.53a1.89,1.89,0,0,0,1.49,1.8,5.57,5.57,0,0,0,3.1.17l1.57-2.38Zm6.68,1.91a17.75,17.75,0,0,0,3.46-.2L19.21,54a12.57,12.57,0,0,0-3.34.18Z"/><path class="b" d="M27.73,73.5c0-1.3,0-2.52,0-3.74s-.36-1.57-1.58-1.62c-.67,0-1.34,0-2.11,0-.25,1.84,0,3.6-.17,5.39h-3c-.2-1-.24-10.94,0-12.4H23.9L24,65.62a1.76,1.76,0,0,0,2.17-1l1.47-2.79c.14-.26.3-.5.45-.75h3.31a15.41,15.41,0,0,1-3.14,5.16c.29.12.55.23.82.32A2.5,2.5,0,0,1,31,69.21c0,1.42,0,2.85,0,4.29Z"/><path class="b" d="M60.92,61.14h3.26c1,3,1.7,6.09,2.71,9.29a9.54,9.54,0,0,0,.4-.87l2.28-7.34c.11-.36.24-.71.38-1.09h3.41c-.2.64-.38,1.19-.55,1.74-.92,2.79-1.83,5.59-2.75,8.39a8.35,8.35,0,0,1-.46,1.17,2.16,2.16,0,0,1-1.79,1.23,7.12,7.12,0,0,1-1.13,0,2.43,2.43,0,0,1-2.72-2c-1-3.33-2-6.68-3-10A3.21,3.21,0,0,1,60.92,61.14Z"/><path class="b" d="M107.22,73.72v3.36a16,16,0,0,1-2.84.14c-.33-1.15,0-2.29-.22-3.48-.26-.11-.56-.25-.86-.36a3,3,0,0,1-2.07-2.89c0-1.81,0-3.62,0-5.43.45-.34.93-.16,1.37-.19s.83,0,1.32,0a7.17,7.17,0,0,1,.11.91c0,1.31,0,2.62,0,3.92a1.65,1.65,0,0,0,2.38,1.69,1.27,1.27,0,0,0,.91-1.36c0-1.26,0-2.53,0-3.79,0-.41,0-.82.06-1.3h2.65c0,.45,0,.86,0,1.27,0,1.3,0,2.61,0,3.91,0,2-.47,2.61-2.27,3.35Z"/><path class="b" d="M83.39,73.55H80.6a9.4,9.4,0,0,1-.1-1c0-1.22,0-2.44,0-3.67A1.62,1.62,0,0,0,79,67.07a4.56,4.56,0,0,0-1.38,0A2.25,2.25,0,0,0,75.68,69a2,2,0,0,0,1.44,2.11,15.31,15.31,0,0,0,2.49.23c.27.51,0,1.22.07,1.88-3.08,1.52-7-.82-6.83-4.08a4.55,4.55,0,0,1,3.56-4.24,7.53,7.53,0,0,1,4.23.21,3.76,3.76,0,0,1,2.75,3.8C83.41,70.4,83.39,71.91,83.39,73.55Z"/><path class="b" d="M59.84,73.53H57.17c0-.6,0-1.18,0-1.75,0-1,0-2,0-2.91a2.23,2.23,0,0,0-.39-1.16,2.92,2.92,0,0,0-4,.11,2,2,0,0,0,.84,3.23,5.82,5.82,0,0,0,1.73.2,4.76,4.76,0,0,0,.92-.11v2.25A5.82,5.82,0,0,1,51,72.5a4.29,4.29,0,0,1,.67-7,6.54,6.54,0,0,1,6.52.11,3.13,3.13,0,0,1,1.71,3c0,1.35,0,2.7,0,4C59.9,72.91,59.86,73.2,59.84,73.53Z"/><path class="b" d="M111.71,73.57V71.51l4.16-.28c.08,0,.14-.19.23-.3-.17-.51-.62-.67-1-.86-.72-.33-1.45-.66-2.16-1a2,2,0,0,1,.23-3.72,5,5,0,0,1,1.7-.43c1.21-.07,2.43,0,3.73,0V67c-1.23.25-2.55-.13-4,.27.33.31.46.52.65.61.57.28,1.17.49,1.74.75a10.69,10.69,0,0,1,1.33.73A2.12,2.12,0,0,1,118,73a5.53,5.53,0,0,1-1.18.42A26.29,26.29,0,0,1,111.71,73.57Z"/><path class="b" d="M44.91,64.92h2.74c0,.35.07.67.07,1,0,2.53,0,5.07,0,7.6a12.23,12.23,0,0,1-.21,2,2.25,2.25,0,0,1-1.93,1.92c-.86.15-1.74.19-2.72.28V75.52c.29,0,.61,0,.93-.1a1.08,1.08,0,0,0,1.12-1.13,8.61,8.61,0,0,0,0-.88V64.92Z"/><path class="b" d="M99.65,73.5a6.39,6.39,0,0,1-2.74-.12,2.17,2.17,0,0,1-1.79-1.74,5.89,5.89,0,0,1-.18-1.24c0-2.45,0-4.89,0-7.34a3.81,3.81,0,0,1,.07-.44h2.64l.12,2.17,1.89.14V67l-1.88.16A9.11,9.11,0,0,0,98,71.07l1.65.39Z"/><path class="b" d="M85.49,73.5V61.2A7.71,7.71,0,0,1,88,61.11l.11.11s.06.07.06.11q0,5.67.06,11.34c0,.25,0,.5-.06.83Z"/><path class="b" d="M43.57,64.9v2.27l-.9.09a2,2,0,0,0-2.08,2.18c0,1.1,0,2.19,0,3.29,0,.24,0,.48-.07.78-.39,0-.71.07-1,.08h-1.8V65a8.37,8.37,0,0,1,2.41-.1l.2,1.35C41.17,65.29,42.1,64.51,43.57,64.9Z"/><path class="b" d="M35.49,73.54H33A65.26,65.26,0,0,1,32.87,65a10.3,10.3,0,0,1,2.62-.12Z"/><path class="b" d="M92.93,64.88a2,2,0,0,1,.12.44v8.14a10.5,10.5,0,0,1-2.69.11V65A10.55,10.55,0,0,1,92.93,64.88Z"/><path class="b" d="M46.28,60.82c1.07.06,1.74.64,1.7,1.45a1.65,1.65,0,0,1-3.27.1A1.44,1.44,0,0,1,46.28,60.82Z"/><path class="b" d="M91.69,60.82a1.48,1.48,0,1,1-.09,2.93,1.44,1.44,0,0,1-1.55-1.44A1.47,1.47,0,0,1,91.69,60.82Z"/><path class="b" d="M35.81,62.33a1.5,1.5,0,0,1-1.71,1.42,1.47,1.47,0,1,1,.06-2.92C35.28,60.88,35.83,61.49,35.81,62.33Z"/><path class="b" d="M74.69,62.45c.46-1.09,1.11-1.44,2.12-1.15a1.31,1.31,0,0,1,1,1.17,1.22,1.22,0,0,1-.88,1.09A1.57,1.57,0,0,1,74.69,62.45Z"/><path class="b" d="M82.12,62.46c-.53,1.14-1.33,1.49-2.32,1.07a1.22,1.22,0,0,1-.8-1.15,1.36,1.36,0,0,1,.94-1.08C80.92,61,81.6,61.35,82.12,62.46Z"/></svg>