<svg xmlns="http://www.w3.org/2000/svg" viewBox="0 0 120 120"><title>icon-palatium</title><g id="Layer_1" data-name="Layer 1"><rect width="120" height="120" style="fill:none"/></g><g id="Layer_2" data-name="Layer 2"><path d="M22.24,57.47v5.35h1.35V60.67h.79a2.24,2.24,0,0,0,1.26-.25,1.6,1.6,0,0,0,.77-1.37,1.55,1.55,0,0,0-.82-1.36,2.3,2.3,0,0,0-1.16-.22Zm1.82,1c.38,0,1,0,1,.6s-.57.63-1,.63h-.44V58.46Zm5.8-1H28.31l-2.15,5.35h1.41l.4-1.06h2.39l.44,1.06h1.44ZM30,60.83H28.32l.79-2.08Zm7.21,1H34.45V57.47H33.1v5.35h4.08Zm4.13-4.35H39.76L37.6,62.82H39l.4-1.06h2.39l.44,1.06h1.43Zm.11,3.36H39.77l.78-2.08Zm7-3.36H43.22v1h1.94v4.35h1.35V58.47h1.93Zm2.41,0H49.5v5.35h1.35Zm6.77,0H56.27v2.65a2.2,2.2,0,0,1-.1.91,1.3,1.3,0,0,1-1.24.78A1.22,1.22,0,0,1,53.69,61a2.6,2.6,0,0,1-.1-.83V57.47H52.24v3a2.27,2.27,0,0,0,.41,1.52,2.74,2.74,0,0,0,2.25,1A2.87,2.87,0,0,0,57.15,62a2.47,2.47,0,0,0,.47-1.65Zm7.16,0H63.61l-1.71,2-1.7-2H59v5.35h1.35V59.55l1.43,1.72H62l1.43-1.72v3.27h1.35Zm3.87,0v5.35h2.47a2.36,2.36,0,0,0,1.28-.25,1.42,1.42,0,0,0,.76-1.31A1.39,1.39,0,0,0,72,59.88a1.24,1.24,0,0,0,.72-1.08,1.32,1.32,0,0,0-1-1.23,3.64,3.64,0,0,0-1-.1Zm1.89,1c.29,0,.88,0,.88.58s-.6.58-.91.58H70V58.43Zm.07,2.13c.55,0,1.18,0,1.18.65s-.66.64-1.12.64H70V60.56Zm9.59-.41a3.09,3.09,0,1,0-3.09,2.74,2.88,2.88,0,0,0,3.09-2.74m-1.38,0a1.69,1.69,0,0,1-3.38,0,1.69,1.69,0,0,1,3.38,0m8.32,0a3.09,3.09,0,1,0-3.09,2.74,2.88,2.88,0,0,0,3.09-2.74m-1.38,0a1.69,1.69,0,0,1-3.38,0,1.69,1.69,0,0,1,3.38,0m7-2.71H91.29l-1.7,2.42V57.47H88.25v5.35h1.34V60.31l2.13,2.51h1.67L91,60Zm5,.34a4.2,4.2,0,0,0-1.81-.41c-1.34,0-2,.7-2,1.52,0,1.13,1,1.51,1.74,1.77s1,.36,1,.71-.63.48-.8.48A3.47,3.47,0,0,1,94,61.22v1.15a4,4,0,0,0,1.89.52c.8,0,2.1-.35,2.1-1.59,0-1-.8-1.44-1.48-1.68s-1.29-.46-1.29-.79c0,0,0-.44.8-.44a4.07,4.07,0,0,1,1.72.52Z" transform="translate(0 0)" style="fill:#555"/><polygon points="19.92 63.31 19.92 65.51 98.2 65.51 98.2 65.15 20.35 65.15 20.35 63.31 19.92 63.31" style="fill:#555"/><polygon points="53.25 54.66 53.25 55.02 99.82 55.02 99.82 56.86 100.08 56.86 100.08 54.66 53.25 54.66" style="fill:#555"/><rect x="21.89" y="54.66" width="25.4" height="0.36" style="fill:#555"/><path d="M51.21,55.43a.94.94,0,1,1-.94-.94.94.94,0,0,1,.94.94" transform="translate(0 0)" style="fill:#555"/></g></svg>