<?xml version="1.0" encoding="utf-8"?>
<!-- Generator: Adobe Illustrator 19.2.1, SVG Export Plug-In . SVG Version: 6.00 Build 0)  -->
<svg version="1.1" id="Lag_1" xmlns="http://www.w3.org/2000/svg" xmlns:xlink="http://www.w3.org/1999/xlink" x="0px" y="0px"
	 viewBox="0 0 120 120" style="enable-background:new 0 0 120 120;" xml:space="preserve">
<style type="text/css">
	.st0{fill:#555555;}
</style>
<g>
	<path class="st0" d="M63.2,81.2c0-1.8-1.4-3.2-3.2-3.2c-1.8,0-3.2,1.4-3.2,3.2c0,1.8,1.4,3.2,3.2,3.2C61.8,84.4,63.2,83,63.2,81.2"
		/>
	<path class="st0" d="M62.1,66.1c0-1.2-0.9-2.1-2.1-2.1c-1.2,0-2.1,0.9-2.1,2.1c0,1.2,0.9,2.1,2.1,2.1
		C61.2,68.2,62.1,67.2,62.1,66.1"/>
	<path class="st0" d="M73.1,72.6c0-3.2-2.6-5.7-5.7-5.7c-3.2,0-5.7,2.6-5.7,5.7c0,3.1,2.6,5.7,5.7,5.7
		C70.5,78.3,73.1,75.8,73.1,72.6"/>
	<path class="st0" d="M61.1,59.3c0-2.6,2.1-4.8,4.8-4.8c2.6,0,4.8,2.1,4.8,4.8c0,2.6-2.1,4.8-4.8,4.8C63.2,64,61.1,61.9,61.1,59.3"
		/>
	<path class="st0" d="M62.4,51.8c0-1.3-1.1-2.4-2.4-2.4c-1.3,0-2.4,1.1-2.4,2.4c0,1.3,1.1,2.4,2.4,2.4
		C61.3,54.2,62.4,53.2,62.4,51.8"/>
	<path class="st0" d="M64.1,39.7c0-2.3-1.9-4.1-4.1-4.1c-2.3,0-4.1,1.9-4.1,4.1c0,2.3,1.9,4.1,4.1,4.1C62.3,43.9,64.1,42,64.1,39.7"
		/>
	<path class="st0" d="M53.6,39.3c0-1.3-1.1-2.4-2.4-2.4c-1.3,0-2.4,1.1-2.4,2.4c0,1.3,1.1,2.4,2.4,2.4
		C52.5,41.7,53.6,40.6,53.6,39.3"/>
	<path class="st0" d="M49.7,53.2c0-1.3-1.1-2.4-2.4-2.4c-1.3,0-2.4,1.1-2.4,2.4c0,1.3,1.1,2.4,2.4,2.4
		C48.6,55.6,49.7,54.5,49.7,53.2"/>
	<path class="st0" d="M42.8,54.1c0-2-1.6-3.6-3.6-3.6c-2,0-3.6,1.6-3.6,3.6c0,2,1.6,3.6,3.6,3.6C41.2,57.7,42.8,56.1,42.8,54.1"/>
	<path class="st0" d="M56.7,47.2c0-2.1-1.7-3.8-3.8-3.8c-2.1,0-3.8,1.7-3.8,3.8c0,2.1,1.7,3.8,3.8,3.8C55,51,56.7,49.3,56.7,47.2"/>
	<path class="st0" d="M46.9,72.6c0-3.2,2.6-5.7,5.7-5.7c3.2,0,5.7,2.6,5.7,5.7c0,3.1-2.6,5.7-5.7,5.7C49.5,78.3,46.9,75.8,46.9,72.6
		"/>
	<path class="st0" d="M44,67.5c-2.4,0-4.3-1.9-4.3-4.3c0-2.4,1.9-4.3,4.3-4.3c2.4,0,4.3,1.9,4.3,4.3C48.3,65.6,46.4,67.5,44,67.5"/>
	<path class="st0" d="M47.6,43.9c0-2.6-2.1-4.8-4.8-4.8c-2.6,0-4.8,2.1-4.8,4.8c0,2.6,2.1,4.8,4.8,4.8
		C45.4,48.6,47.6,46.5,47.6,43.9"/>
	<path class="st0" d="M58.9,59.3c0-2.6-2.1-4.8-4.8-4.8c-2.6,0-4.8,2.1-4.8,4.8c0,2.6,2.1,4.8,4.8,4.8C56.8,64,58.9,61.9,58.9,59.3"
		/>
	<path class="st0" d="M66.4,39.3c0-1.3,1.1-2.4,2.4-2.4c1.3,0,2.4,1.1,2.4,2.4c0,1.3-1.1,2.4-2.4,2.4C67.5,41.7,66.4,40.6,66.4,39.3
		"/>
	<path class="st0" d="M70.3,53.2c0-1.3,1.1-2.4,2.4-2.4c1.3,0,2.4,1.1,2.4,2.4c0,1.3-1.1,2.4-2.4,2.4C71.4,55.6,70.3,54.5,70.3,53.2
		"/>
	<path class="st0" d="M77.2,54.1c0-2,1.6-3.6,3.6-3.6c2,0,3.6,1.6,3.6,3.6c0,2-1.6,3.6-3.6,3.6C78.8,57.7,77.2,56.1,77.2,54.1"/>
	<path class="st0" d="M63.3,47.2c0-2.1,1.7-3.8,3.8-3.8c2.1,0,3.8,1.7,3.8,3.8c0,2.1-1.7,3.8-3.8,3.8C65,51,63.3,49.3,63.3,47.2"/>
	<path class="st0" d="M76,67.5c2.4,0,4.3-1.9,4.3-4.3c0-2.4-1.9-4.3-4.3-4.3c-2.4,0-4.3,1.9-4.3,4.3C71.7,65.6,73.6,67.5,76,67.5"/>
	<path class="st0" d="M72.4,43.9c0-2.6,2.1-4.8,4.8-4.8c2.6,0,4.8,2.1,4.8,4.8c0,2.6-2.1,4.8-4.8,4.8C74.6,48.6,72.4,46.5,72.4,43.9
		"/>
	<path class="st0" d="M63.2,81.2c0-1.8-1.4-3.2-3.2-3.2c-1.8,0-3.2,1.4-3.2,3.2c0,1.8,1.4,3.2,3.2,3.2C61.8,84.4,63.2,83,63.2,81.2"
		/>
	<path class="st0" d="M62.1,66.1c0-1.2-0.9-2.1-2.1-2.1c-1.2,0-2.1,0.9-2.1,2.1c0,1.2,0.9,2.1,2.1,2.1
		C61.2,68.2,62.1,67.2,62.1,66.1"/>
	<path class="st0" d="M73.1,72.6c0-3.2-2.6-5.7-5.7-5.7c-3.2,0-5.7,2.6-5.7,5.7c0,3.1,2.6,5.7,5.7,5.7
		C70.5,78.3,73.1,75.8,73.1,72.6"/>
	<path class="st0" d="M61.1,59.3c0-2.6,2.1-4.8,4.8-4.8c2.6,0,4.8,2.1,4.8,4.8c0,2.6-2.1,4.8-4.8,4.8C63.2,64,61.1,61.9,61.1,59.3"
		/>
	<path class="st0" d="M62.4,51.8c0-1.3-1.1-2.4-2.4-2.4c-1.3,0-2.4,1.1-2.4,2.4c0,1.3,1.1,2.4,2.4,2.4
		C61.3,54.2,62.4,53.2,62.4,51.8"/>
	<path class="st0" d="M64.1,39.7c0-2.3-1.9-4.1-4.1-4.1c-2.3,0-4.1,1.9-4.1,4.1c0,2.3,1.9,4.1,4.1,4.1C62.3,43.9,64.1,42,64.1,39.7"
		/>
	<path class="st0" d="M53.6,39.3c0-1.3-1.1-2.4-2.4-2.4c-1.3,0-2.4,1.1-2.4,2.4c0,1.3,1.1,2.4,2.4,2.4
		C52.5,41.7,53.6,40.6,53.6,39.3"/>
	<path class="st0" d="M49.7,53.2c0-1.3-1.1-2.4-2.4-2.4c-1.3,0-2.4,1.1-2.4,2.4c0,1.3,1.1,2.4,2.4,2.4
		C48.7,55.6,49.7,54.5,49.7,53.2"/>
	<path class="st0" d="M42.8,54.1c0-2-1.6-3.6-3.6-3.6c-2,0-3.6,1.6-3.6,3.6c0,2,1.6,3.6,3.6,3.6C41.2,57.7,42.8,56.1,42.8,54.1"/>
	<path class="st0" d="M56.7,47.2c0-2.1-1.7-3.8-3.8-3.8c-2.1,0-3.8,1.7-3.8,3.8c0,2.1,1.7,3.8,3.8,3.8C55,51,56.7,49.3,56.7,47.2"/>
	<path class="st0" d="M46.9,72.6c0-3.2,2.6-5.7,5.7-5.7c3.1,0,5.7,2.6,5.7,5.7c0,3.1-2.6,5.7-5.7,5.7C49.5,78.3,46.9,75.8,46.9,72.6
		"/>
	<path class="st0" d="M44,67.5c-2.4,0-4.3-1.9-4.3-4.3c0-2.4,1.9-4.3,4.3-4.3c2.4,0,4.3,1.9,4.3,4.3C48.3,65.6,46.4,67.5,44,67.5"/>
	<path class="st0" d="M47.6,43.9c0-2.6-2.1-4.8-4.8-4.8c-2.6,0-4.8,2.1-4.8,4.8c0,2.6,2.1,4.8,4.8,4.8
		C45.4,48.6,47.6,46.5,47.6,43.9"/>
	<path class="st0" d="M58.9,59.3c0-2.6-2.1-4.8-4.8-4.8c-2.6,0-4.8,2.1-4.8,4.8c0,2.6,2.1,4.8,4.8,4.8C56.8,64,58.9,61.9,58.9,59.3"
		/>
	<path class="st0" d="M66.4,39.3c0-1.3,1.1-2.4,2.4-2.4c1.3,0,2.4,1.1,2.4,2.4c0,1.3-1.1,2.4-2.4,2.4C67.5,41.7,66.4,40.6,66.4,39.3
		"/>
	<path class="st0" d="M70.3,53.2c0-1.3,1.1-2.4,2.4-2.4c1.3,0,2.4,1.1,2.4,2.4c0,1.3-1.1,2.4-2.4,2.4C71.4,55.6,70.3,54.5,70.3,53.2
		"/>
	<path class="st0" d="M77.2,54.1c0-2,1.6-3.6,3.6-3.6c2,0,3.6,1.6,3.6,3.6c0,2-1.6,3.6-3.6,3.6C78.8,57.7,77.2,56.1,77.2,54.1"/>
	<path class="st0" d="M63.3,47.2c0-2.1,1.7-3.8,3.8-3.8c2.1,0,3.8,1.7,3.8,3.8c0,2.1-1.7,3.8-3.8,3.8C65,51,63.3,49.3,63.3,47.2"/>
	<path class="st0" d="M76,67.5c2.4,0,4.3-1.9,4.3-4.3c0-2.4-1.9-4.3-4.3-4.3c-2.4,0-4.3,1.9-4.3,4.3C71.7,65.6,73.6,67.5,76,67.5"/>
	<path class="st0" d="M72.4,43.9c0-2.6,2.1-4.8,4.8-4.8c2.6,0,4.8,2.1,4.8,4.8c0,2.6-2.1,4.8-4.8,4.8C74.6,48.6,72.4,46.5,72.4,43.9
		"/>
</g>
</svg>
