<?xml version="1.0" encoding="utf-8"?>
<!-- Generator: Adobe Illustrator 19.2.1, SVG Export Plug-In . SVG Version: 6.00 Build 0)  -->
<svg version="1.1" id="Lag_1" xmlns="http://www.w3.org/2000/svg" xmlns:xlink="http://www.w3.org/1999/xlink" x="0px" y="0px"
	 viewBox="0 0 120 120" style="enable-background:new 0 0 120 120;" xml:space="preserve">
<style type="text/css">
	.st0{fill:#555555;}
</style>
<title>icon-storytel</title>
<g>
	<path class="st0" d="M44.9,77c1-7.9,4.1-13.1,7.9-17.2c0.3-0.3,1.4-0.7,1.7-0.3c4.8,1,8.3,1.4,11-1.7c1-1.4,2.4-3.4,4.5-2.8
		c1.7,0.7,2.1,2.8,1.4,5.2c-1.4,3.1-5.2,4.8-9.6,4.1c-3.8-0.7-5.2,0.7-6.9,2.1c-1.7,1.4-3.1,5.8-3.8,8.9c-0.3,1.7-2.1,3.1-3.4,3.1
		c-1.4,0-1.7,1-1,1.7c0.7,0.7,2.8,1.7,3.4,2.1c2.4,1,4.1-0.7,4.8-3.1c0.7-2.4,2.8-7.6,4.8-8.3c2.4-0.3,3.1,1.4,2.1,2.4
		c-0.7,1-1.4,4.1-1.4,5.5c0,5.2,3.1,6.2,6.2,5.8c3.1-0.7,7.6-5.8,9.3-8.9c1-1.7,2.1-0.7,2.1,0c0.3,0.7,0.7,2.1,0.3,3.4
		c-0.3,1,0.7,1.4,1.4,0.7c0.7-0.7,2.1-5.2,1.7-7.9c-0.3-3.4-2.4-2.4-4.1-1.4c-2.1,1-4.8,3.1-5.5,4.5C71.4,75.6,70,76.7,69,77
		c-1,0.3-1.7,0-2.1-1.4c-0.3-1,0.7-2.8,3.4-4.8c1.4-1,7.6-3.4,11.4-4.5c2.4-0.7,3.8-6.2,0.3-8.6c-1.4-1-2.1-2.1-2.8-3.4
		c-0.7-1.4-0.7-4.8-0.7-8.9c0-2.4-2.1-2.8-3.4-2.8c-1,0-2.1,0.7-3.8,1c-1.4,0.3-2.8-1-2.8-2.4c-0.7-3.4-2.4-6.2-6.9-5.8
		c-4.5,0-5.2,4.8-4.1,7.2c1,2.4,3.4,3.8,6.5,3.1c2.7-0.7,2.7,1.4,2.1,2.1c-0.7,0.7-2.4,3.1-3.1,4.8c-0.7,2.1-2.4,3.8-3.4,3.4
		c-1.7-0.3-4.5-0.7-3.4-2.4c1-1.7,4.5-1.7,2.4-4.1c-0.7-1-2.8,0.3-5.2,2.1c-1,0.7-2.4-0.3-1.7-1c2.4-2.1,4.8-2.4,5.2-3.1
		c0.3-0.7-0.7-1.7-1-1.7c-1,0-4.5,1.7-6.5,3.4c-0.7,0.7-1.7,0-1-1c2.1-2.4,5.8-3.1,5.8-3.8c0-1-1-1.4-1.7-1c-5.5,1-11,4.8-15.8,11.3
		c-1,1-0.7,1.4-0.7,2.8c0,0.7,0.3,1,1.4,0c1.7-2.1,3.1-3.4,4.8-4.8c0.7-0.7,1.7,0.3,0.7,1.4c-1.4,1-4.5,3.8-5.8,5.8
		c-0.3,1-0.3,1.7,0,3.1c0,1,0.3,2.4,1,1.4c1.7-3.1,4.1-6.5,5.5-7.9c0.7-0.7,2.1,0,1,1c-1.4,1.7-4.8,6.9-6.2,9.3
		c-0.7,1-0.3,1.4,0.3,3.1c0.7,2.1,1.4,2.1,1.7,0.7c1-2.4,4.5-8.6,5.8-10c0.7-1,2.1-0.3,1,1c-1,1.4-4.8,8.6-5.5,11.4
		c-0.3,1.7,0.3,2.8,1.4,4.1C43.9,78,44.5,78.4,44.9,77"/>
</g>
</svg>
