<svg xmlns="http://www.w3.org/2000/svg" viewBox="0 0 120 120"><title>icon-grif</title><g id="Layer_1" data-name="Layer 1"><rect width="120" height="120" style="fill:none"/></g><g id="Layer_2" data-name="Layer 2"><path d="M91,48.71H82.08V71.29h4V64.85a3.57,3.57,0,0,1,2.64-1.39c2.12,0,4.21,1.74,6.39,1.74A9.83,9.83,0,0,0,100,63.44l-1.72-2.82a8.37,8.37,0,0,1-3.27.87c-1.8,0-3.86-1.74-6.37-1.74a5.06,5.06,0,0,0-2.6.81V52.42h7.23ZM67.71,71.29h4V54.36h-4Zm-7.52,0-6-9.93A7.59,7.59,0,0,0,56,56.45c0-3.71-2.48-7.74-8.71-7.74H44V71.29H48V64.58a10.06,10.06,0,0,0,3.28-1l4.63,7.68ZM51.83,56.42A4.27,4.27,0,0,1,48,60.87V52.42a3.72,3.72,0,0,1,3.86,4M32.44,71.64h1.87V57.87H27.56v3.71h3.05v6.16A7.54,7.54,0,0,1,24.18,60a7.67,7.67,0,0,1,8-7.94v-3.7C24.76,48.36,20,53.39,20,60c0,7.29,5.21,11.58,12.44,11.64" transform="translate(0 0)" style="fill:#555"/></g></svg>