<svg xmlns="http://www.w3.org/2000/svg" viewBox="0 0 120 120"><title>icon-modtryk</title><g id="Layer_1" data-name="Layer 1"><rect width="120" height="120" style="fill:none"/></g><g id="Layer_2" data-name="Layer 2"><path d="M27.5,60.3c-.9.65-1.3,1-2.3,1.75.35-1.19.55-1.69.87-2.75a.83.83,0,0,0-.56-1,.77.77,0,0,0-1,.5c-.21.71-1.11,3.44-1.34,4.23a1.25,1.25,0,0,0,.48,1.14,1.24,1.24,0,0,0,1.23.06c.67-.49,2.91-2.26,3.51-2.68a.77.77,0,0,0,.15-1.06.8.8,0,0,0-1.09-.21" transform="translate(0 0)" style="fill:#555"/><path d="M33.1,58.78a.76.76,0,0,0-1-.48.79.79,0,0,0-.55,1c.32,1.06.53,1.56.9,2.74-1-.72-1.42-1.07-2.31-1.72a.84.84,0,0,0-1.11.21.79.79,0,0,0,.16,1.06c.61.43,2.9,2.17,3.57,2.65A1.16,1.16,0,0,0,34.49,63c-.25-.79-1.19-3.48-1.39-4.19" transform="translate(0 0)" style="fill:#555"/><path d="M37.15,54.16a1.26,1.26,0,0,0-.94-.79c-.83,0-3.7.06-4.43,0a.75.75,0,0,0-.75.75.79.79,0,0,0,.74.83c1.11,0,1.65,0,2.89,0-1,.75-1.45,1-2.35,1.68a.82.82,0,0,0-.14,1.12.77.77,0,0,0,1.06.17c.59-.44,3-2.08,3.62-2.58a1.22,1.22,0,0,0,.3-1.2" transform="translate(0 0)" style="fill:#555"/><path d="M30.6,53.62a.65.65,0,0,1-.49,0,.7.7,0,0,1-.34-.36L29.41,52c-.12-.42-.24-.84-.46-1.48h-.28c-.19.57-.31,1-.41,1.35s-.23.8-.42,1.35a.57.57,0,0,1-.32.34.62.62,0,0,1-.5,0,.62.62,0,0,1-.4-.76c.14-.4.44-1.39.73-2.36l.54-1.75a1.13,1.13,0,0,1,.92-.56,1.1,1.1,0,0,1,.91.56c.13.39.38,1.19.62,2s.54,1.76.67,2.13a.64.64,0,0,1-.41.77m.69-.87c-.12-.36-.39-1.25-.66-2.12s-.5-1.6-.62-2v0a1.32,1.32,0,0,0-2.38,0v0c-.11.34-.32,1-.55,1.77-.29,1-.59,1.94-.73,2.33a.93.93,0,0,0,.58,1.16.88.88,0,0,0,.33.06,1,1,0,0,0,.41-.09.89.89,0,0,0,.47-.52c.2-.56.31-1,.43-1.37s.15-.55.26-.9c.13.41.22.72.31,1s.21.71.37,1.21a.91.91,0,0,0,.49.53,1,1,0,0,0,.73,0,.93.93,0,0,0,.58-1.16" transform="translate(0 0)" style="fill:#555"/><path d="M26.1,54.63a.6.6,0,0,1-.44.2H24.39c-.46,0-.93,0-1.61,0l-.09.27,1.12.81c.38.27.74.52,1.22.89a.56.56,0,0,1,.22.4.62.62,0,0,1-.13.48.61.61,0,0,1-.85.14c-.34-.26-1.31-.95-2.16-1.55l-1.42-1a1.08,1.08,0,0,1-.25-1h0a1.1,1.1,0,0,1,.81-.69c.42,0,1.34,0,2.22,0l2.22,0h0a.64.64,0,0,1,.59.62.66.66,0,0,1-.19.45m-.42-1.38c-.37,0-1.3,0-2.2,0l-2.24,0h0a1.38,1.38,0,0,0-1.07.89,1.43,1.43,0,0,0,.33,1.36h0l1.44,1c.85.6,1.81,1.28,2.15,1.54a.8.8,0,0,0,.51.18,1,1,0,0,0,.76-.37,1,1,0,0,0,.2-.71.89.89,0,0,0-.35-.6c-.48-.37-.84-.63-1.22-.9l-.75-.53h1.15l1.27,0a.94.94,0,0,0,.66-.3,1,1,0,0,0,.27-.68.93.93,0,0,0-.91-.91" transform="translate(0 0)" style="fill:#555"/><polygon points="39.27 53.64 43.37 53.64 45.21 60.76 45.24 60.76 47.08 53.64 51.17 53.64 51.17 64.31 48.55 64.31 48.55 56.21 48.52 56.21 46.28 64.31 44.16 64.31 41.92 56.21 41.89 56.21 41.89 64.31 39.27 64.31 39.27 53.64" style="fill:#555"/><path d="M56.7,62.59c1.18,0,1.56-1.16,1.56-2.15s-.38-2.17-1.56-2.17-1.54,1.19-1.54,2.17.36,2.15,1.54,2.15m0-6.26a4.11,4.11,0,1,1-4.08,4.11,4,4,0,0,1,4.08-4.11" transform="translate(0 0)" style="fill:#555"/><path d="M64.29,60.35c0,1.06.39,2.24,1.56,2.24s1.51-1.18,1.51-2.16-.41-2.16-1.51-2.16-1.56,1.1-1.56,2.08m5.52,4H67.39v-.89h0a2.49,2.49,0,0,1-2.14,1.12c-2.44,0-3.47-2.1-3.47-4.28,0-2,1.08-3.93,3.28-3.93a2.62,2.62,0,0,1,2.21,1.06h0V53.64h2.54Z" transform="translate(0 0)" style="fill:#555"/><path d="M76.22,58.2H74.65v3.53c0,.61.36.74.91.74l.66,0v1.86c-.46,0-.93.08-1.39.08-2.17,0-2.72-.63-2.72-2.74V58.2H70.82V56.56h1.29V54.21h2.54v2.35h1.57Z" transform="translate(0 0)" style="fill:#555"/><path d="M77.45,56.56h2.46v1.36h0a2.34,2.34,0,0,1,2.33-1.51,2.4,2.4,0,0,1,.6.06v2.31a3.57,3.57,0,0,0-1-.15A1.78,1.78,0,0,0,80,60.47v3.84H77.45Z" transform="translate(0 0)" style="fill:#555"/><path d="M88,65c-.61,1.7-1.52,1.91-3.24,1.91h-1.2V64.85h.89a.9.9,0,0,0,1-.87,10.81,10.81,0,0,0-.64-2l-2-5.39h2.69l1.46,5h0l1.47-5H91Z" transform="translate(0 0)" style="fill:#555"/><polygon points="91.75 53.64 91.75 64.31 94.29 64.31 94.29 61.83 94.95 61.19 96.85 64.31 99.91 64.31 96.71 59.49 99.55 56.56 96.61 56.56 94.29 59.14 94.29 53.64 91.75 53.64" style="fill:#555"/></g></svg>