<svg xmlns="http://www.w3.org/2000/svg" viewBox="0 0 120 120"><title>icon-nextory</title><g id="Layer_1" data-name="Layer 1"><rect width="120" height="120" style="fill:none"/></g><g id="Layer_2" data-name="Layer 2"><path d="M20.05,50.1v16a.22.22,0,0,0,.06.15.24.24,0,0,0,.14.05h2.43a.2.2,0,0,0,.2-.2V54.82l8.58,11.39.08.06.08,0h2.11a.25.25,0,0,0,.15-.06.19.19,0,0,0,0-.14v-16a.24.24,0,0,0,0-.14.2.2,0,0,0-.15-.06H31.31a.2.2,0,0,0-.15.06.35.35,0,0,0-.06.14V61L22.78,50a.18.18,0,0,0-.07,0,.32.32,0,0,0-.09,0H20.25a.2.2,0,0,0-.14.06.2.2,0,0,0-.06.15M97.12,54a.25.25,0,0,1,.12,0h2.51a.2.2,0,0,1,.17.09.24.24,0,0,1,0,.19L95.13,66.62c-1,2.55-2.09,3.49-4.08,3.49a5.72,5.72,0,0,1-2.77-.69.2.2,0,0,1-.08-.26L89,67.44a.25.25,0,0,1,.12-.11.25.25,0,0,1,.15,0,3.36,3.36,0,0,0,1.49.38c.79,0,1.28-.36,1.75-1.41l-5-12.11a.19.19,0,0,1,0-.19.22.22,0,0,1,.16-.09h2.61a.21.21,0,0,1,.11,0,.2.2,0,0,1,.08.1l3.41,9,3.19-9a.23.23,0,0,1,.07-.1ZM80.19,54a.25.25,0,0,1,.14-.06h2.46a.21.21,0,0,1,.2.2v2.59A4.24,4.24,0,0,1,86,54a.2.2,0,0,1,.15,0,.2.2,0,0,1,.09.09l1.07,2.57a.25.25,0,0,1,0,.19.2.2,0,0,1-.16.09C84.67,57,83,58.36,83,61.58v4.51a.2.2,0,0,1-.06.14.26.26,0,0,1-.14.06H80.33a.35.35,0,0,1-.14-.06.25.25,0,0,1-.06-.14v-12a.2.2,0,0,1,.06-.14M76,60.17v0a3.82,3.82,0,0,0-3.79-4,3.71,3.71,0,0,0-3.73,3.93v.05a3.82,3.82,0,0,0,3.77,4A3.71,3.71,0,0,0,76,60.17Zm-10.35,0v0a6.59,6.59,0,0,1,13.18-.05v.05a6.46,6.46,0,0,1-6.62,6.44,6.39,6.39,0,0,1-6.56-6.4Zm-5.92,2.7V50.1a.24.24,0,0,1,0-.14.2.2,0,0,1,.15-.06h2.43a.2.2,0,0,1,.2.2v3.82H65a.21.21,0,0,1,.14.07.16.16,0,0,1,.06.13v2a.21.21,0,0,1-.21.21h-2.4v6.06c0,.94.32,1.58,1.16,1.58a2.51,2.51,0,0,0,1.16-.23.2.2,0,0,1,.2,0,.22.22,0,0,1,.09.17v1.88a.23.23,0,0,1,0,.11A.27.27,0,0,1,65,66a4.07,4.07,0,0,1-2.13.48c-2.09,0-3.2-.92-3.2-3.63m-6.65-4.8L55.88,54a.23.23,0,0,1,.07-.07l.09,0h2.53a.19.19,0,0,1,.17.1.2.2,0,0,1,0,.22L54.61,60l4.31,6a.2.2,0,0,1,0,.21.18.18,0,0,1-.17.11h-2.6l-.09,0A.23.23,0,0,1,56,66.2l-3-4.32-3,4.32-.06,0a.2.2,0,0,1-.11,0H47.36a.18.18,0,0,1-.17-.1.2.2,0,0,1,0-.21l4.29-6-4.13-5.75a.22.22,0,0,1,0-.21.21.21,0,0,1,.19-.11h2.59a.19.19,0,0,1,.1,0l.07.06Zm-8.53,1.17C44.35,57.41,43.27,56,41.4,56s-3,1.34-3.21,3.26Zm-9.15.91v0a6.14,6.14,0,0,1,6-6.44c3.93,0,5.92,3.09,5.92,6.65,0,.21,0,.41,0,.63a.19.19,0,0,1-.07.12.21.21,0,0,1-.13,0h-8.9a3.46,3.46,0,0,0,3.56,3.14A4.38,4.38,0,0,0,45,62.9a.22.22,0,0,1,.17,0,.16.16,0,0,1,.11,0l1.38,1.22a.23.23,0,0,1,.06.12.18.18,0,0,1-.05.16,6.25,6.25,0,0,1-4.93,2.17,6.17,6.17,0,0,1-6.34-6.42" transform="translate(0 0)" style="fill:#555"/></g></svg>