<?xml version="1.0" encoding="utf-8"?>
<!-- Generator: Adobe Illustrator 19.2.1, SVG Export Plug-In . SVG Version: 6.00 Build 0)  -->
<svg version="1.1" id="Lag_1" xmlns="http://www.w3.org/2000/svg" xmlns:xlink="http://www.w3.org/1999/xlink" x="0px" y="0px"
	 viewBox="0 0 120 120" style="enable-background:new 0 0 120 120;" xml:space="preserve">
<style type="text/css">
	.st0{fill:#555555;}
</style>
<g id="_x23_ffffffff">
	<path class="st0" d="M50.2,52.6c0.5,0,0.9,0,1.4,0c0,1.3,0,2.7,0,4c1.5,0,3,0,4.5,0c0-1.3,0-2.7,0-4c0.5,0,0.9,0,1.4,0
		c0,3.2,0,6.4,0,9.6c-0.5,0-0.9,0-1.4,0c0-1.5,0-2.9,0-4.4c-1.5,0-3,0-4.6,0c0,1.5,0,2.9,0,4.4c-0.5,0-0.9,0-1.4,0
		C50.2,58.9,50.2,55.8,50.2,52.6z"/>
	<path class="st0" d="M60,52.6c0.5,0,0.9,0,1.4,0c0,1.3,0,2.7,0,4c1.5,0,3,0,4.6,0c0-1.3,0-2.7,0-4c0.5,0,0.9,0,1.4,0
		c0,3.2,0,6.4,0,9.6c-0.5,0-0.9,0-1.4,0c0-1.5,0-2.9,0-4.4c-1.5,0-3,0-4.6,0c0,1.5,0,2.9,0,4.4c-0.5,0-0.9,0-1.4,0
		C60,58.9,60,55.8,60,52.6z"/>
	<path class="st0" d="M15.8,53.8c0.3,0,0.6,0,1,0c0,0.3,0,0.7,0,1c-0.3,0-0.6,0-1,0C15.8,54.4,15.8,54.1,15.8,53.8z"/>
	<path class="st0" d="M17.5,53.8c0.3,0,0.6,0,1,0c0,0.3,0,0.7,0,1c-0.3,0-0.6,0-1,0C17.5,54.4,17.5,54.1,17.5,53.8z"/>
	<path class="st0" d="M16.2,55.3c1-0.2,2-0.1,2.9,0.4c0.8,0.5,1.3,1.3,1.5,2.2c0.2,1,0.1,2.1-0.5,3c-0.5,0.7-1.2,1.2-2.1,1.3
		c-1,0.2-2.2,0-3-0.7c-0.6-0.5-1-1.2-1.1-2c-0.2-1,0-2.1,0.6-3C14.8,55.9,15.4,55.5,16.2,55.3 M16.4,56.2c-0.7,0.2-1.3,0.9-1.4,1.6
		c-0.2,0.9-0.1,2,0.4,2.7c0.9,1.2,3,1.1,3.7-0.2c0.7-1.1,0.6-2.8-0.4-3.7C18.1,56.1,17.2,55.9,16.4,56.2z"/>
	<path class="st0" d="M44.9,55.5c1-0.4,2.2-0.4,3.3,0c0,0.3-0.1,0.6-0.1,0.9c-1.2-0.6-2.9-0.5-3.7,0.7c-0.6,0.9-0.6,2.1-0.1,3
		c0.4,0.6,1,1.1,1.8,1.2c0.7,0.1,1.5,0,2.1-0.3c0,0.3,0,0.6,0.1,0.9c-1,0.3-2.2,0.3-3.2,0c-0.9-0.3-1.6-1-1.9-1.8
		c-0.4-1-0.4-2.1,0.1-3C43.6,56.4,44.2,55.8,44.9,55.5z"/>
	<path class="st0" d="M110.2,55.4c1.1-0.3,2.3-0.2,3.3,0.2c0,0.3-0.1,0.7-0.1,1c-0.7-0.4-1.6-0.5-2.4-0.4c-0.7,0.1-1.4,0.5-1.9,1.1
		c-0.6,0.9-0.6,2.2,0,3.2c0.4,0.6,1,0.9,1.7,1c0.5,0.1,1.1,0,1.6-0.1c0-0.7,0-1.4,0-2.1c-0.5,0-1,0-1.5,0c0-0.3,0-0.5,0-0.8
		c0.8,0,1.7,0,2.5,0c0,1.2,0,2.4,0,3.6c-1.1,0.3-2.3,0.4-3.4,0.1c-0.9-0.2-1.8-0.8-2.2-1.7c-0.5-1.1-0.5-2.5,0.1-3.6
		C108.6,56.1,109.4,55.6,110.2,55.4z"/>
	<path class="st0" d="M6.4,55.3c0.3,0,0.7,0,1,0c0,1,0,1.9,0,2.9c1.1,0,2.3,0,3.4,0c0-1,0-1.9,0-2.9c0.3,0,0.7,0,1,0
		c0,2.3,0,4.5,0,6.8c-0.3,0-0.7,0-1,0c0-1,0-2.1,0-3.1c-1.1,0-2.3,0-3.4,0c0,1,0,2.1,0,3.1c-0.3,0-0.7,0-1,0
		C6.4,59.9,6.4,57.6,6.4,55.3z"/>
	<path class="st0" d="M22.3,55.3c1,0,2-0.1,3,0.1c0.5,0.1,1.1,0.3,1.4,0.8c0.3,0.6,0.3,1.3-0.1,1.8c-0.3,0.4-0.7,0.6-1.2,0.7
		c0.3,0.1,0.5,0.4,0.7,0.7c0.5,0.9,0.9,1.8,1.4,2.7c-0.4,0-0.8,0-1.2,0c-0.4-0.8-0.7-1.5-1.1-2.3c-0.1-0.3-0.3-0.6-0.7-0.7
		c-0.4-0.1-0.8,0-1.2,0c0,1,0,2,0,3c-0.3,0-0.7,0-1,0C22.3,59.9,22.3,57.6,22.3,55.3 M23.3,56.2c0,0.7,0,1.4,0,2.1
		c0.7,0,1.4,0.1,2-0.3c0.5-0.3,0.5-1.2,0-1.5C24.7,56.1,24,56.2,23.3,56.2z"/>
	<path class="st0" d="M28.9,55.3c1.2,0.1,2.4-0.2,3.5,0.3c0.9,0.4,1.2,1.6,0.6,2.4c-0.3,0.4-0.8,0.6-1.2,0.7
		c0.5,0.1,0.9,0.2,1.3,0.6c0.7,0.8,0.5,2.2-0.5,2.6c-1.2,0.5-2.5,0.2-3.7,0.3C28.9,59.9,28.9,57.6,28.9,55.3 M29.9,56.1
		c0,0.7,0,1.4,0,2.1c0.6,0,1.2,0,1.8-0.2c0.7-0.3,0.8-1.4,0.1-1.8C31.2,56,30.5,56.1,29.9,56.1 M29.9,59c0,0.8,0,1.5,0,2.3
		c0.6,0,1.1,0,1.7-0.1c0.3-0.1,0.6-0.2,0.8-0.5c0.2-0.5,0.1-1.2-0.4-1.5C31.3,59,30.6,59,29.9,59z"/>
	<path class="st0" d="M35.5,55.3c0.3,0,0.7,0,1,0c0,1.4,0,2.8,0,4.1c0,0.7,0.2,1.5,0.9,1.8c0.6,0.3,1.4,0.2,1.9-0.1
		c0.5-0.4,0.7-1.1,0.7-1.8c0-1.3,0-2.7,0-4c0.3,0,0.7,0,1,0c0,1.3,0,2.7,0,4c0,0.8-0.2,1.7-0.8,2.2c-0.7,0.6-1.7,0.8-2.6,0.6
		c-0.7-0.1-1.4-0.5-1.8-1.2c-0.3-0.5-0.4-1.2-0.4-1.8C35.5,57.9,35.5,56.6,35.5,55.3z"/>
	<path class="st0" d="M68.7,62.1c1-2.3,2-4.5,3.1-6.8c0.4,0,0.7,0,1.1,0c1,2.3,2,4.5,3,6.8c-0.4,0-0.8,0-1.1,0
		c-0.2-0.6-0.5-1.1-0.7-1.7c-1.2,0-2.3,0-3.5,0c-0.2,0.6-0.5,1.1-0.7,1.7C69.4,62.1,69,62.1,68.7,62.1 M70.8,59.6c0.9,0,1.9,0,2.8,0
		c-0.5-1.1-1-2.3-1.4-3.4C71.7,57.4,71.3,58.5,70.8,59.6z"/>
	<path class="st0" d="M77.2,55.3c0.6,0,1.1,0,1.7,0c0.8,1.9,1.5,3.8,2.2,5.7c0.7-1.9,1.5-3.8,2.2-5.7c0.6,0,1.1,0,1.7,0
		c0,2.3,0,4.5,0,6.8c-0.3,0-0.7,0-1,0c0-2,0-4,0-5.9c-0.8,2-1.6,4-2.4,5.9c-0.3,0-0.7,0-1,0c-0.8-2-1.6-4-2.4-5.9c0,2,0,4,0,5.9
		c-0.3,0-0.7,0-1,0C77.2,59.9,77.2,57.6,77.2,55.3z"/>
	<path class="st0" d="M87.1,55.3c0.7,0,1.4,0,2.2,0c0.6,0,1.2,0.1,1.7,0.5c0.6,0.4,0.7,1.3,0.4,2c-0.3,0.5-0.8,0.7-1.3,0.9
		c0.5,0.1,0.9,0.2,1.3,0.6c0.7,0.8,0.5,2.2-0.5,2.6c-1.2,0.5-2.5,0.2-3.7,0.3C87.1,59.9,87.1,57.6,87.1,55.3 M88.1,56.1
		c0,0.7,0,1.4,0,2.1c0.6,0,1.2,0,1.8-0.2c0.7-0.2,0.8-1.4,0.1-1.8C89.4,56,88.7,56.1,88.1,56.1 M88.1,59c0,0.8,0,1.5,0,2.3
		c0.5,0,1.1,0,1.6-0.1c0.3-0.1,0.6-0.2,0.8-0.5c0.3-0.5,0.1-1.2-0.4-1.5C89.5,59,88.8,59,88.1,59z"/>
	<path class="st0" d="M93.7,55.3c0.3,0,0.7,0,1,0c0,1.4,0,2.7,0,4.1c0,0.7,0.2,1.5,0.9,1.8c0.6,0.3,1.5,0.3,2-0.2
		c0.5-0.4,0.6-1.1,0.6-1.8c0-1.3,0-2.6,0-3.9c0.3,0,0.7,0,1,0c0,1.3,0,2.7,0,4c0,0.8-0.2,1.7-0.8,2.2c-0.7,0.7-1.8,0.8-2.7,0.6
		c-0.7-0.1-1.4-0.5-1.7-1.2c-0.4-0.7-0.4-1.5-0.4-2.2C93.7,57.6,93.7,56.5,93.7,55.3z"/>
	<path class="st0" d="M101.4,55.3c1,0,2-0.1,2.9,0.1c0.5,0.1,1.1,0.3,1.4,0.8c0.3,0.6,0.3,1.3-0.1,1.8c-0.3,0.4-0.7,0.6-1.2,0.7
		c0.3,0.1,0.5,0.4,0.7,0.7c0.5,0.9,0.9,1.8,1.4,2.8c-0.4,0-0.8,0-1.2,0c-0.4-0.9-0.8-1.7-1.2-2.6c-0.3-0.6-1.1-0.4-1.7-0.4
		c0,1,0,2,0,3c-0.3,0-0.7,0-1,0C101.4,59.9,101.4,57.6,101.4,55.3 M102.4,58.2c0.7,0,1.5,0.1,2.1-0.3c0.5-0.4,0.5-1.2-0.1-1.5
		c-0.6-0.4-1.3-0.2-2-0.2C102.4,56.9,102.4,57.6,102.4,58.2z"/>
	<path class="st0" d="M50.8,64.9c0.3,0,0.8-0.1,0.8,0.3c-0.3,0-0.5-0.2-0.8,0c-0.5,0.3-0.5,1.1,0,1.4c0.2,0.1,0.4,0.1,0.6,0.1
		c0-0.2,0-0.4,0-0.6c-0.1,0-0.3,0-0.4,0c0-0.1,0-0.2,0-0.2c0.2,0,0.4,0,0.6,0c0,0.3,0,0.7,0,1c-0.3,0.1-0.7,0.1-1-0.1
		C49.9,66.3,50,65.1,50.8,64.9z"/>
	<path class="st0" d="M61.9,66.1c-0.5-0.2-0.5-1.1,0.1-1.2c0.3-0.1,0.6,0.1,0.6,0.4c0.1,0.4,0.1,1-0.1,1.4c-0.2,0.3-0.5,0.3-0.8,0.2
		c0-0.1,0-0.2,0-0.2c0.2,0,0.4,0.1,0.6,0c0.2-0.1,0.2-0.4,0.3-0.6C62.3,66,62.1,66.2,61.9,66.1 M62,65.1c-0.4,0.1-0.3,0.9,0.2,0.8
		C62.6,65.7,62.4,65,62,65.1z"/>
	<path class="st0" d="M63.7,66.1c-0.5-0.2-0.4-1.1,0.2-1.2c0.4-0.1,0.6,0.3,0.6,0.6c0,0.5,0,1.1-0.4,1.3c-0.2,0.1-0.7,0.2-0.7-0.2
		c0.2,0,0.5,0.1,0.6-0.1c0.2-0.1,0.2-0.4,0.3-0.6C64.2,66,64,66.2,63.7,66.1 M63.9,65.1c-0.4,0.1-0.3,0.9,0.1,0.8
		C64.5,65.7,64.4,65,63.9,65.1z"/>
	<path class="st0" d="M65.7,66.1c-0.5-0.2-0.4-1.2,0.2-1.2c0.3-0.1,0.6,0.2,0.6,0.5c0.1,0.4,0.1,0.9-0.2,1.3
		c-0.2,0.3-0.5,0.2-0.8,0.2c0-0.1,0-0.2,0-0.3c0.2,0,0.4,0.1,0.5,0c0.2-0.1,0.2-0.4,0.3-0.6C66.1,66,65.9,66.2,65.7,66.1 M65.7,65.1
		c-0.2,0.2-0.2,0.6,0,0.7c0.2,0.1,0.4-0.1,0.4-0.3C66.3,65.3,66,64.9,65.7,65.1z"/>
	<path class="st0" d="M59.7,65.4c0.2-0.2,0.4-0.5,0.7-0.5c0,0.7,0,1.3,0,2c-0.1,0-0.2,0-0.3,0c0-0.5,0-1.1,0-1.6
		C60.1,65.3,59.9,65.3,59.7,65.4z"/>
	<path class="st0" d="M53,66.8c-0.7-0.1-0.7-1.5,0.1-1.5c0.4,0,0.6,0.5,0.6,0.8c-0.3,0-0.6,0-1,0c0.1,0.1,0.1,0.3,0.2,0.4
		c0.2,0.1,0.4,0,0.7,0C53.6,66.9,53.2,66.9,53,66.8 M52.7,66c0.2,0,0.5,0,0.7,0c-0.1-0.2-0.1-0.4-0.4-0.4
		C52.8,65.6,52.8,65.8,52.7,66z"/>
	<path class="st0" d="M54.7,65.4c0.2-0.1,0.5,0,0.7,0.1c0,0,0-0.1,0-0.2l0.2,0c0,0.6,0.1,1.1,0,1.7c-0.1,0.4-0.7,0.4-1.1,0.3
		c0-0.1,0-0.2,0-0.3c0.2,0,0.4,0.1,0.6,0.1c0.2-0.1,0.2-0.4,0.3-0.5c-0.2,0.1-0.5,0.3-0.7,0.1C54.2,66.5,54.3,65.7,54.7,65.4
		 M54.9,65.6c-0.4,0.2-0.4,1,0.1,1C55.5,66.5,55.4,65.5,54.9,65.6z"/>
	<path class="st0" d="M56.5,65.4c0.1,0,0.2,0,0.2,0.1c0.1-0.1,0.3-0.1,0.4-0.2c0,0.1,0,0.2,0,0.2c-0.7,0-0.5,0.8-0.5,1.3
		c-0.1,0-0.2,0-0.2,0C56.5,66.3,56.4,65.9,56.5,65.4z"/>
	<path class="st0" d="M57.7,66.5c0.1,0,0.2,0,0.3,0c0,0.1,0,0.2,0,0.3c-0.1,0-0.2,0-0.3,0C57.7,66.7,57.7,66.6,57.7,66.5z"/>
</g>
</svg>
