<svg xmlns="http://www.w3.org/2000/svg" viewBox="0 0 120 120"><title>icon-jentas</title><g id="Layer_1" data-name="Layer 1"><rect width="120" height="120" style="fill:none"/></g><g id="Layer_2" data-name="Layer 2"><path d="M69.68,60.87a7.94,7.94,0,0,1-2.29,1.06,27.42,27.42,0,0,1-7.84,1C55,63,51,62,49.43,60.87c-.52-.38-.71-.74-.7-1s.18-.63.7-1a8.13,8.13,0,0,1,2.28-1.06,27.51,27.51,0,0,1,7.84-1c4.61,0,8.59.91,10.13,2.07.51.39.71.74.7,1s-.19.64-.7,1m.53-2.76a8.66,8.66,0,0,0-2.55-1.19,28.09,28.09,0,0,0-8.11-1.06c-4.3,0-8,.72-10.06,1.89a6.47,6.47,0,0,0-.7.4,1.84,1.84,0,0,0,0,3.36l0,0,.07.06a8.59,8.59,0,0,0,2.54,1.19,28.19,28.19,0,0,0,8.11,1.06c4.74,0,8.77-.87,10.66-2.25a1.95,1.95,0,0,0,0-3.48" transform="translate(0 0)" style="fill:#555"/><path d="M85.41,66.32c-.31.09-.6.2-.92.3h0c-1.09.32-2.27.62-3.48.89A79.56,79.56,0,0,1,72.28,69a27.35,27.35,0,0,1-3.43.09l0-3-7.75,3.63-1.32,0a97.91,97.91,0,0,1-21.37-2.17c-1.16-.27-2.3-.56-3.36-.87-.37-.11-.7-.23-1-.34-5.61-1.82-8.93-4.24-8.91-6.58A3.88,3.88,0,0,1,26.52,57l.1-.1a10.9,10.9,0,0,1,1.29-1l.08,0a26.21,26.21,0,0,1,6.16-2.75l.88-.28c1.13-.34,2.35-.64,3.6-.92a97.74,97.74,0,0,1,21.09-2.12h.07a98.1,98.1,0,0,1,21,2.09c1.3.29,2.56.6,3.73.95l.75.24c5.78,1.83,9.21,4.29,9.19,6.68s-3.35,4.79-9,6.61M75.69,76A22.6,22.6,0,0,1,38.8,68.59a99.83,99.83,0,0,0,21,2.06h.88l8.19,4.13V71.54s5.76.06,10.49-.32A22.76,22.76,0,0,1,75.69,76m14.8-25.23a58.63,58.63,0,0,0-7-2.32,1.89,1.89,0,0,0-.09-.21c-.26-.54-.55-1.06-.85-1.58l-3.36,2c.26.44.5.88.72,1.34.13.25.22.52.33.77a101.22,101.22,0,0,0-20.52-2,101.07,101.07,0,0,0-20.67,2A22.56,22.56,0,0,1,59.7,37.4V33.5a26.5,26.5,0,0,0-23.83,15,55.68,55.68,0,0,0-6.34,2.24c-4.71,2.05-9.48,5.12-9.53,9.39v0c0,3.75,4.63,6.5,9.17,8.36a55,55,0,0,0,6.27,2.11,26.47,26.47,0,0,0,48.51,0,65.86,65.86,0,0,0,6.28-2.39C95.07,66.1,100,63.1,100,59.45v0h0c0-3.88-4.82-6.73-9.51-8.67" transform="translate(0 0)" style="fill:#555"/><path d="M65.69,59.93c0,.07-.11.23-.42.38a5.77,5.77,0,0,1-1.36.4,23.44,23.44,0,0,1-4.54.39,16.82,16.82,0,0,1-5.9-.79c-.32-.15-.44-.31-.42-.38s.1-.23.42-.38a5.61,5.61,0,0,1,1.35-.41,23.63,23.63,0,0,1,4.55-.39,16.61,16.61,0,0,1,5.9.8c.31.15.43.3.42.38M59.37,61.4a16.61,16.61,0,0,0,6-.83c.33-.16.58-.35.59-.64s-.26-.49-.59-.65A6.61,6.61,0,0,0,64,58.84a24.27,24.27,0,0,0-4.6-.39,16.8,16.8,0,0,0-6,.83c-.34.16-.58.35-.59.65s.25.48.59.64a6.68,6.68,0,0,0,1.42.44,24.31,24.31,0,0,0,4.61.39" transform="translate(0 0)" style="fill:#555"/></g></svg>