<?xml version="1.0" encoding="utf-8"?>
<!-- Generator: Adobe Illustrator 19.2.1, SVG Export Plug-In . SVG Version: 6.00 Build 0)  -->
<svg version="1.1" id="Lag_1" xmlns="http://www.w3.org/2000/svg" xmlns:xlink="http://www.w3.org/1999/xlink" x="0px" y="0px"
	 viewBox="0 0 120 120" style="enable-background:new 0 0 120 120;" xml:space="preserve">
<style type="text/css">
	.st0{fill:#555555;}
</style>
<title>icon-storytel</title>
<g transform="translate(0 7)">
	<path class="st0" d="M46.1,56.3h-2v-9.5h-1.7v-1.4h3.4V47H46c0.1-0.2,0.3-0.4,0.5-0.6c0.2-0.2,0.5-0.4,0.8-0.6
		c0.3-0.2,0.7-0.4,1.1-0.5c0.4-0.1,0.9-0.2,1.4-0.2c0.4,0,0.7,0,1,0.1c0.3,0.1,0.6,0.2,0.9,0.3c0.3,0.2,0.5,0.4,0.7,0.6
		c0.2,0.3,0.4,0.6,0.5,1.1h0.1c0.1-0.2,0.2-0.4,0.4-0.7c0.2-0.2,0.5-0.5,0.8-0.7c0.3-0.2,0.7-0.4,1.1-0.5c0.4-0.1,0.9-0.2,1.4-0.2
		c0.4,0,0.9,0.1,1.3,0.2c0.4,0.1,0.8,0.3,1.1,0.6c0.3,0.3,0.6,0.7,0.8,1.3c0.2,0.5,0.3,1.3,0.3,2.2c0,2,0,7.1,0,7.1l-2.1,0v-6.8
		c0-0.9-0.2-1.6-0.5-2.1c-0.3-0.5-0.9-0.8-1.7-0.8c-0.3,0-0.6,0-0.9,0.1c-0.3,0.1-0.6,0.2-0.8,0.4c-0.2,0.1-0.5,0.3-0.7,0.5
		c-0.2,0.2-0.4,0.3-0.5,0.5v8.2h-2v-6.8c0-0.9-0.2-1.6-0.5-2.1c-0.3-0.5-0.9-0.8-1.7-0.8c-0.3,0-0.6,0-0.9,0.1
		c-0.3,0.1-0.6,0.2-0.8,0.4c-0.2,0.1-0.5,0.3-0.7,0.5c-0.2,0.2-0.4,0.3-0.5,0.5L46.1,56.3 M64.5,50.7c0,1.4,0.3,2.6,0.8,3.4
		c0.6,0.8,1.3,1.3,2.3,1.3c1.1,0,1.8-0.4,2.4-1.2c0.5-0.8,0.8-2,0.8-3.4c0-0.6-0.1-1.2-0.2-1.7c-0.1-0.5-0.4-1-0.6-1.4
		c-0.3-0.4-0.6-0.7-1-0.9c-0.4-0.2-0.8-0.3-1.3-0.3c-1,0-1.8,0.4-2.4,1.2C64.8,48.3,64.5,49.4,64.5,50.7L64.5,50.7z M67.7,45
		c0.8,0,1.5,0.1,2.1,0.4c0.6,0.2,1.2,0.6,1.7,1.1c0.5,0.5,0.8,1.1,1.1,1.8c0.3,0.7,0.4,1.5,0.4,2.5c0,1.9-0.5,3.4-1.4,4.5
		c-0.9,1-2.2,1.6-3.8,1.6c-1.7,0-3-0.5-3.9-1.5c-0.9-1-1.4-2.5-1.4-4.5c0-0.9,0.1-1.7,0.4-2.4c0.3-0.7,0.6-1.3,1.1-1.8
		c0.5-0.5,1-0.9,1.7-1.1C66.2,45.1,66.9,45,67.7,45L67.7,45z M80.6,46.8l0.5-1.4l3.8,0v10.9h-2v-9.5L80.6,46.8L80.6,46.8z
		 M79.9,45.4l-0.5,1.4h-1.9v9.5h-2V44.5c0-1.8,0.5-3.1,1.4-3.8c0.9-0.8,2.2-1.2,3.9-1.2c0.3,0,0.6,0,0.9,0.1c0.3,0,0.7,0.1,1.1,0.2
		c0.4,0.1,0.7,0.2,1.1,0.3c0.4,0.1,0.8,0.3,1.1,0.4v2.5h-2v-1.6c-0.3-0.1-0.5-0.2-0.9-0.3c-0.4-0.1-0.8-0.1-1.1-0.1
		c-1.1,0-1.9,0.3-2.5,0.8c-0.6,0.5-0.9,1.5-0.9,2.8v1L79.9,45.4L79.9,45.4z M102.1,50.7c0,1.4,0.3,2.6,0.8,3.4
		c0.6,0.8,1.3,1.3,2.3,1.3c1.1,0,1.9-0.4,2.4-1.2c0.5-0.8,0.8-2,0.8-3.4c0-0.6-0.1-1.2-0.2-1.7c-0.1-0.5-0.4-1-0.6-1.4
		c-0.3-0.4-0.6-0.7-1-0.9c-0.4-0.2-0.8-0.3-1.3-0.3c-1,0-1.8,0.4-2.4,1.2C102.3,48.3,102.1,49.4,102.1,50.7L102.1,50.7z M105.2,45
		c0.8,0,1.5,0.1,2.1,0.4c0.6,0.2,1.2,0.6,1.7,1.1c0.5,0.5,0.8,1.1,1.1,1.8c0.3,0.7,0.4,1.5,0.4,2.5c0,1.9-0.5,3.4-1.4,4.5
		c-1,1-2.2,1.6-3.8,1.6c-1.7,0-3-0.5-3.9-1.5c-0.9-1-1.4-2.5-1.4-4.5c0-0.9,0.1-1.7,0.4-2.4c0.3-0.7,0.6-1.3,1.1-1.8
		c0.5-0.5,1-0.9,1.7-1.1C103.8,45.1,104.5,45,105.2,45L105.2,45z M90.6,54.9c0.3,0.1,0.6,0.2,0.9,0.2c0.3,0.1,0.6,0.1,1,0.1
		c1.2,0,2.1-0.4,2.7-1.2c0.6-0.8,0.9-1.9,0.9-3.2c0-1.4-0.3-2.4-0.8-3.1c-0.5-0.7-1.2-1.1-2.1-1.1c-0.7,0-1.2,0.1-1.6,0.4
		c-0.4,0.3-0.7,0.6-1,0.9V54.9L90.6,54.9z M88.7,41.2l-1.6,0v-1.4l3.6,0v7c0.2-0.5,0.6-0.9,1.2-1.2c0.5-0.3,1.2-0.5,2.1-0.5
		c0.5,0,1,0.1,1.5,0.3c0.5,0.2,0.9,0.5,1.3,0.9c0.4,0.4,0.7,1,1,1.7c0.3,0.7,0.4,1.5,0.4,2.6c0,0.9-0.1,1.7-0.4,2.5
		c-0.3,0.7-0.6,1.4-1.1,1.9c-0.5,0.5-1,0.9-1.7,1.2c-0.7,0.3-1.4,0.4-2.2,0.4c-0.7,0-1.4-0.1-2-0.2c-0.7-0.1-1.3-0.4-2-0.7
		L88.7,41.2L88.7,41.2z M45.1,65.5c0.2,0,0.4-0.1,0.6-0.2c0.2-0.1,0.3-0.3,0.4-0.4v-0.6h-0.7c-0.3,0-0.5,0.1-0.6,0.2
		c-0.2,0.1-0.2,0.3-0.2,0.5c0,0.2,0,0.3,0.1,0.4C44.7,65.5,44.9,65.5,45.1,65.5L45.1,65.5z M46.2,66c0-0.1,0-0.2-0.1-0.3
		c0-0.1,0-0.2,0-0.2c-0.1,0.2-0.3,0.3-0.5,0.4c-0.2,0.1-0.4,0.2-0.6,0.2c-0.4,0-0.7-0.1-0.8-0.3s-0.3-0.5-0.3-0.8
		c0-0.3,0.1-0.6,0.4-0.8c0.3-0.2,0.6-0.3,1.1-0.3h0.7v-0.4c0-0.2-0.1-0.4-0.2-0.5c-0.1-0.1-0.3-0.2-0.5-0.2c-0.2,0-0.4,0.1-0.5,0.2
		c-0.1,0.1-0.2,0.2-0.2,0.4l-0.6,0l0,0c0-0.3,0.1-0.5,0.4-0.7s0.6-0.3,1-0.3c0.4,0,0.7,0.1,1,0.3c0.2,0.2,0.4,0.5,0.4,0.9v1.7
		c0,0.1,0,0.3,0,0.4c0,0.1,0,0.2,0.1,0.3L46.2,66L46.2,66z M51.7,64.3c0-0.4-0.1-0.7-0.2-1c-0.2-0.3-0.4-0.4-0.7-0.4
		c-0.2,0-0.3,0-0.5,0.1c-0.1,0.1-0.2,0.2-0.3,0.3v1.7c0.1,0.1,0.2,0.3,0.3,0.3c0.1,0.1,0.3,0.1,0.5,0.1c0.3,0,0.5-0.1,0.7-0.3
		C51.7,65,51.7,64.7,51.7,64.3L51.7,64.3L51.7,64.3z M52.4,64.4c0,0.5-0.1,0.9-0.4,1.2c-0.2,0.3-0.6,0.5-1,0.5c-0.2,0-0.4,0-0.6-0.1
		c-0.2-0.1-0.3-0.2-0.4-0.3v1.7h-0.6v-4.9h0.5l0.1,0.5c0.1-0.2,0.3-0.3,0.4-0.4c0.2-0.1,0.4-0.1,0.6-0.1c0.4,0,0.8,0.2,1,0.5
		C52.3,63.2,52.4,63.7,52.4,64.4L52.4,64.4L52.4,64.4z M54.3,65.5c0.2,0,0.4-0.1,0.6-0.2c0.2-0.1,0.3-0.3,0.4-0.4v-0.6h-0.7
		c-0.3,0-0.5,0.1-0.6,0.2c-0.2,0.1-0.2,0.3-0.2,0.5c0,0.2,0,0.3,0.1,0.4C54,65.5,54.1,65.5,54.3,65.5L54.3,65.5z M55.4,66
		c0-0.1,0-0.2-0.1-0.3c0-0.1,0-0.2,0-0.2c-0.1,0.2-0.3,0.3-0.5,0.4c-0.2,0.1-0.4,0.2-0.6,0.2c-0.4,0-0.7-0.1-0.8-0.3
		s-0.3-0.5-0.3-0.8c0-0.3,0.1-0.6,0.4-0.8c0.3-0.2,0.6-0.3,1.1-0.3h0.7v-0.4c0-0.2-0.1-0.4-0.2-0.5c-0.1-0.1-0.3-0.2-0.5-0.2
		c-0.2,0-0.4,0.1-0.5,0.2c-0.1,0.1-0.2,0.2-0.2,0.4l-0.6,0l0,0c0-0.3,0.1-0.5,0.4-0.7s0.6-0.3,1-0.3c0.4,0,0.7,0.1,1,0.3
		c0.2,0.2,0.4,0.5,0.4,0.9v1.7c0,0.1,0,0.3,0,0.4c0,0.1,0,0.2,0.1,0.3L55.4,66L55.4,66z M58.6,63l-0.3,0c-0.2,0-0.3,0-0.4,0.1
		c-0.1,0.1-0.2,0.2-0.3,0.3V66h-0.6v-3.6h0.6l0.1,0.5c0.1-0.2,0.2-0.3,0.4-0.4c0.1-0.1,0.3-0.2,0.5-0.2c0,0,0.1,0,0.1,0
		c0,0,0.1,0,0.1,0L58.6,63 M60.2,61.6v0.9h0.7v0.5h-0.7v2.2c0,0.2,0,0.3,0.1,0.4s0.2,0.1,0.3,0.1c0,0,0.1,0,0.1,0c0,0,0.1,0,0.1,0
		l0.1,0.4c0,0-0.1,0.1-0.2,0.1c-0.1,0-0.2,0-0.3,0c-0.3,0-0.5-0.1-0.6-0.2c-0.2-0.2-0.2-0.4-0.2-0.7v-2.2H59v-0.5h0.6v-0.9
		L60.2,61.6 M63.8,64.3c0,0.4,0.1,0.7,0.2,0.9c0.2,0.2,0.4,0.4,0.7,0.4c0.3,0,0.5-0.1,0.7-0.4c0.2-0.2,0.2-0.6,0.2-0.9v-0.1
		c0-0.4-0.1-0.7-0.2-0.9c-0.2-0.2-0.4-0.4-0.7-0.4c-0.3,0-0.5,0.1-0.7,0.4C63.8,63.5,63.8,63.8,63.8,64.3L63.8,64.3z M63.1,64.2
		c0-0.5,0.1-1,0.4-1.3c0.3-0.3,0.7-0.5,1.2-0.5c0.5,0,0.9,0.2,1.2,0.5c0.3,0.3,0.4,0.8,0.4,1.3v0.1c0,0.5-0.1,1-0.4,1.3
		c-0.3,0.3-0.7,0.5-1.2,0.5c-0.5,0-0.9-0.2-1.2-0.5C63.3,65.2,63.1,64.8,63.1,64.2L63.1,64.2L63.1,64.2z M67.4,66v-3.1h-0.6v-0.5
		h0.6V62c0-0.4,0.1-0.7,0.3-0.9c0.2-0.2,0.5-0.3,0.8-0.3c0.1,0,0.1,0,0.2,0c0.1,0,0.2,0,0.3,0.1l-0.1,0.5c0,0-0.1,0-0.1,0
		c-0.1,0-0.1,0-0.2,0c-0.2,0-0.3,0.1-0.4,0.2C68.1,61.6,68,61.8,68,62v0.5h0.6v0.5H68V66L67.4,66 M71.3,65c0.2,0.1,0.6,0.3,1,0.3
		c0.3,0,0.5-0.1,0.5-0.3c0-0.2-0.1-0.3-0.5-0.4c-0.7-0.2-1-0.6-1-1.1c0-0.7,0.6-1.2,1.4-1.2c0.4,0,0.8,0.1,1,0.2l-0.2,0.8
		c-0.2-0.1-0.5-0.2-0.8-0.2c-0.3,0-0.4,0.1-0.4,0.3c0,0.2,0.1,0.3,0.6,0.4c0.7,0.2,1,0.6,1,1.1c0,0.7-0.5,1.2-1.5,1.2
		c-0.5,0-0.9-0.1-1.1-0.3L71.3,65 M75.5,61.5v1h0.8v0.8h-0.8v1.3c0,0.4,0.1,0.6,0.4,0.6c0.2,0,0.2,0,0.3,0l0,0.8
		c-0.1,0.1-0.4,0.1-0.7,0.1c-0.4,0-0.7-0.1-0.8-0.3c-0.2-0.2-0.3-0.6-0.3-1.1v-2.9L75.5,61.5 M77.8,64.2c0,0.6,0.3,1.1,0.7,1.1
		c0.4,0,0.7-0.4,0.7-1.1c0-0.5-0.2-1.1-0.7-1.1C78,63.1,77.8,63.7,77.8,64.2z M80.4,64.2c0,1.3-0.9,1.9-1.9,1.9
		c-1,0-1.8-0.7-1.8-1.8c0-1.2,0.8-1.9,1.9-1.9C79.6,62.4,80.4,63.1,80.4,64.2z M81,63.6c0-0.5,0-0.9,0-1.2H82l0,0.7h0
		c0.2-0.5,0.6-0.7,1-0.7c0.1,0,0.2,0,0.2,0v1c-0.1,0-0.2,0-0.3,0c-0.4,0-0.7,0.2-0.8,0.6c0,0.1,0,0.2,0,0.2V66H81L81,63.6
		 M84.8,62.4l0.5,1.7c0.1,0.2,0.1,0.5,0.2,0.7h0c0-0.2,0.1-0.5,0.2-0.7l0.4-1.7h1.2l-0.8,2.3c-0.5,1.4-0.8,2-1.2,2.3
		c-0.4,0.3-0.8,0.5-1.1,0.5l-0.2-0.9c0.1,0,0.3-0.1,0.5-0.2c0.2-0.1,0.4-0.3,0.5-0.4c0-0.1,0.1-0.1,0.1-0.2c0,0,0-0.1,0-0.2
		l-1.3-3.2L84.8,62.4 M89,61.5v1h0.8v0.8H89v1.3c0,0.4,0.1,0.6,0.4,0.6c0.2,0,0.2,0,0.3,0l0,0.8c-0.1,0.1-0.4,0.1-0.7,0.1
		c-0.4,0-0.7-0.1-0.8-0.3c-0.2-0.2-0.3-0.6-0.3-1.1v-2.9L89,61.5 M92.5,63.8c0-0.3-0.1-0.7-0.6-0.7c-0.5,0-0.7,0.4-0.7,0.7H92.5
		L92.5,63.8z M91.2,64.6c0,0.5,0.5,0.7,1,0.7c0.4,0,0.7-0.1,1-0.2l0.1,0.7C93,66,92.5,66.1,92,66.1c-1.2,0-1.9-0.7-1.9-1.8
		c0-0.9,0.6-1.9,1.8-1.9c1.1,0,1.6,0.9,1.6,1.8c0,0.2,0,0.4,0,0.4L91.2,64.6L91.2,64.6z"/>
	<polyline class="st0" points="94.2,66 95.5,66 95.5,61 94.2,61.3 94.2,66 	"/>
	<path class="st0" d="M23.3,37.5c-12.7,0-13.8,14.4-13.8,17c0.1,8.4,1.9,14,1.9,14c6.3-5.1,15.5-2.8,22.7-9.6
		C42.4,51.1,39.6,37.5,23.3,37.5"/>
	<path class="st0" d="M11.4,68.5c0,0-1.8-5.6-1.9-14c0-2.6,1.1-17,13.8-17c16.3,0,19.1,13.6,10.8,21.4
		C26.9,65.7,17.7,63.4,11.4,68.5"/>
</g>
</svg>
