<svg xmlns="http://www.w3.org/2000/svg" viewBox="0 0 120 120"><title>icon-bibelselskabet</title><g id="Layer_1" data-name="Layer 1"><rect width="120" height="120" style="fill:none"/></g><g id="Layer_2" data-name="Layer 2"><path d="M43.74,59.53a.84.84,0,0,0-.25-.31A1.17,1.17,0,0,0,43.1,59a2,2,0,0,0-.5-.06H41v.18l.48.14v3.38l-.48.13V63h1.73a2.35,2.35,0,0,0,.54-.06,1.19,1.19,0,0,0,.44-.2,1,1,0,0,0,.3-.35,1.19,1.19,0,0,0,.1-.53,1,1,0,0,0-.06-.37.88.88,0,0,0-.17-.28.83.83,0,0,0-.26-.19,1.83,1.83,0,0,0-.33-.11,1.64,1.64,0,0,0,.22-.14.73.73,0,0,0,.19-.2.9.9,0,0,0,.13-.26,1.09,1.09,0,0,0,0-.33,1,1,0,0,0-.09-.44m-1.23,1.6a1.87,1.87,0,0,1,.42,0,.72.72,0,0,1,.31.12.63.63,0,0,1,.2.23.82.82,0,0,1,.07.37.63.63,0,0,1-.23.56,1.23,1.23,0,0,1-.7.16H42V61.13ZM42,60.75V59.36h.52a.88.88,0,0,1,.59.17.63.63,0,0,1,.19.51.68.68,0,0,1-.2.55.89.89,0,0,1-.58.16Zm3.61-.62h-.13l-.82.18v.14l.43.09v2.15l-.43.13V63H46v-.17l-.43-.13ZM45,59.5a.39.39,0,0,0,.52,0,.47.47,0,0,0,0-.58.39.39,0,0,0-.52,0,.47.47,0,0,0,0,.58m2.25,1.28a1,1,0,0,1,.32-.21,1,1,0,0,1,.37-.08.47.47,0,0,1,.46.27,1.87,1.87,0,0,1,.13.8c0,.77-.28,1.15-.84,1.15H47.5l-.14,0-.11,0Zm0-2h-.1L46.3,59v.14l.43.09v3.67a1.66,1.66,0,0,0,.38.13,2.15,2.15,0,0,0,.6.07,1.46,1.46,0,0,0,.62-.12,1.14,1.14,0,0,0,.42-.33,1.34,1.34,0,0,0,.25-.49,2.47,2.47,0,0,0,.08-.63,2.58,2.58,0,0,0-.06-.58,1.13,1.13,0,0,0-.19-.43.9.9,0,0,0-.33-.28,1.24,1.24,0,0,0-.5-.1,1.3,1.3,0,0,0-.41.07,1.41,1.41,0,0,0-.34.19Zm2.59,3.49a1.3,1.3,0,0,0,.27.46,1,1,0,0,0,.41.25,1.46,1.46,0,0,0,.52.09,2,2,0,0,0,.37,0,1.84,1.84,0,0,0,.28-.09.93.93,0,0,0,.2-.1l.13-.09-.17-.28-.12.07-.18.09-.22.06a1,1,0,0,1-.25,0,.88.88,0,0,1-.33-.06.64.64,0,0,1-.25-.18.85.85,0,0,1-.16-.33,1.68,1.68,0,0,1-.06-.49h1.77v-.3a1.41,1.41,0,0,0-.26-.91,1,1,0,0,0-.83-.34,1.3,1.3,0,0,0-.49.09.92.92,0,0,0-.38.26,1.19,1.19,0,0,0-.25.46,2.22,2.22,0,0,0-.09.67,2.24,2.24,0,0,0,.09.68m1.41-1.75a.74.74,0,0,1,.18.21,1.15,1.15,0,0,1,.09.28,1.72,1.72,0,0,1,0,.32H50.28a1.71,1.71,0,0,1,0-.31,1,1,0,0,1,.11-.28.7.7,0,0,1,.21-.21.58.58,0,0,1,.33-.08.52.52,0,0,1,.29.07M53,59.21V62.7l-.43.13V63H54v-.17l-.43-.13v-3.9h-.09l-.86.19v.14Zm2.4,2.08-.2-.1a.57.57,0,0,1-.14-.13.39.39,0,0,1,0-.2.35.35,0,0,1,0-.18.37.37,0,0,1,.12-.13.51.51,0,0,1,.17-.07.69.69,0,0,1,.2,0l.17,0,.14,0,.11.05.11.45h.21l.09-.7-.23-.09-.26-.07a1.55,1.55,0,0,0-.31,0,1.6,1.6,0,0,0-.39.05.84.84,0,0,0-.33.15.82.82,0,0,0-.23.26.72.72,0,0,0-.09.37.68.68,0,0,0,.08.34.76.76,0,0,0,.21.23,1.13,1.13,0,0,0,.29.15l.33.11.22.08a.51.51,0,0,1,.18.09.33.33,0,0,1,.13.13.43.43,0,0,1,0,.21.37.37,0,0,1-.17.34.72.72,0,0,1-.4.1l-.24,0-.17-.05a.47.47,0,0,1-.14-.08l-.12-.44h-.21l-.08.72a1.17,1.17,0,0,0,.25.11l.3.08a2.46,2.46,0,0,0,.41,0,1.67,1.67,0,0,0,.39,0,1,1,0,0,0,.34-.15,1,1,0,0,0,.24-.27,1,1,0,0,0,.08-.4.67.67,0,0,0-.07-.33.76.76,0,0,0-.18-.22A.85.85,0,0,0,56,61.5l-.35-.13-.23-.08m1.89,1a1.29,1.29,0,0,0,.26.46A1.16,1.16,0,0,0,58,63a1.51,1.51,0,0,0,.53.09,1.79,1.79,0,0,0,.36,0,2,2,0,0,0,.29-.09l.2-.1.13-.09-.17-.28-.13.07-.17.09-.22.06a1.07,1.07,0,0,1-.25,0,.81.81,0,0,1-.33-.06.64.64,0,0,1-.25-.18.85.85,0,0,1-.16-.33,1.68,1.68,0,0,1-.06-.49h1.77v-.3a1.47,1.47,0,0,0-.26-.91,1,1,0,0,0-.83-.34,1.3,1.3,0,0,0-.49.09.92.92,0,0,0-.38.26,1.07,1.07,0,0,0-.25.46,2.22,2.22,0,0,0-.09.67,2.24,2.24,0,0,0,.09.68m1.41-1.75a.74.74,0,0,1,.18.21A1.15,1.15,0,0,1,59,61c0,.11,0,.21,0,.32H57.74a1.71,1.71,0,0,1,0-.31,1,1,0,0,1,.11-.28.7.7,0,0,1,.21-.21.58.58,0,0,1,.33-.08.54.54,0,0,1,.29.07m1.76-1.32V62.7l-.43.13V63h1.38v-.17L61,62.69v-3.9h-.1L60,59v.14Zm2.4,2.08-.2-.1a.44.44,0,0,1-.14-.13.39.39,0,0,1-.05-.2.27.27,0,0,1,.05-.18.37.37,0,0,1,.12-.13.51.51,0,0,1,.17-.07.69.69,0,0,1,.2,0l.17,0a.4.4,0,0,1,.13,0l.12.05.11.45h.21l.09-.7-.23-.09-.26-.07a1.55,1.55,0,0,0-.31,0,1.75,1.75,0,0,0-.4.05.86.86,0,0,0-.32.15.82.82,0,0,0-.23.26A.72.72,0,0,0,62,61a.68.68,0,0,0,.08.34.76.76,0,0,0,.21.23,1.25,1.25,0,0,0,.28.15l.34.11.22.08a.51.51,0,0,1,.18.09.4.4,0,0,1,.13.13.43.43,0,0,1,0,.21.37.37,0,0,1-.17.34.72.72,0,0,1-.4.1l-.24,0-.17-.05a.53.53,0,0,1-.15-.08l-.11-.44h-.21l-.08.72a1.17,1.17,0,0,0,.25.11l.3.08a2.41,2.41,0,0,0,.4,0,1.75,1.75,0,0,0,.4,0,1,1,0,0,0,.34-.15.83.83,0,0,0,.23-.27.84.84,0,0,0,.09-.4.67.67,0,0,0-.07-.33.76.76,0,0,0-.18-.22,1,1,0,0,0-.28-.16l-.35-.13-.23-.08m2.06-2.08v3.48l-.43.13V63h1.37v-.17l-.43-.13v-1h.19a.34.34,0,0,1,.3.17l.54.94a.61.61,0,0,0,.14.17.38.38,0,0,0,.22.06h.64v-.16l-.42-.13-.62-1a1.3,1.3,0,0,0-.1-.15.58.58,0,0,0-.15-.11l.7-.91.44-.12v-.17H66.11v.17l.36.1-.5.67a.74.74,0,0,1-.13.12.29.29,0,0,1-.19,0h-.21V58.79h-.09L64.5,59v.14Zm3.6,2.57a.59.59,0,0,1,.45-.16l.55,0v.83a1.12,1.12,0,0,1-.29.19.78.78,0,0,1-.37.09l-.14,0a.35.35,0,0,1-.16-.08.74.74,0,0,1-.12-.16.71.71,0,0,1,.08-.67m1.19,1.28.73-.11v-.17l-.43-.1V61.24c0-.16,0-.3,0-.44a1,1,0,0,0-.12-.35.7.7,0,0,0-.29-.24,1.32,1.32,0,0,0-.54-.09,2.05,2.05,0,0,0-.59.08,1.66,1.66,0,0,0-.41.16l.1.65h.21l.1-.41.19-.09a1.13,1.13,0,0,1,.35,0,.62.62,0,0,1,.25,0,.39.39,0,0,1,.17.11.51.51,0,0,1,.09.21,2.73,2.73,0,0,1,0,.32v.15l-.62,0a1.2,1.2,0,0,0-.77.27.82.82,0,0,0-.25.63,1,1,0,0,0,.08.41.68.68,0,0,0,.2.27.82.82,0,0,0,.28.14,1.19,1.19,0,0,0,.32,0,.92.92,0,0,0,.29,0l.23-.08a.77.77,0,0,0,.18-.1l.12-.07Zm2-2.28a1.11,1.11,0,0,1,.32-.21,1,1,0,0,1,.37-.08.46.46,0,0,1,.46.27,1.87,1.87,0,0,1,.13.8c0,.77-.28,1.15-.84,1.15h-.19l-.14,0-.11,0Zm0-2h-.1l-.85.19v.14l.43.09v3.67a2,2,0,0,0,.39.13,2.06,2.06,0,0,0,.6.07,1.44,1.44,0,0,0,.61-.12,1.18,1.18,0,0,0,.43-.33,1.32,1.32,0,0,0,.24-.49,2.47,2.47,0,0,0,.08-.63,2.58,2.58,0,0,0-.06-.58,1.13,1.13,0,0,0-.19-.43.83.83,0,0,0-.33-.28,1.2,1.2,0,0,0-.5-.1,1.3,1.3,0,0,0-.41.07,1.63,1.63,0,0,0-.34.19Zm2.6,3.49a1.29,1.29,0,0,0,.26.46A1,1,0,0,0,75,63a1.47,1.47,0,0,0,.53.09,2,2,0,0,0,.36,0,1.54,1.54,0,0,0,.28-.09.75.75,0,0,0,.2-.1l.13-.09-.17-.28-.12.07-.18.09-.22.06a1,1,0,0,1-.25,0,.88.88,0,0,1-.33-.06.61.61,0,0,1-.24-.18.85.85,0,0,1-.17-.33,2.11,2.11,0,0,1-.06-.49h1.77v-.3a1.47,1.47,0,0,0-.25-.91,1,1,0,0,0-.84-.34,1.33,1.33,0,0,0-.49.09,1.08,1.08,0,0,0-.38.26,1.19,1.19,0,0,0-.25.46,2.22,2.22,0,0,0-.09.67,2,2,0,0,0,.1.68m1.4-1.75a.52.52,0,0,1,.18.21A.66.66,0,0,1,76,61a1.73,1.73,0,0,1,0,.32H74.73a1.71,1.71,0,0,1,0-.31.94.94,0,0,1,.1-.28,1,1,0,0,1,.21-.21.58.58,0,0,1,.33-.08.52.52,0,0,1,.29.07m1.81,1.8c0,.5.28.75.82.75l.22,0,.19-.05.15,0,.09-.05-.11-.29-.15.06a.79.79,0,0,1-.29,0,.39.39,0,0,1-.3-.11.6.6,0,0,1-.1-.4V60.55h.85v-.34H78v-.79h-.48v.78l-.57.09v.26h.53Zm2.9-1a.93.93,0,0,1-.2-.1.44.44,0,0,1-.14-.13.39.39,0,0,1,0-.2.35.35,0,0,1,0-.18.37.37,0,0,1,.12-.13.51.51,0,0,1,.17-.07.69.69,0,0,1,.2,0l.17,0a.4.4,0,0,1,.13,0l.12.05.11.45h.21l.09-.7-.23-.09-.26-.07a1.55,1.55,0,0,0-.31,0,1.75,1.75,0,0,0-.4.05.86.86,0,0,0-.32.15.82.82,0,0,0-.23.26.72.72,0,0,0-.09.37.68.68,0,0,0,.08.34.76.76,0,0,0,.21.23,1.13,1.13,0,0,0,.29.15l.33.11.22.08a.51.51,0,0,1,.18.09.33.33,0,0,1,.13.13.43.43,0,0,1,0,.21.37.37,0,0,1-.17.34.72.72,0,0,1-.4.1l-.24,0-.17-.05a.53.53,0,0,1-.15-.08l-.11-.44h-.21l-.08.72a1.17,1.17,0,0,0,.25.11l.3.08a2.41,2.41,0,0,0,.4,0,1.75,1.75,0,0,0,.4,0,1,1,0,0,0,.34-.15.83.83,0,0,0,.23-.27.84.84,0,0,0,.09-.4.67.67,0,0,0-.07-.33.79.79,0,0,0-.19-.22A.81.81,0,0,0,81,61.5l-.35-.13-.23-.08m3.54,1.39-.48.13V63H85.2v-.18l-.7-.15V61.13h1.44v-.37H84.5V59.35h1.37L86,60h.27V59H83.46v.18l.48.14Zm3.72-1.93a.58.58,0,0,1,.55-.28.56.56,0,0,1,.55.28,1.76,1.76,0,0,1,.16.85,1.73,1.73,0,0,1-.16.85.56.56,0,0,1-.55.28.58.58,0,0,1-.55-.28,1.87,1.87,0,0,1-.15-.85,1.9,1.9,0,0,1,.15-.85m1.48-.27a1.2,1.2,0,0,0-.93-.36,1.16,1.16,0,0,0-.92.36A1.65,1.65,0,0,0,87,61.6a1.61,1.61,0,0,0,.32,1.12,1.16,1.16,0,0,0,.92.36,1.2,1.2,0,0,0,.93-.36,1.66,1.66,0,0,0,.32-1.12,1.7,1.7,0,0,0-.32-1.12m2.79-.27-.09,0-.19,0a1,1,0,0,0-.43.1,1.31,1.31,0,0,0-.35.27l-.06-.41-.85.19v.14l.43.09v2.15l-.43.13V63h1.42v-.18l-.48-.12V60.85a1.19,1.19,0,0,1,.3-.18,1,1,0,0,1,.33-.06h.14l.1,0,.1,0Zm.74-1V62.7l-.43.13V63h1.38v-.17l-.43-.13v-3.9H93.1l-.86.19v.14Zm2.14,2.57a.62.62,0,0,1,.45-.16l.55,0v.83a1.05,1.05,0,0,1-.28.19.81.81,0,0,1-.37.09l-.15,0a.37.37,0,0,1-.15-.08.4.4,0,0,1-.12-.16.48.48,0,0,1,0-.26.65.65,0,0,1,.12-.41M96,63.06l.74-.11v-.17l-.44-.1V61.24a3.1,3.1,0,0,0,0-.44.7.7,0,0,0-.12-.35.64.64,0,0,0-.29-.24,1.32,1.32,0,0,0-.54-.09,2.1,2.1,0,0,0-.59.08,1.57,1.57,0,0,0-.4.16l.09.65h.22l.1-.41.18-.09a1.13,1.13,0,0,1,.35,0,.6.6,0,0,1,.25,0,.34.34,0,0,1,.17.11.51.51,0,0,1,.09.21,1.52,1.52,0,0,1,0,.32v.15l-.61,0a1.21,1.21,0,0,0-.78.27.86.86,0,0,0-.25.63,1,1,0,0,0,.08.41.79.79,0,0,0,.2.27.92.92,0,0,0,.28.14,1.26,1.26,0,0,0,.33,0,.86.86,0,0,0,.28,0,1.35,1.35,0,0,0,.24-.08.55.55,0,0,0,.17-.1l.12-.07Zm1.66-2.68a.91.91,0,0,0-.29.72,1,1,0,0,0,.07.4.6.6,0,0,0,.23.29l-.15.18-.09.15a.88.88,0,0,0-.05.15s0,.1,0,.15a.48.48,0,0,0,.06.24.4.4,0,0,0,.15.17,1.12,1.12,0,0,0-.25.28.75.75,0,0,0-.1.36.72.72,0,0,0,.06.29.64.64,0,0,0,.2.24,1.18,1.18,0,0,0,.37.15,3,3,0,0,0,.58,0,1.75,1.75,0,0,0,1-.26.78.78,0,0,0,.36-.67.63.63,0,0,0-.25-.57,1.21,1.21,0,0,0-.67-.17h-.63a.59.59,0,0,1-.34-.07.2.2,0,0,1-.11-.19.78.78,0,0,1,0-.16.51.51,0,0,1,.09-.16l.24.07a1.55,1.55,0,0,0,.33,0,1.18,1.18,0,0,0,.84-.26.91.91,0,0,0,.29-.71,1,1,0,0,0,0-.29.82.82,0,0,0-.14-.28l.07,0h.29l.09,0,.06-.37h-.18a.65.65,0,0,0-.35.08,1,1,0,0,0-.17.13,1.19,1.19,0,0,0-.32-.15,1.42,1.42,0,0,0-.44-.06,1.26,1.26,0,0,0-.84.26m1.28,1.19a.69.69,0,0,1-.91,0,.73.73,0,0,1-.14-.49.64.64,0,0,1,.16-.49.61.61,0,0,1,.45-.16.6.6,0,0,1,.44.16.79.79,0,0,1,0,1m-1.2,1.56a.72.72,0,0,1,.14-.19,1.67,1.67,0,0,0,.34,0h.58c.33,0,.5.12.5.36a.44.44,0,0,1-.2.37,1.06,1.06,0,0,1-.65.16l-.25,0a1,1,0,0,1-.25-.06.45.45,0,0,1-.19-.14.33.33,0,0,1-.08-.25.6.6,0,0,1,.06-.27" transform="translate(0 0)" style="fill:#555"/><path d="M33.53,65.74c-1.21,1.17-3,1.74-5.6,1.74a8.18,8.18,0,0,1-5.62-1.71,6.69,6.69,0,0,1-1.91-5.2c0-2.38.59-4.1,1.81-5.27s3.12-1.78,5.72-1.78,4.4.54,5.6,1.65S35.32,58,35.32,60.3s-.58,4.27-1.79,5.44m-5.6-12.43c-5.34,0-7.93,2.38-7.93,7.26,0,4.72,2.67,7.12,7.93,7.12s7.8-2.35,7.8-7.39c0-4.77-2.48-7-7.8-7" transform="translate(0 0)" style="fill:#555"/><path d="M28.86,62.67h-.71c0-.55,0-1.12,0-1.7v-.74C29.24,60,30,60.45,30,61.45a1.24,1.24,0,0,1-1.11,1.22M30.22,64c.05.26.13,1.08-.55,1.38a2,2,0,0,1-.82.14h-.64c-.05-.76,0-1.61-.05-2.52h.67a1.28,1.28,0,0,1,1.39,1m-2.07-4.47h0c0-1.77.12-3.34.24-4.53a1,1,0,0,1-.56.14,1.06,1.06,0,0,1-.56-.14c.12,1.19.21,2.77.24,4.53h0c-1.71,0-3.35-.08-4.89-.2a.74.74,0,0,1,.17.52.8.8,0,0,1-.16.55c1.53-.12,3.18-.19,4.89-.2h0V61a35.49,35.49,0,0,1-.25,4.93h2c1,0,1.87-.41,1.87-1.62a1.61,1.61,0,0,0-1.77-1.47h0a1.62,1.62,0,0,0,1.47-1.21,1.26,1.26,0,0,0-.59-1.37c1.11,0,2,.13,2.93.23a.73.73,0,0,1-.18-.54.76.76,0,0,1,.18-.55c-1.56.13-3.23.2-5,.21" transform="translate(0 0)" style="fill:#555"/></g></svg>