<?xml version="1.0" encoding="utf-8"?>
<!-- Generator: Adobe Illustrator 19.2.1, SVG Export Plug-In . SVG Version: 6.00 Build 0)  -->
<svg version="1.1" id="Lag_1" xmlns="http://www.w3.org/2000/svg" xmlns:xlink="http://www.w3.org/1999/xlink" x="0px" y="0px"
	 viewBox="0 0 120 120" style="enable-background:new 0 0 120 120;" xml:space="preserve">
<style type="text/css">
	.st0{fill:#555555;}
</style>
<path class="st0" d="M100,64.7l2.5,2.2h1.2v-5.4h3.8v-2.2H101v5.4H100z M107.5,64.7l2.3,2.2h1.2V55.6l-2.6-2.3v11.4H107.5z
	 M101,53.3v5.1h2.7v-2.7L101,53.3z M96.3,53.6L96.3,53.6L96,54.3c-0.7-0.2-1.3-0.4-2-0.4c-2.9,0-5.2,2.4-5.2,5.3c0,2,1.2,3.8,3,4.4
	h0.1c-0.5-0.8-0.8-1.5-0.8-2.9c0-3.1,2.8-4.8,4.7-4.8c1,0,1.7,0.2,2.4,0.6l0.4-0.7L96.3,53.6z M96.9,63.3L96.9,63.3l0.1,0.9
	C96,64.8,95,65,93.8,65c-1,0-2.1-0.3-2.9-0.9v0.1c0.9,1,2.9,2.8,5.1,2.8c1.4,0,2.4-0.4,3.2-0.8l-0.3-1L96.9,63.3z M84.1,53.4v7.5
	c0,2.9-1.8,4.2-4.1,4.2c-1.5,0-2.3-0.6-3.1-1.5v0c0.2,0.7,2.6,3.4,4.8,3.4c2.1,0,5.1-1.5,5.1-5.3v-6L84.1,53.4z M76.9,53.4V61
	c0,1.5,1.2,3.2,3.2,3.2c0.2,0,0.3,0,0.3-0.1c-0.5-0.2-0.8-0.8-0.8-1.6v-6.8L76.9,53.4z M69.7,58.5v-2.1c0.7,0,1.3,0,1.7,0.1
	c0-1.8-1.1-2.4-2.7-2.4h-1.4v4.4H69.7z M69.7,61.5c1.2,0,1.7,0.1,2.3,0.3c0-0.2,0-0.4,0-0.5c0-0.9-1-1.9-2.2-1.9h-2.5V64h2.4V61.5z
	 M68.4,67h3c2.7,0,3.5-1.7,3.5-3c0-1.3-1-2.6-2-3.2c0.9-0.5,1.3-1.5,1.3-2.5c0-1.4-1.3-2.9-2.6-3.8l0,0c0.5,0.5,0.7,1.1,0.7,2
	c0,1.1-0.6,1.9-1.4,2.4c1.3,0.6,1.9,1.4,1.9,2.9c0,2.3-1.4,3.1-3.7,3.1h-2.7L68.4,67z M51.9,58.9c0,1.8,0.9,3.9,2.7,4.5l0,0
	c-0.3-0.6-0.5-1.6-0.5-2.3c0-2.7,2.3-5.2,5-5.2c0.6,0,1.2,0.2,1.7,0.3l0,0c-0.7-1.3-2.5-2.1-3.9-2.1C54.3,53.9,51.9,56.3,51.9,58.9z
	 M65.1,60.7c0-2.6-2.2-4.5-3.8-5.7l0,0c0.9,1,1.7,2.1,1.7,4c0,3.3-2.7,5.9-5.7,5.9c-1.5,0-2.6-0.5-3.6-1.2l0,0.1
	c1.3,1.5,3.3,3.1,5.5,3.1C62.4,67,65.1,64.3,65.1,60.7z M45.9,64.7l2.5,2.2h1.2V55.7l-2.7-2.4v11.4H45.9z M36.2,67h2
	c3.5,0,5.9-2.5,5.9-5.9c0-2.2-1.3-4-3.1-5.4H41c0.8,1.1,1.2,2.1,1.2,3.4c0,3.7-2.5,5.8-6.6,5.8c-0.6,0-1.1,0-1.6,0v0L36.2,67z
	 M35,63.9c0.2,0.1,0.5,0.1,0.7,0.1c0.6,0,1.3-0.1,1.9-0.3v-7.4c1,0,2.1,0,2.9,0.5l0,0c-0.7-1.8-2.4-2.6-3.5-2.6H35V63.9z M29.4,53.4
	v7.5c0,2.9-1.8,4.2-4.1,4.2c-1.5,0-2.3-0.6-3.1-1.5v0c0.2,0.7,2.6,3.4,4.8,3.4c2.1,0,5.1-1.5,5.1-5.3v-6L29.4,53.4z M22.2,53.4V61
	c0,1.5,1.2,3.2,3.2,3.2c0.2,0,0.3,0,0.3-0.1c-0.5-0.2-0.8-0.8-0.8-1.6v-6.8L22.2,53.4z M14.2,60.2l0.7-2l-1.2-2.8h0l-2,4.9H14.2z
	 M9,64.7l1.9,2.2h0.9l1.4-3.7h4l-0.9-2.2h-4.8l-1.5,3.7H9z M17.7,64.7l2.8,2.2h1.2l-4.8-11.5l-3-2.4h0l4.9,11.7H17.7z"/>
</svg>
