<?xml version="1.0" encoding="utf-8"?>
<!-- Generator: Adobe Illustrator 23.0.4, SVG Export Plug-In . SVG Version: 6.00 Build 0)  -->
<svg version="1.1" id="Layer_1" xmlns="http://www.w3.org/2000/svg" xmlns:xlink="http://www.w3.org/1999/xlink" x="0px" y="0px"
	 viewBox="0 0 120 120" style="enable-background:new 0 0 120 120;" xml:space="preserve">
<style type="text/css">
	.st0{fill:none;}
	.st1{clip-path:url(#SVGID_2_);fill:#555555;}
</style>
<title>icon-gadsforlag</title>
<g>
	<rect class="st0" width="120" height="120"/>
</g>
<g>
	<defs>
		<rect id="SVGID_1_" x="25.4" y="11.7" width="69.3" height="97.3"/>
	</defs>
	<clipPath id="SVGID_2_">
		<use xlink:href="#SVGID_1_"  style="overflow:visible;"/>
	</clipPath>
	<path class="st1" d="M79.5,19.1c1.7,3,2.5,6.7,2.4,11.3v17.3c3.2,0,5.6,0.7,8.5,3c2.7,2.4,4.2,4.8,4.2,11
		c-0.1,4.4-6,13.8-11.2,21.8l-17.6,25.3l-5.9-8.6c13.5-19,21.7-31.4,22.7-36.9c0.8-5.8-0.6-10.5-5.4-13.6c-1.7-0.9-2.8-1.8-7.1-1.9
		V35.4c0-5.9,0-8.3-0.5-11c-1.3-5.8-3.7-9.4-9.8-11.8C66.7,9.9,75.9,12.9,79.5,19.1"/>
	<path class="st1" d="M54.2,77.5c0-8.6,0-10.7,0-17.6c5.4,0,9,4.4,9,8.8C63.2,74.2,58.4,77.5,54.2,77.5"/>
	<path class="st1" d="M54.1,59.9c-4.3,0-9,3.4-9,8.8c0,4.4,3.6,8.8,9,8.8h0v31.4c-9.2-14.4-21-28.3-28-43.6c-1.5-4-0.9-9.2,1.5-12.6
		c3.1-3.7,5.5-4.7,9.9-5.1h0.6c0-5.6,0-12.7,0-19.1c0.4-6.8,2.4-12.7,9.8-15.7c2.1-0.9,4.3-1.2,6.2-1.2L54.1,59.9L54.1,59.9z"/>
</g>
</svg>
