<?xml version="1.0" encoding="utf-8"?>
<!-- Generator: Adobe Illustrator 19.2.1, SVG Export Plug-In . SVG Version: 6.00 Build 0)  -->
<svg version="1.1" id="Lag_1" xmlns="http://www.w3.org/2000/svg" xmlns:xlink="http://www.w3.org/1999/xlink" x="0px" y="0px"
	 viewBox="0 0 120 120" style="enable-background:new 0 0 120 120;" xml:space="preserve">
<style type="text/css">
	.st0{fill:#555555;}
</style>
<g>
	<path class="st0" d="M109.1,64.2c0.1-0.6,0.1-1,0.1-1.3c0-2.6-2-4.5-4.6-4.5c-3.2,0-4.9,2.3-4.9,5.3c0,2.9,1.6,5.3,5,5.3
		c2.5,0,4.2-1.5,4.5-3.2h-1.9c-0.3,0.9-1,1.6-2.5,1.6c-2.2,0-3-1.4-3.1-3.1H109.1z M104.5,59.9c1.6,0,2.8,1.1,2.8,2.8h-5.8
		C101.6,60.9,102.8,59.9,104.5,59.9 M87.9,68.7h1.9v-5.2c0-1.8,0.9-3.4,2.8-3.4c1.9,0,2.5,1.4,2.5,3.3v5.3h1.9v-5.9
		c0-1.4-0.2-2.3-0.8-3c-0.6-0.8-1.6-1.3-3-1.3c-1.7,0-2.9,0.8-3.5,2v-1.8h-1.9V68.7z M82,54.9c0,0.8,0.7,1.5,1.5,1.5
		c0.9,0,1.6-0.7,1.6-1.5c0-0.9-0.7-1.6-1.6-1.6C82.6,53.3,82,54,82,54.9 M82.5,68.7h1.9v-10h-1.9V68.7z M74.6,67.2
		c-2.1,0-3.4-1.6-3.4-3.5s1.3-3.6,3.4-3.6c2,0,3.3,1.6,3.3,3.6S76.6,67.2,74.6,67.2 M71.2,66.9c0.6,1.2,2,2,3.5,2
		c3.1,0,5.2-2.4,5.2-5.3c0-2.8-2.1-5.3-5.2-5.3c-1.5,0-2.8,0.8-3.5,2v-7.2h-1.9v15.5h1.9V66.9z M67.5,58.7c-0.3-0.1-0.6-0.2-1-0.2
		c-1.4,0-2.8,0.9-3.3,2.1v-2h-1.9v10h1.9v-4.4c0-2.4,1.1-4,3.3-4c0.4,0,0.6,0,1,0.1V58.7z M55.9,58.7v5.1c0,1.8-0.9,3.4-2.9,3.4
		c-1.9,0-2.5-1.4-2.5-3.3v-5.3h-1.9v5.9c0,1.4,0.2,2.3,0.8,3c0.6,0.8,1.6,1.3,3,1.3c1.7,0,2.9-0.8,3.5-2v1.8h1.9v-10H55.9z
		 M42.1,68.7h2V55h4v-1.8h-10V55h4V68.7z"/>
	<polygon class="st0" points="18.5,58.9 18.7,55.9 16.1,52.7 15.2,60.4 20.3,66.5 20.8,66.3 	"/>
	<path class="st0" d="M14.3,60.9l0.6-4.6l-1.8-1.8l-2.3,8.7l8.7,4.7c0-0.4,0.1-0.8,0.4-1.1L14.3,60.9z"/>
	<polygon class="st0" points="12.5,65.1 11.4,68.8 19.7,68.8 19.6,68.5 	"/>
	<polygon class="st0" points="27.5,60.4 26.7,52.7 24.1,55.9 24.2,58.9 21.9,66.3 22.4,66.5 	"/>
	<path class="st0" d="M31.9,63.2l-2.3-8.7l-1.8,1.8l0.6,4.6l-5.6,5.9c0.2,0.3,0.4,0.7,0.4,1.1L31.9,63.2z"/>
	<polygon class="st0" points="30.3,65.1 23.1,68.5 23,68.8 31.3,68.8 	"/>
	<path class="st0" d="M22.5,68c0,0.6-0.5,1.1-1.1,1.1c-0.6,0-1.1-0.5-1.1-1.1c0-0.6,0.5-1.1,1.1-1.1C22,66.9,22.5,67.4,22.5,68"/>
	<polygon class="st0" points="21.7,58.6 21.7,65 23.4,58.6 23.1,50.9 	"/>
	<polygon class="st0" points="19.3,58.6 21.1,65 21.1,58.6 19.6,50.9 	"/>
</g>
</svg>
