<svg xmlns="http://www.w3.org/2000/svg" viewBox="0 0 120 120"><title>icon-c&amp;amp;k</title><g id="Layer_1" data-name="Layer 1"><rect width="120" height="120" style="fill:none"/></g><g id="Layer_2" data-name="Layer 2"><path d="M45.3,69.85H59.46v.8l-4.74.85V83.72h3.22L68.4,72.12l-3.55-1.47v-.8H75.13v.8l-4.26,1.7-10,10.47,11.88,15,4,1.38v.8H63.86v-.8l3.22-1.14L57.47,85.28H54.72V98.34l4.74.86v.8H45.3v-.8L50,98.34V71.5l-4.69-.85ZM71.74,43l-.89,6.24A18.52,18.52,0,0,1,61,51.72c-9.51,0-16.14-6.16-16.14-15.48A16,16,0,0,1,61.14,20.15a16.3,16.3,0,0,1,7,1.46l2-1.61h.52L71,30.13l-.75.1c-3.17-6.35-6.35-8.71-11.08-8.71-4.17,0-8.81,4.07-8.81,13.92,0,9.65,5.4,14.67,11.88,14.67a9.12,9.12,0,0,0,3.7-.66l5.34-6.68ZM81.21,58.8c0,2.47-2,4.88-4.84,6a10.19,10.19,0,0,1-4.46.52C68.8,65,66,63.69,63.62,63.12l-5.38-1.54c-.8-.19-1.59-.42-2.36-.67a78.8,78.8,0,0,0-8.34-2.06c-.65-.06-2.75-.77-4.23-.2a4.79,4.79,0,0,0-2.26,1.46v0c-1.31,2.5-.14,4.18,1,4.84a2.47,2.47,0,0,0,3.63-1.19c.2-.68-.4-2.9-1.39-2-.54.5.43.84-.12,1.37a1.27,1.27,0,0,1-1.6-.27,2.2,2.2,0,0,1-.1-1.91c.45-1,.73-1.11,2.32-1.2C48.93,60,47.68,66,45,66.9a5,5,0,0,1-6.21-3.51,5.51,5.51,0,0,1,0-2.3c0-2.47,2-4.88,4.83-6a10.05,10.05,0,0,1,4.46-.51c3.11.28,5.9,1.61,8.3,2.17l1.1.36c1.51.35,4,1.07,5.59,1.53l.21.06.83.26A78.82,78.82,0,0,0,72.47,61c.64.07,2.74.77,4.22.2A4.79,4.79,0,0,0,79,59.78v0c1.31-2.5.14-4.18-1-4.84a2.49,2.49,0,0,0-3.64,1.19c-.2.68.41,2.9,1.39,2,.54-.5-.43-.84.12-1.37a1.28,1.28,0,0,1,1.6.28,2.17,2.17,0,0,1,.1,1.91c-.45,1-.73,1.1-2.32,1.19C71.08,60,72.32,53.88,75,53a5,5,0,0,1,6.2,3.5,5.66,5.66,0,0,1,0,2.3" transform="translate(0 0)" style="fill:#555"/></g></svg>