<svg xmlns="http://www.w3.org/2000/svg" viewBox="0 0 120 120"><title>icon-viatone</title><g id="Layer_1" data-name="Layer 1"><rect width="120" height="120" style="fill:none"/></g><g id="Layer_2" data-name="Layer 2"><path d="M36.75,57.15c.17,1.15.26,2.3.44,3.44h-.87c.14-1.15.29-2.3.43-3.45m17.56-.71a3.6,3.6,0,1,1-3.61,3.61,3.6,3.6,0,0,1,3.61-3.61m18.41-1.3v9.32h3.86c0-.36,0-.76,0-1.13H74.09V60.14H76V59H74.09v-3h2.45c0-.3,0-.61,0-.91H72.72m-10.45,0v9.32h1.24V58.21l1.82,6.25h1.48V55.14H65.66c0,2,0,4.26,0,6.25l-1.78-6.25Zm-19.3,0c0,.34,0,.69,0,1h1.24v8.29h1.38V56.17h1.23v-1H43m-7,0c-.5,3.09-1,6.18-1.48,9.32.4,0,1.08,0,1.3,0,.15-1,.27-1.78.4-2.72h1.23c.16.91.31,1.79.46,2.72h1.28c-.51-3.06-1-6.22-1.5-9.32Zm-7.28,9.32H30V55.14H28.65ZM20,55.14c.24,1.63,1.19,8,1.39,9.32H23c.17-1.2,1.37-9.26,1.37-9.32H23c-.05.52-.73,6.32-.8,6.86-.07-.55-.79-6.86-.79-6.86Zm40.18-2.06a13,13,0,0,1,7.22,2,5.93,5.93,0,0,1,2.95,4.79,5.93,5.93,0,0,1-2.95,4.79,13.93,13.93,0,0,1-14.45,0l-.41-.29a4.7,4.7,0,1,0-.83-8.28,8.93,8.93,0,0,1,1.24-1,13,13,0,0,1,7.23-2m6.71-3.3a23.21,23.21,0,0,1,11.92,3c3,1.85,4.89,4.37,4.89,7.14s-1.85,5.29-4.89,7.15a23.31,23.31,0,0,1-11.92,3,23.32,23.32,0,0,1-11.93-3,12.38,12.38,0,0,1-3.22-2.75,10,10,0,0,0,.95.74,14.39,14.39,0,0,0,15,0,6.41,6.41,0,0,0,3.15-5.17,6.39,6.39,0,0,0-3.15-5.17,14.39,14.39,0,0,0-15,0,9.63,9.63,0,0,0-.79.6A12.18,12.18,0,0,1,55,52.79a23.22,23.22,0,0,1,11.93-3M74.78,45a34.27,34.27,0,0,1,17.55,4.44c4.48,2.73,7.21,6.46,7.21,10.56s-2.73,7.84-7.21,10.56A34.27,34.27,0,0,1,74.78,75a34.27,34.27,0,0,1-17.55-4.44,15.59,15.59,0,0,1-6.33-6.59,12.13,12.13,0,0,0,3.83,3.52,23.74,23.74,0,0,0,12.16,3.08,23.81,23.81,0,0,0,12.17-3.08c3.12-1.91,5.09-4.57,5.09-7.53s-2-5.63-5.09-7.54a23.81,23.81,0,0,0-12.17-3.07,23.74,23.74,0,0,0-12.16,3.07,12.26,12.26,0,0,0-3.68,3.31,15.86,15.86,0,0,1,6.18-6.29A34.27,34.27,0,0,1,74.78,45m0-.45A34.76,34.76,0,0,0,57,49c-4.26,2.6-7,6.15-7.38,10.1,0,0,0,0,0,0v0a4.4,4.4,0,0,0-.06.73,4.89,4.89,0,0,0,.05.66c.24,4.07,3,7.71,7.4,10.36a34.66,34.66,0,0,0,17.79,4.5,34.63,34.63,0,0,0,17.79-4.5c4.56-2.78,7.43-6.65,7.43-11s-2.87-8.17-7.43-11a34.73,34.73,0,0,0-17.79-4.49" transform="translate(0 0)" style="fill:#555"/></g></svg>