<?xml version="1.0" encoding="utf-8"?>
<!-- Generator: Adobe Illustrator 23.0.4, SVG Export Plug-In . SVG Version: 6.00 Build 0)  -->
<svg version="1.1" id="Layer_1" xmlns="http://www.w3.org/2000/svg" xmlns:xlink="http://www.w3.org/1999/xlink" x="0px" y="0px"
	 viewBox="0 0 120 120" style="enable-background:new 0 0 120 120;" xml:space="preserve">
<style type="text/css">
	.st0{fill:none;}
	.st1{fill:#555555;}
	.st2{clip-path:url(#SVGID_2_);fill:#555555;}
	.st3{clip-path:url(#SVGID_4_);fill:#555555;}
</style>
<title>icon-alvilda</title>
<g>
	<rect class="st0" width="120" height="120"/>
</g>
<g>
	<polygon class="st1" points="48,66.4 49.3,70.2 50.5,66.4 51.7,66.4 48.7,74.4 47.4,74.4 48.7,71.5 46.8,66.4 	"/>
	<g>
		<defs>
			<rect id="SVGID_1_" x="10.3" y="42.8" width="97.3" height="32.9"/>
		</defs>
		<clipPath id="SVGID_2_">
			<use xlink:href="#SVGID_1_"  style="overflow:visible;"/>
		</clipPath>
		<path class="st2" d="M56.5,71.7h-0.7l-0.1-0.3c-0.4,0.3-0.9,0.4-1.4,0.4c-1.8,0-2.3-1.1-2.3-2.8c0-1.7,0.5-2.8,2.3-2.8
			c0.4,0,0.8,0.1,1.2,0.3v-2.8h1.1L56.5,71.7z M54.3,67.2c-1,0-1.2,0.8-1.2,1.8c0,1,0.2,1.8,1.2,1.8c0.4,0,0.8-0.1,1.2-0.3v-3.1
			c-0.1-0.1-0.3-0.1-0.4-0.2C54.8,67.3,54.5,67.2,54.3,67.2"/>
		<path class="st2" d="M57.7,63.7h1.1v2.8c0.4-0.2,0.8-0.3,1.2-0.3c1.8,0,2.3,1.1,2.3,2.8c0,1.7-0.5,2.8-2.3,2.8
			c-0.5,0-1-0.2-1.5-0.5l-0.1,0.3h-0.7V63.7z M59.2,67.3c-0.2,0.1-0.3,0.1-0.4,0.2v3.1c0.4,0.2,0.8,0.3,1.2,0.3c1,0,1.2-0.8,1.2-1.8
			c0-1-0.2-1.8-1.2-1.8C59.8,67.2,59.5,67.3,59.2,67.3"/>
		<path class="st2" d="M65.4,71.8c-1.9,0-2.3-1.1-2.3-2.8c0-1.7,0.4-2.8,2.3-2.8c1.9,0,2.3,1.1,2.3,2.8
			C67.7,70.7,67.4,71.8,65.4,71.8 M65.4,67.2c-1.1,0-1.2,0.8-1.2,1.8c0,1,0.1,1.8,1.2,1.8s1.2-0.8,1.2-1.8
			C66.7,68,66.6,67.2,65.4,67.2"/>
	</g>
	<polygon class="st1" points="73.2,66.4 71,68.4 73.2,71.7 71.8,71.7 70.3,69.1 69.7,69.7 69.7,71.7 68.7,71.7 68.7,63.7 69.7,63.7 
		69.7,68.4 71.6,66.4 	"/>
	<g>
		<defs>
			<rect id="SVGID_3_" x="10.3" y="42.8" width="97.3" height="32.9"/>
		</defs>
		<clipPath id="SVGID_4_">
			<use xlink:href="#SVGID_3_"  style="overflow:visible;"/>
		</clipPath>
		<path class="st3" d="M79.3,71.8c-1.9,0-2.3-1.1-2.3-2.8c0-1.7,0.4-2.8,2.3-2.8c1.9,0,2.3,1.1,2.3,2.8
			C81.6,70.7,81.3,71.8,79.3,71.8 M79.3,67.2c-1.1,0-1.2,0.8-1.2,1.8c0,1,0.1,1.8,1.2,1.8c1.1,0,1.2-0.8,1.2-1.8
			C80.6,68,80.5,67.2,79.3,67.2"/>
		<path class="st3" d="M85.7,67.4c-0.3-0.1-0.5-0.2-0.8-0.2c-0.4,0-0.9,0.1-1.2,0.3v4.2h-1.1v-5.3h0.7l0.1,0.3
			c0.5-0.3,1-0.5,1.5-0.5c0.3,0,0.5,0.1,0.8,0.1V67.4z"/>
		<path class="st3" d="M90.8,67.2c-0.6,0-1.2,0.1-1.8,0.3v-1c0.6-0.2,1.2-0.3,1.8-0.3c1.6,0,2,0.8,2,1.8v3.6h-0.7l-0.1-0.3
			c-0.5,0.3-1,0.4-1.5,0.4c-1.5,0-1.9-0.9-1.9-1.8c0-0.9,0.4-1.6,2-1.7l1.2-0.1V68C91.8,67.5,91.6,67.2,90.8,67.2 M90.6,69.2
			c-0.5-0.1-0.8,0.3-0.9,0.7V70c0,0.4,0.1,0.8,0.9,0.8c0.4,0,0.9-0.1,1.2-0.4v-1.4L90.6,69.2z"/>
		<path class="st3" d="M95.9,70.4h-0.4c-0.2,0.1-0.3,0.2-0.3,0.3s0.1,0.2,0.2,0.2h0.1l1.7,0.2c1,0.1,1.5,0.5,1.5,1.5
			c0,1.3-1.3,1.9-2.8,1.9c-1.4,0-2.4-0.5-2.4-1.7c0-0.6,0.4-1.1,0.9-1.3c-0.2-0.2-0.2-0.4-0.2-0.6c0-0.3,0.2-0.6,0.4-0.8
			c-0.6-0.4-0.9-1.1-0.8-1.8c0-1.1,0.5-2.1,2.1-2.1c0.3,0,0.7,0.1,1,0.2h1.7v0.7L98,67.3c0.1,0.3,0.2,0.7,0.2,1
			C98,69.4,97.5,70.4,95.9,70.4 M95.6,71.9c-0.6,0.2-1,0.5-1,0.9c0,0.6,0.5,0.7,1.3,0.7s1.7-0.2,1.7-0.9c0-0.4-0.2-0.5-0.6-0.6
			L95.6,71.9z M95.9,69.4c1,0,1.1-0.5,1.1-1.1c0-0.6-0.1-1.1-1.1-1.1c-1,0-1.1,0.5-1.1,1.1C94.8,68.9,94.9,69.4,95.9,69.4"/>
		<path class="st3" d="M100.1,69.5c0.1,0.7,0.4,1.3,1.2,1.3c0.6,0,1.3-0.1,1.8-0.4v1c-0.6,0.3-1.2,0.4-1.8,0.4
			c-1.8,0-2.4-1.1-2.4-2.8c0-1.7,0.6-2.8,2.4-2.8c1.8,0,2.1,1.3,2.1,2.8v0.5L100.1,69.5z M100.1,68.6h2.2c0-0.7-0.1-1.4-1-1.4
			C100.5,67.2,100.2,67.8,100.1,68.6"/>
		<path class="st3" d="M107.4,71.8c-0.2,0.1-0.5,0.1-0.7,0.1c-0.9,0-1.7-0.5-1.7-1.5v-3.1h-1v-0.6l1-0.3V65l1.1-0.3v1.6h1.6v0.9H106
			v3c0,0.5,0.3,0.6,0.8,0.6c0.2,0,0.4,0,0.6-0.1L107.4,71.8z"/>
		<path class="st3" d="M77.3,63.5c-1.4,0-2.1,0.6-2.4,1.7l-0.2,1.1l-1.1,0.3l-0.2,0.7h1l-1.1,5.4c-0.2,0.7-0.9,0.9-1.4,1l-0.2,1
			c1.1-0.1,2.5-0.7,2.7-1.8l1.1-5.4h1.2l0.2-0.9h-1.2l0.3-1.1c0.1-0.5,0.6-0.8,1.1-0.7c0.3,0,0.6,0.1,0.9,0.1l0.2-1
			C77.9,63.6,77.6,63.5,77.3,63.5"/>
		<path class="st3" d="M46.7,70.8v1h-0.7c-0.8-0.1-1.3-0.8-1.3-1.5v-6.6h1.1v6.7c0,0.3,0.2,0.4,0.5,0.4H46.7z"/>
		<path class="st3" d="M88.2,70.8v1h-0.7c-0.8-0.1-1.3-0.8-1.3-1.5v-6.6h1.1v6.7c0,0.3,0.2,0.4,0.5,0.4H88.2z"/>
		<path class="st3" d="M13.6,73.5c0.1,0.2,0.4,0.3,0.6,0.2c0.1-0.1,6.9-3.7,10.3-1c0.2,0.1,0.4,0.1,0.5,0c3.3-2.6,10,0.9,10.3,1
			c0.2,0.1,0.5,0.1,0.6-0.2c0.1-0.2,0.1-0.5-0.2-0.6c-0.3-0.2-7.1-3.7-11-1.1c-3.9-2.7-10.7,1-11,1.1C13.6,73,13.5,73.3,13.6,73.5"
			/>
		<path class="st3" d="M36.6,74.3L26,73.5c-0.3,0.7-1,1-1.7,0.7c-0.4-0.2-0.6-0.4-0.7-0.7l-10.7,0.8c-0.4,0-0.6,0.3-0.6,0.6
			c0,0.4,0.3,0.6,0.6,0.6H13l9.9-0.7c0.5,0.6,1.2,0.9,1.9,0.9c0.7,0,1.4-0.3,1.9-0.9l9.9,0.7c0.4,0,0.7-0.3,0.7-0.6
			C37.3,74.6,37,74.3,36.6,74.3"/>
		<path class="st3" d="M19.8,49c1.8,0,3.3,1.5,3.3,3.3s-1.5,3.3-3.3,3.3c-1.8,0-3.3-1.5-3.3-3.3S17.9,49,19.8,49 M24.7,54.5
			c0.5-0.1,1.1,0.3,1.2,0.8c-0.1,1-0.4,1.9-1,2.8h-0.1h-0.1c-0.6-0.8-0.9-1.8-1-2.8C23.9,54.9,24.2,54.6,24.7,54.5 M29.8,49
			c1.8,0,3.3,1.5,3.3,3.3s-1.5,3.3-3.3,3.3c-1.8,0-3.3-1.5-3.3-3.3S28,49,29.8,49 M30.5,67.2c-0.1,0.1-0.1,0.1-0.1,0.1h-0.1
			c-0.1-0.1-0.1-0.1-0.1-0.1v-0.1c1.1-2.8,1.7-5.8,1.8-8.8c0-0.4,0-0.7-0.1-1.1c0-0.1,0-0.1,0.1-0.1c0.1,0,0.1,0,0.1,0.1
			c0.4,0.8,0.6,1.6,0.6,2.5C32.8,62.1,31.5,65.1,30.5,67.2 M19.4,67.2c0,0.1,0,0.1-0.1,0.1h-0.1c-0.1,0-0.1,0-0.1-0.1
			c-1.1-2.1-2.4-5.2-2.4-7.6c-0.1-0.8,0.2-1.7,0.6-2.5c0.1-0.1,0.1-0.1,0.2-0.1c0.1,0,0.1,0.1,0.1,0.1c-0.1,0.4-0.1,0.7-0.1,1.1
			C17.6,61.3,18.2,64.3,19.4,67.2L19.4,67.2z M15.5,51.6L15.5,51.6c0,0.1,0,0.2-0.1,0.3c-0.1,0.1,0,0.3,0,0.4c0,1.1,0.4,2.2,1.2,3
			c-1,1.2-1.5,2.8-1.5,4.3c0,3.7,2.4,8.2,3.8,10.6c1.9-0.4,4.1-0.4,5.9,0.6c1.8-1,3.9-1,5.9-0.6c1.4-2.4,3.8-6.9,3.8-10.6
			c0-1.6-0.5-3.1-1.5-4.3c0.8-0.8,1.2-1.9,1.2-3v-0.4v-0.3v-0.1c-0.3-1.3-1.1-2.5-2.4-3.2c0.7-0.6,1.5-0.9,2.5-1c0,0,0.1,0,0.1-0.1
			v-0.1c-3-1.8-6.7-1.7-9.6,0.3c-2.9-2-6.6-2.1-9.6-0.3v0.1c0,0,0,0.1,0.1,0.1c0.9,0.1,1.7,0.4,2.5,1C16.5,49.1,15.7,50.3,15.5,51.6
			"/>
		<path class="st3" d="M19.8,53.6c0.7,0,1.3-0.6,1.3-1.3c0-0.7-0.6-1.3-1.3-1.3c-0.7,0-1.3,0.6-1.3,1.3C18.4,53,19,53.6,19.8,53.6"
			/>
		<path class="st3" d="M29.8,53.6c0.7,0,1.3-0.6,1.3-1.3c0-0.7-0.6-1.3-1.3-1.3s-1.3,0.6-1.3,1.3C28.5,53,29.1,53.6,29.8,53.6"/>
		<path class="st3" d="M39.3,52c-0.3-4.8-7.8-9.2-14.5-9.2c-6.7,0-14.2,4.3-14.5,9.2v0.3c0,1.3,0.8,2.5,1.7,2.5H13v0.2
			c0.1,0.7,0.7,1.3,1.4,1.3c0.5,0,1-0.3,1.2-0.8c-1.3-1.8-1.3-4.3,0-6.1c-0.3-0.7-1.1-1-1.7-0.7c-0.4,0.2-0.7,0.6-0.8,1.1
			c0,0.1-0.1,0.2-0.2,0.2s-0.2-0.1-0.2-0.3c0.4-3.1,5.6-5.6,12.3-5.6s11.9,2.5,12.2,5.6c0,0.1-0.1,0.2-0.2,0.3
			c-0.1,0-0.2-0.1-0.2-0.2c-0.1-0.7-0.8-1.3-1.5-1.2c-0.5,0.1-0.9,0.4-1.1,0.8c1.3,1.8,1.3,4.3,0,6.1c0.3,0.7,1.1,1,1.8,0.7
			c0.5-0.2,0.8-0.7,0.8-1.2v-0.1h1c1,0,1.7-1.1,1.7-2.5C39.3,52.2,39.3,52.1,39.3,52"/>
	</g>
</g>
</svg>
