<svg xmlns="http://www.w3.org/2000/svg" viewBox="0 0 120 120"><defs><style>.a{fill:#fff;}</style></defs><title>logo-mofibo-white</title><path class="a" d="M48.17,93.13a2.28,2.28,0,0,0-2.28-2.28h-.21a3.53,3.53,0,0,0-3,1.49,2.35,2.35,0,0,0-2.55-1.5,3.83,3.83,0,0,0-2.75,1.39c-.08-.41-.13-.71-.18-1H34.59v1l1.27.14v7.2h1.65V93.34a3.09,3.09,0,0,1,1.78-1.15,1.37,1.37,0,0,1,1.71.9l0,.1a4.31,4.31,0,0,1,.16,1.24v4.41a3,3,0,0,0,.06.74h1.56V93.34A3,3,0,0,1,44.6,92.2a1.39,1.39,0,0,1,1.74.92.75.75,0,0,1,0,.16,6,6,0,0,1,.16,1.33v4.23a3.38,3.38,0,0,0,.06.77h1.55c0-.3.06-.56.06-.82V94.21a9.73,9.73,0,0,0,0-1.08"/><path class="a" d="M75.79,96.67a2.43,2.43,0,0,1-2.78,2l-.22,0a5.38,5.38,0,0,1-.89-.18V93.2a2.07,2.07,0,0,1,2.34-.89A1.92,1.92,0,0,1,75.78,94a8.41,8.41,0,0,1,0,2.65M73.8,91a12,12,0,0,0-1.92.73V87H69.1v1l1.2.16v11a6.76,6.76,0,0,0,3.48.69A3.72,3.72,0,0,0,77,97.78a5.64,5.64,0,0,0,.18-4.94A2.9,2.9,0,0,0,73.8,91"/><path class="a" d="M62.63,86.79a3,3,0,0,0-2.42,2.57,8.57,8.57,0,0,0-.13,1.34v8.09a4.41,4.41,0,0,0,.05.8h1.58c.07-2.45-.05-4.83.07-7.23l1.43-.1.35-1-1.71-.11c-.25-1.38,0-2.47.78-2.94a3.18,3.18,0,0,1,3.13-.12,11.4,11.4,0,0,0,.12,1.23H67.4v-2a7.52,7.52,0,0,0-4.77-.49"/><path class="a" d="M64.36,92.26l1.44.11V99.6h1.56V91.22H64.72c-.13.36-.23.68-.36,1"/><path class="a" d="M54.19,98.69c-1.55,0-2.46-1.43-2.46-3.24s.86-3.32,2.46-3.32,2.46,1.58,2.46,3.26c0,1.85-.89,3.3-2.46,3.3m0-7.87c-2.5,0-4.22,1.93-4.22,4.66S51.59,100,54.1,100s4.26-1.7,4.26-4.68c0-2.53-1.53-4.5-4.13-4.5"/><path class="a" d="M83.07,98.69c-1.56,0-2.47-1.43-2.47-3.24s.86-3.32,2.47-3.32,2.45,1.58,2.45,3.25c0,1.86-.88,3.31-2.45,3.31m0-7.87c-2.5,0-4.22,1.93-4.22,4.66S80.47,100,83,100s4.26-1.7,4.26-4.68c0-2.53-1.53-4.5-4.13-4.5"/><path class="a" d="M70.12,55c-6.76,6.35-15.4,4.2-21.3,9a48.37,48.37,0,0,1-1.76-13.16c0-2.42,1-16,12.93-16,15.32,0,17.94,12.8,10.13,20.14M89.68,26.23a6.51,6.51,0,0,0-.25-1.76,6.08,6.08,0,0,0-6-4.45H37.62A6.3,6.3,0,0,0,31.3,26.3V72.19a6.16,6.16,0,0,0,6.05,6.27H83.41a6.16,6.16,0,0,0,6.27-6V26.25"/></svg>