<svg xmlns="http://www.w3.org/2000/svg" viewBox="0 0 120 120"><title>icon-politikensforlag</title><g id="Layer_1" data-name="Layer 1"><rect width="120" height="120" style="fill:none"/></g><g id="Layer_2" data-name="Layer 2"><path d="M61.56,45.06h1.26c3.91,0,4.85,1.83,4.85,3.95,0,2.44-1.22,4-4.76,3.93l-1.35,0Zm-14.73-6v6h4.8c0,.88,0,.36,0,1.54l0,17.54h-4.8V70.3H66.59V64.15H61.52v-5h2.56c9.62,0,13.17-4.1,13.17-9.91,0-6-3.76-10.16-13.16-10.16Z" transform="translate(0 0)" style="fill:#555"/><path d="M58.75,44.73c0-.93.14-1.83,2.84-1.82.87,0,1.77.08,2.64.08,3.43,0,6.07,2.13,6.07,6,0,5.28-4,6.23-7.76,6.23-1.27,0-2.53,0-3.79-.08Zm5.37,23.39V66.36H61c-1.6-.06-2.28-.39-2.28-1.75v-7.7c1.46,0,2.88.08,4.34.08.63,0,1.3,0,1.93,0a21.94,21.94,0,0,0,2.33-.2,8.76,8.76,0,0,0,5-2.33A7.36,7.36,0,0,0,74.57,49a7.18,7.18,0,0,0-5.37-7.21,19.54,19.54,0,0,0-4.77-.67H49.2v1.77h3c1.47,0,2.18.59,2.18,2.39,0,0,0,17.26,0,19.32,0,1.36-1,1.75-2.2,1.75h-3v1.76Z" transform="translate(0 0)" style="fill:#555"/><path d="M22.52,78.07c.29,0,.38,0,.43-.06s.16-.22.16-.76-.08-.66-.16-.73-.14-.07-.43-.07H21.28v1.62Zm1.44.78a1.44,1.44,0,0,1-.94.23H21.28V81H20v-5.5h3a1.39,1.39,0,0,1,.94.22c.25.23.47.58.47,1.6s-.23,1.36-.47,1.58" transform="translate(0 0)" style="fill:#555"/><path d="M26.57,79.86c.05,0,.12.07.37.07h1c.25,0,.32,0,.38-.07s.17-.27.17-1.66-.1-1.6-.17-1.66-.13-.08-.38-.08h-1c-.25,0-.32,0-.37.08s-.18.26-.18,1.66.11,1.58.18,1.66m1.75-4.41a1.34,1.34,0,0,1,1,.26c.31.29.54.8.54,2.49s-.23,2.18-.54,2.48a1.29,1.29,0,0,1-1,.27H26.61a1.29,1.29,0,0,1-1-.27c-.31-.3-.54-.8-.54-2.48s.23-2.2.54-2.49a1.34,1.34,0,0,1,1-.26Z" transform="translate(0 0)" style="fill:#555"/><polygon points="30.87 75.45 30.87 80.95 34.77 80.95 34.77 79.93 32.15 79.93 32.15 75.45 30.87 75.45" style="fill:#555"/><rect x="35.58" y="75.45" width="1.29" height="5.5" style="fill:#555"/><polygon points="37.63 75.45 37.63 76.47 39.31 76.47 39.31 80.95 40.59 80.95 40.59 76.47 42.28 76.47 42.28 75.45 37.63 75.45" style="fill:#555"/><rect x="43.04" y="75.45" width="1.29" height="5.5" style="fill:#555"/><polygon points="48.82 75.45 47.16 77.64 46.82 77.64 46.82 75.45 45.54 75.45 45.54 80.95 46.82 80.95 46.82 78.61 47.17 78.61 48.82 80.95 50.33 80.95 48.2 78.03 50.24 75.45 48.82 75.45" style="fill:#555"/><polygon points="50.97 75.45 50.97 80.95 55.1 80.95 55.1 79.93 52.25 79.93 52.25 78.61 54.47 78.61 54.47 77.64 52.25 77.64 52.25 76.46 55.1 76.46 55.1 75.45 50.97 75.45" style="fill:#555"/><path d="M60.85,81h-1a.54.54,0,0,1-.56-.33l-1.9-3.4h-.08V81H56.05v-5.5h1.2a.54.54,0,0,1,.57.33l1.72,3.13h.08V75.45h1.23Z" transform="translate(0 0)" style="fill:#555"/><path d="M66,80.69a1.13,1.13,0,0,1-.85.26H63.09a1.24,1.24,0,0,1-.92-.25c-.23-.22-.32-.56-.32-1.54h1.21c0,.54,0,.66.09.72s.13.07.35.07h1.17c.23,0,.33,0,.39-.07a1,1,0,0,0,.08-.55c0-.28,0-.39-.09-.46a.66.66,0,0,0-.38-.1L63,78.6a1.31,1.31,0,0,1-.78-.29c-.21-.22-.3-.51-.3-1.26a1.74,1.74,0,0,1,.38-1.34,1.09,1.09,0,0,1,.84-.26H65a1.28,1.28,0,0,1,.92.23c.22.24.32.54.33,1.5h-1.2c0-.49,0-.61-.1-.66s-.12-.08-.34-.08H63.56c-.21,0-.29,0-.34.06s-.07.22-.07.52,0,.39.08.45.14.07.38.1l1.69.17a1.22,1.22,0,0,1,.77.28c.21.22.3.52.3,1.27a1.88,1.88,0,0,1-.37,1.4" transform="translate(0 0)" style="fill:#555"/><polygon points="69.27 75.45 69.27 80.95 70.55 80.95 70.55 78.79 72.54 78.79 72.54 77.83 70.55 77.83 70.55 76.45 73.2 76.45 73.2 75.45 69.27 75.45" style="fill:#555"/><path d="M75.29,79.86s.12.07.37.07h1c.25,0,.32,0,.37-.07s.18-.27.18-1.66-.1-1.6-.18-1.66-.12-.08-.37-.08h-1c-.25,0-.32,0-.37.08s-.18.26-.18,1.66.11,1.58.18,1.66M77,75.45a1.34,1.34,0,0,1,1,.26c.31.29.54.8.54,2.49s-.23,2.18-.54,2.48A1.29,1.29,0,0,1,77,81H75.33a1.29,1.29,0,0,1-1-.27c-.31-.3-.54-.8-.54-2.48s.23-2.2.54-2.49a1.34,1.34,0,0,1,1-.26Z" transform="translate(0 0)" style="fill:#555"/><path d="M82.24,77.91c.27,0,.34,0,.39-.07s.15-.22.15-.67-.07-.59-.15-.66-.12-.06-.39-.06H80.87v1.46ZM82.58,79c-.09-.07-.2-.11-.53-.11H80.87V81H79.59v-5.5h3.24a1.21,1.21,0,0,1,.92.25c.23.23.36.52.36,1.31,0,1-.28,1.28-.92,1.39v0c.56.11.84.27.86,1.07s.06,1.16.09,1.46h-1.3c0-.37-.08-.82-.1-1.37s-.06-.52-.16-.61" transform="translate(0 0)" style="fill:#555"/><polygon points="85.22 75.45 85.22 80.95 89.11 80.95 89.11 79.93 86.5 79.93 86.5 75.45 85.22 75.45" style="fill:#555"/><path d="M91.38,78.62h1.33l-.61-2H92Zm1.61,1H91.1L90.69,81H89.41l1.71-5.16c.1-.3.15-.37.44-.37h1.06c.29,0,.35.07.45.37L94.78,81H93.41Z" transform="translate(0 0)" style="fill:#555"/><path d="M98.49,75.45c.56,0,.82.06,1,.25s.43.6.44,1.55H98.72c0-.55-.1-.66-.17-.72s-.12-.08-.37-.08h-1c-.26,0-.32,0-.38.08s-.19.32-.19,1.67.11,1.59.19,1.67.12.07.38.07h1c.24,0,.32,0,.37-.07s.18-.28.18-.81V78.9H97.52V78H100v.69c0,1.26-.2,1.73-.51,2a1.32,1.32,0,0,1-1,.28H96.8a1.29,1.29,0,0,1-1-.27c-.31-.3-.54-.8-.54-2.48s.23-2.2.54-2.49a1.34,1.34,0,0,1,1-.26Z" transform="translate(0 0)" style="fill:#555"/></g></svg>