<svg xmlns="http://www.w3.org/2000/svg" viewBox="0 0 44 44"><defs><radialGradient id="a" cx="18.58" cy="36.08" r="28.03" gradientUnits="userSpaceOnUse"><stop offset=".04" stop-color="#fed373"/><stop offset=".3" stop-color="#f15245"/><stop offset=".62" stop-color="#d92e7f"/><stop offset=".85" stop-color="#9b36b7"/><stop offset="1" stop-color="#515ecf"/></radialGradient></defs><title>icon-instagram</title><circle cx="22" cy="22" r="22" fill="#fff"/><path d="M36 34.51V15.8v-.3a2.43 2.43 0 0 0-2-2H16.17l-.31.06A2.44 2.44 0 0 0 14 15.65a.5.5 0 0 1 0 .12v18.46l.06.35a2.44 2.44 0 0 0 2 1.9H33.8l.34-.06A2.44 2.44 0 0 0 36 34.51z" transform="translate(-3 -3)" fill="url(#a)"/><path d="M13.38 30.1a.91.91 0 0 0 .87.91h15.49a.91.91 0 0 0 .88-.91V19.83h-2.1a7.53 7.53 0 0 1 .27 3 7.22 7.22 0 0 1-2.95 5.07 6.61 6.61 0 0 1-7.18.32A6.82 6.82 0 0 1 16 25.44a7.44 7.44 0 0 1-.54-5.61h-2.08V30.1z" fill="#fff"/><path d="M21.9 26.66a4.67 4.67 0 1 0-4.36-4.73 4.58 4.58 0 0 0 4.36 4.73zM30.62 15.48V13.3a.91.91 0 0 0-.89-.93h-2.08a.9.9 0 0 0-.89.93v2.16a1.26 1.26 0 0 0 0 .33.91.91 0 0 0 .87.62h2.08a.91.91 0 0 0 .91-.93z" fill="#fff"/></svg>