<svg xmlns="http://www.w3.org/2000/svg" viewBox="0 0 508.1 78.3"><title>kluboplevelser-logo</title><path d="M69.2,58.9c6,0,6.2-5.3,6.2-5.3V34.2h9.5V53.6s-.2,13.6-15.4,13.6h-.6c-15.2,0-15.4-13.6-15.4-13.6V34.2H63V53.6s.3,5.3,6.4,5.3Z" style="fill:#2a7eb7"/><circle cx="69.2" cy="53.2" r="6.2" style="fill:#fff"/><circle cx="69.2" cy="53.2" r="4.4" style="fill:#f78735"/><circle cx="429.9" cy="62.3" r="4.4" style="fill:#f78735"/><path d="M161.5,49.7c0,5.5-1.5,9.8-4.5,12.8S150,67,145,67s-9.2-1.5-12.1-4.6-4.4-7.4-4.4-12.7S130,40,133,37s7.1-4.6,12-4.6,9,1.5,12,4.5S161.5,44.2,161.5,49.7Zm-6.4,0c0-4.2-.9-7.4-2.6-9.4s-4.2-3.1-7.5-3.1a9.3,9.3,0,0,0-7.5,3.1c-1.7,2-2.6,5.2-2.6,9.4s.9,7.3,2.6,9.4a10.4,10.4,0,0,0,15,0C154.2,57,155.1,53.9,155.1,49.7Z" style="fill:#2a7eb7"/><path d="M199,49c0,5.4-1.5,9.8-4.5,13a14.4,14.4,0,0,1-11.1,4.9,17.7,17.7,0,0,1-4.9-.6,25.6,25.6,0,0,1-4.3-1.7V78.3h-6.3V33.4h6.3v3.5a18.8,18.8,0,0,1,5.1-3.1,14.4,14.4,0,0,1,6.2-1.3,12,12,0,0,1,9.9,4.5C197.8,40,199,43.9,199,49Zm-6.5.6c0-3.8-.6-6.7-2-8.7s-3.5-3.1-6.5-3.1a13.4,13.4,0,0,0-5.2,1,21.3,21.3,0,0,0-4.6,2.7V60.1a19.9,19.9,0,0,0,4.1,1.4,16.4,16.4,0,0,0,4,.4,9.7,9.7,0,0,0,7.6-3.1C191.6,56.7,192.5,53.6,192.5,49.6Z" style="fill:#2a7eb7"/><path d="M211.2,66.8H205V21.1h6.2Z" style="fill:#2a7eb7"/><path d="M236.4,66.9c-5.9,0-10.5-1.5-13.7-4.5s-4.9-7.1-4.9-12.5,1.5-9.6,4.7-12.7a16.7,16.7,0,0,1,12.4-4.8,19.1,19.1,0,0,1,6.1.9,11.4,11.4,0,0,1,4.6,2.8,12.1,12.1,0,0,1,3.1,4.5,19.3,19.3,0,0,1,1,6.7v3H224.1c0,3.8,1.1,6.7,3.2,8.7a12.9,12.9,0,0,0,9,3.1,17.5,17.5,0,0,0,4-.5,17.1,17.1,0,0,0,3.6-1l2.8-1.3a11.7,11.7,0,0,0,2-1.2h.3v6l-2.7,1-2.9.9-3.3.6A19,19,0,0,1,236.4,66.9Zm7.3-20.8a20,20,0,0,0-.6-3.9,7.2,7.2,0,0,0-1.6-2.7,6.3,6.3,0,0,0-2.8-1.9,12.5,12.5,0,0,0-4.2-.6,13.3,13.3,0,0,0-4.2.6,12.9,12.9,0,0,0-3.2,1.9,11.2,11.2,0,0,0-2.1,2.9,10.6,10.6,0,0,0-.9,3.7Z" style="fill:#2a7eb7"/><path d="M285.2,34.5l-14,32.8h-5.6L251.8,34.5h6.7l10.2,25.3,10-25.3Z" style="fill:#2a7eb7"/><path d="M305,66.9q-8.8,0-13.8-4.5c-3.2-2.9-4.8-7.1-4.8-12.5s1.5-9.6,4.7-12.7a16.7,16.7,0,0,1,12.4-4.8,19.1,19.1,0,0,1,6.1.9,13,13,0,0,1,7.7,7.3,19.3,19.3,0,0,1,1,6.7v3H292.7c0,3.8,1.1,6.7,3.2,8.7a12.9,12.9,0,0,0,9,3.1,17.5,17.5,0,0,0,4-.5,18.9,18.9,0,0,0,3.6-1l2.8-1.3a11.7,11.7,0,0,0,2-1.2h.3v6l-2.7,1L312,66l-3.3.6A19,19,0,0,1,305,66.9Zm7.3-20.8a20,20,0,0,0-.6-3.9,7.2,7.2,0,0,0-1.6-2.7,6.3,6.3,0,0,0-2.8-1.9,12.5,12.5,0,0,0-4.2-.6,13.3,13.3,0,0,0-4.2.6,12.9,12.9,0,0,0-3.2,1.9,11.2,11.2,0,0,0-2.1,2.9,10.6,10.6,0,0,0-.9,3.7Z" style="fill:#2a7eb7"/><path d="M331.2,66.8H325V21.1h6.2Z" style="fill:#2a7eb7"/><path d="M350,66.9a26.1,26.1,0,0,1-6.9-.9,31.8,31.8,0,0,1-5.3-1.9V57.9h.3l1.9,1.3,2.8,1.4a28.9,28.9,0,0,0,3.5,1.1,13.3,13.3,0,0,0,4,.5l3.2-.3a6.7,6.7,0,0,0,2.5-.8,4.5,4.5,0,0,0,1.6-1.4,3.7,3.7,0,0,0,.6-2.3,3.4,3.4,0,0,0-1.2-2.9,10.3,10.3,0,0,0-4.3-1.7l-3.2-.6-3.5-.8c-2.8-.7-4.9-1.8-6.2-3.4a8.5,8.5,0,0,1-1.9-5.5,8.7,8.7,0,0,1,3.8-7.2,16.9,16.9,0,0,1,10-2.8,31.8,31.8,0,0,1,6.2.7,27.6,27.6,0,0,1,5.3,1.7v5.9h-.4a18.7,18.7,0,0,0-5.3-2.6,17,17,0,0,0-5.9-1,11.4,11.4,0,0,0-5.2,1.1,4.2,4.2,0,0,0-.9,6.6,11.6,11.6,0,0,0,4.1,1.6l3.1.7,3.6.7a11.7,11.7,0,0,1,6.1,3,7.8,7.8,0,0,1,2.1,5.8,9.3,9.3,0,0,1-.9,4,10.6,10.6,0,0,1-2.8,3.2,13.5,13.5,0,0,1-4.5,2.2A21.5,21.5,0,0,1,350,66.9Z" style="fill:#2a7eb7"/><path d="M389.2,66.9c-5.9,0-10.4-1.5-13.7-4.5s-4.9-7.1-4.9-12.5,1.6-9.6,4.8-12.7,7.2-4.8,12.3-4.8a18.7,18.7,0,0,1,6.1.9,12.5,12.5,0,0,1,4.7,2.8,11.9,11.9,0,0,1,3,4.5,19.2,19.2,0,0,1,1.1,6.7v3H376.9q0,5.7,3.3,8.7a12.7,12.7,0,0,0,9,3.1,18.3,18.3,0,0,0,4-.5,16.1,16.1,0,0,0,3.5-1l2.9-1.3a10.5,10.5,0,0,0,1.9-1.2h.4v6l-2.7,1-2.9.9-3.3.6A20.2,20.2,0,0,1,389.2,66.9Zm7.3-20.8a11.4,11.4,0,0,0-.6-3.9,5.9,5.9,0,0,0-1.5-2.7,7,7,0,0,0-2.8-1.9,15,15,0,0,0-8.4,0,11.3,11.3,0,0,0-3.2,1.9,11.2,11.2,0,0,0-2.1,2.9,13.4,13.4,0,0,0-1,3.7Z" style="fill:#2a7eb7"/><path d="M428.5,40.1h-.4a5.8,5.8,0,0,0-1.4-.3h-1.9a12.7,12.7,0,0,0-5,1,16.3,16.3,0,0,0-4.7,2.8V66.9h-6.2V34.1h6.2V39a35.1,35.1,0,0,1,5.9-3.8,13.3,13.3,0,0,1,5-1.1h2.5Z" style="fill:#2a7eb7"/><path d="M471.1,66.9h-6.3V63.6l-2.5,1.8a11.7,11.7,0,0,1-2.5,1.2,12.2,12.2,0,0,1-2.7.9,16.9,16.9,0,0,1-3.3.3,14.7,14.7,0,0,1-5.6-1.1,10.9,10.9,0,0,1-4.4-3.3,15.7,15.7,0,0,1-2.8-5.3,26.8,26.8,0,0,1-1-7.3,21,21,0,0,1,1.3-7.5,16.7,16.7,0,0,1,3.5-5.5,14.4,14.4,0,0,1,4.9-3.4,15.3,15.3,0,0,1,6-1.2,17.5,17.5,0,0,1,4.8.6,20.7,20.7,0,0,1,4.3,1.6V21.2h6.3Zm-6.3-8V40a33.4,33.4,0,0,0-4.1-1.4,25,25,0,0,0-4-.3,9.1,9.1,0,0,0-7.5,3.2c-1.8,2.1-2.7,5.1-2.7,9.2s.7,6.8,2.1,8.8,3.6,3.1,6.6,3.1a14.8,14.8,0,0,0,5-1A21.3,21.3,0,0,0,464.8,58.9Z" style="fill:#2a7eb7"/><path d="M508.1,66.9h-8.2L486.1,51.1l-2.5,2.1V66.9h-6.2V21.2h6.2V48l14.7-13.9H506L490.8,47.8Z" style="fill:#2a7eb7"/><path d="M30.5,67H19.2L11,52.8,9.5,54.9V67H0V21.6H9.5V47.1l9-12.8H29.7L19,48.4Z" style="fill:#2a7eb7"/><path d="M46.5,67H37V21.6h9.5Z" style="fill:#2a7eb7"/><path d="M121.8,50.2c0,5.2-1.2,9.4-3.7,12.6a10.9,10.9,0,0,1-9.1,4.9,12.5,12.5,0,0,1-4-.6,16,16,0,0,1-3.5-1.7L101,67H92V21.6h9.5V37.7a20.3,20.3,0,0,1,4.2-3.2,10.3,10.3,0,0,1,5-1.2,9.1,9.1,0,0,1,8.2,4.5C120.9,40.8,121.8,44.9,121.8,50.2Zm-9.7.2c0-3.3-.4-5.6-1.4-7a4.6,4.6,0,0,0-4.2-2.1,7.8,7.8,0,0,0-2.6.4,14.1,14.1,0,0,0-2.4,1.3V59.5a6,6,0,0,0,1.9.6h1.9a5.6,5.6,0,0,0,5.1-2.5C111.5,56.1,112.1,53.7,112.1,50.4Z" style="fill:#2a7eb7"/><path d="M421.8.7l-9,15.1h-2.4L408.1.7h2.4l1.7,12.5L419.6.7Z" style="fill:#2a7eb7"/><path d="M421.9,15.8h-2l2.5-11.3h2.1Zm3.2-13.2h-2.4l.5-2h2.3Z" style="fill:#2a7eb7"/><path d="M432.1,17.6l.6.3.8.2,1,.2h1.1l1.7-.2a4.1,4.1,0,0,0,1.1-.7l.8-.9c.1-.4.3-.8.4-1.3l.2-1a6.3,6.3,0,0,1-4,1.3,3.4,3.4,0,0,1-3-1.4,5.7,5.7,0,0,1-.3-4.2,10.9,10.9,0,0,1,1-2.5,9.3,9.3,0,0,1,1.6-1.8A7.6,7.6,0,0,1,437,4.5a7.9,7.9,0,0,1,2-.4,4.3,4.3,0,0,1,1.7.3,3.4,3.4,0,0,1,1.2.6l.3-.5h1.9l-2.3,10a7.1,7.1,0,0,1-2.3,4.3,6.9,6.9,0,0,1-4.5,1.3h-1.8l-1.7-.4.5-2Zm8.1-4.9,1.4-6.2L440.3,6H439a3.6,3.6,0,0,0-2.7,1,5.8,5.8,0,0,0-1.6,3.1,4.7,4.7,0,0,0,0,2.9,2.1,2.1,0,0,0,2,1,5.1,5.1,0,0,0,1.7-.3A6.1,6.1,0,0,0,440.2,12.7Z" style="fill:#2a7eb7"/><path d="M456,10.1a8.6,8.6,0,0,1-2.5,4.5,6.9,6.9,0,0,1-4.4,1.5,3.4,3.4,0,0,1-1.5-.2,3.1,3.1,0,0,1-1.3-.6l-1.8,2h-1.3l2.4-2.6a4.6,4.6,0,0,1-.8-1.9,6.4,6.4,0,0,1,.2-2.7,7.5,7.5,0,0,1,2.5-4.4,6.6,6.6,0,0,1,4.3-1.5,4.1,4.1,0,0,1,1.6.2l1.2.5,1.6-1.7h1.4l-2.3,2.4a4.1,4.1,0,0,1,.8,1.9A5.8,5.8,0,0,1,456,10.1Zm-2.7-3.8-.8-.4h-1a4.1,4.1,0,0,0-2.8,1.1,5.7,5.7,0,0,0-1.6,3.2,6.7,6.7,0,0,0-.3,1.8,5.1,5.1,0,0,0,.2,1.3Zm.6,3.8a11.1,11.1,0,0,0,.2-1.7,2.7,2.7,0,0,0-.2-1.3l-6.3,6.8.8.5h1.1a3.7,3.7,0,0,0,2.7-1.1A6.4,6.4,0,0,0,453.9,10.1Z" style="fill:#2a7eb7"/><path d="M465.5,6.5h-1.2a3.9,3.9,0,0,0-1.8.4,5.4,5.4,0,0,0-1.8,1l-1.8,8h-2.1l2.6-11.3h2.1l-.4,1.7a10.1,10.1,0,0,1,2.3-1.4l1.7-.3h.8Z" style="fill:#2a7eb7"/><path d="M481.5,15.8h-2l.2-1.1-.9.6-1,.4a1.7,1.7,0,0,1-1,.3h-1.1a3.4,3.4,0,0,1-1.8-.4,2.5,2.5,0,0,1-1.2-1.1,4.8,4.8,0,0,1-.5-1.8,8.3,8.3,0,0,1,.3-2.6,7.4,7.4,0,0,1,1-2.6,7,7,0,0,1,1.6-1.9,5.4,5.4,0,0,1,1.8-1.1,5.4,5.4,0,0,1,2.1-.5l1.6.2,1.3.6L483,0h2.1Zm-1.4-2.7,1.5-6.6L480.3,6H479A4.1,4.1,0,0,0,476.2,7a6.4,6.4,0,0,0-1.6,3.2,5.4,5.4,0,0,0,0,3.1c.3.7,1,1,2,1l1.7-.3Z" style="fill:#2a7eb7"/><path d="M489.8,16.1a5.4,5.4,0,0,1-4.2-1.5,4.9,4.9,0,0,1-.6-4.4,7.8,7.8,0,0,1,2.5-4.4A6.8,6.8,0,0,1,492,4.1a4,4,0,0,1,2,.4,3,3,0,0,1,1.3.9A2.9,2.9,0,0,1,496,7a6.5,6.5,0,0,1-.2,2.3l-.2,1H487a3.8,3.8,0,0,0,.4,3.1,3.4,3.4,0,0,0,2.8,1h1.4l1.2-.4,1.1-.4.7-.5h.1l-.4,2.1-1,.4-1,.3-1.2.2Zm4.1-7.2a7.1,7.1,0,0,0,.1-1.4,1.6,1.6,0,0,0-.3-.9,1.9,1.9,0,0,0-.8-.7l-1.3-.2a3.3,3.3,0,0,0-1.5.3,3.4,3.4,0,0,0-1.2.6,2.8,2.8,0,0,0-.9,1,3.1,3.1,0,0,0-.6,1.3Z" style="fill:#2a7eb7"/><path d="M500.1,16a3.3,3.3,0,0,1-2.4-.8,3.4,3.4,0,0,1-.3-2.9L498.8,6h-1.4l.3-1.5h1.4l.8-3.3H502l-.8,3.3H505L504.7,6h-3.8l-1.3,5.4a11.5,11.5,0,0,0-.2,1.4,1.4,1.4,0,0,0,0,.9l.5.5,1.1.2,1-.2.8-.2h.1l-.4,1.7-1.2.3Z" style="fill:#2a7eb7"/></svg>