<svg xmlns="http://www.w3.org/2000/svg" viewBox="0 0 575.7 481.4"><title>slide-illustration-03</title><path d="M493.7,145.1l59.3-1.9a22.9,22.9,0,0,0,22.7-23L558,87.6c-9.9-13.5-21.5-20.1-34.2-20h-.2c1-4.4,14.1-68.1-36.9-67.6C433.9.6,59,22.8,59,22.8c-11.9.4-40,2.8-46.2,24.4S8.2,77.6,8.2,77.6c.4,12.5,10.5,22.3,22.4,21.9l10-.3.2,21.3-19.4.2c-12,.2-21.6,10.5-21.4,23l15,66.6c.1,10.3,26.3,10.2,42.3,9.8l.2,15.7A25.2,25.2,0,0,0,60,246.1c-12.7.6-38.4,3.8-44.2,24.3s-4.6,30.4-4.6,30.4c.4,12.4,10.4,22.3,22.3,21.9l10-.3.3,19H38.4c-12,.1-26.4,55.8-9.8,80.6,12.6,18.7,22.4,21.2,31.7,21.2l.2,15.7c.1,12.5,10,22.5,21.9,22.4l459.1-6.1c11.9-.1,21.5-10.5,21.3-22.9l-.5-38.5c-.1-5.2-11.1-12.2-24.9-18.5a9.5,9.5,0,0,0,1.9-5l-6-23.7h.2c12.7-.1,28-11.7,27.9-24.1,0,0-21.9-51.8-34.6-51.7h-.2c.5-2.3,4.4-21.3.4-38.5l11.5-.2c11.9-.1,21.5-10.4,21.4-22.9l-.6-38.5c-.1-12.5-64-35.3-76.1-35.3a17,17,0,0,1-.1-2.2Z" style="fill:#fff"/><ellipse cx="388.5" cy="175.9" rx="37.6" ry="43.4" style="fill:none;stroke:#1a2a3d;stroke-linecap:round;stroke-miterlimit:10;stroke-width:5.01200902297695px"/><path d="M107.9,391.6s2.8-59.7,44.9-59.7,58.3,58.2,58.3,58.2" style="fill:none;stroke:#f26a21;stroke-linecap:round;stroke-miterlimit:10;stroke-width:5.01200902297695px"/><ellipse cx="152.8" cy="280.5" rx="34.5" ry="39.8" style="fill:none;stroke:#f26a21;stroke-linecap:round;stroke-miterlimit:10;stroke-width:5.01200902297695px"/><path d="M211.1,357.9s36.8,0,52.1-39.8" style="fill:none;stroke:#f26a21;stroke-linecap:round;stroke-miterlimit:10;stroke-width:5.01200902297695px"/><path d="M189.6,334.2s32.2,0,47.5-39.9" style="fill:none;stroke:#f26a21;stroke-linecap:round;stroke-miterlimit:10;stroke-width:5.01200902297695px"/><path d="M357.6,342.1s43.3-8,44-64.3" style="fill:none;stroke:#1a2a3d;stroke-linecap:round;stroke-miterlimit:10;stroke-width:5.01200902297695px"/><path d="M325,317.9s12.5.9,21.7-20.9-4.1-65.1,41.8-65.1,37.6,71,37.6,71" style="fill:none;stroke:#1a2a3d;stroke-linecap:round;stroke-miterlimit:10;stroke-width:5.01200902297695px"/><path d="M270.6,272.7l23.7,14.8s-28.3,44.4-48.9,41.9-34.9-1.4-39.9-11.8,2.7-13.5,5.7-12.9,27.2,4.6,36.2,2.4C254.3,305.5,270.6,272.7,270.6,272.7Z" style="fill:#fff;stroke:#1a2a3d;stroke-linecap:round;stroke-miterlimit:10;stroke-width:5.01200902297695px"/><polygon points="304.1 329.6 324.2 339.6 360.1 333.8 340.9 322.9 304.1 329.6" style="fill:none;stroke:#1a2a3d;stroke-linecap:round;stroke-linejoin:round;stroke-width:5.01200902297695px"/><path d="M307.6,160.6c.5,5.9-13.3,8.6-30.3,8.4s-29.6-2.4-30.1-8.4,11.4-10.2,28.4-11.6S307.1,154.6,307.6,160.6Z" style="fill:#fffcfa;stroke:#4f82be;stroke-linecap:round;stroke-miterlimit:10;stroke-width:5.01200902297695px"/><path d="M306.8,151.4c.5,6-13.2,8.6-30.3,8.4s-29.5-2.4-30-8.3,11.3-10.2,28.3-11.7S306.3,145.4,306.8,151.4Z" style="fill:#fffcfa;stroke:#4f82be;stroke-linecap:round;stroke-miterlimit:10;stroke-width:5.01200902297695px"/><line x1="288.8" y1="187.5" x2="279.5" y2="180.1" style="fill:none;stroke:#4f82be;stroke-linecap:round;stroke-miterlimit:10;stroke-width:3.38787482636452px"/><line x1="271.6" y1="189.2" x2="279.5" y2="180.1" style="fill:none;stroke:#4f82be;stroke-linecap:round;stroke-miterlimit:10;stroke-width:3.38787482636452px"/><path d="M315.7,316.2s-35.5-104.9-35.9-133.4" style="fill:none;stroke:#4f82be;stroke-linecap:round;stroke-miterlimit:10;stroke-width:3.38787482636452px"/></svg>