<svg xmlns="http://www.w3.org/2000/svg" xmlns:xlink="http://www.w3.org/1999/xlink" viewBox="0 0 700.6 1099.3"><defs><linearGradient id="a" x1="-20.56" y1="809.97" x2="159.61" y2="629.8" gradientTransform="translate(-275.4 101.8) rotate(-21.7)" gradientUnits="userSpaceOnUse"><stop offset="0" stop-color="#f24b86"/><stop offset="1" stop-color="#ff6912"/></linearGradient><linearGradient id="b" x1="-33.44" y1="790.56" x2="140.99" y2="616.12" xlink:href="#a"/><linearGradient id="c" x1="116.35" y1="934.57" x2="294.22" y2="756.7" xlink:href="#a"/><linearGradient id="d" x1="77.63" y1="886.81" x2="248.97" y2="715.47" xlink:href="#a"/><linearGradient id="e" x1="39.03" y1="861.09" x2="216.89" y2="683.22" xlink:href="#a"/><linearGradient id="f" x1="49.26" y1="871.01" x2="228.07" y2="692.2" xlink:href="#a"/><linearGradient id="g" x1="119.59" y1="1009.94" x2="722.01" y2="407.51" gradientTransform="translate(-80 47.2) rotate(-7.8)" gradientUnits="userSpaceOnUse"><stop offset="0" stop-color="#ff6912"/><stop offset="1" stop-color="#fa9f3e"/></linearGradient><linearGradient id="h" x1="105.36" y1="1108.51" x2="753.31" y2="460.56" xlink:href="#g"/><linearGradient id="i" x1="108.16" y1="1121.59" x2="773.83" y2="455.92" xlink:href="#g"/><linearGradient id="j" x1="294.77" y1="590.41" x2="744.32" y2="140.85" gradientTransform="translate(-113.6 72.6) rotate(-10.7)" gradientUnits="userSpaceOnUse"><stop offset="0" stop-color="#4f81bd"/><stop offset="1" stop-color="#a672d4"/></linearGradient><linearGradient id="k" x1="247.02" y1="542.89" x2="697.17" y2="92.74" xlink:href="#j"/></defs><title>sport-objects</title><path d="M127.8,641.9V646h0a123.4,123.4,0,0,1,45.7,238.1,121.7,121.7,0,0,1-45.6,8.8,123.5,123.5,0,0,1-.1-246.9v-4.1m0,0a127.6,127.6,0,0,0,.1,255.1A127.6,127.6,0,0,0,246.3,722.3a127.6,127.6,0,0,0-118.5-80.4Z" style="fill:#ff6912"/><path d="M93.7,684.8l35.7-29.1-20.1-12.3a127.7,127.7,0,0,0-55.3,22l-6.1,22.7Z" style="fill:url(#a)"/><path d="M36.4,775.5,19.8,732.7,1.9,748a127.5,127.5,0,0,0,3.8,59.3l19.7,12.8Z" style="fill:url(#b)"/><path d="M204.7,818.4,193,862.8l23.5-1.8a132,132,0,0,0,19-23.5l.2-.3a125.7,125.7,0,0,0,8.9-17.1,90.5,90.5,0,0,0,3.6-9.4l-8.3-22Z" style="fill:url(#c)"/><path d="M180.4,668.7l17.4,42.6,38.6,24.9,5.5-22.9a123.9,123.9,0,0,0-16.7-25.6,120.2,120.2,0,0,0-21.3-20.2Z" style="fill:url(#d)"/><polygon points="142.5 734.9 110.5 726.8 81.5 772.6 111 808 116.1 814.3 166.5 794.2 163 740.2 142.5 734.9" style="fill:url(#e)"/><path d="M105,858.1,89,859h0l-29.9,1.7,9,21.7h0l1.7.9,1.3.7,6,2.7h0c3,1.3,6.1,2.5,9.1,3.5a24.7,24.7,0,0,0,3.6,1.1l6.2,1.9c2.7.7,10.2,2.1,11.2,2.3l9.1,1.1,9.4.5h.1L144,882.3Z" style="fill:url(#f)"/><path d="M690.3,385.6c3.6-8.4,6.4-14.4,10-22.9,3.4-11.9-29.6-20.5-36.9-5.5l-7.2,17.6Z" style="fill:url(#g)"/><path d="M412.1,905.5c-13.2,21.5-24.5,36.6-32.9,42.7-44.3,32.1-86.9,53.1-139.9,66-38.4,9.3-83.4,10.5-119.6,27.5-14.6,8.2-14.2,29-6.2,42,12.1,20,35.5,15.8,56,13.9,49.5-4.5,100.6-21.8,146.1-41.1,63.6-27,104-75.4,135.6-132.8Z" style="fill:url(#h)"/><path d="M650,389.8c-39.5,95.8-157.7,377.7-229.6,501.7l38.4,17.8c3.1-6,6.1-12.1,9.1-18.3C532,756.8,589.7,619.3,648.6,482.7q17.7-41.1,35.3-82.2Z" style="fill:url(#i)"/><path d="M358.3,439.2s-59.6,125.4-61.6,129.4,33.8,17,37.6,10.2c1.4-2.5,57.6-126.2,57.6-126.2l-1.7-8.3-26.5-8.6Z" style="fill:url(#j)"/><path d="M613.4,36.6C594.6,12.8,552.7-2.7,536.4.4S479.3,15,447,64s-32.9,94.6-26.8,113c5,15.3,10.4,27.9,21.8,40.1a115,115,0,0,0,24.3,19.5L371.7,426.2l20.2,5.6L484,244c13.2,2.5,33.8,3,45.1.9,15.1-2.9,41.5-14.4,57.8-31.7s32.3-49,37.9-74.8S632.2,60.3,613.4,36.6Zm-139.6,205-1-1.2,1,.6,1.7.8ZM614.4,137c-5,23.1-19.3,52.6-33.8,68.2s-38.3,25.9-51.8,28.5-42.1-.3-49.9-4.6-19.5-10.4-29.7-21.3-13.9-22.4-18.4-36.2c-5.5-16.5-5.1-57.4,24-101.4s66.5-55.7,81.1-58.5S588.4,24,605.3,45.3,619.4,113.9,614.4,137Z" style="fill:url(#k)"/></svg>