<?xml version="1.0" encoding="utf-8"?>
<!-- Generator: Adobe Illustrator 23.0.1, SVG Export Plug-In . SVG Version: 6.00 Build 0)  -->
<svg version="1.1"
	 id="Lag_1" inkscape:version="0.91 r13725" sodipodi:docname="logo_SWANN.svg" xmlns:cc="http://creativecommons.org/ns#" xmlns:dc="http://purl.org/dc/elements/1.1/" xmlns:inkscape="http://www.inkscape.org/namespaces/inkscape" xmlns:rdf="http://www.w3.org/1999/02/22-rdf-syntax-ns#" xmlns:sodipodi="http://sodipodi.sourceforge.net/DTD/sodipodi-0.dtd" xmlns:svg="http://www.w3.org/2000/svg"
	 xmlns="http://www.w3.org/2000/svg" xmlns:xlink="http://www.w3.org/1999/xlink" x="0px" y="0px" viewBox="0 0 225 197.1"
	 style="enable-background:new 0 0 225 197.1;" xml:space="preserve">
<style type="text/css">
	.st0{fill:#FFFFFF;}
</style>
<sodipodi:namedview  bordercolor="#666666" borderopacity="1" fit-margin-bottom="0" fit-margin-left="0" fit-margin-right="0" fit-margin-top="0" gridtolerance="10" guidetolerance="10" id="namedview11" inkscape:current-layer="Lag_1" inkscape:cx="112.55" inkscape:cy="98.550003" inkscape:pageopacity="0" inkscape:pageshadow="2" inkscape:window-height="1017" inkscape:window-maximized="1" inkscape:window-width="1920" inkscape:window-x="1912" inkscape:window-y="-8" inkscape:zoom="0.99201348" objecttolerance="10" pagecolor="#ffffff" showgrid="false">
	</sodipodi:namedview>
<g id="g5" transform="translate(-6.4,-20.4)">
	<path id="path7" inkscape:connector-curvature="0" class="st0" d="M208.7,84.6c-14.8-14.7-34.2-22.8-55.1-22.8H75.7H49.8
		c16.5,14.8,25.9,35.9,25.9,58v19.9c0,21.5,8.7,40.9,22.8,55c14.1,14.1,33.6,22.8,55,22.8c21.5,0,40.9-8.7,55.1-22.8
		c14.1-14.1,22.8-33.6,22.8-55C231.5,118.8,223.4,99.3,208.7,84.6"/>
	<path id="path9" inkscape:connector-curvature="0" class="st0" d="M190.7,65c4.2,4.2,7.9,8.7,11.2,13.6
		c-9.2-33.6-39.8-58.2-76.3-58.2l0,0H80.3H6.4L25.1,38h21h0.5h79.1C150.2,38,173.4,47.6,190.7,65"/>
</g>
</svg>
