<svg xmlns="http://www.w3.org/2000/svg" xmlns:xlink="http://www.w3.org/1999/xlink" viewBox="0 0 146.9 26.5"><defs><linearGradient id="a" x1="322.41" y1="772.22" x2="323.41" y2="772.22" gradientTransform="matrix(24.53, 0, 0, -24.53, -7896.89, 18952.73)" gradientUnits="userSpaceOnUse"><stop offset="0" stop-color="#fff"/><stop offset="1"/></linearGradient><clipPath id="b" transform="translate(0 0)"><rect width="146.9" height="26.51" style="fill:none"/></clipPath><filter id="f" x="-3.85" y="-2.11" width="150.75" height="29.61" filterUnits="userSpaceOnUse" color-interpolation-filters="sRGB"><feFlood flood-color="#fff" result="bg"/><feBlend in="SourceGraphic" in2="bg"/></filter><mask id="e" x="-3.85" y="-2.11" width="150.75" height="29.61" maskUnits="userSpaceOnUse"><g style="filter:url(#f)"><g transform="translate(0 0)"><rect width="146.9" height="26.51" style="fill:url(#a)"/></g></g></mask><clipPath id="g" transform="translate(0 0)"><rect x="-3.8" y="-2.1" width="43.2" height="29.61" style="fill:none"/></clipPath></defs><title>swann-logo</title><g style="clip-path:url(#b)"><path d="M40.1,15.5c-1.4-.7-2-1-2.1-1.7s.4-1,1.2-1.1h2.9l-.7-2H39.1c-2.3.1-3.8,1.4-3.7,3.3s1.1,2.5,3.7,3.8,1.5.9,1.5,1.5-.4,1.1-1.4,1.2a7,7,0,0,1-3.5-.9l-.3,2a7.7,7.7,0,0,0,4.1.8c2.4-.1,3.8-1.5,3.7-3.4s-.9-2.4-3.1-3.5" transform="translate(0 0)" style="fill:#152737"/><path d="M56.8,16.8l-.6,2.4-.7-2.5-1.8-6H50.8l-1.6,5.8-.7,2.7-.8-2.8L46,10.7H43.3l3.5,10.5c.4,1,.9,1.2,1.6,1.2a1.6,1.6,0,0,0,1.8-1.3l1.5-5.4.6-2.2a16.6,16.6,0,0,0,.5,2.1l1.7,5.5a1.6,1.6,0,0,0,1.7,1.3,1.5,1.5,0,0,0,1.6-1.2l3.5-10.5H58.5Z" transform="translate(0 0)" style="fill:#152737"/><path d="M66.5,19.9c-1.3,0-2.2-1-2.2-2.8s1.4-4.3,3.6-4.3a4.7,4.7,0,0,1,1.6.2c0,.3.1.6.1.9v2c0,2.4-1.4,4-3.1,4m1.7-9.2c-4.1,0-6.6,2.4-6.6,6.4s1.7,5.3,4.3,5.3a4.6,4.6,0,0,0,3.8-1.9v1.6h2.2V15a17.7,17.7,0,0,0-.5-3.9,11.2,11.2,0,0,0-3.2-.4" transform="translate(0 0)" style="fill:#152737"/><path d="M92.1,10.7a4.8,4.8,0,0,0-3.7,1.9,5,5,0,0,0-.3-1.6H85.5a12,12,0,0,1,.5,3.6v7.6h2.6V17.4c0-3.2,1.7-4.3,2.9-4.3s1.7.5,1.7,2.2v6.9h2.7V15c0-2.8-1.6-4.3-3.8-4.3" transform="translate(0 0)" style="fill:#152737"/><path d="M80.2,10.7a4.7,4.7,0,0,0-3.7,1.9,4.6,4.6,0,0,0-.4-1.6H73.6a12,12,0,0,1,.5,3.6v7.6h2.6V17.4c0-3.2,1.6-4.3,2.8-4.3s1.8.5,1.8,2.2v6.9H84V15c0-2.8-1.7-4.3-3.8-4.3" transform="translate(0 0)" style="fill:#152737"/><path d="M102.1,15.9c-1.5-.7-2.2-1.2-2.3-2.1s.5-1.6,1.7-1.7h3.1V11h-3.3a2.8,2.8,0,0,0-2.8,3c.2,1.3,1.1,2.1,2.9,3s2.4,1.3,2.5,2.3a1.7,1.7,0,0,1-1.7,1.9,4.8,4.8,0,0,1-3-.9l-.4,1a4.4,4.4,0,0,0,3.4.9c2.1-.1,3.2-1.5,3-3.1s-1.3-2.4-3.1-3.2" transform="translate(0 0)" style="fill:#152737"/></g><polygon points="106.1 12.1 109.3 12.1 109.3 21.9 110.4 21.9 110.4 12.1 113.5 12.1 113.5 11 106.1 11 106.1 12.1" style="fill:#152737"/><g style="clip-path:url(#b)"><path d="M121.5,17.4c0,3.4-1.5,3.8-2.6,3.8s-2.8-.5-2.8-3.7V11H115v6.5c0,3.8,1.8,4.6,3.9,4.6s3.7-.8,3.7-4.6V11h-1.1Z" transform="translate(0 0)" style="fill:#152737"/></g><rect x="134.8" y="11" width="1.1" height="10.91" style="fill:#152737"/><g style="clip-path:url(#b)"><path d="M127.1,20.9h-1.2V12.2h.9c3.6,0,4.8,1.6,4.8,4.4s-1.5,4.4-4.5,4.4m-.7-9.8h-1.7V21.8h2.2c4.5,0,5.9-2.3,5.9-5.3s-1.5-5.5-6.4-5.5" transform="translate(0 0)" style="fill:#152737"/><path d="M142.4,21c-2.1,0-3.2-1.4-3.2-4.1s1.2-5,3.3-5,3.2,1.6,3.2,4.4-1.4,4.7-3.3,4.7m.1-10.2c-2.8,0-4.5,2.2-4.5,5.9s1.6,5.4,4.4,5.4,4.5-2,4.5-5.8-1.7-5.5-4.4-5.5" transform="translate(0 0)" style="fill:#152737"/><g style="mask:url(#e)"><g style="clip-path:url(#g)"><path d="M27.2,8.1a10.3,10.3,0,0,0-7.6-3.2H5.2a11.5,11.5,0,0,1,3.6,8h0v2.8a10.7,10.7,0,0,0,18.4,7.6,10.4,10.4,0,0,0,3.2-7.6,10.7,10.7,0,0,0-3.2-7.6" transform="translate(0 0)" style="fill:#2c4e69"/></g></g><path d="M3.2,2.4H17.6a11.2,11.2,0,0,1,7.7,3.2A13.7,13.7,0,0,1,27,7.9a9.9,9.9,0,0,0-2.8-4.7A10.3,10.3,0,0,0,16.6,0H0L2.6,2.4Z" transform="translate(0 0)" style="fill:#682221"/></g></svg>