<svg xmlns="http://www.w3.org/2000/svg" viewBox="0 0 207.6 42.1"><title>swann-logo-white</title><path d="M51.8,19.7c-2.1-1-2.9-1.5-3-2.5s.6-1.5,1.8-1.6h4.2l-1-2.9H50.4c-3.4.1-5.5,2-5.4,4.8s1.6,3.6,5.4,5.5c1.6.8,2.1,1.3,2.2,2.2S52,26.9,50.5,27a9.6,9.6,0,0,1-5.1-1.4l-.4,3a11.3,11.3,0,0,0,6,1.2c3.5-.2,5.5-2.2,5.4-5s-1.4-3.4-4.6-5.1" style="fill:#f5fafa"/><path d="M78.7,12.7l-2.5,8.9L75.3,25l-1-3.5-2.6-8.8H67.5l-2.4,8.5c-.2.5-1,3.8-1,3.8s-1-3.5-1.1-4l-2.5-8.3h-4L61.7,28A2.2,2.2,0,0,0,64,29.8a2.4,2.4,0,0,0,2.6-1.9L68.8,20c.4-1.4.8-3.3.8-3.3s.4,1.9.8,3.1l2.5,8.1a2.5,2.5,0,0,0,4.8.1l5.1-15.3Z" style="fill:#f5fafa"/><path d="M92.4,15.8a9.8,9.8,0,0,1,2.3.2,6.8,6.8,0,0,1,.2,1.4v2.9c0,3.5-2,5.9-4.5,5.9s-3.3-1.5-3.3-4.2,2.1-6.2,5.3-6.2m-2.9,14A6.7,6.7,0,0,0,95,27v2.4h3.3V19s-.2-4.3-.8-5.7a14.8,14.8,0,0,0-4.7-.6c-5.9,0-9.6,3.5-9.6,9.3s2.5,7.8,6.3,7.8" style="fill:#f5fafa"/><path d="M133.2,29.4V19c0-4-2.3-6.3-5.5-6.3a6.6,6.6,0,0,0-5.3,2.7,7.5,7.5,0,0,0-.6-2.2h-3.7a17.8,17.8,0,0,1,.8,5.2v11h3.7v-7c0-4.6,2.4-6.3,4.2-6.3s2.5.8,2.5,3.3v10Z" style="fill:#f5fafa"/><path d="M115.8,29.4V19c0-4-2.4-6.3-5.5-6.3a6.8,6.8,0,0,0-5.4,2.7,8,8,0,0,0-.5-2.2h-3.8a14.9,14.9,0,0,1,.8,5.2v11h3.8v-7c0-4.6,2.4-6.3,4.1-6.3s2.6.8,2.6,3.3v10Z" style="fill:#f5fafa"/><path d="M141.3,21.9c2.7,1.2,3.5,1.9,3.7,3.4a2.5,2.5,0,0,1-2.6,2.7,6.3,6.3,0,0,1-4.3-1.3l-.6,1.4a6.9,6.9,0,0,0,5,1.4c2.9-.2,4.6-2.1,4.3-4.5s-1.9-3.5-4.6-4.7-3.2-1.8-3.3-3a2.2,2.2,0,0,1,2.4-2.5,41.2,41.2,0,0,1,4.7-.1V13.2a37,37,0,0,0-4.9,0c-2.9.3-4.2,2.1-4,4.3s1.5,3.1,4.2,4.4" style="fill:#f5fafa"/><polygon points="148.1 14.7 152.7 14.7 152.7 29.1 154.4 29.1 154.4 14.7 158.9 14.7 158.9 13.1 148.1 13.1 148.1 14.7" style="fill:#f5fafa"/><path d="M170.6,22.5c0,4.9-2.3,5.4-3.9,5.4s-4-.5-4-5.3V13.1h-1.6v9.5c0,5.5,2.7,6.8,5.6,6.8s5.5-1.2,5.5-6.8V13.1h-1.6Z" style="fill:#f5fafa"/><rect x="190" y="13.2" width="1.6" height="15.92" style="fill:#f5fafa"/><path d="M178.7,27.6H177V14.8h1.4c5.1,0,6.9,2.4,6.9,6.5s-2.2,6.4-6.6,6.4m-1-14.4h-2.5V28.9a18.8,18.8,0,0,0,3.3.2c6.5,0,8.5-3.4,8.5-7.8s-2.1-8.1-9.3-8.1" style="fill:#f5fafa"/><path d="M201,27.8c-3,0-4.6-2.1-4.6-6s1.7-7.3,4.8-7.3,4.7,2.3,4.7,6.4-2,6.9-4.9,6.9m.2-14.9c-4.1,0-6.6,3.2-6.6,8.5s2.4,8,6.4,8,6.6-3,6.6-8.5-2.4-8-6.4-8" style="fill:#f5fafa"/><path d="M142.4,38.2q-.6-.3-.6-.6c0-.2.3-.4.6-.4a.6.6,0,0,1,.6.4c0,.3-.3.5-.6.6m-.1,2.6c-.5,0-.7-.2-.7-.5a.4.4,0,0,1,.1-.3l.5-.3.6.3.2.3c0,.3-.3.5-.7.5m2.2-3.3a1.3,1.3,0,0,0-.6-1.1,2.6,2.6,0,0,0-1.4-.4,2.5,2.5,0,0,0-1.6.5,1.2,1.2,0,0,0-.5,1.2,1.3,1.3,0,0,0,.7,1.2,1.7,1.7,0,0,0-1,1.6,1.4,1.4,0,0,0,.6,1.2,3,3,0,0,0,1.5.4,2.5,2.5,0,0,0,1.6-.5,1.4,1.4,0,0,0,.6-1.2,1.6,1.6,0,0,0-.9-1.5c.6-.4,1-.8,1-1.4" style="fill:#7999a3"/><path d="M137.3,38.6c-.3-.1-.5-.2-.5-.6a.5.5,0,0,1,.6-.6c.4,0,.5.2.6.5s-.3.7-.7.7m.2-2.5a2.5,2.5,0,0,0-1.6.5,2.1,2.1,0,0,0-.7,1.5,1.7,1.7,0,0,0,.5,1.2,1.6,1.6,0,0,0,1.3.6h.3a12.2,12.2,0,0,1-1.2,1.9l-.2.3h1.8a8,8,0,0,0,1.8-4,1.7,1.7,0,0,0-.5-1.3,2,2,0,0,0-1.5-.5" style="fill:#7999a3"/><path d="M133.3,36.2l-1.4,1.1h0l.6.9h.1a.8.8,0,0,0,.4-.4l-.2,4.1h1.4l.4-5.8h-1.3Z" style="fill:#7999a3"/><path d="M149.3,37.6a1.3,1.3,0,0,0-.5-1.1,1.7,1.7,0,0,0-1.3-.4,2.4,2.4,0,0,0-2,.7h0l.5,1h.1a1.5,1.5,0,0,1,1.1-.6c.4,0,.6.2.6.5s-.1.3-.3.4a1.3,1.3,0,0,1-.8.2h-.6v1.3h.5c.8,0,1.1.3,1.1.6a.7.7,0,0,1-.7.7,1.3,1.3,0,0,1-1.2-.7h-.2l-.7.8h.1a2.3,2.3,0,0,0,2.1,1,2.5,2.5,0,0,0,1.6-.5,1.6,1.6,0,0,0,.6-1.3,1.3,1.3,0,0,0-.8-1.3,1.7,1.7,0,0,0,.8-1.4" style="fill:#7999a3"/><path d="M107,37.7a4.5,4.5,0,0,1,1.6.3l.2-1.2a7.5,7.5,0,0,0-1.9-.3c-1.4,0-2.2.6-2.2,1.6s.6,1.3,1.8,1.9.6.3.6.5-.3.4-.6.4a5.1,5.1,0,0,1-2-.6v1.3a5.6,5.6,0,0,0,2.1.4c1.3,0,2.2-.7,2.2-1.7s-.4-1.2-1.6-1.7-.8-.4-.8-.6.2-.3.6-.3" style="fill:#7999a3"/><polygon points="110 36.7 109.7 41.8 111.3 41.8 111.6 36.7 110 36.7" style="fill:#7999a3"/><path d="M110.9,34.2a.9.9,0,1,0,.9.9.9.9,0,0,0-.9-.9" style="fill:#7999a3"/><path d="M125.6,38.8h-.3a1.1,1.1,0,0,1,1-1c.3,0,.5.1.5.4s-.5.6-1.2.6m.9-2.3a3,3,0,0,0-3,3.1,2.3,2.3,0,0,0,2.4,2.4,4.5,4.5,0,0,0,1.9-.5V40.3a4.1,4.1,0,0,1-1.7.5c-.6,0-.9-.4-1-1h.4c1.7,0,2.8-.8,2.8-1.9s-.7-1.5-1.8-1.5" style="fill:#7999a3"/><path d="M121.4,37.9a2.1,2.1,0,0,1,1.1.4l.3-1.4a3.9,3.9,0,0,0-1.5-.4,2.7,2.7,0,0,0-2.8,3,2.3,2.3,0,0,0,2.4,2.4,3.5,3.5,0,0,0,1.7-.4V40.2a2.2,2.2,0,0,1-1.3.4,1.1,1.1,0,0,1-1.2-1.2,1.3,1.3,0,0,1,1.3-1.5" style="fill:#7999a3"/><path d="M116.1,36.5a2.6,2.6,0,0,0-1.6.7l-.2-.5h-1.6a4.1,4.1,0,0,1,.2,1.4l-.2,3.7h1.6l.2-2.9a1,1,0,0,1,.9-1.1.6.6,0,0,1,.6.8l-.2,3.2h1.6l.2-3.5a1.5,1.5,0,0,0-1.5-1.8" style="fill:#7999a3"/><path d="M98.9,37.7a4.2,4.2,0,0,1,1.5.4l.2-1.2a4.2,4.2,0,0,0-1.8-.3c-1.5,0-2.3.6-2.3,1.6s.6,1.3,1.8,1.9.6.3.6.5-.2.4-.6.4a5.6,5.6,0,0,1-2-.6v1.3a6,6,0,0,0,2.1.4c1.3,0,2.2-.7,2.2-1.7s-.4-1.2-1.6-1.7-.7-.4-.7-.6.2-.4.6-.4" style="fill:#7999a3"/><path d="M68.7,40.7c-.7,0-1-.5-1-1.2s.4-1.5,1.1-1.5,1,.5,1,1.2-.4,1.5-1.1,1.5m.2-4.1A2.7,2.7,0,0,0,66,39.5a2.5,2.5,0,0,0,2.6,2.6,2.6,2.6,0,0,0,2.8-2.9,2.3,2.3,0,0,0-2.5-2.6" style="fill:#7999a3"/><path d="M64.5,34.3a.9.9,0,1,0,.9.9.9.9,0,0,0-.9-.9" style="fill:#7999a3"/><path d="M93.6,38.9l2.8-2.1H94.2l-2,1.6.3-4.5H90.9l-.5,8H92V39.4l.7,1.2.9,1.3h2c-.6-.7-.9-1.2-1.2-1.6Z" style="fill:#7999a3"/><path d="M86.8,40.7c-.7,0-1-.5-1-1.2s.4-1.5,1.1-1.5,1,.5,1,1.2-.4,1.5-1.1,1.5m.2-4.1a2.7,2.7,0,0,0-2.9,2.9,2.5,2.5,0,0,0,2.6,2.6,2.7,2.7,0,0,0,2.9-2.9A2.4,2.4,0,0,0,87,36.6" style="fill:#7999a3"/><path d="M74.6,40.6a.8.8,0,0,1-.7-.2v-1c.1-1.1.8-1.4,1.2-1.4s.8.5.8,1.1a1.3,1.3,0,0,1-1.3,1.5m1-4a1.9,1.9,0,0,0-1.5.6l.2-3.4H72.8l-.5,7.7a5.1,5.1,0,0,0,2.2.5,3,3,0,0,0,3-3.3,1.9,1.9,0,0,0-1.9-2.1" style="fill:#7999a3"/><path d="M80.8,40.7a1.1,1.1,0,0,1-1.1-1.2c0-1,.5-1.5,1.2-1.5s1,.5,1,1.2-.5,1.5-1.1,1.5m.2-4.1a2.7,2.7,0,0,0-2.9,2.9,2.4,2.4,0,0,0,2.5,2.6,2.6,2.6,0,0,0,2.9-2.9A2.3,2.3,0,0,0,81,36.6" style="fill:#7999a3"/><path d="M48.3,39.1c0,.9-.5,1.5-1.2,1.5s-.7-.3-.7-.9A1.5,1.5,0,0,1,47.8,38h.6ZM50,36.9a5.7,5.7,0,0,0-1.8-.3c-2.2,0-3.4,1.2-3.4,3.2s.7,2.2,1.9,2.2a2.1,2.1,0,0,0,1.7-.8,2.4,2.4,0,0,0,.1.7h1.4a4.6,4.6,0,0,1-.1-1.6Z" style="fill:#7999a3"/><path d="M60.5,38.9a1.8,1.8,0,0,1-.2,1.1,1.1,1.1,0,0,1-1,.6c-.5,0-.8-.3-.8-.9A1.5,1.5,0,0,1,59.9,38h.7Zm1.9-5.1H60.8l-.2,3-.9-.2a2.9,2.9,0,0,0-2.8,3.1A2.1,2.1,0,0,0,59,42a2.2,2.2,0,0,0,1.7-.7v.6h1.4a4.8,4.8,0,0,1-.1-1.8Z" style="fill:#7999a3"/><path d="M56,36.8H54.6l-.2,2.5c-.1,1.1-.6,1.4-1.2,1.4s-.7-.2-.7-.8a13.4,13.4,0,0,0,.1-3.1H51.1a18.6,18.6,0,0,1-.1,3.6c0,1,.7,1.6,1.9,1.6a1.8,1.8,0,0,0,1.6-.8,2.4,2.4,0,0,0,.1.7h1.3a5.8,5.8,0,0,1-.1-1.7Z" style="fill:#7999a3"/><polygon points="63.6 36.8 63.3 41.9 64.8 41.9 65.2 36.8 63.6 36.8" style="fill:#7999a3"/><path d="M24.9,6.2H6.6a13.8,13.8,0,0,1,4.5,10.3V20A14,14,0,0,0,24.9,33.8a13.5,13.5,0,0,0,9.7-4.1A13.7,13.7,0,0,0,38.7,20a13.5,13.5,0,0,0-4-9.7,14,14,0,0,0-9.8-4.1" style="fill:#f5fafa"/><path d="M19,3.1h3.4a13.8,13.8,0,0,1,9.8,4A14.8,14.8,0,0,1,34.4,10a13.6,13.6,0,0,0-3.5-6,13.8,13.8,0,0,0-9.8-4H0L3.3,3.1H19Z" style="fill:#f5fafa"/></svg>