<svg xmlns="http://www.w3.org/2000/svg" viewBox="0 0 352.2 65.8"><title>swan-logo-full</title><path d="M73.8,25.9c-3.7-1.9-5.3-2.7-5.4-4.5s1.1-2.7,3.2-2.8h7.6l-1.9-5.3h-6c-6.1.3-9.9,3.6-9.7,8.6s2.8,6.5,9.7,9.9c2.9,1.3,3.7,2.3,3.8,3.9s-1,3.1-3.6,3.2a18,18,0,0,1-9.2-2.5l-.7,5.4a20.3,20.3,0,0,0,10.8,2.1c6.3-.4,9.8-3.9,9.5-9s-2.4-6.1-8.1-9" style="fill:#fff"/><path d="M121.8,13.3l-4.5,16-1.5,6.1L114,29.1l-4.7-15.8h-7.4L97.5,28.5c-.3.9-1.8,6.9-1.8,6.9s-1.7-6.4-2-7.3L89.4,13.3H82.2l9.2,27.4c.9,2.6,2.4,3.1,4.1,3.1s4-.7,4.6-3.2l4.1-14.3c.6-2.4,1.3-5.8,1.3-5.8s.8,3.3,1.5,5.6l4.5,14.5a4,4,0,0,0,4.3,3.2c2.2,0,3.4-.7,4.2-3.1l9.2-27.4Z" style="fill:#fff"/><path d="M146.2,18.9a16.1,16.1,0,0,1,4.2.4c.1.7.3,1.6.5,2.5v5c0,6.4-3.7,10.6-8.1,10.6s-5.9-2.6-5.9-7.5c0-6.9,3.7-11,9.3-11m-5.1,24.9a11.7,11.7,0,0,0,9.8-4.9c.1,1.1,0,4.2,0,4.2h5.9V24.6s-.3-7.7-1.3-10.2a27,27,0,0,0-8.4-1.1c-10.6,0-17.3,6.3-17.3,16.7s4.6,13.8,11.3,13.8" style="fill:#fff"/><path d="M219.3,43.2V24.5c0-7.1-4.3-11.2-9.9-11.2-3.5,0-6.7,1.5-9.6,4.9a11.6,11.6,0,0,0-1-4.1h-6.6a31.1,31.1,0,0,1,1.4,9.4V43.2h6.7V30.7c0-8.2,4.3-11.2,7.4-11.2s4.6,1.4,4.6,5.9V43.2Z" style="fill:#fff"/><path d="M188.1,43.2V24.5c0-7.1-4.2-11.2-9.8-11.2-3.6,0-6.8,1.5-9.6,4.9a14.3,14.3,0,0,0-1-4.1H161a31.1,31.1,0,0,1,1.4,9.4V43.2h6.8V30.7c0-8.2,4.3-11.2,7.4-11.2s4.5,1.4,4.5,5.9V43.2Z" style="fill:#fff"/><path d="M233.7,29.7c4.9,2.3,6.3,3.5,6.5,6.1s-1.6,4.6-4.6,4.9a11.7,11.7,0,0,1-7.7-2.4l-1,2.6a12.6,12.6,0,0,0,8.9,2.5c5.2-.5,8.2-3.9,7.8-8.1s-3.6-6.2-8.3-8.4-5.7-3.2-5.9-5.4,1.3-4.2,4.3-4.4a82.8,82.8,0,0,1,8.4-.1V14.2a78.2,78.2,0,0,0-8.7,0c-5.4.5-7.6,3.7-7.3,7.7s2.7,5.6,7.6,7.8" style="fill:#fff"/><polygon points="245.8 16.9 254.1 16.9 254.1 42.6 257 42.6 257 16.9 265.2 16.9 265.2 14.1 245.8 14.1 245.8 16.9" style="fill:#fff"/><path d="M286,30.8c0,8.8-4,9.8-6.9,9.8s-7.1-1.1-7.1-9.5v-17h-3v17c0,9.8,4.8,12,10.1,12s9.8-2.1,9.8-12.1V14.1H286Z" style="fill:#fff"/><rect x="320.7" y="14.1" width="2.8" height="28.43" style="fill:#fff"/><path d="M300.6,39.9h-3.2V17.2l2.5-.2c9.2,0,12.3,4.2,12.3,11.6s-3.9,11.3-11.6,11.3m-1.9-25.6h-4.4V42.3a39.5,39.5,0,0,0,5.9.3c11.5,0,15.1-6,15.1-14s-3.7-14.3-16.6-14.3" style="fill:#fff"/><path d="M340.4,40.3c-5.4,0-8.3-3.8-8.3-10.7,0-8.9,3-13.1,8.5-13.1S349,20.6,349,28c0,9-3.6,12.3-8.6,12.3m.2-26.6c-7.3,0-11.7,5.6-11.7,15.2s4.3,14.2,11.5,14.2,11.8-5.2,11.8-15.1-4.4-14.3-11.6-14.3" style="fill:#fff"/><path d="M235.6,58.9c-.7-.4-1-.7-1-1a.9.9,0,0,1,1-.8c.7,0,1,.3,1,.7s-.4.8-1,1.1m-.2,4.7q-1.2,0-1.2-.9a.7.7,0,0,1,.3-.6c.1-.2.4-.3.8-.5a2.9,2.9,0,0,1,1,.6c.2.2.3.3.3.5s-.4.9-1.2.9m3.9-6a2.2,2.2,0,0,0-.9-1.9,4.9,4.9,0,0,0-2.5-.7,4.8,4.8,0,0,0-2.9.8,2.4,2.4,0,0,0-1,2.1,2.5,2.5,0,0,0,1.4,2.3,2.7,2.7,0,0,0-1.9,2.7,2.6,2.6,0,0,0,1,2.2,4.9,4.9,0,0,0,2.8.7,5,5,0,0,0,2.9-.8,2.7,2.7,0,0,0,1.1-2.2,2.9,2.9,0,0,0-1.7-2.7,2.7,2.7,0,0,0,1.7-2.5" style="fill:#fff"/><path d="M226.5,59.5a.8.8,0,0,1-.9-.9q0-1.1,1.2-1.2c.6.1.9.3.9.9a1.1,1.1,0,0,1-1.2,1.2m.4-4.4a3.9,3.9,0,0,0-2.9,1,3.5,3.5,0,0,0-1.1,2.6,2.9,2.9,0,0,0,.8,2.2,3,3,0,0,0,2.4,1h.4a38.7,38.7,0,0,1-2.1,3.4l-.3.4h3.2c1.9-2.6,3.1-5.3,3.1-7.2a3,3,0,0,0-.9-2.3,3.6,3.6,0,0,0-2.6-.9" style="fill:#fff"/><path d="M219.3,55.2l-2.4,2.1h-.2v.2l1.1,1.7.2-.2.8-.7-.5,7.2h2.7l.6-10.4h-2.4Z" style="fill:#fff"/><path d="M248,57.8a2.5,2.5,0,0,0-.9-2,3.5,3.5,0,0,0-2.3-.7,4.6,4.6,0,0,0-3.7,1.4h0l.9,1.8.2-.2a3.1,3.1,0,0,1,2-1c.7,0,1,.3,1,.8a.8.8,0,0,1-.4.8,2.8,2.8,0,0,1-1.5.3h-1v2.3h.9c1.4,0,1.9.5,1.9,1.2s-.5,1-1.3,1a2.8,2.8,0,0,1-2.2-1.1v-.2l-.2.2L240.1,64h.1a4.2,4.2,0,0,0,3.8,1.7,5,5,0,0,0,2.9-.8,3,3,0,0,0,1-2.4,2.5,2.5,0,0,0-1.4-2.4,2.5,2.5,0,0,0,1.5-2.4" style="fill:#fff"/><path d="M172.5,57.9a6.4,6.4,0,0,1,2.8.7l.3-2.1a7.5,7.5,0,0,0-3.4-.7c-2.5,0-3.9,1.1-3.9,2.9s1,2.4,3.2,3.4,1,.6,1,1-.4.6-1.1.6a10.4,10.4,0,0,1-3.5-1V65a9,9,0,0,0,3.7.7c2.4,0,3.9-1.2,3.9-3s-.7-2.1-2.7-3.1-1.5-.6-1.5-1.1.4-.6,1.2-.6" style="fill:#fff"/><polygon points="177.7 56.2 177.2 65.4 180 65.4 180.6 56.2 177.7 56.2" style="fill:#fff"/><path d="M179.4,51.8a1.6,1.6,0,1,0,1.7,1.6,1.7,1.7,0,0,0-1.7-1.6" style="fill:#fff"/><path d="M205.6,60h-.5a2.1,2.1,0,0,1,1.7-1.8c.6,0,.9.3.9.8s-.8,1.1-2.1,1.1m1.6-4.1a5.3,5.3,0,0,0-5.3,5.5c0,2.7,1.7,4.2,4.3,4.2a6.4,6.4,0,0,0,3.3-.8V62.6a5.7,5.7,0,0,1-2.9.9,1.6,1.6,0,0,1-1.8-1.7h.6c3,0,5.1-1.4,5.1-3.3s-1.3-2.7-3.3-2.7" style="fill:#fff"/><path d="M198.1,58.4a3.6,3.6,0,0,1,1.9.6l.6-2.3a4.7,4.7,0,0,0-2.6-.8c-3.3,0-5.1,2.3-5.1,5.3a4.1,4.1,0,0,0,4.4,4.4,5.6,5.6,0,0,0,3-.8V62.4a3.2,3.2,0,0,1-2.2.7,1.9,1.9,0,0,1-2.2-2.1,2.3,2.3,0,0,1,2.3-2.6" style="fill:#fff"/><path d="M188.6,55.9a4.1,4.1,0,0,0-2.9,1.3c-.1-.5-.1-.6-.2-1h-2.9a7.4,7.4,0,0,1,.3,2.4l-.4,6.8h2.9l.3-5.2c.1-1.2.8-2,1.6-2a1.2,1.2,0,0,1,1.2,1.5l-.4,5.7H191l.4-6.3a2.8,2.8,0,0,0-2.8-3.2" style="fill:#fff"/><path d="M157.9,58.1a7.9,7.9,0,0,1,2.8.6l.3-2.1a8.8,8.8,0,0,0-3.3-.6c-2.6,0-4,1-4,2.9s1,2.3,3.2,3.4,1,.5,1,.9-.4.7-1.1.7a8,8,0,0,1-3.4-1.1v2.3a9.2,9.2,0,0,0,3.8.7c2.3,0,3.8-1.2,3.8-3s-.6-2.1-2.7-3-1.4-.7-1.4-1.1.3-.6,1.1-.6" style="fill:#fff"/><path d="M103.9,63.3c-1.1,0-1.8-.9-1.8-2.2s.8-2.6,2.1-2.6,1.8.9,1.8,2.2-.9,2.6-2.1,2.6m.4-7.3c-3.1,0-5.1,1.9-5.1,5.2a4.3,4.3,0,0,0,4.5,4.6c3.4,0,5.2-1.9,5.2-5.2a4.3,4.3,0,0,0-4.6-4.6" style="fill:#fff"/><path d="M96.5,51.9a1.6,1.6,0,1,0,0,3.2,1.6,1.6,0,0,0,0-3.2" style="fill:#fff"/><path d="M148.5,60.1l5-3.8h-4.1l-3.5,3,.5-8.1h-2.7l-1,14.3h2.8l.3-4.5,1.2,2.2,1.6,2.3h3.7a24.5,24.5,0,0,1-2.2-2.9Z" style="fill:#fff"/><path d="M136.3,63.3c-1.2,0-1.8-.9-1.8-2.2s.8-2.6,2-2.6,1.8.9,1.8,2.2-.8,2.6-2,2.6m.4-7.3c-3.2,0-5.2,1.9-5.2,5.2a4.4,4.4,0,0,0,4.6,4.6c3.3,0,5.1-1.9,5.1-5.2a4.3,4.3,0,0,0-4.5-4.6" style="fill:#fff"/><path d="M114.4,63.2a1.9,1.9,0,0,1-1.2-.3V61.1c.2-2,1.3-2.6,2.1-2.6s1.4.9,1.4,2a2.4,2.4,0,0,1-2.4,2.7m1.8-7.1a3.4,3.4,0,0,0-2.6,1l.4-6h-2.7l-.9,13.8a9.7,9.7,0,0,0,3.9.8c3.2,0,5.4-2.4,5.4-5.9a3.4,3.4,0,0,0-3.5-3.7" style="fill:#fff"/><path d="M125.5,63.3c-1.1,0-1.8-.9-1.8-2.2s.8-2.6,2.1-2.6,1.8.9,1.8,2.2-.9,2.6-2.1,2.6m.4-7.3a4.8,4.8,0,0,0-5.2,5.2,4.4,4.4,0,0,0,4.6,4.6c3.3,0,5.2-1.9,5.2-5.2a4.3,4.3,0,0,0-4.6-4.6" style="fill:#fff"/><path d="M67.6,60.6c-.1,1.5-1,2.6-2.2,2.6s-1.3-.6-1.3-1.6,1-3,2.5-3a2.6,2.6,0,0,1,1.1.2Zm2.9-4a8.4,8.4,0,0,0-3.1-.5c-4,0-6.2,2.1-6.2,5.7s1.3,3.9,3.5,3.9a3.7,3.7,0,0,0,3-1.4,6.8,6.8,0,0,0,.1,1.2h2.5a15.2,15.2,0,0,1-.2-2.8Z" style="fill:#fff"/><path d="M89.4,60.2a9,9,0,0,1-.4,1.9,1.8,1.8,0,0,1-1.8,1.1c-.9,0-1.5-.6-1.5-1.7s1.1-3,2.5-3a2.7,2.7,0,0,1,1.2.3Zm3.2-9.1H89.9l-.4,5.3a5.1,5.1,0,0,0-1.7-.3,5.3,5.3,0,0,0-5,5.5c0,2.6,1.5,4.2,3.9,4.2a3.5,3.5,0,0,0,2.9-1.4,8,8,0,0,0,.1,1.1h2.4a14.2,14.2,0,0,1-.2-3.2Z" style="fill:#fff"/><path d="M81.3,56.3H78.7l-.3,4.6c-.1,2-1,2.5-2.1,2.5S75,63,75,62a28.8,28.8,0,0,0,.2-5.7H72.6a36.8,36.8,0,0,1-.2,6.4c0,2,1.3,3,3.3,3a3.6,3.6,0,0,0,3-1.4,6.8,6.8,0,0,0,.1,1.2H81a17.3,17.3,0,0,1-.1-3Z" style="fill:#fff"/><polygon points="94.8 56.3 94.3 65.5 97.1 65.5 97.6 56.3 94.8 56.3" style="fill:#fff"/><path d="M34.6,8.6H9.1a19.3,19.3,0,0,1,6.4,14.3v4.9A19.1,19.1,0,0,0,34.6,46.9a19.3,19.3,0,0,0,13.5-5.6,19.2,19.2,0,0,0,0-27.1A19.4,19.4,0,0,0,34.6,8.6" style="fill:#fff"/><path d="M26.4,4.3h4.8a18.8,18.8,0,0,1,16.5,9.6,18.4,18.4,0,0,0-4.8-8.3A19.4,19.4,0,0,0,29.3,0H0L4.5,4.3H26.4Z" style="fill:#fff"/></svg>