<?xml version="1.0" standalone="no"?>
<!DOCTYPE svg PUBLIC "-//W3C//DTD SVG 20010904//EN"
 "http://www.w3.org/TR/2001/REC-SVG-20010904/DTD/svg10.dtd">
<svg version="1.0" xmlns="http://www.w3.org/2000/svg"
 width="700.000000pt" height="700.000000pt" viewBox="0 0 700.000000 700.000000"
 preserveAspectRatio="xMidYMid meet">
<metadata>
Created by potrace 1.11, written by Peter Selinger 2001-2013
</metadata>
<g transform="translate(0.000000,700.000000) scale(0.100000,-0.100000)"
fill="#000000" stroke="none">
<path d="M84 6299 c-2 -4 16 -24 40 -45 24 -22 103 -95 176 -164 73 -69 152
-142 174 -164 23 -21 60 -57 84 -79 l43 -42 1497 -1 c1300 -1 1669 -5 1692
-19 3 -2 34 -6 70 -10 36 -4 68 -9 71 -11 4 -2 24 -6 45 -10 22 -3 82 -16 134
-29 449 -113 866 -350 1190 -675 99 -99 224 -244 279 -324 18 -25 36 -46 40
-46 18 0 -77 249 -151 395 -247 494 -693 891 -1221 1089 -89 33 -289 90 -355
100 -34 6 -115 19 -122 21 -3 1 -52 5 -110 10 -119 10 -3570 14 -3576 4z"/>
<path d="M1320 5122 c0 -3 45 -52 101 -109 208 -217 379 -488 484 -767 37
-101 98 -331 110 -419 3 -27 8 -57 10 -67 11 -59 18 -246 21 -625 2 -236 6
-443 8 -460 2 -16 7 -43 9 -60 3 -16 8 -47 11 -67 3 -21 10 -57 15 -80 6 -24
13 -58 16 -76 10 -58 91 -294 131 -382 77 -171 175 -330 292 -477 310 -388
736 -659 1217 -773 138 -33 151 -35 330 -56 59 -6 299 -6 370 1 387 38 741
163 1045 367 556 375 910 971 976 1643 8 78 7 351 -1 405 -2 19 -7 58 -10 85
-5 43 -11 78 -29 170 -67 330 -251 707 -471 965 -71 83 -327 330 -342 330 -3
0 -22 13 -42 29 -51 41 -212 139 -308 189 -155 80 -440 177 -583 198 -19 3
-42 7 -50 9 -14 4 -36 7 -150 22 -46 6 -3160 11 -3160 5z"/>
</g>
</svg>
