<svg xmlns="http://www.w3.org/2000/svg" viewBox="0 0 350.4 119.3"><title>line-upload</title><path d="M.7,22.7c10.7-5.9,67.5-35.6,92-15,19,16,17,31,27,62,9.3,29,26,46,75,49s139.1-44.5,155-55" style="fill:none;stroke:#555;stroke-linecap:square;stroke-miterlimit:10;stroke-dasharray:0.10000000149011612,5.800000190734863"/><path d="M163.3,68.8a4.7,4.7,0,0,1,1.7.3,3.1,3.1,0,0,1,1.4.7,4,4,0,0,1,1,1.2,4.7,4.7,0,0,1,.3,1.7,5.9,5.9,0,0,1-.2,1.4l-.7,1.1a3.1,3.1,0,0,1-.9.7l-1.3.5a4.6,4.6,0,0,1,2.6,1.3,3.7,3.7,0,0,1,.9,2.5,3.4,3.4,0,0,1-.4,1.8,4.5,4.5,0,0,1-1,1.4,5.1,5.1,0,0,1-1.6.9,4.5,4.5,0,0,1-2,.4,6.7,6.7,0,0,1-2.2-.4,3.8,3.8,0,0,1-1.5-.9,5.7,5.7,0,0,1-.8-1.3,8.4,8.4,0,0,1-.6-1.4l.5-.2h.4c.1.1.2.1.2.2V81l.2.4.3.6a2.6,2.6,0,0,0,1.2,1.2,2.5,2.5,0,0,0,.9.4l1.3.2a4.3,4.3,0,0,0,1.7-.3,6,6,0,0,0,1.3-.9,4.1,4.1,0,0,0,.7-1.1,3,3,0,0,0,.3-1.2,3.2,3.2,0,0,0-.3-1.4,2.3,2.3,0,0,0-.7-1,3.1,3.1,0,0,0-1.4-.7,6.6,6.6,0,0,0-2.1-.3v-.7l1.7-.3a3.2,3.2,0,0,0,1.3-.7,2.5,2.5,0,0,0,.8-1,2.8,2.8,0,0,0,.3-1.3,2.9,2.9,0,0,0-.3-1.4,2.6,2.6,0,0,0-.7-1,2.4,2.4,0,0,0-1.1-.6l-1.3-.2-1.3.2-1.1.6a3.9,3.9,0,0,0-.8,1,4.3,4.3,0,0,0-.5,1.2.4.4,0,0,1-.4.4h-.7a4.8,4.8,0,0,1,.6-1.8,6.4,6.4,0,0,1,1-1.3,3.6,3.6,0,0,1,1.5-.8A4.7,4.7,0,0,1,163.3,68.8Z" style="fill:#1e96dd"/><path d="M173.8,73.6h1.1a.3.3,0,0,1,.1.2l2.7,8.6c.1.1.1.3.2.4a.9.9,0,0,0,.1.5.9.9,0,0,1,.1-.5c0-.1.1-.3.1-.4l3-8.7a.3.3,0,0,1,.3-.3h.4a.3.3,0,0,1,.3.3l2.9,8.7.3.9v-.5c.1-.1.1-.3.2-.4l2.7-8.6c.1-.2.2-.3.4-.3h.8l-3.7,10.9h-.7l-.3-.2-3-8.9a.4.4,0,0,0-.1-.3.8.8,0,0,0-.1-.4v.4c0,.1-.1.2-.1.3l-3,8.9-.3.2h-.7Z" style="fill:#1e96dd"/><path d="M195.6,73.4a4.7,4.7,0,0,1,1.7.3,4.5,4.5,0,0,1,1.4,1,3.8,3.8,0,0,1,.9,1.5,5.6,5.6,0,0,1,.3,2c0,.2,0,.3-.1.3h-8.1v.2A7.3,7.3,0,0,0,192,81a5.3,5.3,0,0,0,.8,1.5,3.1,3.1,0,0,0,1.3,1,4.3,4.3,0,0,0,1.7.3l1.4-.2,1-.4.7-.4.3-.2h.2l.3.4-.7.6-1,.5-1.1.3h-1.2a4.9,4.9,0,0,1-2.1-.4,3.3,3.3,0,0,1-1.5-1.1,4,4,0,0,1-1-1.8,6.6,6.6,0,0,1-.4-2.5,6.6,6.6,0,0,1,.3-2.1,5.2,5.2,0,0,1,1-1.8,5.8,5.8,0,0,1,1.5-1.1A4.6,4.6,0,0,1,195.6,73.4Zm0,.8a4,4,0,0,0-1.5.3,2.6,2.6,0,0,0-1.1.7,2.5,2.5,0,0,0-.8,1.2,4.2,4.2,0,0,0-.4,1.5H199a3.7,3.7,0,0,0-.3-1.5,2.4,2.4,0,0,0-.7-1.2,3.9,3.9,0,0,0-1-.8Z" style="fill:#1e96dd"/><path d="M206.8,73.4a4.7,4.7,0,0,1,1.7.3,4.5,4.5,0,0,1,1.4,1,3.8,3.8,0,0,1,.9,1.5,5.6,5.6,0,0,1,.3,2c0,.2,0,.3-.1.3h-8.1v.2a7.3,7.3,0,0,0,.3,2.2,5.3,5.3,0,0,0,.8,1.5,3.1,3.1,0,0,0,1.3,1,4.3,4.3,0,0,0,1.7.3l1.4-.2,1-.4.7-.4.3-.2h.2l.3.4-.7.6-1,.5-1.1.3h-1.2a4.9,4.9,0,0,1-2.1-.4,3.3,3.3,0,0,1-1.5-1.1,5.4,5.4,0,0,1-1.1-1.8,9.5,9.5,0,0,1-.3-2.5,6.6,6.6,0,0,1,.3-2.1,5.2,5.2,0,0,1,1-1.8,5.8,5.8,0,0,1,1.5-1.1A4.6,4.6,0,0,1,206.8,73.4Zm0,.8a4,4,0,0,0-1.5.3,2.6,2.6,0,0,0-1.1.7,2.5,2.5,0,0,0-.8,1.2,4.2,4.2,0,0,0-.4,1.5h7.2a3.7,3.7,0,0,0-.3-1.5,3.5,3.5,0,0,0-.7-1.2,3.9,3.9,0,0,0-1-.8Z" style="fill:#1e96dd"/><path d="M215,68.5v9.8h.8l.3-.2,4.4-4.1.3-.2c0-.1.2-.1.3-.1h.9l-4.8,4.6c-.1,0-.1.1-.2.2h-.2l.3.2.2.3,5.1,5.5h-1.2l-.3-.2-4.5-4.9-.4-.2h-1v5.5h-1v-16Z" style="fill:#1e96dd"/><path d="M230.7,74.9c-.1.1-.1.2-.3.2h-.3l-.5-.3-.7-.4h-1.2l-1,.2-.9.4a1.8,1.8,0,0,0-.5.7,1.9,1.9,0,0,0-.2.8,1.1,1.1,0,0,0,.3.8,1.1,1.1,0,0,0,.7.6,2.5,2.5,0,0,0,.9.4l1.1.4,1.2.4.9.5a2.7,2.7,0,0,1,.7.8,2,2,0,0,1,.3,1.1,2.8,2.8,0,0,1-.3,1.3,4.1,4.1,0,0,1-.7,1.1,3.5,3.5,0,0,1-1.2.7,4.1,4.1,0,0,1-1.6.3,5.4,5.4,0,0,1-2-.4,4,4,0,0,1-1.5-1l.2-.3.2-.2h.1l.4.2.5.3.9.4,1.2.2,1.2-.2a1.9,1.9,0,0,0,.9-.5,2.2,2.2,0,0,0,.5-.8,2.9,2.9,0,0,0,.2-.9,1.2,1.2,0,0,0-.3-.9,1.2,1.2,0,0,0-.6-.6l-1-.5-1.1-.3-1.2-.4-.9-.5a2.7,2.7,0,0,1-.7-.8,2,2,0,0,1-.3-1.1,2.7,2.7,0,0,1,.3-1.2,2.8,2.8,0,0,1,.7-.9,2.4,2.4,0,0,1,1.1-.6,4,4,0,0,1,1.5-.3,4.8,4.8,0,0,1,1.8.3,4.2,4.2,0,0,1,1.4.9Z" style="fill:#1e96dd"/></svg>